G04 #@! TF.GenerationSoftware,KiCad,Pcbnew,5.1.5+dfsg1-2build2*
G04 #@! TF.CreationDate,2022-06-18T16:31:26+03:00*
G04 #@! TF.ProjectId,pico-panel,7069636f-2d70-4616-9e65-6c2e6b696361,rev?*
G04 #@! TF.SameCoordinates,Original*
G04 #@! TF.FileFunction,Paste,Top*
G04 #@! TF.FilePolarity,Positive*
%FSLAX46Y46*%
G04 Gerber Fmt 4.6, Leading zero omitted, Abs format (unit mm)*
G04 Created by KiCad (PCBNEW 5.1.5+dfsg1-2build2) date 2022-06-18 16:31:26*
%MOMM*%
%LPD*%
G04 APERTURE LIST*
%ADD10C,0.150000*%
G04 APERTURE END LIST*
D10*
G36*
X70701507Y-36147204D02*
G01*
X70725775Y-36150804D01*
X70749574Y-36156765D01*
X70772673Y-36165030D01*
X70794852Y-36175520D01*
X70815895Y-36188132D01*
X70835601Y-36202747D01*
X70853779Y-36219223D01*
X70870255Y-36237401D01*
X70884870Y-36257107D01*
X70897482Y-36278150D01*
X70907972Y-36300329D01*
X70916237Y-36323428D01*
X70922198Y-36347227D01*
X70925798Y-36371495D01*
X70927002Y-36395999D01*
X70927002Y-37296001D01*
X70925798Y-37320505D01*
X70922198Y-37344773D01*
X70916237Y-37368572D01*
X70907972Y-37391671D01*
X70897482Y-37413850D01*
X70884870Y-37434893D01*
X70870255Y-37454599D01*
X70853779Y-37472777D01*
X70835601Y-37489253D01*
X70815895Y-37503868D01*
X70794852Y-37516480D01*
X70772673Y-37526970D01*
X70749574Y-37535235D01*
X70725775Y-37541196D01*
X70701507Y-37544796D01*
X70677003Y-37546000D01*
X70027001Y-37546000D01*
X70002497Y-37544796D01*
X69978229Y-37541196D01*
X69954430Y-37535235D01*
X69931331Y-37526970D01*
X69909152Y-37516480D01*
X69888109Y-37503868D01*
X69868403Y-37489253D01*
X69850225Y-37472777D01*
X69833749Y-37454599D01*
X69819134Y-37434893D01*
X69806522Y-37413850D01*
X69796032Y-37391671D01*
X69787767Y-37368572D01*
X69781806Y-37344773D01*
X69778206Y-37320505D01*
X69777002Y-37296001D01*
X69777002Y-36395999D01*
X69778206Y-36371495D01*
X69781806Y-36347227D01*
X69787767Y-36323428D01*
X69796032Y-36300329D01*
X69806522Y-36278150D01*
X69819134Y-36257107D01*
X69833749Y-36237401D01*
X69850225Y-36219223D01*
X69868403Y-36202747D01*
X69888109Y-36188132D01*
X69909152Y-36175520D01*
X69931331Y-36165030D01*
X69954430Y-36156765D01*
X69978229Y-36150804D01*
X70002497Y-36147204D01*
X70027001Y-36146000D01*
X70677003Y-36146000D01*
X70701507Y-36147204D01*
G37*
G36*
X72751507Y-36147204D02*
G01*
X72775775Y-36150804D01*
X72799574Y-36156765D01*
X72822673Y-36165030D01*
X72844852Y-36175520D01*
X72865895Y-36188132D01*
X72885601Y-36202747D01*
X72903779Y-36219223D01*
X72920255Y-36237401D01*
X72934870Y-36257107D01*
X72947482Y-36278150D01*
X72957972Y-36300329D01*
X72966237Y-36323428D01*
X72972198Y-36347227D01*
X72975798Y-36371495D01*
X72977002Y-36395999D01*
X72977002Y-37296001D01*
X72975798Y-37320505D01*
X72972198Y-37344773D01*
X72966237Y-37368572D01*
X72957972Y-37391671D01*
X72947482Y-37413850D01*
X72934870Y-37434893D01*
X72920255Y-37454599D01*
X72903779Y-37472777D01*
X72885601Y-37489253D01*
X72865895Y-37503868D01*
X72844852Y-37516480D01*
X72822673Y-37526970D01*
X72799574Y-37535235D01*
X72775775Y-37541196D01*
X72751507Y-37544796D01*
X72727003Y-37546000D01*
X72077001Y-37546000D01*
X72052497Y-37544796D01*
X72028229Y-37541196D01*
X72004430Y-37535235D01*
X71981331Y-37526970D01*
X71959152Y-37516480D01*
X71938109Y-37503868D01*
X71918403Y-37489253D01*
X71900225Y-37472777D01*
X71883749Y-37454599D01*
X71869134Y-37434893D01*
X71856522Y-37413850D01*
X71846032Y-37391671D01*
X71837767Y-37368572D01*
X71831806Y-37344773D01*
X71828206Y-37320505D01*
X71827002Y-37296001D01*
X71827002Y-36395999D01*
X71828206Y-36371495D01*
X71831806Y-36347227D01*
X71837767Y-36323428D01*
X71846032Y-36300329D01*
X71856522Y-36278150D01*
X71869134Y-36257107D01*
X71883749Y-36237401D01*
X71900225Y-36219223D01*
X71918403Y-36202747D01*
X71938109Y-36188132D01*
X71959152Y-36175520D01*
X71981331Y-36165030D01*
X72004430Y-36156765D01*
X72028229Y-36150804D01*
X72052497Y-36147204D01*
X72077001Y-36146000D01*
X72727003Y-36146000D01*
X72751507Y-36147204D01*
G37*
G36*
X105771507Y-62055204D02*
G01*
X105795775Y-62058804D01*
X105819574Y-62064765D01*
X105842673Y-62073030D01*
X105864852Y-62083520D01*
X105885895Y-62096132D01*
X105905601Y-62110747D01*
X105923779Y-62127223D01*
X105940255Y-62145401D01*
X105954870Y-62165107D01*
X105967482Y-62186150D01*
X105977972Y-62208329D01*
X105986237Y-62231428D01*
X105992198Y-62255227D01*
X105995798Y-62279495D01*
X105997002Y-62303999D01*
X105997002Y-63204001D01*
X105995798Y-63228505D01*
X105992198Y-63252773D01*
X105986237Y-63276572D01*
X105977972Y-63299671D01*
X105967482Y-63321850D01*
X105954870Y-63342893D01*
X105940255Y-63362599D01*
X105923779Y-63380777D01*
X105905601Y-63397253D01*
X105885895Y-63411868D01*
X105864852Y-63424480D01*
X105842673Y-63434970D01*
X105819574Y-63443235D01*
X105795775Y-63449196D01*
X105771507Y-63452796D01*
X105747003Y-63454000D01*
X105097001Y-63454000D01*
X105072497Y-63452796D01*
X105048229Y-63449196D01*
X105024430Y-63443235D01*
X105001331Y-63434970D01*
X104979152Y-63424480D01*
X104958109Y-63411868D01*
X104938403Y-63397253D01*
X104920225Y-63380777D01*
X104903749Y-63362599D01*
X104889134Y-63342893D01*
X104876522Y-63321850D01*
X104866032Y-63299671D01*
X104857767Y-63276572D01*
X104851806Y-63252773D01*
X104848206Y-63228505D01*
X104847002Y-63204001D01*
X104847002Y-62303999D01*
X104848206Y-62279495D01*
X104851806Y-62255227D01*
X104857767Y-62231428D01*
X104866032Y-62208329D01*
X104876522Y-62186150D01*
X104889134Y-62165107D01*
X104903749Y-62145401D01*
X104920225Y-62127223D01*
X104938403Y-62110747D01*
X104958109Y-62096132D01*
X104979152Y-62083520D01*
X105001331Y-62073030D01*
X105024430Y-62064765D01*
X105048229Y-62058804D01*
X105072497Y-62055204D01*
X105097001Y-62054000D01*
X105747003Y-62054000D01*
X105771507Y-62055204D01*
G37*
G36*
X103721507Y-62055204D02*
G01*
X103745775Y-62058804D01*
X103769574Y-62064765D01*
X103792673Y-62073030D01*
X103814852Y-62083520D01*
X103835895Y-62096132D01*
X103855601Y-62110747D01*
X103873779Y-62127223D01*
X103890255Y-62145401D01*
X103904870Y-62165107D01*
X103917482Y-62186150D01*
X103927972Y-62208329D01*
X103936237Y-62231428D01*
X103942198Y-62255227D01*
X103945798Y-62279495D01*
X103947002Y-62303999D01*
X103947002Y-63204001D01*
X103945798Y-63228505D01*
X103942198Y-63252773D01*
X103936237Y-63276572D01*
X103927972Y-63299671D01*
X103917482Y-63321850D01*
X103904870Y-63342893D01*
X103890255Y-63362599D01*
X103873779Y-63380777D01*
X103855601Y-63397253D01*
X103835895Y-63411868D01*
X103814852Y-63424480D01*
X103792673Y-63434970D01*
X103769574Y-63443235D01*
X103745775Y-63449196D01*
X103721507Y-63452796D01*
X103697003Y-63454000D01*
X103047001Y-63454000D01*
X103022497Y-63452796D01*
X102998229Y-63449196D01*
X102974430Y-63443235D01*
X102951331Y-63434970D01*
X102929152Y-63424480D01*
X102908109Y-63411868D01*
X102888403Y-63397253D01*
X102870225Y-63380777D01*
X102853749Y-63362599D01*
X102839134Y-63342893D01*
X102826522Y-63321850D01*
X102816032Y-63299671D01*
X102807767Y-63276572D01*
X102801806Y-63252773D01*
X102798206Y-63228505D01*
X102797002Y-63204001D01*
X102797002Y-62303999D01*
X102798206Y-62279495D01*
X102801806Y-62255227D01*
X102807767Y-62231428D01*
X102816032Y-62208329D01*
X102826522Y-62186150D01*
X102839134Y-62165107D01*
X102853749Y-62145401D01*
X102870225Y-62127223D01*
X102888403Y-62110747D01*
X102908109Y-62096132D01*
X102929152Y-62083520D01*
X102951331Y-62073030D01*
X102974430Y-62064765D01*
X102998229Y-62058804D01*
X103022497Y-62055204D01*
X103047001Y-62054000D01*
X103697003Y-62054000D01*
X103721507Y-62055204D01*
G37*
G36*
X109318507Y-59515204D02*
G01*
X109342775Y-59518804D01*
X109366574Y-59524765D01*
X109389673Y-59533030D01*
X109411852Y-59543520D01*
X109432895Y-59556132D01*
X109452601Y-59570747D01*
X109470779Y-59587223D01*
X109487255Y-59605401D01*
X109501870Y-59625107D01*
X109514482Y-59646150D01*
X109524972Y-59668329D01*
X109533237Y-59691428D01*
X109539198Y-59715227D01*
X109542798Y-59739495D01*
X109544002Y-59763999D01*
X109544002Y-60664001D01*
X109542798Y-60688505D01*
X109539198Y-60712773D01*
X109533237Y-60736572D01*
X109524972Y-60759671D01*
X109514482Y-60781850D01*
X109501870Y-60802893D01*
X109487255Y-60822599D01*
X109470779Y-60840777D01*
X109452601Y-60857253D01*
X109432895Y-60871868D01*
X109411852Y-60884480D01*
X109389673Y-60894970D01*
X109366574Y-60903235D01*
X109342775Y-60909196D01*
X109318507Y-60912796D01*
X109294003Y-60914000D01*
X108644001Y-60914000D01*
X108619497Y-60912796D01*
X108595229Y-60909196D01*
X108571430Y-60903235D01*
X108548331Y-60894970D01*
X108526152Y-60884480D01*
X108505109Y-60871868D01*
X108485403Y-60857253D01*
X108467225Y-60840777D01*
X108450749Y-60822599D01*
X108436134Y-60802893D01*
X108423522Y-60781850D01*
X108413032Y-60759671D01*
X108404767Y-60736572D01*
X108398806Y-60712773D01*
X108395206Y-60688505D01*
X108394002Y-60664001D01*
X108394002Y-59763999D01*
X108395206Y-59739495D01*
X108398806Y-59715227D01*
X108404767Y-59691428D01*
X108413032Y-59668329D01*
X108423522Y-59646150D01*
X108436134Y-59625107D01*
X108450749Y-59605401D01*
X108467225Y-59587223D01*
X108485403Y-59570747D01*
X108505109Y-59556132D01*
X108526152Y-59543520D01*
X108548331Y-59533030D01*
X108571430Y-59524765D01*
X108595229Y-59518804D01*
X108619497Y-59515204D01*
X108644001Y-59514000D01*
X109294003Y-59514000D01*
X109318507Y-59515204D01*
G37*
G36*
X107268507Y-59515204D02*
G01*
X107292775Y-59518804D01*
X107316574Y-59524765D01*
X107339673Y-59533030D01*
X107361852Y-59543520D01*
X107382895Y-59556132D01*
X107402601Y-59570747D01*
X107420779Y-59587223D01*
X107437255Y-59605401D01*
X107451870Y-59625107D01*
X107464482Y-59646150D01*
X107474972Y-59668329D01*
X107483237Y-59691428D01*
X107489198Y-59715227D01*
X107492798Y-59739495D01*
X107494002Y-59763999D01*
X107494002Y-60664001D01*
X107492798Y-60688505D01*
X107489198Y-60712773D01*
X107483237Y-60736572D01*
X107474972Y-60759671D01*
X107464482Y-60781850D01*
X107451870Y-60802893D01*
X107437255Y-60822599D01*
X107420779Y-60840777D01*
X107402601Y-60857253D01*
X107382895Y-60871868D01*
X107361852Y-60884480D01*
X107339673Y-60894970D01*
X107316574Y-60903235D01*
X107292775Y-60909196D01*
X107268507Y-60912796D01*
X107244003Y-60914000D01*
X106594001Y-60914000D01*
X106569497Y-60912796D01*
X106545229Y-60909196D01*
X106521430Y-60903235D01*
X106498331Y-60894970D01*
X106476152Y-60884480D01*
X106455109Y-60871868D01*
X106435403Y-60857253D01*
X106417225Y-60840777D01*
X106400749Y-60822599D01*
X106386134Y-60802893D01*
X106373522Y-60781850D01*
X106363032Y-60759671D01*
X106354767Y-60736572D01*
X106348806Y-60712773D01*
X106345206Y-60688505D01*
X106344002Y-60664001D01*
X106344002Y-59763999D01*
X106345206Y-59739495D01*
X106348806Y-59715227D01*
X106354767Y-59691428D01*
X106363032Y-59668329D01*
X106373522Y-59646150D01*
X106386134Y-59625107D01*
X106400749Y-59605401D01*
X106417225Y-59587223D01*
X106435403Y-59570747D01*
X106455109Y-59556132D01*
X106476152Y-59543520D01*
X106498331Y-59533030D01*
X106521430Y-59524765D01*
X106545229Y-59518804D01*
X106569497Y-59515204D01*
X106594001Y-59514000D01*
X107244003Y-59514000D01*
X107268507Y-59515204D01*
G37*
G36*
X105771507Y-56467204D02*
G01*
X105795775Y-56470804D01*
X105819574Y-56476765D01*
X105842673Y-56485030D01*
X105864852Y-56495520D01*
X105885895Y-56508132D01*
X105905601Y-56522747D01*
X105923779Y-56539223D01*
X105940255Y-56557401D01*
X105954870Y-56577107D01*
X105967482Y-56598150D01*
X105977972Y-56620329D01*
X105986237Y-56643428D01*
X105992198Y-56667227D01*
X105995798Y-56691495D01*
X105997002Y-56715999D01*
X105997002Y-57616001D01*
X105995798Y-57640505D01*
X105992198Y-57664773D01*
X105986237Y-57688572D01*
X105977972Y-57711671D01*
X105967482Y-57733850D01*
X105954870Y-57754893D01*
X105940255Y-57774599D01*
X105923779Y-57792777D01*
X105905601Y-57809253D01*
X105885895Y-57823868D01*
X105864852Y-57836480D01*
X105842673Y-57846970D01*
X105819574Y-57855235D01*
X105795775Y-57861196D01*
X105771507Y-57864796D01*
X105747003Y-57866000D01*
X105097001Y-57866000D01*
X105072497Y-57864796D01*
X105048229Y-57861196D01*
X105024430Y-57855235D01*
X105001331Y-57846970D01*
X104979152Y-57836480D01*
X104958109Y-57823868D01*
X104938403Y-57809253D01*
X104920225Y-57792777D01*
X104903749Y-57774599D01*
X104889134Y-57754893D01*
X104876522Y-57733850D01*
X104866032Y-57711671D01*
X104857767Y-57688572D01*
X104851806Y-57664773D01*
X104848206Y-57640505D01*
X104847002Y-57616001D01*
X104847002Y-56715999D01*
X104848206Y-56691495D01*
X104851806Y-56667227D01*
X104857767Y-56643428D01*
X104866032Y-56620329D01*
X104876522Y-56598150D01*
X104889134Y-56577107D01*
X104903749Y-56557401D01*
X104920225Y-56539223D01*
X104938403Y-56522747D01*
X104958109Y-56508132D01*
X104979152Y-56495520D01*
X105001331Y-56485030D01*
X105024430Y-56476765D01*
X105048229Y-56470804D01*
X105072497Y-56467204D01*
X105097001Y-56466000D01*
X105747003Y-56466000D01*
X105771507Y-56467204D01*
G37*
G36*
X103721507Y-56467204D02*
G01*
X103745775Y-56470804D01*
X103769574Y-56476765D01*
X103792673Y-56485030D01*
X103814852Y-56495520D01*
X103835895Y-56508132D01*
X103855601Y-56522747D01*
X103873779Y-56539223D01*
X103890255Y-56557401D01*
X103904870Y-56577107D01*
X103917482Y-56598150D01*
X103927972Y-56620329D01*
X103936237Y-56643428D01*
X103942198Y-56667227D01*
X103945798Y-56691495D01*
X103947002Y-56715999D01*
X103947002Y-57616001D01*
X103945798Y-57640505D01*
X103942198Y-57664773D01*
X103936237Y-57688572D01*
X103927972Y-57711671D01*
X103917482Y-57733850D01*
X103904870Y-57754893D01*
X103890255Y-57774599D01*
X103873779Y-57792777D01*
X103855601Y-57809253D01*
X103835895Y-57823868D01*
X103814852Y-57836480D01*
X103792673Y-57846970D01*
X103769574Y-57855235D01*
X103745775Y-57861196D01*
X103721507Y-57864796D01*
X103697003Y-57866000D01*
X103047001Y-57866000D01*
X103022497Y-57864796D01*
X102998229Y-57861196D01*
X102974430Y-57855235D01*
X102951331Y-57846970D01*
X102929152Y-57836480D01*
X102908109Y-57823868D01*
X102888403Y-57809253D01*
X102870225Y-57792777D01*
X102853749Y-57774599D01*
X102839134Y-57754893D01*
X102826522Y-57733850D01*
X102816032Y-57711671D01*
X102807767Y-57688572D01*
X102801806Y-57664773D01*
X102798206Y-57640505D01*
X102797002Y-57616001D01*
X102797002Y-56715999D01*
X102798206Y-56691495D01*
X102801806Y-56667227D01*
X102807767Y-56643428D01*
X102816032Y-56620329D01*
X102826522Y-56598150D01*
X102839134Y-56577107D01*
X102853749Y-56557401D01*
X102870225Y-56539223D01*
X102888403Y-56522747D01*
X102908109Y-56508132D01*
X102929152Y-56495520D01*
X102951331Y-56485030D01*
X102974430Y-56476765D01*
X102998229Y-56470804D01*
X103022497Y-56467204D01*
X103047001Y-56466000D01*
X103697003Y-56466000D01*
X103721507Y-56467204D01*
G37*
G36*
X109309507Y-53927204D02*
G01*
X109333775Y-53930804D01*
X109357574Y-53936765D01*
X109380673Y-53945030D01*
X109402852Y-53955520D01*
X109423895Y-53968132D01*
X109443601Y-53982747D01*
X109461779Y-53999223D01*
X109478255Y-54017401D01*
X109492870Y-54037107D01*
X109505482Y-54058150D01*
X109515972Y-54080329D01*
X109524237Y-54103428D01*
X109530198Y-54127227D01*
X109533798Y-54151495D01*
X109535002Y-54175999D01*
X109535002Y-55076001D01*
X109533798Y-55100505D01*
X109530198Y-55124773D01*
X109524237Y-55148572D01*
X109515972Y-55171671D01*
X109505482Y-55193850D01*
X109492870Y-55214893D01*
X109478255Y-55234599D01*
X109461779Y-55252777D01*
X109443601Y-55269253D01*
X109423895Y-55283868D01*
X109402852Y-55296480D01*
X109380673Y-55306970D01*
X109357574Y-55315235D01*
X109333775Y-55321196D01*
X109309507Y-55324796D01*
X109285003Y-55326000D01*
X108635001Y-55326000D01*
X108610497Y-55324796D01*
X108586229Y-55321196D01*
X108562430Y-55315235D01*
X108539331Y-55306970D01*
X108517152Y-55296480D01*
X108496109Y-55283868D01*
X108476403Y-55269253D01*
X108458225Y-55252777D01*
X108441749Y-55234599D01*
X108427134Y-55214893D01*
X108414522Y-55193850D01*
X108404032Y-55171671D01*
X108395767Y-55148572D01*
X108389806Y-55124773D01*
X108386206Y-55100505D01*
X108385002Y-55076001D01*
X108385002Y-54175999D01*
X108386206Y-54151495D01*
X108389806Y-54127227D01*
X108395767Y-54103428D01*
X108404032Y-54080329D01*
X108414522Y-54058150D01*
X108427134Y-54037107D01*
X108441749Y-54017401D01*
X108458225Y-53999223D01*
X108476403Y-53982747D01*
X108496109Y-53968132D01*
X108517152Y-53955520D01*
X108539331Y-53945030D01*
X108562430Y-53936765D01*
X108586229Y-53930804D01*
X108610497Y-53927204D01*
X108635001Y-53926000D01*
X109285003Y-53926000D01*
X109309507Y-53927204D01*
G37*
G36*
X107259507Y-53927204D02*
G01*
X107283775Y-53930804D01*
X107307574Y-53936765D01*
X107330673Y-53945030D01*
X107352852Y-53955520D01*
X107373895Y-53968132D01*
X107393601Y-53982747D01*
X107411779Y-53999223D01*
X107428255Y-54017401D01*
X107442870Y-54037107D01*
X107455482Y-54058150D01*
X107465972Y-54080329D01*
X107474237Y-54103428D01*
X107480198Y-54127227D01*
X107483798Y-54151495D01*
X107485002Y-54175999D01*
X107485002Y-55076001D01*
X107483798Y-55100505D01*
X107480198Y-55124773D01*
X107474237Y-55148572D01*
X107465972Y-55171671D01*
X107455482Y-55193850D01*
X107442870Y-55214893D01*
X107428255Y-55234599D01*
X107411779Y-55252777D01*
X107393601Y-55269253D01*
X107373895Y-55283868D01*
X107352852Y-55296480D01*
X107330673Y-55306970D01*
X107307574Y-55315235D01*
X107283775Y-55321196D01*
X107259507Y-55324796D01*
X107235003Y-55326000D01*
X106585001Y-55326000D01*
X106560497Y-55324796D01*
X106536229Y-55321196D01*
X106512430Y-55315235D01*
X106489331Y-55306970D01*
X106467152Y-55296480D01*
X106446109Y-55283868D01*
X106426403Y-55269253D01*
X106408225Y-55252777D01*
X106391749Y-55234599D01*
X106377134Y-55214893D01*
X106364522Y-55193850D01*
X106354032Y-55171671D01*
X106345767Y-55148572D01*
X106339806Y-55124773D01*
X106336206Y-55100505D01*
X106335002Y-55076001D01*
X106335002Y-54175999D01*
X106336206Y-54151495D01*
X106339806Y-54127227D01*
X106345767Y-54103428D01*
X106354032Y-54080329D01*
X106364522Y-54058150D01*
X106377134Y-54037107D01*
X106391749Y-54017401D01*
X106408225Y-53999223D01*
X106426403Y-53982747D01*
X106446109Y-53968132D01*
X106467152Y-53955520D01*
X106489331Y-53945030D01*
X106512430Y-53936765D01*
X106536229Y-53930804D01*
X106560497Y-53927204D01*
X106585001Y-53926000D01*
X107235003Y-53926000D01*
X107259507Y-53927204D01*
G37*
G36*
X105753507Y-51387204D02*
G01*
X105777775Y-51390804D01*
X105801574Y-51396765D01*
X105824673Y-51405030D01*
X105846852Y-51415520D01*
X105867895Y-51428132D01*
X105887601Y-51442747D01*
X105905779Y-51459223D01*
X105922255Y-51477401D01*
X105936870Y-51497107D01*
X105949482Y-51518150D01*
X105959972Y-51540329D01*
X105968237Y-51563428D01*
X105974198Y-51587227D01*
X105977798Y-51611495D01*
X105979002Y-51635999D01*
X105979002Y-52536001D01*
X105977798Y-52560505D01*
X105974198Y-52584773D01*
X105968237Y-52608572D01*
X105959972Y-52631671D01*
X105949482Y-52653850D01*
X105936870Y-52674893D01*
X105922255Y-52694599D01*
X105905779Y-52712777D01*
X105887601Y-52729253D01*
X105867895Y-52743868D01*
X105846852Y-52756480D01*
X105824673Y-52766970D01*
X105801574Y-52775235D01*
X105777775Y-52781196D01*
X105753507Y-52784796D01*
X105729003Y-52786000D01*
X105079001Y-52786000D01*
X105054497Y-52784796D01*
X105030229Y-52781196D01*
X105006430Y-52775235D01*
X104983331Y-52766970D01*
X104961152Y-52756480D01*
X104940109Y-52743868D01*
X104920403Y-52729253D01*
X104902225Y-52712777D01*
X104885749Y-52694599D01*
X104871134Y-52674893D01*
X104858522Y-52653850D01*
X104848032Y-52631671D01*
X104839767Y-52608572D01*
X104833806Y-52584773D01*
X104830206Y-52560505D01*
X104829002Y-52536001D01*
X104829002Y-51635999D01*
X104830206Y-51611495D01*
X104833806Y-51587227D01*
X104839767Y-51563428D01*
X104848032Y-51540329D01*
X104858522Y-51518150D01*
X104871134Y-51497107D01*
X104885749Y-51477401D01*
X104902225Y-51459223D01*
X104920403Y-51442747D01*
X104940109Y-51428132D01*
X104961152Y-51415520D01*
X104983331Y-51405030D01*
X105006430Y-51396765D01*
X105030229Y-51390804D01*
X105054497Y-51387204D01*
X105079001Y-51386000D01*
X105729003Y-51386000D01*
X105753507Y-51387204D01*
G37*
G36*
X103703507Y-51387204D02*
G01*
X103727775Y-51390804D01*
X103751574Y-51396765D01*
X103774673Y-51405030D01*
X103796852Y-51415520D01*
X103817895Y-51428132D01*
X103837601Y-51442747D01*
X103855779Y-51459223D01*
X103872255Y-51477401D01*
X103886870Y-51497107D01*
X103899482Y-51518150D01*
X103909972Y-51540329D01*
X103918237Y-51563428D01*
X103924198Y-51587227D01*
X103927798Y-51611495D01*
X103929002Y-51635999D01*
X103929002Y-52536001D01*
X103927798Y-52560505D01*
X103924198Y-52584773D01*
X103918237Y-52608572D01*
X103909972Y-52631671D01*
X103899482Y-52653850D01*
X103886870Y-52674893D01*
X103872255Y-52694599D01*
X103855779Y-52712777D01*
X103837601Y-52729253D01*
X103817895Y-52743868D01*
X103796852Y-52756480D01*
X103774673Y-52766970D01*
X103751574Y-52775235D01*
X103727775Y-52781196D01*
X103703507Y-52784796D01*
X103679003Y-52786000D01*
X103029001Y-52786000D01*
X103004497Y-52784796D01*
X102980229Y-52781196D01*
X102956430Y-52775235D01*
X102933331Y-52766970D01*
X102911152Y-52756480D01*
X102890109Y-52743868D01*
X102870403Y-52729253D01*
X102852225Y-52712777D01*
X102835749Y-52694599D01*
X102821134Y-52674893D01*
X102808522Y-52653850D01*
X102798032Y-52631671D01*
X102789767Y-52608572D01*
X102783806Y-52584773D01*
X102780206Y-52560505D01*
X102779002Y-52536001D01*
X102779002Y-51635999D01*
X102780206Y-51611495D01*
X102783806Y-51587227D01*
X102789767Y-51563428D01*
X102798032Y-51540329D01*
X102808522Y-51518150D01*
X102821134Y-51497107D01*
X102835749Y-51477401D01*
X102852225Y-51459223D01*
X102870403Y-51442747D01*
X102890109Y-51428132D01*
X102911152Y-51415520D01*
X102933331Y-51405030D01*
X102956430Y-51396765D01*
X102980229Y-51390804D01*
X103004497Y-51387204D01*
X103029001Y-51386000D01*
X103679003Y-51386000D01*
X103703507Y-51387204D01*
G37*
G36*
X109309507Y-46307204D02*
G01*
X109333775Y-46310804D01*
X109357574Y-46316765D01*
X109380673Y-46325030D01*
X109402852Y-46335520D01*
X109423895Y-46348132D01*
X109443601Y-46362747D01*
X109461779Y-46379223D01*
X109478255Y-46397401D01*
X109492870Y-46417107D01*
X109505482Y-46438150D01*
X109515972Y-46460329D01*
X109524237Y-46483428D01*
X109530198Y-46507227D01*
X109533798Y-46531495D01*
X109535002Y-46555999D01*
X109535002Y-47456001D01*
X109533798Y-47480505D01*
X109530198Y-47504773D01*
X109524237Y-47528572D01*
X109515972Y-47551671D01*
X109505482Y-47573850D01*
X109492870Y-47594893D01*
X109478255Y-47614599D01*
X109461779Y-47632777D01*
X109443601Y-47649253D01*
X109423895Y-47663868D01*
X109402852Y-47676480D01*
X109380673Y-47686970D01*
X109357574Y-47695235D01*
X109333775Y-47701196D01*
X109309507Y-47704796D01*
X109285003Y-47706000D01*
X108635001Y-47706000D01*
X108610497Y-47704796D01*
X108586229Y-47701196D01*
X108562430Y-47695235D01*
X108539331Y-47686970D01*
X108517152Y-47676480D01*
X108496109Y-47663868D01*
X108476403Y-47649253D01*
X108458225Y-47632777D01*
X108441749Y-47614599D01*
X108427134Y-47594893D01*
X108414522Y-47573850D01*
X108404032Y-47551671D01*
X108395767Y-47528572D01*
X108389806Y-47504773D01*
X108386206Y-47480505D01*
X108385002Y-47456001D01*
X108385002Y-46555999D01*
X108386206Y-46531495D01*
X108389806Y-46507227D01*
X108395767Y-46483428D01*
X108404032Y-46460329D01*
X108414522Y-46438150D01*
X108427134Y-46417107D01*
X108441749Y-46397401D01*
X108458225Y-46379223D01*
X108476403Y-46362747D01*
X108496109Y-46348132D01*
X108517152Y-46335520D01*
X108539331Y-46325030D01*
X108562430Y-46316765D01*
X108586229Y-46310804D01*
X108610497Y-46307204D01*
X108635001Y-46306000D01*
X109285003Y-46306000D01*
X109309507Y-46307204D01*
G37*
G36*
X107259507Y-46307204D02*
G01*
X107283775Y-46310804D01*
X107307574Y-46316765D01*
X107330673Y-46325030D01*
X107352852Y-46335520D01*
X107373895Y-46348132D01*
X107393601Y-46362747D01*
X107411779Y-46379223D01*
X107428255Y-46397401D01*
X107442870Y-46417107D01*
X107455482Y-46438150D01*
X107465972Y-46460329D01*
X107474237Y-46483428D01*
X107480198Y-46507227D01*
X107483798Y-46531495D01*
X107485002Y-46555999D01*
X107485002Y-47456001D01*
X107483798Y-47480505D01*
X107480198Y-47504773D01*
X107474237Y-47528572D01*
X107465972Y-47551671D01*
X107455482Y-47573850D01*
X107442870Y-47594893D01*
X107428255Y-47614599D01*
X107411779Y-47632777D01*
X107393601Y-47649253D01*
X107373895Y-47663868D01*
X107352852Y-47676480D01*
X107330673Y-47686970D01*
X107307574Y-47695235D01*
X107283775Y-47701196D01*
X107259507Y-47704796D01*
X107235003Y-47706000D01*
X106585001Y-47706000D01*
X106560497Y-47704796D01*
X106536229Y-47701196D01*
X106512430Y-47695235D01*
X106489331Y-47686970D01*
X106467152Y-47676480D01*
X106446109Y-47663868D01*
X106426403Y-47649253D01*
X106408225Y-47632777D01*
X106391749Y-47614599D01*
X106377134Y-47594893D01*
X106364522Y-47573850D01*
X106354032Y-47551671D01*
X106345767Y-47528572D01*
X106339806Y-47504773D01*
X106336206Y-47480505D01*
X106335002Y-47456001D01*
X106335002Y-46555999D01*
X106336206Y-46531495D01*
X106339806Y-46507227D01*
X106345767Y-46483428D01*
X106354032Y-46460329D01*
X106364522Y-46438150D01*
X106377134Y-46417107D01*
X106391749Y-46397401D01*
X106408225Y-46379223D01*
X106426403Y-46362747D01*
X106446109Y-46348132D01*
X106467152Y-46335520D01*
X106489331Y-46325030D01*
X106512430Y-46316765D01*
X106536229Y-46310804D01*
X106560497Y-46307204D01*
X106585001Y-46306000D01*
X107235003Y-46306000D01*
X107259507Y-46307204D01*
G37*
G36*
X20933505Y-36147204D02*
G01*
X20957773Y-36150804D01*
X20981572Y-36156765D01*
X21004671Y-36165030D01*
X21026850Y-36175520D01*
X21047893Y-36188132D01*
X21067599Y-36202747D01*
X21085777Y-36219223D01*
X21102253Y-36237401D01*
X21116868Y-36257107D01*
X21129480Y-36278150D01*
X21139970Y-36300329D01*
X21148235Y-36323428D01*
X21154196Y-36347227D01*
X21157796Y-36371495D01*
X21159000Y-36395999D01*
X21159000Y-37296001D01*
X21157796Y-37320505D01*
X21154196Y-37344773D01*
X21148235Y-37368572D01*
X21139970Y-37391671D01*
X21129480Y-37413850D01*
X21116868Y-37434893D01*
X21102253Y-37454599D01*
X21085777Y-37472777D01*
X21067599Y-37489253D01*
X21047893Y-37503868D01*
X21026850Y-37516480D01*
X21004671Y-37526970D01*
X20981572Y-37535235D01*
X20957773Y-37541196D01*
X20933505Y-37544796D01*
X20909001Y-37546000D01*
X20258999Y-37546000D01*
X20234495Y-37544796D01*
X20210227Y-37541196D01*
X20186428Y-37535235D01*
X20163329Y-37526970D01*
X20141150Y-37516480D01*
X20120107Y-37503868D01*
X20100401Y-37489253D01*
X20082223Y-37472777D01*
X20065747Y-37454599D01*
X20051132Y-37434893D01*
X20038520Y-37413850D01*
X20028030Y-37391671D01*
X20019765Y-37368572D01*
X20013804Y-37344773D01*
X20010204Y-37320505D01*
X20009000Y-37296001D01*
X20009000Y-36395999D01*
X20010204Y-36371495D01*
X20013804Y-36347227D01*
X20019765Y-36323428D01*
X20028030Y-36300329D01*
X20038520Y-36278150D01*
X20051132Y-36257107D01*
X20065747Y-36237401D01*
X20082223Y-36219223D01*
X20100401Y-36202747D01*
X20120107Y-36188132D01*
X20141150Y-36175520D01*
X20163329Y-36165030D01*
X20186428Y-36156765D01*
X20210227Y-36150804D01*
X20234495Y-36147204D01*
X20258999Y-36146000D01*
X20909001Y-36146000D01*
X20933505Y-36147204D01*
G37*
G36*
X22983505Y-36147204D02*
G01*
X23007773Y-36150804D01*
X23031572Y-36156765D01*
X23054671Y-36165030D01*
X23076850Y-36175520D01*
X23097893Y-36188132D01*
X23117599Y-36202747D01*
X23135777Y-36219223D01*
X23152253Y-36237401D01*
X23166868Y-36257107D01*
X23179480Y-36278150D01*
X23189970Y-36300329D01*
X23198235Y-36323428D01*
X23204196Y-36347227D01*
X23207796Y-36371495D01*
X23209000Y-36395999D01*
X23209000Y-37296001D01*
X23207796Y-37320505D01*
X23204196Y-37344773D01*
X23198235Y-37368572D01*
X23189970Y-37391671D01*
X23179480Y-37413850D01*
X23166868Y-37434893D01*
X23152253Y-37454599D01*
X23135777Y-37472777D01*
X23117599Y-37489253D01*
X23097893Y-37503868D01*
X23076850Y-37516480D01*
X23054671Y-37526970D01*
X23031572Y-37535235D01*
X23007773Y-37541196D01*
X22983505Y-37544796D01*
X22959001Y-37546000D01*
X22308999Y-37546000D01*
X22284495Y-37544796D01*
X22260227Y-37541196D01*
X22236428Y-37535235D01*
X22213329Y-37526970D01*
X22191150Y-37516480D01*
X22170107Y-37503868D01*
X22150401Y-37489253D01*
X22132223Y-37472777D01*
X22115747Y-37454599D01*
X22101132Y-37434893D01*
X22088520Y-37413850D01*
X22078030Y-37391671D01*
X22069765Y-37368572D01*
X22063804Y-37344773D01*
X22060204Y-37320505D01*
X22059000Y-37296001D01*
X22059000Y-36395999D01*
X22060204Y-36371495D01*
X22063804Y-36347227D01*
X22069765Y-36323428D01*
X22078030Y-36300329D01*
X22088520Y-36278150D01*
X22101132Y-36257107D01*
X22115747Y-36237401D01*
X22132223Y-36219223D01*
X22150401Y-36202747D01*
X22170107Y-36188132D01*
X22191150Y-36175520D01*
X22213329Y-36165030D01*
X22236428Y-36156765D01*
X22260227Y-36150804D01*
X22284495Y-36147204D01*
X22308999Y-36146000D01*
X22959001Y-36146000D01*
X22983505Y-36147204D01*
G37*
G36*
X56003505Y-62055204D02*
G01*
X56027773Y-62058804D01*
X56051572Y-62064765D01*
X56074671Y-62073030D01*
X56096850Y-62083520D01*
X56117893Y-62096132D01*
X56137599Y-62110747D01*
X56155777Y-62127223D01*
X56172253Y-62145401D01*
X56186868Y-62165107D01*
X56199480Y-62186150D01*
X56209970Y-62208329D01*
X56218235Y-62231428D01*
X56224196Y-62255227D01*
X56227796Y-62279495D01*
X56229000Y-62303999D01*
X56229000Y-63204001D01*
X56227796Y-63228505D01*
X56224196Y-63252773D01*
X56218235Y-63276572D01*
X56209970Y-63299671D01*
X56199480Y-63321850D01*
X56186868Y-63342893D01*
X56172253Y-63362599D01*
X56155777Y-63380777D01*
X56137599Y-63397253D01*
X56117893Y-63411868D01*
X56096850Y-63424480D01*
X56074671Y-63434970D01*
X56051572Y-63443235D01*
X56027773Y-63449196D01*
X56003505Y-63452796D01*
X55979001Y-63454000D01*
X55328999Y-63454000D01*
X55304495Y-63452796D01*
X55280227Y-63449196D01*
X55256428Y-63443235D01*
X55233329Y-63434970D01*
X55211150Y-63424480D01*
X55190107Y-63411868D01*
X55170401Y-63397253D01*
X55152223Y-63380777D01*
X55135747Y-63362599D01*
X55121132Y-63342893D01*
X55108520Y-63321850D01*
X55098030Y-63299671D01*
X55089765Y-63276572D01*
X55083804Y-63252773D01*
X55080204Y-63228505D01*
X55079000Y-63204001D01*
X55079000Y-62303999D01*
X55080204Y-62279495D01*
X55083804Y-62255227D01*
X55089765Y-62231428D01*
X55098030Y-62208329D01*
X55108520Y-62186150D01*
X55121132Y-62165107D01*
X55135747Y-62145401D01*
X55152223Y-62127223D01*
X55170401Y-62110747D01*
X55190107Y-62096132D01*
X55211150Y-62083520D01*
X55233329Y-62073030D01*
X55256428Y-62064765D01*
X55280227Y-62058804D01*
X55304495Y-62055204D01*
X55328999Y-62054000D01*
X55979001Y-62054000D01*
X56003505Y-62055204D01*
G37*
G36*
X53953505Y-62055204D02*
G01*
X53977773Y-62058804D01*
X54001572Y-62064765D01*
X54024671Y-62073030D01*
X54046850Y-62083520D01*
X54067893Y-62096132D01*
X54087599Y-62110747D01*
X54105777Y-62127223D01*
X54122253Y-62145401D01*
X54136868Y-62165107D01*
X54149480Y-62186150D01*
X54159970Y-62208329D01*
X54168235Y-62231428D01*
X54174196Y-62255227D01*
X54177796Y-62279495D01*
X54179000Y-62303999D01*
X54179000Y-63204001D01*
X54177796Y-63228505D01*
X54174196Y-63252773D01*
X54168235Y-63276572D01*
X54159970Y-63299671D01*
X54149480Y-63321850D01*
X54136868Y-63342893D01*
X54122253Y-63362599D01*
X54105777Y-63380777D01*
X54087599Y-63397253D01*
X54067893Y-63411868D01*
X54046850Y-63424480D01*
X54024671Y-63434970D01*
X54001572Y-63443235D01*
X53977773Y-63449196D01*
X53953505Y-63452796D01*
X53929001Y-63454000D01*
X53278999Y-63454000D01*
X53254495Y-63452796D01*
X53230227Y-63449196D01*
X53206428Y-63443235D01*
X53183329Y-63434970D01*
X53161150Y-63424480D01*
X53140107Y-63411868D01*
X53120401Y-63397253D01*
X53102223Y-63380777D01*
X53085747Y-63362599D01*
X53071132Y-63342893D01*
X53058520Y-63321850D01*
X53048030Y-63299671D01*
X53039765Y-63276572D01*
X53033804Y-63252773D01*
X53030204Y-63228505D01*
X53029000Y-63204001D01*
X53029000Y-62303999D01*
X53030204Y-62279495D01*
X53033804Y-62255227D01*
X53039765Y-62231428D01*
X53048030Y-62208329D01*
X53058520Y-62186150D01*
X53071132Y-62165107D01*
X53085747Y-62145401D01*
X53102223Y-62127223D01*
X53120401Y-62110747D01*
X53140107Y-62096132D01*
X53161150Y-62083520D01*
X53183329Y-62073030D01*
X53206428Y-62064765D01*
X53230227Y-62058804D01*
X53254495Y-62055204D01*
X53278999Y-62054000D01*
X53929001Y-62054000D01*
X53953505Y-62055204D01*
G37*
G36*
X59550505Y-59515204D02*
G01*
X59574773Y-59518804D01*
X59598572Y-59524765D01*
X59621671Y-59533030D01*
X59643850Y-59543520D01*
X59664893Y-59556132D01*
X59684599Y-59570747D01*
X59702777Y-59587223D01*
X59719253Y-59605401D01*
X59733868Y-59625107D01*
X59746480Y-59646150D01*
X59756970Y-59668329D01*
X59765235Y-59691428D01*
X59771196Y-59715227D01*
X59774796Y-59739495D01*
X59776000Y-59763999D01*
X59776000Y-60664001D01*
X59774796Y-60688505D01*
X59771196Y-60712773D01*
X59765235Y-60736572D01*
X59756970Y-60759671D01*
X59746480Y-60781850D01*
X59733868Y-60802893D01*
X59719253Y-60822599D01*
X59702777Y-60840777D01*
X59684599Y-60857253D01*
X59664893Y-60871868D01*
X59643850Y-60884480D01*
X59621671Y-60894970D01*
X59598572Y-60903235D01*
X59574773Y-60909196D01*
X59550505Y-60912796D01*
X59526001Y-60914000D01*
X58875999Y-60914000D01*
X58851495Y-60912796D01*
X58827227Y-60909196D01*
X58803428Y-60903235D01*
X58780329Y-60894970D01*
X58758150Y-60884480D01*
X58737107Y-60871868D01*
X58717401Y-60857253D01*
X58699223Y-60840777D01*
X58682747Y-60822599D01*
X58668132Y-60802893D01*
X58655520Y-60781850D01*
X58645030Y-60759671D01*
X58636765Y-60736572D01*
X58630804Y-60712773D01*
X58627204Y-60688505D01*
X58626000Y-60664001D01*
X58626000Y-59763999D01*
X58627204Y-59739495D01*
X58630804Y-59715227D01*
X58636765Y-59691428D01*
X58645030Y-59668329D01*
X58655520Y-59646150D01*
X58668132Y-59625107D01*
X58682747Y-59605401D01*
X58699223Y-59587223D01*
X58717401Y-59570747D01*
X58737107Y-59556132D01*
X58758150Y-59543520D01*
X58780329Y-59533030D01*
X58803428Y-59524765D01*
X58827227Y-59518804D01*
X58851495Y-59515204D01*
X58875999Y-59514000D01*
X59526001Y-59514000D01*
X59550505Y-59515204D01*
G37*
G36*
X57500505Y-59515204D02*
G01*
X57524773Y-59518804D01*
X57548572Y-59524765D01*
X57571671Y-59533030D01*
X57593850Y-59543520D01*
X57614893Y-59556132D01*
X57634599Y-59570747D01*
X57652777Y-59587223D01*
X57669253Y-59605401D01*
X57683868Y-59625107D01*
X57696480Y-59646150D01*
X57706970Y-59668329D01*
X57715235Y-59691428D01*
X57721196Y-59715227D01*
X57724796Y-59739495D01*
X57726000Y-59763999D01*
X57726000Y-60664001D01*
X57724796Y-60688505D01*
X57721196Y-60712773D01*
X57715235Y-60736572D01*
X57706970Y-60759671D01*
X57696480Y-60781850D01*
X57683868Y-60802893D01*
X57669253Y-60822599D01*
X57652777Y-60840777D01*
X57634599Y-60857253D01*
X57614893Y-60871868D01*
X57593850Y-60884480D01*
X57571671Y-60894970D01*
X57548572Y-60903235D01*
X57524773Y-60909196D01*
X57500505Y-60912796D01*
X57476001Y-60914000D01*
X56825999Y-60914000D01*
X56801495Y-60912796D01*
X56777227Y-60909196D01*
X56753428Y-60903235D01*
X56730329Y-60894970D01*
X56708150Y-60884480D01*
X56687107Y-60871868D01*
X56667401Y-60857253D01*
X56649223Y-60840777D01*
X56632747Y-60822599D01*
X56618132Y-60802893D01*
X56605520Y-60781850D01*
X56595030Y-60759671D01*
X56586765Y-60736572D01*
X56580804Y-60712773D01*
X56577204Y-60688505D01*
X56576000Y-60664001D01*
X56576000Y-59763999D01*
X56577204Y-59739495D01*
X56580804Y-59715227D01*
X56586765Y-59691428D01*
X56595030Y-59668329D01*
X56605520Y-59646150D01*
X56618132Y-59625107D01*
X56632747Y-59605401D01*
X56649223Y-59587223D01*
X56667401Y-59570747D01*
X56687107Y-59556132D01*
X56708150Y-59543520D01*
X56730329Y-59533030D01*
X56753428Y-59524765D01*
X56777227Y-59518804D01*
X56801495Y-59515204D01*
X56825999Y-59514000D01*
X57476001Y-59514000D01*
X57500505Y-59515204D01*
G37*
G36*
X56003505Y-56467204D02*
G01*
X56027773Y-56470804D01*
X56051572Y-56476765D01*
X56074671Y-56485030D01*
X56096850Y-56495520D01*
X56117893Y-56508132D01*
X56137599Y-56522747D01*
X56155777Y-56539223D01*
X56172253Y-56557401D01*
X56186868Y-56577107D01*
X56199480Y-56598150D01*
X56209970Y-56620329D01*
X56218235Y-56643428D01*
X56224196Y-56667227D01*
X56227796Y-56691495D01*
X56229000Y-56715999D01*
X56229000Y-57616001D01*
X56227796Y-57640505D01*
X56224196Y-57664773D01*
X56218235Y-57688572D01*
X56209970Y-57711671D01*
X56199480Y-57733850D01*
X56186868Y-57754893D01*
X56172253Y-57774599D01*
X56155777Y-57792777D01*
X56137599Y-57809253D01*
X56117893Y-57823868D01*
X56096850Y-57836480D01*
X56074671Y-57846970D01*
X56051572Y-57855235D01*
X56027773Y-57861196D01*
X56003505Y-57864796D01*
X55979001Y-57866000D01*
X55328999Y-57866000D01*
X55304495Y-57864796D01*
X55280227Y-57861196D01*
X55256428Y-57855235D01*
X55233329Y-57846970D01*
X55211150Y-57836480D01*
X55190107Y-57823868D01*
X55170401Y-57809253D01*
X55152223Y-57792777D01*
X55135747Y-57774599D01*
X55121132Y-57754893D01*
X55108520Y-57733850D01*
X55098030Y-57711671D01*
X55089765Y-57688572D01*
X55083804Y-57664773D01*
X55080204Y-57640505D01*
X55079000Y-57616001D01*
X55079000Y-56715999D01*
X55080204Y-56691495D01*
X55083804Y-56667227D01*
X55089765Y-56643428D01*
X55098030Y-56620329D01*
X55108520Y-56598150D01*
X55121132Y-56577107D01*
X55135747Y-56557401D01*
X55152223Y-56539223D01*
X55170401Y-56522747D01*
X55190107Y-56508132D01*
X55211150Y-56495520D01*
X55233329Y-56485030D01*
X55256428Y-56476765D01*
X55280227Y-56470804D01*
X55304495Y-56467204D01*
X55328999Y-56466000D01*
X55979001Y-56466000D01*
X56003505Y-56467204D01*
G37*
G36*
X53953505Y-56467204D02*
G01*
X53977773Y-56470804D01*
X54001572Y-56476765D01*
X54024671Y-56485030D01*
X54046850Y-56495520D01*
X54067893Y-56508132D01*
X54087599Y-56522747D01*
X54105777Y-56539223D01*
X54122253Y-56557401D01*
X54136868Y-56577107D01*
X54149480Y-56598150D01*
X54159970Y-56620329D01*
X54168235Y-56643428D01*
X54174196Y-56667227D01*
X54177796Y-56691495D01*
X54179000Y-56715999D01*
X54179000Y-57616001D01*
X54177796Y-57640505D01*
X54174196Y-57664773D01*
X54168235Y-57688572D01*
X54159970Y-57711671D01*
X54149480Y-57733850D01*
X54136868Y-57754893D01*
X54122253Y-57774599D01*
X54105777Y-57792777D01*
X54087599Y-57809253D01*
X54067893Y-57823868D01*
X54046850Y-57836480D01*
X54024671Y-57846970D01*
X54001572Y-57855235D01*
X53977773Y-57861196D01*
X53953505Y-57864796D01*
X53929001Y-57866000D01*
X53278999Y-57866000D01*
X53254495Y-57864796D01*
X53230227Y-57861196D01*
X53206428Y-57855235D01*
X53183329Y-57846970D01*
X53161150Y-57836480D01*
X53140107Y-57823868D01*
X53120401Y-57809253D01*
X53102223Y-57792777D01*
X53085747Y-57774599D01*
X53071132Y-57754893D01*
X53058520Y-57733850D01*
X53048030Y-57711671D01*
X53039765Y-57688572D01*
X53033804Y-57664773D01*
X53030204Y-57640505D01*
X53029000Y-57616001D01*
X53029000Y-56715999D01*
X53030204Y-56691495D01*
X53033804Y-56667227D01*
X53039765Y-56643428D01*
X53048030Y-56620329D01*
X53058520Y-56598150D01*
X53071132Y-56577107D01*
X53085747Y-56557401D01*
X53102223Y-56539223D01*
X53120401Y-56522747D01*
X53140107Y-56508132D01*
X53161150Y-56495520D01*
X53183329Y-56485030D01*
X53206428Y-56476765D01*
X53230227Y-56470804D01*
X53254495Y-56467204D01*
X53278999Y-56466000D01*
X53929001Y-56466000D01*
X53953505Y-56467204D01*
G37*
G36*
X59541505Y-53927204D02*
G01*
X59565773Y-53930804D01*
X59589572Y-53936765D01*
X59612671Y-53945030D01*
X59634850Y-53955520D01*
X59655893Y-53968132D01*
X59675599Y-53982747D01*
X59693777Y-53999223D01*
X59710253Y-54017401D01*
X59724868Y-54037107D01*
X59737480Y-54058150D01*
X59747970Y-54080329D01*
X59756235Y-54103428D01*
X59762196Y-54127227D01*
X59765796Y-54151495D01*
X59767000Y-54175999D01*
X59767000Y-55076001D01*
X59765796Y-55100505D01*
X59762196Y-55124773D01*
X59756235Y-55148572D01*
X59747970Y-55171671D01*
X59737480Y-55193850D01*
X59724868Y-55214893D01*
X59710253Y-55234599D01*
X59693777Y-55252777D01*
X59675599Y-55269253D01*
X59655893Y-55283868D01*
X59634850Y-55296480D01*
X59612671Y-55306970D01*
X59589572Y-55315235D01*
X59565773Y-55321196D01*
X59541505Y-55324796D01*
X59517001Y-55326000D01*
X58866999Y-55326000D01*
X58842495Y-55324796D01*
X58818227Y-55321196D01*
X58794428Y-55315235D01*
X58771329Y-55306970D01*
X58749150Y-55296480D01*
X58728107Y-55283868D01*
X58708401Y-55269253D01*
X58690223Y-55252777D01*
X58673747Y-55234599D01*
X58659132Y-55214893D01*
X58646520Y-55193850D01*
X58636030Y-55171671D01*
X58627765Y-55148572D01*
X58621804Y-55124773D01*
X58618204Y-55100505D01*
X58617000Y-55076001D01*
X58617000Y-54175999D01*
X58618204Y-54151495D01*
X58621804Y-54127227D01*
X58627765Y-54103428D01*
X58636030Y-54080329D01*
X58646520Y-54058150D01*
X58659132Y-54037107D01*
X58673747Y-54017401D01*
X58690223Y-53999223D01*
X58708401Y-53982747D01*
X58728107Y-53968132D01*
X58749150Y-53955520D01*
X58771329Y-53945030D01*
X58794428Y-53936765D01*
X58818227Y-53930804D01*
X58842495Y-53927204D01*
X58866999Y-53926000D01*
X59517001Y-53926000D01*
X59541505Y-53927204D01*
G37*
G36*
X57491505Y-53927204D02*
G01*
X57515773Y-53930804D01*
X57539572Y-53936765D01*
X57562671Y-53945030D01*
X57584850Y-53955520D01*
X57605893Y-53968132D01*
X57625599Y-53982747D01*
X57643777Y-53999223D01*
X57660253Y-54017401D01*
X57674868Y-54037107D01*
X57687480Y-54058150D01*
X57697970Y-54080329D01*
X57706235Y-54103428D01*
X57712196Y-54127227D01*
X57715796Y-54151495D01*
X57717000Y-54175999D01*
X57717000Y-55076001D01*
X57715796Y-55100505D01*
X57712196Y-55124773D01*
X57706235Y-55148572D01*
X57697970Y-55171671D01*
X57687480Y-55193850D01*
X57674868Y-55214893D01*
X57660253Y-55234599D01*
X57643777Y-55252777D01*
X57625599Y-55269253D01*
X57605893Y-55283868D01*
X57584850Y-55296480D01*
X57562671Y-55306970D01*
X57539572Y-55315235D01*
X57515773Y-55321196D01*
X57491505Y-55324796D01*
X57467001Y-55326000D01*
X56816999Y-55326000D01*
X56792495Y-55324796D01*
X56768227Y-55321196D01*
X56744428Y-55315235D01*
X56721329Y-55306970D01*
X56699150Y-55296480D01*
X56678107Y-55283868D01*
X56658401Y-55269253D01*
X56640223Y-55252777D01*
X56623747Y-55234599D01*
X56609132Y-55214893D01*
X56596520Y-55193850D01*
X56586030Y-55171671D01*
X56577765Y-55148572D01*
X56571804Y-55124773D01*
X56568204Y-55100505D01*
X56567000Y-55076001D01*
X56567000Y-54175999D01*
X56568204Y-54151495D01*
X56571804Y-54127227D01*
X56577765Y-54103428D01*
X56586030Y-54080329D01*
X56596520Y-54058150D01*
X56609132Y-54037107D01*
X56623747Y-54017401D01*
X56640223Y-53999223D01*
X56658401Y-53982747D01*
X56678107Y-53968132D01*
X56699150Y-53955520D01*
X56721329Y-53945030D01*
X56744428Y-53936765D01*
X56768227Y-53930804D01*
X56792495Y-53927204D01*
X56816999Y-53926000D01*
X57467001Y-53926000D01*
X57491505Y-53927204D01*
G37*
G36*
X55985505Y-51387204D02*
G01*
X56009773Y-51390804D01*
X56033572Y-51396765D01*
X56056671Y-51405030D01*
X56078850Y-51415520D01*
X56099893Y-51428132D01*
X56119599Y-51442747D01*
X56137777Y-51459223D01*
X56154253Y-51477401D01*
X56168868Y-51497107D01*
X56181480Y-51518150D01*
X56191970Y-51540329D01*
X56200235Y-51563428D01*
X56206196Y-51587227D01*
X56209796Y-51611495D01*
X56211000Y-51635999D01*
X56211000Y-52536001D01*
X56209796Y-52560505D01*
X56206196Y-52584773D01*
X56200235Y-52608572D01*
X56191970Y-52631671D01*
X56181480Y-52653850D01*
X56168868Y-52674893D01*
X56154253Y-52694599D01*
X56137777Y-52712777D01*
X56119599Y-52729253D01*
X56099893Y-52743868D01*
X56078850Y-52756480D01*
X56056671Y-52766970D01*
X56033572Y-52775235D01*
X56009773Y-52781196D01*
X55985505Y-52784796D01*
X55961001Y-52786000D01*
X55310999Y-52786000D01*
X55286495Y-52784796D01*
X55262227Y-52781196D01*
X55238428Y-52775235D01*
X55215329Y-52766970D01*
X55193150Y-52756480D01*
X55172107Y-52743868D01*
X55152401Y-52729253D01*
X55134223Y-52712777D01*
X55117747Y-52694599D01*
X55103132Y-52674893D01*
X55090520Y-52653850D01*
X55080030Y-52631671D01*
X55071765Y-52608572D01*
X55065804Y-52584773D01*
X55062204Y-52560505D01*
X55061000Y-52536001D01*
X55061000Y-51635999D01*
X55062204Y-51611495D01*
X55065804Y-51587227D01*
X55071765Y-51563428D01*
X55080030Y-51540329D01*
X55090520Y-51518150D01*
X55103132Y-51497107D01*
X55117747Y-51477401D01*
X55134223Y-51459223D01*
X55152401Y-51442747D01*
X55172107Y-51428132D01*
X55193150Y-51415520D01*
X55215329Y-51405030D01*
X55238428Y-51396765D01*
X55262227Y-51390804D01*
X55286495Y-51387204D01*
X55310999Y-51386000D01*
X55961001Y-51386000D01*
X55985505Y-51387204D01*
G37*
G36*
X53935505Y-51387204D02*
G01*
X53959773Y-51390804D01*
X53983572Y-51396765D01*
X54006671Y-51405030D01*
X54028850Y-51415520D01*
X54049893Y-51428132D01*
X54069599Y-51442747D01*
X54087777Y-51459223D01*
X54104253Y-51477401D01*
X54118868Y-51497107D01*
X54131480Y-51518150D01*
X54141970Y-51540329D01*
X54150235Y-51563428D01*
X54156196Y-51587227D01*
X54159796Y-51611495D01*
X54161000Y-51635999D01*
X54161000Y-52536001D01*
X54159796Y-52560505D01*
X54156196Y-52584773D01*
X54150235Y-52608572D01*
X54141970Y-52631671D01*
X54131480Y-52653850D01*
X54118868Y-52674893D01*
X54104253Y-52694599D01*
X54087777Y-52712777D01*
X54069599Y-52729253D01*
X54049893Y-52743868D01*
X54028850Y-52756480D01*
X54006671Y-52766970D01*
X53983572Y-52775235D01*
X53959773Y-52781196D01*
X53935505Y-52784796D01*
X53911001Y-52786000D01*
X53260999Y-52786000D01*
X53236495Y-52784796D01*
X53212227Y-52781196D01*
X53188428Y-52775235D01*
X53165329Y-52766970D01*
X53143150Y-52756480D01*
X53122107Y-52743868D01*
X53102401Y-52729253D01*
X53084223Y-52712777D01*
X53067747Y-52694599D01*
X53053132Y-52674893D01*
X53040520Y-52653850D01*
X53030030Y-52631671D01*
X53021765Y-52608572D01*
X53015804Y-52584773D01*
X53012204Y-52560505D01*
X53011000Y-52536001D01*
X53011000Y-51635999D01*
X53012204Y-51611495D01*
X53015804Y-51587227D01*
X53021765Y-51563428D01*
X53030030Y-51540329D01*
X53040520Y-51518150D01*
X53053132Y-51497107D01*
X53067747Y-51477401D01*
X53084223Y-51459223D01*
X53102401Y-51442747D01*
X53122107Y-51428132D01*
X53143150Y-51415520D01*
X53165329Y-51405030D01*
X53188428Y-51396765D01*
X53212227Y-51390804D01*
X53236495Y-51387204D01*
X53260999Y-51386000D01*
X53911001Y-51386000D01*
X53935505Y-51387204D01*
G37*
G36*
X59541505Y-46307204D02*
G01*
X59565773Y-46310804D01*
X59589572Y-46316765D01*
X59612671Y-46325030D01*
X59634850Y-46335520D01*
X59655893Y-46348132D01*
X59675599Y-46362747D01*
X59693777Y-46379223D01*
X59710253Y-46397401D01*
X59724868Y-46417107D01*
X59737480Y-46438150D01*
X59747970Y-46460329D01*
X59756235Y-46483428D01*
X59762196Y-46507227D01*
X59765796Y-46531495D01*
X59767000Y-46555999D01*
X59767000Y-47456001D01*
X59765796Y-47480505D01*
X59762196Y-47504773D01*
X59756235Y-47528572D01*
X59747970Y-47551671D01*
X59737480Y-47573850D01*
X59724868Y-47594893D01*
X59710253Y-47614599D01*
X59693777Y-47632777D01*
X59675599Y-47649253D01*
X59655893Y-47663868D01*
X59634850Y-47676480D01*
X59612671Y-47686970D01*
X59589572Y-47695235D01*
X59565773Y-47701196D01*
X59541505Y-47704796D01*
X59517001Y-47706000D01*
X58866999Y-47706000D01*
X58842495Y-47704796D01*
X58818227Y-47701196D01*
X58794428Y-47695235D01*
X58771329Y-47686970D01*
X58749150Y-47676480D01*
X58728107Y-47663868D01*
X58708401Y-47649253D01*
X58690223Y-47632777D01*
X58673747Y-47614599D01*
X58659132Y-47594893D01*
X58646520Y-47573850D01*
X58636030Y-47551671D01*
X58627765Y-47528572D01*
X58621804Y-47504773D01*
X58618204Y-47480505D01*
X58617000Y-47456001D01*
X58617000Y-46555999D01*
X58618204Y-46531495D01*
X58621804Y-46507227D01*
X58627765Y-46483428D01*
X58636030Y-46460329D01*
X58646520Y-46438150D01*
X58659132Y-46417107D01*
X58673747Y-46397401D01*
X58690223Y-46379223D01*
X58708401Y-46362747D01*
X58728107Y-46348132D01*
X58749150Y-46335520D01*
X58771329Y-46325030D01*
X58794428Y-46316765D01*
X58818227Y-46310804D01*
X58842495Y-46307204D01*
X58866999Y-46306000D01*
X59517001Y-46306000D01*
X59541505Y-46307204D01*
G37*
G36*
X57491505Y-46307204D02*
G01*
X57515773Y-46310804D01*
X57539572Y-46316765D01*
X57562671Y-46325030D01*
X57584850Y-46335520D01*
X57605893Y-46348132D01*
X57625599Y-46362747D01*
X57643777Y-46379223D01*
X57660253Y-46397401D01*
X57674868Y-46417107D01*
X57687480Y-46438150D01*
X57697970Y-46460329D01*
X57706235Y-46483428D01*
X57712196Y-46507227D01*
X57715796Y-46531495D01*
X57717000Y-46555999D01*
X57717000Y-47456001D01*
X57715796Y-47480505D01*
X57712196Y-47504773D01*
X57706235Y-47528572D01*
X57697970Y-47551671D01*
X57687480Y-47573850D01*
X57674868Y-47594893D01*
X57660253Y-47614599D01*
X57643777Y-47632777D01*
X57625599Y-47649253D01*
X57605893Y-47663868D01*
X57584850Y-47676480D01*
X57562671Y-47686970D01*
X57539572Y-47695235D01*
X57515773Y-47701196D01*
X57491505Y-47704796D01*
X57467001Y-47706000D01*
X56816999Y-47706000D01*
X56792495Y-47704796D01*
X56768227Y-47701196D01*
X56744428Y-47695235D01*
X56721329Y-47686970D01*
X56699150Y-47676480D01*
X56678107Y-47663868D01*
X56658401Y-47649253D01*
X56640223Y-47632777D01*
X56623747Y-47614599D01*
X56609132Y-47594893D01*
X56596520Y-47573850D01*
X56586030Y-47551671D01*
X56577765Y-47528572D01*
X56571804Y-47504773D01*
X56568204Y-47480505D01*
X56567000Y-47456001D01*
X56567000Y-46555999D01*
X56568204Y-46531495D01*
X56571804Y-46507227D01*
X56577765Y-46483428D01*
X56586030Y-46460329D01*
X56596520Y-46438150D01*
X56609132Y-46417107D01*
X56623747Y-46397401D01*
X56640223Y-46379223D01*
X56658401Y-46362747D01*
X56678107Y-46348132D01*
X56699150Y-46335520D01*
X56721329Y-46325030D01*
X56744428Y-46316765D01*
X56768227Y-46310804D01*
X56792495Y-46307204D01*
X56816999Y-46306000D01*
X57467001Y-46306000D01*
X57491505Y-46307204D01*
G37*
M02*
