G04 #@! TF.GenerationSoftware,KiCad,Pcbnew,5.1.5+dfsg1-2build2*
G04 #@! TF.CreationDate,2022-06-18T16:31:26+03:00*
G04 #@! TF.ProjectId,pico-panel,7069636f-2d70-4616-9e65-6c2e6b696361,rev?*
G04 #@! TF.SameCoordinates,Original*
G04 #@! TF.FileFunction,Soldermask,Bot*
G04 #@! TF.FilePolarity,Negative*
%FSLAX46Y46*%
G04 Gerber Fmt 4.6, Leading zero omitted, Abs format (unit mm)*
G04 Created by KiCad (PCBNEW 5.1.5+dfsg1-2build2) date 2022-06-18 16:31:26*
%MOMM*%
%LPD*%
G04 APERTURE LIST*
%ADD10C,0.150000*%
G04 APERTURE END LIST*
D10*
G36*
X109843258Y-66225298D02*
G01*
X109949581Y-66246447D01*
X110250044Y-66370903D01*
X110520453Y-66551585D01*
X110750417Y-66781549D01*
X110931099Y-67051958D01*
X111044411Y-67325516D01*
X111055555Y-67352422D01*
X111119002Y-67671389D01*
X111119002Y-67996611D01*
X111108411Y-68049853D01*
X111055555Y-68315579D01*
X110931099Y-68616042D01*
X110750417Y-68886451D01*
X110520453Y-69116415D01*
X110250044Y-69297097D01*
X109949581Y-69421553D01*
X109843258Y-69442702D01*
X109630613Y-69485000D01*
X109305391Y-69485000D01*
X109092746Y-69442702D01*
X108986423Y-69421553D01*
X108685960Y-69297097D01*
X108415551Y-69116415D01*
X108185587Y-68886451D01*
X108004905Y-68616042D01*
X107880449Y-68315579D01*
X107827593Y-68049853D01*
X107817002Y-67996611D01*
X107817002Y-67671389D01*
X107880449Y-67352422D01*
X107891594Y-67325516D01*
X108004905Y-67051958D01*
X108185587Y-66781549D01*
X108415551Y-66551585D01*
X108685960Y-66370903D01*
X108986423Y-66246447D01*
X109092746Y-66225298D01*
X109305391Y-66183000D01*
X109630613Y-66183000D01*
X109843258Y-66225298D01*
G37*
G36*
X60075256Y-66225298D02*
G01*
X60181579Y-66246447D01*
X60482042Y-66370903D01*
X60752451Y-66551585D01*
X60982415Y-66781549D01*
X61163097Y-67051958D01*
X61276409Y-67325516D01*
X61287553Y-67352422D01*
X61351000Y-67671389D01*
X61351000Y-67996611D01*
X61340409Y-68049853D01*
X61287553Y-68315579D01*
X61163097Y-68616042D01*
X60982415Y-68886451D01*
X60752451Y-69116415D01*
X60482042Y-69297097D01*
X60181579Y-69421553D01*
X60075256Y-69442702D01*
X59862611Y-69485000D01*
X59537389Y-69485000D01*
X59324744Y-69442702D01*
X59218421Y-69421553D01*
X58917958Y-69297097D01*
X58647549Y-69116415D01*
X58417585Y-68886451D01*
X58236903Y-68616042D01*
X58112447Y-68315579D01*
X58059591Y-68049853D01*
X58049000Y-67996611D01*
X58049000Y-67671389D01*
X58112447Y-67352422D01*
X58123592Y-67325516D01*
X58236903Y-67051958D01*
X58417585Y-66781549D01*
X58647549Y-66551585D01*
X58917958Y-66370903D01*
X59218421Y-66246447D01*
X59324744Y-66225298D01*
X59537389Y-66183000D01*
X59862611Y-66183000D01*
X60075256Y-66225298D01*
G37*
G36*
X79355514Y-66683927D02*
G01*
X79504814Y-66713624D01*
X79668786Y-66781544D01*
X79816356Y-66880147D01*
X79941855Y-67005646D01*
X80040458Y-67153216D01*
X80108378Y-67317188D01*
X80143002Y-67491259D01*
X80143002Y-67668741D01*
X80108378Y-67842812D01*
X80040458Y-68006784D01*
X79941855Y-68154354D01*
X79816356Y-68279853D01*
X79668786Y-68378456D01*
X79504814Y-68446376D01*
X79355514Y-68476073D01*
X79330744Y-68481000D01*
X79153260Y-68481000D01*
X79128490Y-68476073D01*
X78979190Y-68446376D01*
X78815218Y-68378456D01*
X78667648Y-68279853D01*
X78542149Y-68154354D01*
X78443546Y-68006784D01*
X78375626Y-67842812D01*
X78341002Y-67668741D01*
X78341002Y-67491259D01*
X78375626Y-67317188D01*
X78443546Y-67153216D01*
X78542149Y-67005646D01*
X78667648Y-66880147D01*
X78815218Y-66781544D01*
X78979190Y-66713624D01*
X79128490Y-66683927D01*
X79153260Y-66679000D01*
X79330744Y-66679000D01*
X79355514Y-66683927D01*
G37*
G36*
X29587512Y-66683927D02*
G01*
X29736812Y-66713624D01*
X29900784Y-66781544D01*
X30048354Y-66880147D01*
X30173853Y-67005646D01*
X30272456Y-67153216D01*
X30340376Y-67317188D01*
X30375000Y-67491259D01*
X30375000Y-67668741D01*
X30340376Y-67842812D01*
X30272456Y-68006784D01*
X30173853Y-68154354D01*
X30048354Y-68279853D01*
X29900784Y-68378456D01*
X29736812Y-68446376D01*
X29587512Y-68476073D01*
X29562742Y-68481000D01*
X29385258Y-68481000D01*
X29360488Y-68476073D01*
X29211188Y-68446376D01*
X29047216Y-68378456D01*
X28899646Y-68279853D01*
X28774147Y-68154354D01*
X28675544Y-68006784D01*
X28607624Y-67842812D01*
X28573000Y-67668741D01*
X28573000Y-67491259D01*
X28607624Y-67317188D01*
X28675544Y-67153216D01*
X28774147Y-67005646D01*
X28899646Y-66880147D01*
X29047216Y-66781544D01*
X29211188Y-66713624D01*
X29360488Y-66683927D01*
X29385258Y-66679000D01*
X29562742Y-66679000D01*
X29587512Y-66683927D01*
G37*
G36*
X97135514Y-66683927D02*
G01*
X97284814Y-66713624D01*
X97448786Y-66781544D01*
X97596356Y-66880147D01*
X97721855Y-67005646D01*
X97820458Y-67153216D01*
X97888378Y-67317188D01*
X97923002Y-67491259D01*
X97923002Y-67668741D01*
X97888378Y-67842812D01*
X97820458Y-68006784D01*
X97721855Y-68154354D01*
X97596356Y-68279853D01*
X97448786Y-68378456D01*
X97284814Y-68446376D01*
X97135514Y-68476073D01*
X97110744Y-68481000D01*
X96933260Y-68481000D01*
X96908490Y-68476073D01*
X96759190Y-68446376D01*
X96595218Y-68378456D01*
X96447648Y-68279853D01*
X96322149Y-68154354D01*
X96223546Y-68006784D01*
X96155626Y-67842812D01*
X96121002Y-67668741D01*
X96121002Y-67491259D01*
X96155626Y-67317188D01*
X96223546Y-67153216D01*
X96322149Y-67005646D01*
X96447648Y-66880147D01*
X96595218Y-66781544D01*
X96759190Y-66713624D01*
X96908490Y-66683927D01*
X96933260Y-66679000D01*
X97110744Y-66679000D01*
X97135514Y-66683927D01*
G37*
G36*
X47367512Y-66683927D02*
G01*
X47516812Y-66713624D01*
X47680784Y-66781544D01*
X47828354Y-66880147D01*
X47953853Y-67005646D01*
X48052456Y-67153216D01*
X48120376Y-67317188D01*
X48155000Y-67491259D01*
X48155000Y-67668741D01*
X48120376Y-67842812D01*
X48052456Y-68006784D01*
X47953853Y-68154354D01*
X47828354Y-68279853D01*
X47680784Y-68378456D01*
X47516812Y-68446376D01*
X47367512Y-68476073D01*
X47342742Y-68481000D01*
X47165258Y-68481000D01*
X47140488Y-68476073D01*
X46991188Y-68446376D01*
X46827216Y-68378456D01*
X46679646Y-68279853D01*
X46554147Y-68154354D01*
X46455544Y-68006784D01*
X46387624Y-67842812D01*
X46353000Y-67668741D01*
X46353000Y-67491259D01*
X46387624Y-67317188D01*
X46455544Y-67153216D01*
X46554147Y-67005646D01*
X46679646Y-66880147D01*
X46827216Y-66781544D01*
X46991188Y-66713624D01*
X47140488Y-66683927D01*
X47165258Y-66679000D01*
X47342742Y-66679000D01*
X47367512Y-66683927D01*
G37*
G36*
X22414564Y-66211389D02*
G01*
X22605833Y-66290615D01*
X22605835Y-66290616D01*
X22777973Y-66405635D01*
X22924365Y-66552027D01*
X23032341Y-66713624D01*
X23039385Y-66724167D01*
X23118611Y-66915436D01*
X23159000Y-67118484D01*
X23159000Y-67325516D01*
X23118611Y-67528564D01*
X23059451Y-67671389D01*
X23039384Y-67719835D01*
X22924365Y-67891973D01*
X22777973Y-68038365D01*
X22605835Y-68153384D01*
X22605834Y-68153385D01*
X22605833Y-68153385D01*
X22414564Y-68232611D01*
X22211516Y-68273000D01*
X22004484Y-68273000D01*
X21801436Y-68232611D01*
X21610167Y-68153385D01*
X21610166Y-68153385D01*
X21610165Y-68153384D01*
X21438027Y-68038365D01*
X21291635Y-67891973D01*
X21176616Y-67719835D01*
X21156549Y-67671389D01*
X21097389Y-67528564D01*
X21057000Y-67325516D01*
X21057000Y-67118484D01*
X21097389Y-66915436D01*
X21176615Y-66724167D01*
X21183660Y-66713624D01*
X21291635Y-66552027D01*
X21438027Y-66405635D01*
X21610165Y-66290616D01*
X21610167Y-66290615D01*
X21801436Y-66211389D01*
X22004484Y-66171000D01*
X22211516Y-66171000D01*
X22414564Y-66211389D01*
G37*
G36*
X17914564Y-66211389D02*
G01*
X18105833Y-66290615D01*
X18105835Y-66290616D01*
X18277973Y-66405635D01*
X18424365Y-66552027D01*
X18532341Y-66713624D01*
X18539385Y-66724167D01*
X18618611Y-66915436D01*
X18659000Y-67118484D01*
X18659000Y-67325516D01*
X18618611Y-67528564D01*
X18559451Y-67671389D01*
X18539384Y-67719835D01*
X18424365Y-67891973D01*
X18277973Y-68038365D01*
X18105835Y-68153384D01*
X18105834Y-68153385D01*
X18105833Y-68153385D01*
X17914564Y-68232611D01*
X17711516Y-68273000D01*
X17504484Y-68273000D01*
X17301436Y-68232611D01*
X17110167Y-68153385D01*
X17110166Y-68153385D01*
X17110165Y-68153384D01*
X16938027Y-68038365D01*
X16791635Y-67891973D01*
X16676616Y-67719835D01*
X16656549Y-67671389D01*
X16597389Y-67528564D01*
X16557000Y-67325516D01*
X16557000Y-67118484D01*
X16597389Y-66915436D01*
X16676615Y-66724167D01*
X16683660Y-66713624D01*
X16791635Y-66552027D01*
X16938027Y-66405635D01*
X17110165Y-66290616D01*
X17110167Y-66290615D01*
X17301436Y-66211389D01*
X17504484Y-66171000D01*
X17711516Y-66171000D01*
X17914564Y-66211389D01*
G37*
G36*
X72182566Y-66211389D02*
G01*
X72373835Y-66290615D01*
X72373837Y-66290616D01*
X72545975Y-66405635D01*
X72692367Y-66552027D01*
X72800343Y-66713624D01*
X72807387Y-66724167D01*
X72886613Y-66915436D01*
X72927002Y-67118484D01*
X72927002Y-67325516D01*
X72886613Y-67528564D01*
X72827453Y-67671389D01*
X72807386Y-67719835D01*
X72692367Y-67891973D01*
X72545975Y-68038365D01*
X72373837Y-68153384D01*
X72373836Y-68153385D01*
X72373835Y-68153385D01*
X72182566Y-68232611D01*
X71979518Y-68273000D01*
X71772486Y-68273000D01*
X71569438Y-68232611D01*
X71378169Y-68153385D01*
X71378168Y-68153385D01*
X71378167Y-68153384D01*
X71206029Y-68038365D01*
X71059637Y-67891973D01*
X70944618Y-67719835D01*
X70924551Y-67671389D01*
X70865391Y-67528564D01*
X70825002Y-67325516D01*
X70825002Y-67118484D01*
X70865391Y-66915436D01*
X70944617Y-66724167D01*
X70951662Y-66713624D01*
X71059637Y-66552027D01*
X71206029Y-66405635D01*
X71378167Y-66290616D01*
X71378169Y-66290615D01*
X71569438Y-66211389D01*
X71772486Y-66171000D01*
X71979518Y-66171000D01*
X72182566Y-66211389D01*
G37*
G36*
X67682566Y-66211389D02*
G01*
X67873835Y-66290615D01*
X67873837Y-66290616D01*
X68045975Y-66405635D01*
X68192367Y-66552027D01*
X68300343Y-66713624D01*
X68307387Y-66724167D01*
X68386613Y-66915436D01*
X68427002Y-67118484D01*
X68427002Y-67325516D01*
X68386613Y-67528564D01*
X68327453Y-67671389D01*
X68307386Y-67719835D01*
X68192367Y-67891973D01*
X68045975Y-68038365D01*
X67873837Y-68153384D01*
X67873836Y-68153385D01*
X67873835Y-68153385D01*
X67682566Y-68232611D01*
X67479518Y-68273000D01*
X67272486Y-68273000D01*
X67069438Y-68232611D01*
X66878169Y-68153385D01*
X66878168Y-68153385D01*
X66878167Y-68153384D01*
X66706029Y-68038365D01*
X66559637Y-67891973D01*
X66444618Y-67719835D01*
X66424551Y-67671389D01*
X66365391Y-67528564D01*
X66325002Y-67325516D01*
X66325002Y-67118484D01*
X66365391Y-66915436D01*
X66444617Y-66724167D01*
X66451662Y-66713624D01*
X66559637Y-66552027D01*
X66706029Y-66405635D01*
X66878167Y-66290616D01*
X66878169Y-66290615D01*
X67069438Y-66211389D01*
X67272486Y-66171000D01*
X67479518Y-66171000D01*
X67682566Y-66211389D01*
G37*
G36*
X90785514Y-66453927D02*
G01*
X90934814Y-66483624D01*
X91098786Y-66551544D01*
X91246356Y-66650147D01*
X91371855Y-66775646D01*
X91470458Y-66923216D01*
X91538378Y-67087188D01*
X91573002Y-67261259D01*
X91573002Y-67438741D01*
X91538378Y-67612812D01*
X91470458Y-67776784D01*
X91371855Y-67924354D01*
X91246356Y-68049853D01*
X91098786Y-68148456D01*
X90934814Y-68216376D01*
X90785514Y-68246073D01*
X90760744Y-68251000D01*
X90583260Y-68251000D01*
X90558490Y-68246073D01*
X90409190Y-68216376D01*
X90245218Y-68148456D01*
X90097648Y-68049853D01*
X89972149Y-67924354D01*
X89873546Y-67776784D01*
X89805626Y-67612812D01*
X89771002Y-67438741D01*
X89771002Y-67261259D01*
X89805626Y-67087188D01*
X89873546Y-66923216D01*
X89972149Y-66775646D01*
X90097648Y-66650147D01*
X90245218Y-66551544D01*
X90409190Y-66483624D01*
X90558490Y-66453927D01*
X90583260Y-66449000D01*
X90760744Y-66449000D01*
X90785514Y-66453927D01*
G37*
G36*
X85705514Y-66453927D02*
G01*
X85854814Y-66483624D01*
X86018786Y-66551544D01*
X86166356Y-66650147D01*
X86291855Y-66775646D01*
X86390458Y-66923216D01*
X86458378Y-67087188D01*
X86493002Y-67261259D01*
X86493002Y-67438741D01*
X86458378Y-67612812D01*
X86390458Y-67776784D01*
X86291855Y-67924354D01*
X86166356Y-68049853D01*
X86018786Y-68148456D01*
X85854814Y-68216376D01*
X85705514Y-68246073D01*
X85680744Y-68251000D01*
X85503260Y-68251000D01*
X85478490Y-68246073D01*
X85329190Y-68216376D01*
X85165218Y-68148456D01*
X85017648Y-68049853D01*
X84892149Y-67924354D01*
X84793546Y-67776784D01*
X84725626Y-67612812D01*
X84691002Y-67438741D01*
X84691002Y-67261259D01*
X84725626Y-67087188D01*
X84793546Y-66923216D01*
X84892149Y-66775646D01*
X85017648Y-66650147D01*
X85165218Y-66551544D01*
X85329190Y-66483624D01*
X85478490Y-66453927D01*
X85503260Y-66449000D01*
X85680744Y-66449000D01*
X85705514Y-66453927D01*
G37*
G36*
X89033002Y-68251000D02*
G01*
X87231002Y-68251000D01*
X87231002Y-66449000D01*
X89033002Y-66449000D01*
X89033002Y-68251000D01*
G37*
G36*
X35937512Y-66453927D02*
G01*
X36086812Y-66483624D01*
X36250784Y-66551544D01*
X36398354Y-66650147D01*
X36523853Y-66775646D01*
X36622456Y-66923216D01*
X36690376Y-67087188D01*
X36725000Y-67261259D01*
X36725000Y-67438741D01*
X36690376Y-67612812D01*
X36622456Y-67776784D01*
X36523853Y-67924354D01*
X36398354Y-68049853D01*
X36250784Y-68148456D01*
X36086812Y-68216376D01*
X35937512Y-68246073D01*
X35912742Y-68251000D01*
X35735258Y-68251000D01*
X35710488Y-68246073D01*
X35561188Y-68216376D01*
X35397216Y-68148456D01*
X35249646Y-68049853D01*
X35124147Y-67924354D01*
X35025544Y-67776784D01*
X34957624Y-67612812D01*
X34923000Y-67438741D01*
X34923000Y-67261259D01*
X34957624Y-67087188D01*
X35025544Y-66923216D01*
X35124147Y-66775646D01*
X35249646Y-66650147D01*
X35397216Y-66551544D01*
X35561188Y-66483624D01*
X35710488Y-66453927D01*
X35735258Y-66449000D01*
X35912742Y-66449000D01*
X35937512Y-66453927D01*
G37*
G36*
X39265000Y-68251000D02*
G01*
X37463000Y-68251000D01*
X37463000Y-66449000D01*
X39265000Y-66449000D01*
X39265000Y-68251000D01*
G37*
G36*
X41017512Y-66453927D02*
G01*
X41166812Y-66483624D01*
X41330784Y-66551544D01*
X41478354Y-66650147D01*
X41603853Y-66775646D01*
X41702456Y-66923216D01*
X41770376Y-67087188D01*
X41805000Y-67261259D01*
X41805000Y-67438741D01*
X41770376Y-67612812D01*
X41702456Y-67776784D01*
X41603853Y-67924354D01*
X41478354Y-68049853D01*
X41330784Y-68148456D01*
X41166812Y-68216376D01*
X41017512Y-68246073D01*
X40992742Y-68251000D01*
X40815258Y-68251000D01*
X40790488Y-68246073D01*
X40641188Y-68216376D01*
X40477216Y-68148456D01*
X40329646Y-68049853D01*
X40204147Y-67924354D01*
X40105544Y-67776784D01*
X40037624Y-67612812D01*
X40003000Y-67438741D01*
X40003000Y-67261259D01*
X40037624Y-67087188D01*
X40105544Y-66923216D01*
X40204147Y-66775646D01*
X40329646Y-66650147D01*
X40477216Y-66551544D01*
X40641188Y-66483624D01*
X40790488Y-66453927D01*
X40815258Y-66449000D01*
X40992742Y-66449000D01*
X41017512Y-66453927D01*
G37*
G36*
X97135514Y-64143927D02*
G01*
X97284814Y-64173624D01*
X97448786Y-64241544D01*
X97596356Y-64340147D01*
X97721855Y-64465646D01*
X97820458Y-64613216D01*
X97888378Y-64777188D01*
X97923002Y-64951259D01*
X97923002Y-65128741D01*
X97888378Y-65302812D01*
X97820458Y-65466784D01*
X97721855Y-65614354D01*
X97596356Y-65739853D01*
X97448786Y-65838456D01*
X97284814Y-65906376D01*
X97135514Y-65936073D01*
X97110744Y-65941000D01*
X96933260Y-65941000D01*
X96908490Y-65936073D01*
X96759190Y-65906376D01*
X96595218Y-65838456D01*
X96447648Y-65739853D01*
X96322149Y-65614354D01*
X96223546Y-65466784D01*
X96155626Y-65302812D01*
X96121002Y-65128741D01*
X96121002Y-64951259D01*
X96155626Y-64777188D01*
X96223546Y-64613216D01*
X96322149Y-64465646D01*
X96447648Y-64340147D01*
X96595218Y-64241544D01*
X96759190Y-64173624D01*
X96908490Y-64143927D01*
X96933260Y-64139000D01*
X97110744Y-64139000D01*
X97135514Y-64143927D01*
G37*
G36*
X79355514Y-64143927D02*
G01*
X79504814Y-64173624D01*
X79668786Y-64241544D01*
X79816356Y-64340147D01*
X79941855Y-64465646D01*
X80040458Y-64613216D01*
X80108378Y-64777188D01*
X80143002Y-64951259D01*
X80143002Y-65128741D01*
X80108378Y-65302812D01*
X80040458Y-65466784D01*
X79941855Y-65614354D01*
X79816356Y-65739853D01*
X79668786Y-65838456D01*
X79504814Y-65906376D01*
X79355514Y-65936073D01*
X79330744Y-65941000D01*
X79153260Y-65941000D01*
X79128490Y-65936073D01*
X78979190Y-65906376D01*
X78815218Y-65838456D01*
X78667648Y-65739853D01*
X78542149Y-65614354D01*
X78443546Y-65466784D01*
X78375626Y-65302812D01*
X78341002Y-65128741D01*
X78341002Y-64951259D01*
X78375626Y-64777188D01*
X78443546Y-64613216D01*
X78542149Y-64465646D01*
X78667648Y-64340147D01*
X78815218Y-64241544D01*
X78979190Y-64173624D01*
X79128490Y-64143927D01*
X79153260Y-64139000D01*
X79330744Y-64139000D01*
X79355514Y-64143927D01*
G37*
G36*
X47367512Y-64143927D02*
G01*
X47516812Y-64173624D01*
X47680784Y-64241544D01*
X47828354Y-64340147D01*
X47953853Y-64465646D01*
X48052456Y-64613216D01*
X48120376Y-64777188D01*
X48155000Y-64951259D01*
X48155000Y-65128741D01*
X48120376Y-65302812D01*
X48052456Y-65466784D01*
X47953853Y-65614354D01*
X47828354Y-65739853D01*
X47680784Y-65838456D01*
X47516812Y-65906376D01*
X47367512Y-65936073D01*
X47342742Y-65941000D01*
X47165258Y-65941000D01*
X47140488Y-65936073D01*
X46991188Y-65906376D01*
X46827216Y-65838456D01*
X46679646Y-65739853D01*
X46554147Y-65614354D01*
X46455544Y-65466784D01*
X46387624Y-65302812D01*
X46353000Y-65128741D01*
X46353000Y-64951259D01*
X46387624Y-64777188D01*
X46455544Y-64613216D01*
X46554147Y-64465646D01*
X46679646Y-64340147D01*
X46827216Y-64241544D01*
X46991188Y-64173624D01*
X47140488Y-64143927D01*
X47165258Y-64139000D01*
X47342742Y-64139000D01*
X47367512Y-64143927D01*
G37*
G36*
X29587512Y-64143927D02*
G01*
X29736812Y-64173624D01*
X29900784Y-64241544D01*
X30048354Y-64340147D01*
X30173853Y-64465646D01*
X30272456Y-64613216D01*
X30340376Y-64777188D01*
X30375000Y-64951259D01*
X30375000Y-65128741D01*
X30340376Y-65302812D01*
X30272456Y-65466784D01*
X30173853Y-65614354D01*
X30048354Y-65739853D01*
X29900784Y-65838456D01*
X29736812Y-65906376D01*
X29587512Y-65936073D01*
X29562742Y-65941000D01*
X29385258Y-65941000D01*
X29360488Y-65936073D01*
X29211188Y-65906376D01*
X29047216Y-65838456D01*
X28899646Y-65739853D01*
X28774147Y-65614354D01*
X28675544Y-65466784D01*
X28607624Y-65302812D01*
X28573000Y-65128741D01*
X28573000Y-64951259D01*
X28607624Y-64777188D01*
X28675544Y-64613216D01*
X28774147Y-64465646D01*
X28899646Y-64340147D01*
X29047216Y-64241544D01*
X29211188Y-64173624D01*
X29360488Y-64143927D01*
X29385258Y-64139000D01*
X29562742Y-64139000D01*
X29587512Y-64143927D01*
G37*
G36*
X48155000Y-63401000D02*
G01*
X46353000Y-63401000D01*
X46353000Y-61599000D01*
X48155000Y-61599000D01*
X48155000Y-63401000D01*
G37*
G36*
X80143002Y-63401000D02*
G01*
X78341002Y-63401000D01*
X78341002Y-61599000D01*
X80143002Y-61599000D01*
X80143002Y-63401000D01*
G37*
G36*
X30375000Y-63401000D02*
G01*
X28573000Y-63401000D01*
X28573000Y-61599000D01*
X30375000Y-61599000D01*
X30375000Y-63401000D01*
G37*
G36*
X97923002Y-63401000D02*
G01*
X96121002Y-63401000D01*
X96121002Y-61599000D01*
X97923002Y-61599000D01*
X97923002Y-63401000D01*
G37*
G36*
X72182566Y-59711389D02*
G01*
X72373835Y-59790615D01*
X72373837Y-59790616D01*
X72494526Y-59871258D01*
X72545975Y-59905635D01*
X72692367Y-60052027D01*
X72807387Y-60224167D01*
X72886613Y-60415436D01*
X72927002Y-60618484D01*
X72927002Y-60825516D01*
X72886613Y-61028564D01*
X72807387Y-61219833D01*
X72807386Y-61219835D01*
X72692367Y-61391973D01*
X72545975Y-61538365D01*
X72373837Y-61653384D01*
X72373836Y-61653385D01*
X72373835Y-61653385D01*
X72182566Y-61732611D01*
X71979518Y-61773000D01*
X71772486Y-61773000D01*
X71569438Y-61732611D01*
X71378169Y-61653385D01*
X71378168Y-61653385D01*
X71378167Y-61653384D01*
X71206029Y-61538365D01*
X71059637Y-61391973D01*
X70944618Y-61219835D01*
X70944617Y-61219833D01*
X70865391Y-61028564D01*
X70825002Y-60825516D01*
X70825002Y-60618484D01*
X70865391Y-60415436D01*
X70944617Y-60224167D01*
X71059637Y-60052027D01*
X71206029Y-59905635D01*
X71257478Y-59871258D01*
X71378167Y-59790616D01*
X71378169Y-59790615D01*
X71569438Y-59711389D01*
X71772486Y-59671000D01*
X71979518Y-59671000D01*
X72182566Y-59711389D01*
G37*
G36*
X67682566Y-59711389D02*
G01*
X67873835Y-59790615D01*
X67873837Y-59790616D01*
X67994526Y-59871258D01*
X68045975Y-59905635D01*
X68192367Y-60052027D01*
X68307387Y-60224167D01*
X68386613Y-60415436D01*
X68427002Y-60618484D01*
X68427002Y-60825516D01*
X68386613Y-61028564D01*
X68307387Y-61219833D01*
X68307386Y-61219835D01*
X68192367Y-61391973D01*
X68045975Y-61538365D01*
X67873837Y-61653384D01*
X67873836Y-61653385D01*
X67873835Y-61653385D01*
X67682566Y-61732611D01*
X67479518Y-61773000D01*
X67272486Y-61773000D01*
X67069438Y-61732611D01*
X66878169Y-61653385D01*
X66878168Y-61653385D01*
X66878167Y-61653384D01*
X66706029Y-61538365D01*
X66559637Y-61391973D01*
X66444618Y-61219835D01*
X66444617Y-61219833D01*
X66365391Y-61028564D01*
X66325002Y-60825516D01*
X66325002Y-60618484D01*
X66365391Y-60415436D01*
X66444617Y-60224167D01*
X66559637Y-60052027D01*
X66706029Y-59905635D01*
X66757478Y-59871258D01*
X66878167Y-59790616D01*
X66878169Y-59790615D01*
X67069438Y-59711389D01*
X67272486Y-59671000D01*
X67479518Y-59671000D01*
X67682566Y-59711389D01*
G37*
G36*
X17914564Y-59711389D02*
G01*
X18105833Y-59790615D01*
X18105835Y-59790616D01*
X18226524Y-59871258D01*
X18277973Y-59905635D01*
X18424365Y-60052027D01*
X18539385Y-60224167D01*
X18618611Y-60415436D01*
X18659000Y-60618484D01*
X18659000Y-60825516D01*
X18618611Y-61028564D01*
X18539385Y-61219833D01*
X18539384Y-61219835D01*
X18424365Y-61391973D01*
X18277973Y-61538365D01*
X18105835Y-61653384D01*
X18105834Y-61653385D01*
X18105833Y-61653385D01*
X17914564Y-61732611D01*
X17711516Y-61773000D01*
X17504484Y-61773000D01*
X17301436Y-61732611D01*
X17110167Y-61653385D01*
X17110166Y-61653385D01*
X17110165Y-61653384D01*
X16938027Y-61538365D01*
X16791635Y-61391973D01*
X16676616Y-61219835D01*
X16676615Y-61219833D01*
X16597389Y-61028564D01*
X16557000Y-60825516D01*
X16557000Y-60618484D01*
X16597389Y-60415436D01*
X16676615Y-60224167D01*
X16791635Y-60052027D01*
X16938027Y-59905635D01*
X16989476Y-59871258D01*
X17110165Y-59790616D01*
X17110167Y-59790615D01*
X17301436Y-59711389D01*
X17504484Y-59671000D01*
X17711516Y-59671000D01*
X17914564Y-59711389D01*
G37*
G36*
X22414564Y-59711389D02*
G01*
X22605833Y-59790615D01*
X22605835Y-59790616D01*
X22726524Y-59871258D01*
X22777973Y-59905635D01*
X22924365Y-60052027D01*
X23039385Y-60224167D01*
X23118611Y-60415436D01*
X23159000Y-60618484D01*
X23159000Y-60825516D01*
X23118611Y-61028564D01*
X23039385Y-61219833D01*
X23039384Y-61219835D01*
X22924365Y-61391973D01*
X22777973Y-61538365D01*
X22605835Y-61653384D01*
X22605834Y-61653385D01*
X22605833Y-61653385D01*
X22414564Y-61732611D01*
X22211516Y-61773000D01*
X22004484Y-61773000D01*
X21801436Y-61732611D01*
X21610167Y-61653385D01*
X21610166Y-61653385D01*
X21610165Y-61653384D01*
X21438027Y-61538365D01*
X21291635Y-61391973D01*
X21176616Y-61219835D01*
X21176615Y-61219833D01*
X21097389Y-61028564D01*
X21057000Y-60825516D01*
X21057000Y-60618484D01*
X21097389Y-60415436D01*
X21176615Y-60224167D01*
X21291635Y-60052027D01*
X21438027Y-59905635D01*
X21489476Y-59871258D01*
X21610165Y-59790616D01*
X21610167Y-59790615D01*
X21801436Y-59711389D01*
X22004484Y-59671000D01*
X22211516Y-59671000D01*
X22414564Y-59711389D01*
G37*
G36*
X47367512Y-59063927D02*
G01*
X47516812Y-59093624D01*
X47680784Y-59161544D01*
X47828354Y-59260147D01*
X47953853Y-59385646D01*
X48052456Y-59533216D01*
X48120376Y-59697188D01*
X48150073Y-59846488D01*
X48155000Y-59871258D01*
X48155000Y-60048742D01*
X48150073Y-60073512D01*
X48120376Y-60222812D01*
X48052456Y-60386784D01*
X47953853Y-60534354D01*
X47828354Y-60659853D01*
X47680784Y-60758456D01*
X47516812Y-60826376D01*
X47367512Y-60856073D01*
X47342742Y-60861000D01*
X47165258Y-60861000D01*
X47140488Y-60856073D01*
X46991188Y-60826376D01*
X46827216Y-60758456D01*
X46679646Y-60659853D01*
X46554147Y-60534354D01*
X46455544Y-60386784D01*
X46387624Y-60222812D01*
X46357927Y-60073512D01*
X46353000Y-60048742D01*
X46353000Y-59871258D01*
X46357927Y-59846488D01*
X46387624Y-59697188D01*
X46455544Y-59533216D01*
X46554147Y-59385646D01*
X46679646Y-59260147D01*
X46827216Y-59161544D01*
X46991188Y-59093624D01*
X47140488Y-59063927D01*
X47165258Y-59059000D01*
X47342742Y-59059000D01*
X47367512Y-59063927D01*
G37*
G36*
X97135514Y-59063927D02*
G01*
X97284814Y-59093624D01*
X97448786Y-59161544D01*
X97596356Y-59260147D01*
X97721855Y-59385646D01*
X97820458Y-59533216D01*
X97888378Y-59697188D01*
X97918075Y-59846488D01*
X97923002Y-59871258D01*
X97923002Y-60048742D01*
X97918075Y-60073512D01*
X97888378Y-60222812D01*
X97820458Y-60386784D01*
X97721855Y-60534354D01*
X97596356Y-60659853D01*
X97448786Y-60758456D01*
X97284814Y-60826376D01*
X97135514Y-60856073D01*
X97110744Y-60861000D01*
X96933260Y-60861000D01*
X96908490Y-60856073D01*
X96759190Y-60826376D01*
X96595218Y-60758456D01*
X96447648Y-60659853D01*
X96322149Y-60534354D01*
X96223546Y-60386784D01*
X96155626Y-60222812D01*
X96125929Y-60073512D01*
X96121002Y-60048742D01*
X96121002Y-59871258D01*
X96125929Y-59846488D01*
X96155626Y-59697188D01*
X96223546Y-59533216D01*
X96322149Y-59385646D01*
X96447648Y-59260147D01*
X96595218Y-59161544D01*
X96759190Y-59093624D01*
X96908490Y-59063927D01*
X96933260Y-59059000D01*
X97110744Y-59059000D01*
X97135514Y-59063927D01*
G37*
G36*
X79355514Y-59063927D02*
G01*
X79504814Y-59093624D01*
X79668786Y-59161544D01*
X79816356Y-59260147D01*
X79941855Y-59385646D01*
X80040458Y-59533216D01*
X80108378Y-59697188D01*
X80138075Y-59846488D01*
X80143002Y-59871258D01*
X80143002Y-60048742D01*
X80138075Y-60073512D01*
X80108378Y-60222812D01*
X80040458Y-60386784D01*
X79941855Y-60534354D01*
X79816356Y-60659853D01*
X79668786Y-60758456D01*
X79504814Y-60826376D01*
X79355514Y-60856073D01*
X79330744Y-60861000D01*
X79153260Y-60861000D01*
X79128490Y-60856073D01*
X78979190Y-60826376D01*
X78815218Y-60758456D01*
X78667648Y-60659853D01*
X78542149Y-60534354D01*
X78443546Y-60386784D01*
X78375626Y-60222812D01*
X78345929Y-60073512D01*
X78341002Y-60048742D01*
X78341002Y-59871258D01*
X78345929Y-59846488D01*
X78375626Y-59697188D01*
X78443546Y-59533216D01*
X78542149Y-59385646D01*
X78667648Y-59260147D01*
X78815218Y-59161544D01*
X78979190Y-59093624D01*
X79128490Y-59063927D01*
X79153260Y-59059000D01*
X79330744Y-59059000D01*
X79355514Y-59063927D01*
G37*
G36*
X29587512Y-59063927D02*
G01*
X29736812Y-59093624D01*
X29900784Y-59161544D01*
X30048354Y-59260147D01*
X30173853Y-59385646D01*
X30272456Y-59533216D01*
X30340376Y-59697188D01*
X30370073Y-59846488D01*
X30375000Y-59871258D01*
X30375000Y-60048742D01*
X30370073Y-60073512D01*
X30340376Y-60222812D01*
X30272456Y-60386784D01*
X30173853Y-60534354D01*
X30048354Y-60659853D01*
X29900784Y-60758456D01*
X29736812Y-60826376D01*
X29587512Y-60856073D01*
X29562742Y-60861000D01*
X29385258Y-60861000D01*
X29360488Y-60856073D01*
X29211188Y-60826376D01*
X29047216Y-60758456D01*
X28899646Y-60659853D01*
X28774147Y-60534354D01*
X28675544Y-60386784D01*
X28607624Y-60222812D01*
X28577927Y-60073512D01*
X28573000Y-60048742D01*
X28573000Y-59871258D01*
X28577927Y-59846488D01*
X28607624Y-59697188D01*
X28675544Y-59533216D01*
X28774147Y-59385646D01*
X28899646Y-59260147D01*
X29047216Y-59161544D01*
X29211188Y-59093624D01*
X29360488Y-59063927D01*
X29385258Y-59059000D01*
X29562742Y-59059000D01*
X29587512Y-59063927D01*
G37*
G36*
X29587512Y-56523927D02*
G01*
X29736812Y-56553624D01*
X29900784Y-56621544D01*
X30048354Y-56720147D01*
X30173853Y-56845646D01*
X30272456Y-56993216D01*
X30340376Y-57157188D01*
X30375000Y-57331259D01*
X30375000Y-57508741D01*
X30340376Y-57682812D01*
X30272456Y-57846784D01*
X30173853Y-57994354D01*
X30048354Y-58119853D01*
X29900784Y-58218456D01*
X29736812Y-58286376D01*
X29587512Y-58316073D01*
X29562742Y-58321000D01*
X29385258Y-58321000D01*
X29360488Y-58316073D01*
X29211188Y-58286376D01*
X29047216Y-58218456D01*
X28899646Y-58119853D01*
X28774147Y-57994354D01*
X28675544Y-57846784D01*
X28607624Y-57682812D01*
X28573000Y-57508741D01*
X28573000Y-57331259D01*
X28607624Y-57157188D01*
X28675544Y-56993216D01*
X28774147Y-56845646D01*
X28899646Y-56720147D01*
X29047216Y-56621544D01*
X29211188Y-56553624D01*
X29360488Y-56523927D01*
X29385258Y-56519000D01*
X29562742Y-56519000D01*
X29587512Y-56523927D01*
G37*
G36*
X97135514Y-56523927D02*
G01*
X97284814Y-56553624D01*
X97448786Y-56621544D01*
X97596356Y-56720147D01*
X97721855Y-56845646D01*
X97820458Y-56993216D01*
X97888378Y-57157188D01*
X97923002Y-57331259D01*
X97923002Y-57508741D01*
X97888378Y-57682812D01*
X97820458Y-57846784D01*
X97721855Y-57994354D01*
X97596356Y-58119853D01*
X97448786Y-58218456D01*
X97284814Y-58286376D01*
X97135514Y-58316073D01*
X97110744Y-58321000D01*
X96933260Y-58321000D01*
X96908490Y-58316073D01*
X96759190Y-58286376D01*
X96595218Y-58218456D01*
X96447648Y-58119853D01*
X96322149Y-57994354D01*
X96223546Y-57846784D01*
X96155626Y-57682812D01*
X96121002Y-57508741D01*
X96121002Y-57331259D01*
X96155626Y-57157188D01*
X96223546Y-56993216D01*
X96322149Y-56845646D01*
X96447648Y-56720147D01*
X96595218Y-56621544D01*
X96759190Y-56553624D01*
X96908490Y-56523927D01*
X96933260Y-56519000D01*
X97110744Y-56519000D01*
X97135514Y-56523927D01*
G37*
G36*
X47367512Y-56523927D02*
G01*
X47516812Y-56553624D01*
X47680784Y-56621544D01*
X47828354Y-56720147D01*
X47953853Y-56845646D01*
X48052456Y-56993216D01*
X48120376Y-57157188D01*
X48155000Y-57331259D01*
X48155000Y-57508741D01*
X48120376Y-57682812D01*
X48052456Y-57846784D01*
X47953853Y-57994354D01*
X47828354Y-58119853D01*
X47680784Y-58218456D01*
X47516812Y-58286376D01*
X47367512Y-58316073D01*
X47342742Y-58321000D01*
X47165258Y-58321000D01*
X47140488Y-58316073D01*
X46991188Y-58286376D01*
X46827216Y-58218456D01*
X46679646Y-58119853D01*
X46554147Y-57994354D01*
X46455544Y-57846784D01*
X46387624Y-57682812D01*
X46353000Y-57508741D01*
X46353000Y-57331259D01*
X46387624Y-57157188D01*
X46455544Y-56993216D01*
X46554147Y-56845646D01*
X46679646Y-56720147D01*
X46827216Y-56621544D01*
X46991188Y-56553624D01*
X47140488Y-56523927D01*
X47165258Y-56519000D01*
X47342742Y-56519000D01*
X47367512Y-56523927D01*
G37*
G36*
X79355514Y-56523927D02*
G01*
X79504814Y-56553624D01*
X79668786Y-56621544D01*
X79816356Y-56720147D01*
X79941855Y-56845646D01*
X80040458Y-56993216D01*
X80108378Y-57157188D01*
X80143002Y-57331259D01*
X80143002Y-57508741D01*
X80108378Y-57682812D01*
X80040458Y-57846784D01*
X79941855Y-57994354D01*
X79816356Y-58119853D01*
X79668786Y-58218456D01*
X79504814Y-58286376D01*
X79355514Y-58316073D01*
X79330744Y-58321000D01*
X79153260Y-58321000D01*
X79128490Y-58316073D01*
X78979190Y-58286376D01*
X78815218Y-58218456D01*
X78667648Y-58119853D01*
X78542149Y-57994354D01*
X78443546Y-57846784D01*
X78375626Y-57682812D01*
X78341002Y-57508741D01*
X78341002Y-57331259D01*
X78375626Y-57157188D01*
X78443546Y-56993216D01*
X78542149Y-56845646D01*
X78667648Y-56720147D01*
X78815218Y-56621544D01*
X78979190Y-56553624D01*
X79128490Y-56523927D01*
X79153260Y-56519000D01*
X79330744Y-56519000D01*
X79355514Y-56523927D01*
G37*
G36*
X29587512Y-53983927D02*
G01*
X29736812Y-54013624D01*
X29900784Y-54081544D01*
X30048354Y-54180147D01*
X30173853Y-54305646D01*
X30272456Y-54453216D01*
X30340376Y-54617188D01*
X30375000Y-54791259D01*
X30375000Y-54968741D01*
X30340376Y-55142812D01*
X30272456Y-55306784D01*
X30173853Y-55454354D01*
X30048354Y-55579853D01*
X29900784Y-55678456D01*
X29736812Y-55746376D01*
X29587512Y-55776073D01*
X29562742Y-55781000D01*
X29385258Y-55781000D01*
X29360488Y-55776073D01*
X29211188Y-55746376D01*
X29047216Y-55678456D01*
X28899646Y-55579853D01*
X28774147Y-55454354D01*
X28675544Y-55306784D01*
X28607624Y-55142812D01*
X28573000Y-54968741D01*
X28573000Y-54791259D01*
X28607624Y-54617188D01*
X28675544Y-54453216D01*
X28774147Y-54305646D01*
X28899646Y-54180147D01*
X29047216Y-54081544D01*
X29211188Y-54013624D01*
X29360488Y-53983927D01*
X29385258Y-53979000D01*
X29562742Y-53979000D01*
X29587512Y-53983927D01*
G37*
G36*
X47367512Y-53983927D02*
G01*
X47516812Y-54013624D01*
X47680784Y-54081544D01*
X47828354Y-54180147D01*
X47953853Y-54305646D01*
X48052456Y-54453216D01*
X48120376Y-54617188D01*
X48155000Y-54791259D01*
X48155000Y-54968741D01*
X48120376Y-55142812D01*
X48052456Y-55306784D01*
X47953853Y-55454354D01*
X47828354Y-55579853D01*
X47680784Y-55678456D01*
X47516812Y-55746376D01*
X47367512Y-55776073D01*
X47342742Y-55781000D01*
X47165258Y-55781000D01*
X47140488Y-55776073D01*
X46991188Y-55746376D01*
X46827216Y-55678456D01*
X46679646Y-55579853D01*
X46554147Y-55454354D01*
X46455544Y-55306784D01*
X46387624Y-55142812D01*
X46353000Y-54968741D01*
X46353000Y-54791259D01*
X46387624Y-54617188D01*
X46455544Y-54453216D01*
X46554147Y-54305646D01*
X46679646Y-54180147D01*
X46827216Y-54081544D01*
X46991188Y-54013624D01*
X47140488Y-53983927D01*
X47165258Y-53979000D01*
X47342742Y-53979000D01*
X47367512Y-53983927D01*
G37*
G36*
X79355514Y-53983927D02*
G01*
X79504814Y-54013624D01*
X79668786Y-54081544D01*
X79816356Y-54180147D01*
X79941855Y-54305646D01*
X80040458Y-54453216D01*
X80108378Y-54617188D01*
X80143002Y-54791259D01*
X80143002Y-54968741D01*
X80108378Y-55142812D01*
X80040458Y-55306784D01*
X79941855Y-55454354D01*
X79816356Y-55579853D01*
X79668786Y-55678456D01*
X79504814Y-55746376D01*
X79355514Y-55776073D01*
X79330744Y-55781000D01*
X79153260Y-55781000D01*
X79128490Y-55776073D01*
X78979190Y-55746376D01*
X78815218Y-55678456D01*
X78667648Y-55579853D01*
X78542149Y-55454354D01*
X78443546Y-55306784D01*
X78375626Y-55142812D01*
X78341002Y-54968741D01*
X78341002Y-54791259D01*
X78375626Y-54617188D01*
X78443546Y-54453216D01*
X78542149Y-54305646D01*
X78667648Y-54180147D01*
X78815218Y-54081544D01*
X78979190Y-54013624D01*
X79128490Y-53983927D01*
X79153260Y-53979000D01*
X79330744Y-53979000D01*
X79355514Y-53983927D01*
G37*
G36*
X97135514Y-53983927D02*
G01*
X97284814Y-54013624D01*
X97448786Y-54081544D01*
X97596356Y-54180147D01*
X97721855Y-54305646D01*
X97820458Y-54453216D01*
X97888378Y-54617188D01*
X97923002Y-54791259D01*
X97923002Y-54968741D01*
X97888378Y-55142812D01*
X97820458Y-55306784D01*
X97721855Y-55454354D01*
X97596356Y-55579853D01*
X97448786Y-55678456D01*
X97284814Y-55746376D01*
X97135514Y-55776073D01*
X97110744Y-55781000D01*
X96933260Y-55781000D01*
X96908490Y-55776073D01*
X96759190Y-55746376D01*
X96595218Y-55678456D01*
X96447648Y-55579853D01*
X96322149Y-55454354D01*
X96223546Y-55306784D01*
X96155626Y-55142812D01*
X96121002Y-54968741D01*
X96121002Y-54791259D01*
X96155626Y-54617188D01*
X96223546Y-54453216D01*
X96322149Y-54305646D01*
X96447648Y-54180147D01*
X96595218Y-54081544D01*
X96759190Y-54013624D01*
X96908490Y-53983927D01*
X96933260Y-53979000D01*
X97110744Y-53979000D01*
X97135514Y-53983927D01*
G37*
G36*
X65047797Y-55143900D02*
G01*
X65102575Y-55166590D01*
X65102577Y-55166591D01*
X65151876Y-55199531D01*
X65193802Y-55241457D01*
X65226742Y-55290756D01*
X65226743Y-55290758D01*
X65249433Y-55345536D01*
X65261000Y-55403686D01*
X65261000Y-55462980D01*
X65249433Y-55521130D01*
X65226743Y-55575908D01*
X65226742Y-55575910D01*
X65193802Y-55625209D01*
X65151876Y-55667135D01*
X65102577Y-55700075D01*
X65102576Y-55700076D01*
X65102575Y-55700076D01*
X65047797Y-55722766D01*
X64989647Y-55734333D01*
X64930353Y-55734333D01*
X64872203Y-55722766D01*
X64817425Y-55700076D01*
X64817424Y-55700076D01*
X64817423Y-55700075D01*
X64768124Y-55667135D01*
X64726198Y-55625209D01*
X64693258Y-55575910D01*
X64693257Y-55575908D01*
X64670567Y-55521130D01*
X64659000Y-55462980D01*
X64659000Y-55403686D01*
X64670567Y-55345536D01*
X64693257Y-55290758D01*
X64693258Y-55290756D01*
X64726198Y-55241457D01*
X64768124Y-55199531D01*
X64817423Y-55166591D01*
X64817425Y-55166590D01*
X64872203Y-55143900D01*
X64930353Y-55132333D01*
X64989647Y-55132333D01*
X65047797Y-55143900D01*
G37*
G36*
X63647797Y-55143900D02*
G01*
X63702575Y-55166590D01*
X63702577Y-55166591D01*
X63751876Y-55199531D01*
X63793802Y-55241457D01*
X63826742Y-55290756D01*
X63826743Y-55290758D01*
X63849433Y-55345536D01*
X63861000Y-55403686D01*
X63861000Y-55462980D01*
X63849433Y-55521130D01*
X63826743Y-55575908D01*
X63826742Y-55575910D01*
X63793802Y-55625209D01*
X63751876Y-55667135D01*
X63702577Y-55700075D01*
X63702576Y-55700076D01*
X63702575Y-55700076D01*
X63647797Y-55722766D01*
X63589647Y-55734333D01*
X63530353Y-55734333D01*
X63472203Y-55722766D01*
X63417425Y-55700076D01*
X63417424Y-55700076D01*
X63417423Y-55700075D01*
X63368124Y-55667135D01*
X63326198Y-55625209D01*
X63293258Y-55575910D01*
X63293257Y-55575908D01*
X63270567Y-55521130D01*
X63259000Y-55462980D01*
X63259000Y-55403686D01*
X63270567Y-55345536D01*
X63293257Y-55290758D01*
X63293258Y-55290756D01*
X63326198Y-55241457D01*
X63368124Y-55199531D01*
X63417423Y-55166591D01*
X63417425Y-55166590D01*
X63472203Y-55143900D01*
X63530353Y-55132333D01*
X63589647Y-55132333D01*
X63647797Y-55143900D01*
G37*
G36*
X65047797Y-54143900D02*
G01*
X65102575Y-54166590D01*
X65102577Y-54166591D01*
X65151876Y-54199531D01*
X65193802Y-54241457D01*
X65226742Y-54290756D01*
X65226743Y-54290758D01*
X65249433Y-54345536D01*
X65261000Y-54403686D01*
X65261000Y-54462980D01*
X65249433Y-54521130D01*
X65226743Y-54575908D01*
X65226742Y-54575910D01*
X65193802Y-54625209D01*
X65151876Y-54667135D01*
X65102577Y-54700075D01*
X65102576Y-54700076D01*
X65102575Y-54700076D01*
X65047797Y-54722766D01*
X64989647Y-54734333D01*
X64930353Y-54734333D01*
X64872203Y-54722766D01*
X64817425Y-54700076D01*
X64817424Y-54700076D01*
X64817423Y-54700075D01*
X64768124Y-54667135D01*
X64726198Y-54625209D01*
X64693258Y-54575910D01*
X64693257Y-54575908D01*
X64670567Y-54521130D01*
X64659000Y-54462980D01*
X64659000Y-54403686D01*
X64670567Y-54345536D01*
X64693257Y-54290758D01*
X64693258Y-54290756D01*
X64726198Y-54241457D01*
X64768124Y-54199531D01*
X64817423Y-54166591D01*
X64817425Y-54166590D01*
X64872203Y-54143900D01*
X64930353Y-54132333D01*
X64989647Y-54132333D01*
X65047797Y-54143900D01*
G37*
G36*
X63647797Y-54143900D02*
G01*
X63702575Y-54166590D01*
X63702577Y-54166591D01*
X63751876Y-54199531D01*
X63793802Y-54241457D01*
X63826742Y-54290756D01*
X63826743Y-54290758D01*
X63849433Y-54345536D01*
X63861000Y-54403686D01*
X63861000Y-54462980D01*
X63849433Y-54521130D01*
X63826743Y-54575908D01*
X63826742Y-54575910D01*
X63793802Y-54625209D01*
X63751876Y-54667135D01*
X63702577Y-54700075D01*
X63702576Y-54700076D01*
X63702575Y-54700076D01*
X63647797Y-54722766D01*
X63589647Y-54734333D01*
X63530353Y-54734333D01*
X63472203Y-54722766D01*
X63417425Y-54700076D01*
X63417424Y-54700076D01*
X63417423Y-54700075D01*
X63368124Y-54667135D01*
X63326198Y-54625209D01*
X63293258Y-54575910D01*
X63293257Y-54575908D01*
X63270567Y-54521130D01*
X63259000Y-54462980D01*
X63259000Y-54403686D01*
X63270567Y-54345536D01*
X63293257Y-54290758D01*
X63293258Y-54290756D01*
X63326198Y-54241457D01*
X63368124Y-54199531D01*
X63417423Y-54166591D01*
X63417425Y-54166590D01*
X63472203Y-54143900D01*
X63530353Y-54132333D01*
X63589647Y-54132333D01*
X63647797Y-54143900D01*
G37*
G36*
X63647797Y-53143900D02*
G01*
X63702575Y-53166590D01*
X63702577Y-53166591D01*
X63751876Y-53199531D01*
X63793802Y-53241457D01*
X63826742Y-53290756D01*
X63826743Y-53290758D01*
X63849433Y-53345536D01*
X63861000Y-53403686D01*
X63861000Y-53462980D01*
X63849433Y-53521130D01*
X63826743Y-53575908D01*
X63826742Y-53575910D01*
X63793802Y-53625209D01*
X63751876Y-53667135D01*
X63702577Y-53700075D01*
X63702576Y-53700076D01*
X63702575Y-53700076D01*
X63647797Y-53722766D01*
X63589647Y-53734333D01*
X63530353Y-53734333D01*
X63472203Y-53722766D01*
X63417425Y-53700076D01*
X63417424Y-53700076D01*
X63417423Y-53700075D01*
X63368124Y-53667135D01*
X63326198Y-53625209D01*
X63293258Y-53575910D01*
X63293257Y-53575908D01*
X63270567Y-53521130D01*
X63259000Y-53462980D01*
X63259000Y-53403686D01*
X63270567Y-53345536D01*
X63293257Y-53290758D01*
X63293258Y-53290756D01*
X63326198Y-53241457D01*
X63368124Y-53199531D01*
X63417423Y-53166591D01*
X63417425Y-53166590D01*
X63472203Y-53143900D01*
X63530353Y-53132333D01*
X63589647Y-53132333D01*
X63647797Y-53143900D01*
G37*
G36*
X65047797Y-53143900D02*
G01*
X65102575Y-53166590D01*
X65102577Y-53166591D01*
X65151876Y-53199531D01*
X65193802Y-53241457D01*
X65226742Y-53290756D01*
X65226743Y-53290758D01*
X65249433Y-53345536D01*
X65261000Y-53403686D01*
X65261000Y-53462980D01*
X65249433Y-53521130D01*
X65226743Y-53575908D01*
X65226742Y-53575910D01*
X65193802Y-53625209D01*
X65151876Y-53667135D01*
X65102577Y-53700075D01*
X65102576Y-53700076D01*
X65102575Y-53700076D01*
X65047797Y-53722766D01*
X64989647Y-53734333D01*
X64930353Y-53734333D01*
X64872203Y-53722766D01*
X64817425Y-53700076D01*
X64817424Y-53700076D01*
X64817423Y-53700075D01*
X64768124Y-53667135D01*
X64726198Y-53625209D01*
X64693258Y-53575910D01*
X64693257Y-53575908D01*
X64670567Y-53521130D01*
X64659000Y-53462980D01*
X64659000Y-53403686D01*
X64670567Y-53345536D01*
X64693257Y-53290758D01*
X64693258Y-53290756D01*
X64726198Y-53241457D01*
X64768124Y-53199531D01*
X64817423Y-53166591D01*
X64817425Y-53166590D01*
X64872203Y-53143900D01*
X64930353Y-53132333D01*
X64989647Y-53132333D01*
X65047797Y-53143900D01*
G37*
G36*
X97135514Y-51443927D02*
G01*
X97284814Y-51473624D01*
X97448786Y-51541544D01*
X97596356Y-51640147D01*
X97721855Y-51765646D01*
X97820458Y-51913216D01*
X97888378Y-52077188D01*
X97923002Y-52251259D01*
X97923002Y-52428741D01*
X97888378Y-52602812D01*
X97820458Y-52766784D01*
X97721855Y-52914354D01*
X97596356Y-53039853D01*
X97448786Y-53138456D01*
X97284814Y-53206376D01*
X97135514Y-53236073D01*
X97110744Y-53241000D01*
X96933260Y-53241000D01*
X96908490Y-53236073D01*
X96759190Y-53206376D01*
X96595218Y-53138456D01*
X96447648Y-53039853D01*
X96322149Y-52914354D01*
X96223546Y-52766784D01*
X96155626Y-52602812D01*
X96121002Y-52428741D01*
X96121002Y-52251259D01*
X96155626Y-52077188D01*
X96223546Y-51913216D01*
X96322149Y-51765646D01*
X96447648Y-51640147D01*
X96595218Y-51541544D01*
X96759190Y-51473624D01*
X96908490Y-51443927D01*
X96933260Y-51439000D01*
X97110744Y-51439000D01*
X97135514Y-51443927D01*
G37*
G36*
X47367512Y-51443927D02*
G01*
X47516812Y-51473624D01*
X47680784Y-51541544D01*
X47828354Y-51640147D01*
X47953853Y-51765646D01*
X48052456Y-51913216D01*
X48120376Y-52077188D01*
X48155000Y-52251259D01*
X48155000Y-52428741D01*
X48120376Y-52602812D01*
X48052456Y-52766784D01*
X47953853Y-52914354D01*
X47828354Y-53039853D01*
X47680784Y-53138456D01*
X47516812Y-53206376D01*
X47367512Y-53236073D01*
X47342742Y-53241000D01*
X47165258Y-53241000D01*
X47140488Y-53236073D01*
X46991188Y-53206376D01*
X46827216Y-53138456D01*
X46679646Y-53039853D01*
X46554147Y-52914354D01*
X46455544Y-52766784D01*
X46387624Y-52602812D01*
X46353000Y-52428741D01*
X46353000Y-52251259D01*
X46387624Y-52077188D01*
X46455544Y-51913216D01*
X46554147Y-51765646D01*
X46679646Y-51640147D01*
X46827216Y-51541544D01*
X46991188Y-51473624D01*
X47140488Y-51443927D01*
X47165258Y-51439000D01*
X47342742Y-51439000D01*
X47367512Y-51443927D01*
G37*
G36*
X79355514Y-51443927D02*
G01*
X79504814Y-51473624D01*
X79668786Y-51541544D01*
X79816356Y-51640147D01*
X79941855Y-51765646D01*
X80040458Y-51913216D01*
X80108378Y-52077188D01*
X80143002Y-52251259D01*
X80143002Y-52428741D01*
X80108378Y-52602812D01*
X80040458Y-52766784D01*
X79941855Y-52914354D01*
X79816356Y-53039853D01*
X79668786Y-53138456D01*
X79504814Y-53206376D01*
X79355514Y-53236073D01*
X79330744Y-53241000D01*
X79153260Y-53241000D01*
X79128490Y-53236073D01*
X78979190Y-53206376D01*
X78815218Y-53138456D01*
X78667648Y-53039853D01*
X78542149Y-52914354D01*
X78443546Y-52766784D01*
X78375626Y-52602812D01*
X78341002Y-52428741D01*
X78341002Y-52251259D01*
X78375626Y-52077188D01*
X78443546Y-51913216D01*
X78542149Y-51765646D01*
X78667648Y-51640147D01*
X78815218Y-51541544D01*
X78979190Y-51473624D01*
X79128490Y-51443927D01*
X79153260Y-51439000D01*
X79330744Y-51439000D01*
X79355514Y-51443927D01*
G37*
G36*
X29587512Y-51443927D02*
G01*
X29736812Y-51473624D01*
X29900784Y-51541544D01*
X30048354Y-51640147D01*
X30173853Y-51765646D01*
X30272456Y-51913216D01*
X30340376Y-52077188D01*
X30375000Y-52251259D01*
X30375000Y-52428741D01*
X30340376Y-52602812D01*
X30272456Y-52766784D01*
X30173853Y-52914354D01*
X30048354Y-53039853D01*
X29900784Y-53138456D01*
X29736812Y-53206376D01*
X29587512Y-53236073D01*
X29562742Y-53241000D01*
X29385258Y-53241000D01*
X29360488Y-53236073D01*
X29211188Y-53206376D01*
X29047216Y-53138456D01*
X28899646Y-53039853D01*
X28774147Y-52914354D01*
X28675544Y-52766784D01*
X28607624Y-52602812D01*
X28573000Y-52428741D01*
X28573000Y-52251259D01*
X28607624Y-52077188D01*
X28675544Y-51913216D01*
X28774147Y-51765646D01*
X28899646Y-51640147D01*
X29047216Y-51541544D01*
X29211188Y-51473624D01*
X29360488Y-51443927D01*
X29385258Y-51439000D01*
X29562742Y-51439000D01*
X29587512Y-51443927D01*
G37*
G36*
X65047797Y-52143900D02*
G01*
X65102575Y-52166590D01*
X65102577Y-52166591D01*
X65151876Y-52199531D01*
X65193802Y-52241457D01*
X65200351Y-52251259D01*
X65226743Y-52290758D01*
X65249433Y-52345536D01*
X65261000Y-52403686D01*
X65261000Y-52462980D01*
X65249433Y-52521130D01*
X65226743Y-52575908D01*
X65226742Y-52575910D01*
X65193802Y-52625209D01*
X65151876Y-52667135D01*
X65102577Y-52700075D01*
X65102576Y-52700076D01*
X65102575Y-52700076D01*
X65047797Y-52722766D01*
X64989647Y-52734333D01*
X64930353Y-52734333D01*
X64872203Y-52722766D01*
X64817425Y-52700076D01*
X64817424Y-52700076D01*
X64817423Y-52700075D01*
X64768124Y-52667135D01*
X64726198Y-52625209D01*
X64693258Y-52575910D01*
X64693257Y-52575908D01*
X64670567Y-52521130D01*
X64659000Y-52462980D01*
X64659000Y-52403686D01*
X64670567Y-52345536D01*
X64693257Y-52290758D01*
X64719649Y-52251259D01*
X64726198Y-52241457D01*
X64768124Y-52199531D01*
X64817423Y-52166591D01*
X64817425Y-52166590D01*
X64872203Y-52143900D01*
X64930353Y-52132333D01*
X64989647Y-52132333D01*
X65047797Y-52143900D01*
G37*
G36*
X63647797Y-52143900D02*
G01*
X63702575Y-52166590D01*
X63702577Y-52166591D01*
X63751876Y-52199531D01*
X63793802Y-52241457D01*
X63800351Y-52251259D01*
X63826743Y-52290758D01*
X63849433Y-52345536D01*
X63861000Y-52403686D01*
X63861000Y-52462980D01*
X63849433Y-52521130D01*
X63826743Y-52575908D01*
X63826742Y-52575910D01*
X63793802Y-52625209D01*
X63751876Y-52667135D01*
X63702577Y-52700075D01*
X63702576Y-52700076D01*
X63702575Y-52700076D01*
X63647797Y-52722766D01*
X63589647Y-52734333D01*
X63530353Y-52734333D01*
X63472203Y-52722766D01*
X63417425Y-52700076D01*
X63417424Y-52700076D01*
X63417423Y-52700075D01*
X63368124Y-52667135D01*
X63326198Y-52625209D01*
X63293258Y-52575910D01*
X63293257Y-52575908D01*
X63270567Y-52521130D01*
X63259000Y-52462980D01*
X63259000Y-52403686D01*
X63270567Y-52345536D01*
X63293257Y-52290758D01*
X63319649Y-52251259D01*
X63326198Y-52241457D01*
X63368124Y-52199531D01*
X63417423Y-52166591D01*
X63417425Y-52166590D01*
X63472203Y-52143900D01*
X63530353Y-52132333D01*
X63589647Y-52132333D01*
X63647797Y-52143900D01*
G37*
G36*
X65047797Y-51143900D02*
G01*
X65102575Y-51166590D01*
X65102577Y-51166591D01*
X65151876Y-51199531D01*
X65193802Y-51241457D01*
X65226742Y-51290756D01*
X65226743Y-51290758D01*
X65249433Y-51345536D01*
X65261000Y-51403686D01*
X65261000Y-51462980D01*
X65249433Y-51521130D01*
X65240977Y-51541544D01*
X65226742Y-51575910D01*
X65193802Y-51625209D01*
X65151876Y-51667135D01*
X65102577Y-51700075D01*
X65102576Y-51700076D01*
X65102575Y-51700076D01*
X65047797Y-51722766D01*
X64989647Y-51734333D01*
X64930353Y-51734333D01*
X64872203Y-51722766D01*
X64817425Y-51700076D01*
X64817424Y-51700076D01*
X64817423Y-51700075D01*
X64768124Y-51667135D01*
X64726198Y-51625209D01*
X64693258Y-51575910D01*
X64679023Y-51541544D01*
X64670567Y-51521130D01*
X64659000Y-51462980D01*
X64659000Y-51403686D01*
X64670567Y-51345536D01*
X64693257Y-51290758D01*
X64693258Y-51290756D01*
X64726198Y-51241457D01*
X64768124Y-51199531D01*
X64817423Y-51166591D01*
X64817425Y-51166590D01*
X64872203Y-51143900D01*
X64930353Y-51132333D01*
X64989647Y-51132333D01*
X65047797Y-51143900D01*
G37*
G36*
X63647797Y-51143900D02*
G01*
X63702575Y-51166590D01*
X63702577Y-51166591D01*
X63751876Y-51199531D01*
X63793802Y-51241457D01*
X63826742Y-51290756D01*
X63826743Y-51290758D01*
X63849433Y-51345536D01*
X63861000Y-51403686D01*
X63861000Y-51462980D01*
X63849433Y-51521130D01*
X63840977Y-51541544D01*
X63826742Y-51575910D01*
X63793802Y-51625209D01*
X63751876Y-51667135D01*
X63702577Y-51700075D01*
X63702576Y-51700076D01*
X63702575Y-51700076D01*
X63647797Y-51722766D01*
X63589647Y-51734333D01*
X63530353Y-51734333D01*
X63472203Y-51722766D01*
X63417425Y-51700076D01*
X63417424Y-51700076D01*
X63417423Y-51700075D01*
X63368124Y-51667135D01*
X63326198Y-51625209D01*
X63293258Y-51575910D01*
X63279023Y-51541544D01*
X63270567Y-51521130D01*
X63259000Y-51462980D01*
X63259000Y-51403686D01*
X63270567Y-51345536D01*
X63293257Y-51290758D01*
X63293258Y-51290756D01*
X63326198Y-51241457D01*
X63368124Y-51199531D01*
X63417423Y-51166591D01*
X63417425Y-51166590D01*
X63472203Y-51143900D01*
X63530353Y-51132333D01*
X63589647Y-51132333D01*
X63647797Y-51143900D01*
G37*
G36*
X63647797Y-50143900D02*
G01*
X63702575Y-50166590D01*
X63702577Y-50166591D01*
X63751876Y-50199531D01*
X63793802Y-50241457D01*
X63826742Y-50290756D01*
X63826743Y-50290758D01*
X63849433Y-50345536D01*
X63861000Y-50403686D01*
X63861000Y-50462980D01*
X63849433Y-50521130D01*
X63826743Y-50575908D01*
X63826742Y-50575910D01*
X63793802Y-50625209D01*
X63751876Y-50667135D01*
X63702577Y-50700075D01*
X63702576Y-50700076D01*
X63702575Y-50700076D01*
X63647797Y-50722766D01*
X63589647Y-50734333D01*
X63530353Y-50734333D01*
X63472203Y-50722766D01*
X63417425Y-50700076D01*
X63417424Y-50700076D01*
X63417423Y-50700075D01*
X63368124Y-50667135D01*
X63326198Y-50625209D01*
X63293258Y-50575910D01*
X63293257Y-50575908D01*
X63270567Y-50521130D01*
X63259000Y-50462980D01*
X63259000Y-50403686D01*
X63270567Y-50345536D01*
X63293257Y-50290758D01*
X63293258Y-50290756D01*
X63326198Y-50241457D01*
X63368124Y-50199531D01*
X63417423Y-50166591D01*
X63417425Y-50166590D01*
X63472203Y-50143900D01*
X63530353Y-50132333D01*
X63589647Y-50132333D01*
X63647797Y-50143900D01*
G37*
G36*
X65047797Y-50143900D02*
G01*
X65102575Y-50166590D01*
X65102577Y-50166591D01*
X65151876Y-50199531D01*
X65193802Y-50241457D01*
X65226742Y-50290756D01*
X65226743Y-50290758D01*
X65249433Y-50345536D01*
X65261000Y-50403686D01*
X65261000Y-50462980D01*
X65249433Y-50521130D01*
X65226743Y-50575908D01*
X65226742Y-50575910D01*
X65193802Y-50625209D01*
X65151876Y-50667135D01*
X65102577Y-50700075D01*
X65102576Y-50700076D01*
X65102575Y-50700076D01*
X65047797Y-50722766D01*
X64989647Y-50734333D01*
X64930353Y-50734333D01*
X64872203Y-50722766D01*
X64817425Y-50700076D01*
X64817424Y-50700076D01*
X64817423Y-50700075D01*
X64768124Y-50667135D01*
X64726198Y-50625209D01*
X64693258Y-50575910D01*
X64693257Y-50575908D01*
X64670567Y-50521130D01*
X64659000Y-50462980D01*
X64659000Y-50403686D01*
X64670567Y-50345536D01*
X64693257Y-50290758D01*
X64693258Y-50290756D01*
X64726198Y-50241457D01*
X64768124Y-50199531D01*
X64817423Y-50166591D01*
X64817425Y-50166590D01*
X64872203Y-50143900D01*
X64930353Y-50132333D01*
X64989647Y-50132333D01*
X65047797Y-50143900D01*
G37*
G36*
X97923002Y-50701000D02*
G01*
X96121002Y-50701000D01*
X96121002Y-48899000D01*
X97923002Y-48899000D01*
X97923002Y-50701000D01*
G37*
G36*
X80143002Y-50701000D02*
G01*
X78341002Y-50701000D01*
X78341002Y-48899000D01*
X80143002Y-48899000D01*
X80143002Y-50701000D01*
G37*
G36*
X30375000Y-50701000D02*
G01*
X28573000Y-50701000D01*
X28573000Y-48899000D01*
X30375000Y-48899000D01*
X30375000Y-50701000D01*
G37*
G36*
X48155000Y-50701000D02*
G01*
X46353000Y-50701000D01*
X46353000Y-48899000D01*
X48155000Y-48899000D01*
X48155000Y-50701000D01*
G37*
G36*
X70219258Y-46921298D02*
G01*
X70325581Y-46942447D01*
X70626044Y-47066903D01*
X70896453Y-47247585D01*
X71126417Y-47477549D01*
X71307099Y-47747958D01*
X71431555Y-48048421D01*
X71495002Y-48367391D01*
X71495002Y-48692609D01*
X71431555Y-49011579D01*
X71307099Y-49312042D01*
X71126417Y-49582451D01*
X70896453Y-49812415D01*
X70626044Y-49993097D01*
X70325581Y-50117553D01*
X70251277Y-50132333D01*
X70006613Y-50181000D01*
X69681391Y-50181000D01*
X69436727Y-50132333D01*
X69362423Y-50117553D01*
X69061960Y-49993097D01*
X68791551Y-49812415D01*
X68561587Y-49582451D01*
X68380905Y-49312042D01*
X68256449Y-49011579D01*
X68193002Y-48692609D01*
X68193002Y-48367391D01*
X68256449Y-48048421D01*
X68380905Y-47747958D01*
X68561587Y-47477549D01*
X68791551Y-47247585D01*
X69061960Y-47066903D01*
X69362423Y-46942447D01*
X69468746Y-46921298D01*
X69681391Y-46879000D01*
X70006613Y-46879000D01*
X70219258Y-46921298D01*
G37*
G36*
X20451256Y-46921298D02*
G01*
X20557579Y-46942447D01*
X20858042Y-47066903D01*
X21128451Y-47247585D01*
X21358415Y-47477549D01*
X21539097Y-47747958D01*
X21663553Y-48048421D01*
X21727000Y-48367391D01*
X21727000Y-48692609D01*
X21663553Y-49011579D01*
X21539097Y-49312042D01*
X21358415Y-49582451D01*
X21128451Y-49812415D01*
X20858042Y-49993097D01*
X20557579Y-50117553D01*
X20483275Y-50132333D01*
X20238611Y-50181000D01*
X19913389Y-50181000D01*
X19668725Y-50132333D01*
X19594421Y-50117553D01*
X19293958Y-49993097D01*
X19023549Y-49812415D01*
X18793585Y-49582451D01*
X18612903Y-49312042D01*
X18488447Y-49011579D01*
X18425000Y-48692609D01*
X18425000Y-48367391D01*
X18488447Y-48048421D01*
X18612903Y-47747958D01*
X18793585Y-47477549D01*
X19023549Y-47247585D01*
X19293958Y-47066903D01*
X19594421Y-46942447D01*
X19700744Y-46921298D01*
X19913389Y-46879000D01*
X20238611Y-46879000D01*
X20451256Y-46921298D01*
G37*
G36*
X47367512Y-46363927D02*
G01*
X47516812Y-46393624D01*
X47680784Y-46461544D01*
X47828354Y-46560147D01*
X47953853Y-46685646D01*
X48052456Y-46833216D01*
X48120376Y-46997188D01*
X48155000Y-47171259D01*
X48155000Y-47348741D01*
X48120376Y-47522812D01*
X48052456Y-47686784D01*
X47953853Y-47834354D01*
X47828354Y-47959853D01*
X47680784Y-48058456D01*
X47516812Y-48126376D01*
X47367512Y-48156073D01*
X47342742Y-48161000D01*
X47165258Y-48161000D01*
X47140488Y-48156073D01*
X46991188Y-48126376D01*
X46827216Y-48058456D01*
X46679646Y-47959853D01*
X46554147Y-47834354D01*
X46455544Y-47686784D01*
X46387624Y-47522812D01*
X46353000Y-47348741D01*
X46353000Y-47171259D01*
X46387624Y-46997188D01*
X46455544Y-46833216D01*
X46554147Y-46685646D01*
X46679646Y-46560147D01*
X46827216Y-46461544D01*
X46991188Y-46393624D01*
X47140488Y-46363927D01*
X47165258Y-46359000D01*
X47342742Y-46359000D01*
X47367512Y-46363927D01*
G37*
G36*
X29587512Y-46363927D02*
G01*
X29736812Y-46393624D01*
X29900784Y-46461544D01*
X30048354Y-46560147D01*
X30173853Y-46685646D01*
X30272456Y-46833216D01*
X30340376Y-46997188D01*
X30375000Y-47171259D01*
X30375000Y-47348741D01*
X30340376Y-47522812D01*
X30272456Y-47686784D01*
X30173853Y-47834354D01*
X30048354Y-47959853D01*
X29900784Y-48058456D01*
X29736812Y-48126376D01*
X29587512Y-48156073D01*
X29562742Y-48161000D01*
X29385258Y-48161000D01*
X29360488Y-48156073D01*
X29211188Y-48126376D01*
X29047216Y-48058456D01*
X28899646Y-47959853D01*
X28774147Y-47834354D01*
X28675544Y-47686784D01*
X28607624Y-47522812D01*
X28573000Y-47348741D01*
X28573000Y-47171259D01*
X28607624Y-46997188D01*
X28675544Y-46833216D01*
X28774147Y-46685646D01*
X28899646Y-46560147D01*
X29047216Y-46461544D01*
X29211188Y-46393624D01*
X29360488Y-46363927D01*
X29385258Y-46359000D01*
X29562742Y-46359000D01*
X29587512Y-46363927D01*
G37*
G36*
X79355514Y-46363927D02*
G01*
X79504814Y-46393624D01*
X79668786Y-46461544D01*
X79816356Y-46560147D01*
X79941855Y-46685646D01*
X80040458Y-46833216D01*
X80108378Y-46997188D01*
X80143002Y-47171259D01*
X80143002Y-47348741D01*
X80108378Y-47522812D01*
X80040458Y-47686784D01*
X79941855Y-47834354D01*
X79816356Y-47959853D01*
X79668786Y-48058456D01*
X79504814Y-48126376D01*
X79355514Y-48156073D01*
X79330744Y-48161000D01*
X79153260Y-48161000D01*
X79128490Y-48156073D01*
X78979190Y-48126376D01*
X78815218Y-48058456D01*
X78667648Y-47959853D01*
X78542149Y-47834354D01*
X78443546Y-47686784D01*
X78375626Y-47522812D01*
X78341002Y-47348741D01*
X78341002Y-47171259D01*
X78375626Y-46997188D01*
X78443546Y-46833216D01*
X78542149Y-46685646D01*
X78667648Y-46560147D01*
X78815218Y-46461544D01*
X78979190Y-46393624D01*
X79128490Y-46363927D01*
X79153260Y-46359000D01*
X79330744Y-46359000D01*
X79355514Y-46363927D01*
G37*
G36*
X97135514Y-46363927D02*
G01*
X97284814Y-46393624D01*
X97448786Y-46461544D01*
X97596356Y-46560147D01*
X97721855Y-46685646D01*
X97820458Y-46833216D01*
X97888378Y-46997188D01*
X97923002Y-47171259D01*
X97923002Y-47348741D01*
X97888378Y-47522812D01*
X97820458Y-47686784D01*
X97721855Y-47834354D01*
X97596356Y-47959853D01*
X97448786Y-48058456D01*
X97284814Y-48126376D01*
X97135514Y-48156073D01*
X97110744Y-48161000D01*
X96933260Y-48161000D01*
X96908490Y-48156073D01*
X96759190Y-48126376D01*
X96595218Y-48058456D01*
X96447648Y-47959853D01*
X96322149Y-47834354D01*
X96223546Y-47686784D01*
X96155626Y-47522812D01*
X96121002Y-47348741D01*
X96121002Y-47171259D01*
X96155626Y-46997188D01*
X96223546Y-46833216D01*
X96322149Y-46685646D01*
X96447648Y-46560147D01*
X96595218Y-46461544D01*
X96759190Y-46393624D01*
X96908490Y-46363927D01*
X96933260Y-46359000D01*
X97110744Y-46359000D01*
X97135514Y-46363927D01*
G37*
G36*
X79355514Y-43823927D02*
G01*
X79504814Y-43853624D01*
X79668786Y-43921544D01*
X79816356Y-44020147D01*
X79941855Y-44145646D01*
X80040458Y-44293216D01*
X80108378Y-44457188D01*
X80143002Y-44631259D01*
X80143002Y-44808741D01*
X80108378Y-44982812D01*
X80040458Y-45146784D01*
X79941855Y-45294354D01*
X79816356Y-45419853D01*
X79668786Y-45518456D01*
X79504814Y-45586376D01*
X79355514Y-45616073D01*
X79330744Y-45621000D01*
X79153260Y-45621000D01*
X79128490Y-45616073D01*
X78979190Y-45586376D01*
X78815218Y-45518456D01*
X78667648Y-45419853D01*
X78542149Y-45294354D01*
X78443546Y-45146784D01*
X78375626Y-44982812D01*
X78341002Y-44808741D01*
X78341002Y-44631259D01*
X78375626Y-44457188D01*
X78443546Y-44293216D01*
X78542149Y-44145646D01*
X78667648Y-44020147D01*
X78815218Y-43921544D01*
X78979190Y-43853624D01*
X79128490Y-43823927D01*
X79153260Y-43819000D01*
X79330744Y-43819000D01*
X79355514Y-43823927D01*
G37*
G36*
X29587512Y-43823927D02*
G01*
X29736812Y-43853624D01*
X29900784Y-43921544D01*
X30048354Y-44020147D01*
X30173853Y-44145646D01*
X30272456Y-44293216D01*
X30340376Y-44457188D01*
X30375000Y-44631259D01*
X30375000Y-44808741D01*
X30340376Y-44982812D01*
X30272456Y-45146784D01*
X30173853Y-45294354D01*
X30048354Y-45419853D01*
X29900784Y-45518456D01*
X29736812Y-45586376D01*
X29587512Y-45616073D01*
X29562742Y-45621000D01*
X29385258Y-45621000D01*
X29360488Y-45616073D01*
X29211188Y-45586376D01*
X29047216Y-45518456D01*
X28899646Y-45419853D01*
X28774147Y-45294354D01*
X28675544Y-45146784D01*
X28607624Y-44982812D01*
X28573000Y-44808741D01*
X28573000Y-44631259D01*
X28607624Y-44457188D01*
X28675544Y-44293216D01*
X28774147Y-44145646D01*
X28899646Y-44020147D01*
X29047216Y-43921544D01*
X29211188Y-43853624D01*
X29360488Y-43823927D01*
X29385258Y-43819000D01*
X29562742Y-43819000D01*
X29587512Y-43823927D01*
G37*
G36*
X97135514Y-43823927D02*
G01*
X97284814Y-43853624D01*
X97448786Y-43921544D01*
X97596356Y-44020147D01*
X97721855Y-44145646D01*
X97820458Y-44293216D01*
X97888378Y-44457188D01*
X97923002Y-44631259D01*
X97923002Y-44808741D01*
X97888378Y-44982812D01*
X97820458Y-45146784D01*
X97721855Y-45294354D01*
X97596356Y-45419853D01*
X97448786Y-45518456D01*
X97284814Y-45586376D01*
X97135514Y-45616073D01*
X97110744Y-45621000D01*
X96933260Y-45621000D01*
X96908490Y-45616073D01*
X96759190Y-45586376D01*
X96595218Y-45518456D01*
X96447648Y-45419853D01*
X96322149Y-45294354D01*
X96223546Y-45146784D01*
X96155626Y-44982812D01*
X96121002Y-44808741D01*
X96121002Y-44631259D01*
X96155626Y-44457188D01*
X96223546Y-44293216D01*
X96322149Y-44145646D01*
X96447648Y-44020147D01*
X96595218Y-43921544D01*
X96759190Y-43853624D01*
X96908490Y-43823927D01*
X96933260Y-43819000D01*
X97110744Y-43819000D01*
X97135514Y-43823927D01*
G37*
G36*
X47367512Y-43823927D02*
G01*
X47516812Y-43853624D01*
X47680784Y-43921544D01*
X47828354Y-44020147D01*
X47953853Y-44145646D01*
X48052456Y-44293216D01*
X48120376Y-44457188D01*
X48155000Y-44631259D01*
X48155000Y-44808741D01*
X48120376Y-44982812D01*
X48052456Y-45146784D01*
X47953853Y-45294354D01*
X47828354Y-45419853D01*
X47680784Y-45518456D01*
X47516812Y-45586376D01*
X47367512Y-45616073D01*
X47342742Y-45621000D01*
X47165258Y-45621000D01*
X47140488Y-45616073D01*
X46991188Y-45586376D01*
X46827216Y-45518456D01*
X46679646Y-45419853D01*
X46554147Y-45294354D01*
X46455544Y-45146784D01*
X46387624Y-44982812D01*
X46353000Y-44808741D01*
X46353000Y-44631259D01*
X46387624Y-44457188D01*
X46455544Y-44293216D01*
X46554147Y-44145646D01*
X46679646Y-44020147D01*
X46827216Y-43921544D01*
X46991188Y-43853624D01*
X47140488Y-43823927D01*
X47165258Y-43819000D01*
X47342742Y-43819000D01*
X47367512Y-43823927D01*
G37*
G36*
X79355514Y-41283927D02*
G01*
X79504814Y-41313624D01*
X79668786Y-41381544D01*
X79816356Y-41480147D01*
X79941855Y-41605646D01*
X80040458Y-41753216D01*
X80108378Y-41917188D01*
X80143002Y-42091259D01*
X80143002Y-42268741D01*
X80108378Y-42442812D01*
X80040458Y-42606784D01*
X79941855Y-42754354D01*
X79816356Y-42879853D01*
X79668786Y-42978456D01*
X79504814Y-43046376D01*
X79355514Y-43076073D01*
X79330744Y-43081000D01*
X79153260Y-43081000D01*
X79128490Y-43076073D01*
X78979190Y-43046376D01*
X78815218Y-42978456D01*
X78667648Y-42879853D01*
X78542149Y-42754354D01*
X78443546Y-42606784D01*
X78375626Y-42442812D01*
X78341002Y-42268741D01*
X78341002Y-42091259D01*
X78375626Y-41917188D01*
X78443546Y-41753216D01*
X78542149Y-41605646D01*
X78667648Y-41480147D01*
X78815218Y-41381544D01*
X78979190Y-41313624D01*
X79128490Y-41283927D01*
X79153260Y-41279000D01*
X79330744Y-41279000D01*
X79355514Y-41283927D01*
G37*
G36*
X29587512Y-41283927D02*
G01*
X29736812Y-41313624D01*
X29900784Y-41381544D01*
X30048354Y-41480147D01*
X30173853Y-41605646D01*
X30272456Y-41753216D01*
X30340376Y-41917188D01*
X30375000Y-42091259D01*
X30375000Y-42268741D01*
X30340376Y-42442812D01*
X30272456Y-42606784D01*
X30173853Y-42754354D01*
X30048354Y-42879853D01*
X29900784Y-42978456D01*
X29736812Y-43046376D01*
X29587512Y-43076073D01*
X29562742Y-43081000D01*
X29385258Y-43081000D01*
X29360488Y-43076073D01*
X29211188Y-43046376D01*
X29047216Y-42978456D01*
X28899646Y-42879853D01*
X28774147Y-42754354D01*
X28675544Y-42606784D01*
X28607624Y-42442812D01*
X28573000Y-42268741D01*
X28573000Y-42091259D01*
X28607624Y-41917188D01*
X28675544Y-41753216D01*
X28774147Y-41605646D01*
X28899646Y-41480147D01*
X29047216Y-41381544D01*
X29211188Y-41313624D01*
X29360488Y-41283927D01*
X29385258Y-41279000D01*
X29562742Y-41279000D01*
X29587512Y-41283927D01*
G37*
G36*
X97135514Y-41283927D02*
G01*
X97284814Y-41313624D01*
X97448786Y-41381544D01*
X97596356Y-41480147D01*
X97721855Y-41605646D01*
X97820458Y-41753216D01*
X97888378Y-41917188D01*
X97923002Y-42091259D01*
X97923002Y-42268741D01*
X97888378Y-42442812D01*
X97820458Y-42606784D01*
X97721855Y-42754354D01*
X97596356Y-42879853D01*
X97448786Y-42978456D01*
X97284814Y-43046376D01*
X97135514Y-43076073D01*
X97110744Y-43081000D01*
X96933260Y-43081000D01*
X96908490Y-43076073D01*
X96759190Y-43046376D01*
X96595218Y-42978456D01*
X96447648Y-42879853D01*
X96322149Y-42754354D01*
X96223546Y-42606784D01*
X96155626Y-42442812D01*
X96121002Y-42268741D01*
X96121002Y-42091259D01*
X96155626Y-41917188D01*
X96223546Y-41753216D01*
X96322149Y-41605646D01*
X96447648Y-41480147D01*
X96595218Y-41381544D01*
X96759190Y-41313624D01*
X96908490Y-41283927D01*
X96933260Y-41279000D01*
X97110744Y-41279000D01*
X97135514Y-41283927D01*
G37*
G36*
X47367512Y-41283927D02*
G01*
X47516812Y-41313624D01*
X47680784Y-41381544D01*
X47828354Y-41480147D01*
X47953853Y-41605646D01*
X48052456Y-41753216D01*
X48120376Y-41917188D01*
X48155000Y-42091259D01*
X48155000Y-42268741D01*
X48120376Y-42442812D01*
X48052456Y-42606784D01*
X47953853Y-42754354D01*
X47828354Y-42879853D01*
X47680784Y-42978456D01*
X47516812Y-43046376D01*
X47367512Y-43076073D01*
X47342742Y-43081000D01*
X47165258Y-43081000D01*
X47140488Y-43076073D01*
X46991188Y-43046376D01*
X46827216Y-42978456D01*
X46679646Y-42879853D01*
X46554147Y-42754354D01*
X46455544Y-42606784D01*
X46387624Y-42442812D01*
X46353000Y-42268741D01*
X46353000Y-42091259D01*
X46387624Y-41917188D01*
X46455544Y-41753216D01*
X46554147Y-41605646D01*
X46679646Y-41480147D01*
X46827216Y-41381544D01*
X46991188Y-41313624D01*
X47140488Y-41283927D01*
X47165258Y-41279000D01*
X47342742Y-41279000D01*
X47367512Y-41283927D01*
G37*
G36*
X107041514Y-41029927D02*
G01*
X107190814Y-41059624D01*
X107354786Y-41127544D01*
X107502356Y-41226147D01*
X107627855Y-41351646D01*
X107726458Y-41499216D01*
X107794378Y-41663188D01*
X107829002Y-41837259D01*
X107829002Y-42014741D01*
X107794378Y-42188812D01*
X107726458Y-42352784D01*
X107627855Y-42500354D01*
X107502356Y-42625853D01*
X107354786Y-42724456D01*
X107190814Y-42792376D01*
X107041514Y-42822073D01*
X107016744Y-42827000D01*
X106839260Y-42827000D01*
X106814490Y-42822073D01*
X106665190Y-42792376D01*
X106501218Y-42724456D01*
X106353648Y-42625853D01*
X106228149Y-42500354D01*
X106129546Y-42352784D01*
X106061626Y-42188812D01*
X106027002Y-42014741D01*
X106027002Y-41837259D01*
X106061626Y-41663188D01*
X106129546Y-41499216D01*
X106228149Y-41351646D01*
X106353648Y-41226147D01*
X106501218Y-41127544D01*
X106665190Y-41059624D01*
X106814490Y-41029927D01*
X106839260Y-41025000D01*
X107016744Y-41025000D01*
X107041514Y-41029927D01*
G37*
G36*
X57273512Y-41029927D02*
G01*
X57422812Y-41059624D01*
X57586784Y-41127544D01*
X57734354Y-41226147D01*
X57859853Y-41351646D01*
X57958456Y-41499216D01*
X58026376Y-41663188D01*
X58061000Y-41837259D01*
X58061000Y-42014741D01*
X58026376Y-42188812D01*
X57958456Y-42352784D01*
X57859853Y-42500354D01*
X57734354Y-42625853D01*
X57586784Y-42724456D01*
X57422812Y-42792376D01*
X57273512Y-42822073D01*
X57248742Y-42827000D01*
X57071258Y-42827000D01*
X57046488Y-42822073D01*
X56897188Y-42792376D01*
X56733216Y-42724456D01*
X56585646Y-42625853D01*
X56460147Y-42500354D01*
X56361544Y-42352784D01*
X56293624Y-42188812D01*
X56259000Y-42014741D01*
X56259000Y-41837259D01*
X56293624Y-41663188D01*
X56361544Y-41499216D01*
X56460147Y-41351646D01*
X56585646Y-41226147D01*
X56733216Y-41127544D01*
X56897188Y-41059624D01*
X57046488Y-41029927D01*
X57071258Y-41025000D01*
X57248742Y-41025000D01*
X57273512Y-41029927D01*
G37*
G36*
X97135514Y-38743927D02*
G01*
X97284814Y-38773624D01*
X97448786Y-38841544D01*
X97596356Y-38940147D01*
X97721855Y-39065646D01*
X97820458Y-39213216D01*
X97888378Y-39377188D01*
X97923002Y-39551259D01*
X97923002Y-39728741D01*
X97888378Y-39902812D01*
X97820458Y-40066784D01*
X97721855Y-40214354D01*
X97596356Y-40339853D01*
X97448786Y-40438456D01*
X97284814Y-40506376D01*
X97135514Y-40536073D01*
X97110744Y-40541000D01*
X96933260Y-40541000D01*
X96908490Y-40536073D01*
X96759190Y-40506376D01*
X96595218Y-40438456D01*
X96447648Y-40339853D01*
X96322149Y-40214354D01*
X96223546Y-40066784D01*
X96155626Y-39902812D01*
X96121002Y-39728741D01*
X96121002Y-39551259D01*
X96155626Y-39377188D01*
X96223546Y-39213216D01*
X96322149Y-39065646D01*
X96447648Y-38940147D01*
X96595218Y-38841544D01*
X96759190Y-38773624D01*
X96908490Y-38743927D01*
X96933260Y-38739000D01*
X97110744Y-38739000D01*
X97135514Y-38743927D01*
G37*
G36*
X79355514Y-38743927D02*
G01*
X79504814Y-38773624D01*
X79668786Y-38841544D01*
X79816356Y-38940147D01*
X79941855Y-39065646D01*
X80040458Y-39213216D01*
X80108378Y-39377188D01*
X80143002Y-39551259D01*
X80143002Y-39728741D01*
X80108378Y-39902812D01*
X80040458Y-40066784D01*
X79941855Y-40214354D01*
X79816356Y-40339853D01*
X79668786Y-40438456D01*
X79504814Y-40506376D01*
X79355514Y-40536073D01*
X79330744Y-40541000D01*
X79153260Y-40541000D01*
X79128490Y-40536073D01*
X78979190Y-40506376D01*
X78815218Y-40438456D01*
X78667648Y-40339853D01*
X78542149Y-40214354D01*
X78443546Y-40066784D01*
X78375626Y-39902812D01*
X78341002Y-39728741D01*
X78341002Y-39551259D01*
X78375626Y-39377188D01*
X78443546Y-39213216D01*
X78542149Y-39065646D01*
X78667648Y-38940147D01*
X78815218Y-38841544D01*
X78979190Y-38773624D01*
X79128490Y-38743927D01*
X79153260Y-38739000D01*
X79330744Y-38739000D01*
X79355514Y-38743927D01*
G37*
G36*
X29587512Y-38743927D02*
G01*
X29736812Y-38773624D01*
X29900784Y-38841544D01*
X30048354Y-38940147D01*
X30173853Y-39065646D01*
X30272456Y-39213216D01*
X30340376Y-39377188D01*
X30375000Y-39551259D01*
X30375000Y-39728741D01*
X30340376Y-39902812D01*
X30272456Y-40066784D01*
X30173853Y-40214354D01*
X30048354Y-40339853D01*
X29900784Y-40438456D01*
X29736812Y-40506376D01*
X29587512Y-40536073D01*
X29562742Y-40541000D01*
X29385258Y-40541000D01*
X29360488Y-40536073D01*
X29211188Y-40506376D01*
X29047216Y-40438456D01*
X28899646Y-40339853D01*
X28774147Y-40214354D01*
X28675544Y-40066784D01*
X28607624Y-39902812D01*
X28573000Y-39728741D01*
X28573000Y-39551259D01*
X28607624Y-39377188D01*
X28675544Y-39213216D01*
X28774147Y-39065646D01*
X28899646Y-38940147D01*
X29047216Y-38841544D01*
X29211188Y-38773624D01*
X29360488Y-38743927D01*
X29385258Y-38739000D01*
X29562742Y-38739000D01*
X29587512Y-38743927D01*
G37*
G36*
X47367512Y-38743927D02*
G01*
X47516812Y-38773624D01*
X47680784Y-38841544D01*
X47828354Y-38940147D01*
X47953853Y-39065646D01*
X48052456Y-39213216D01*
X48120376Y-39377188D01*
X48155000Y-39551259D01*
X48155000Y-39728741D01*
X48120376Y-39902812D01*
X48052456Y-40066784D01*
X47953853Y-40214354D01*
X47828354Y-40339853D01*
X47680784Y-40438456D01*
X47516812Y-40506376D01*
X47367512Y-40536073D01*
X47342742Y-40541000D01*
X47165258Y-40541000D01*
X47140488Y-40536073D01*
X46991188Y-40506376D01*
X46827216Y-40438456D01*
X46679646Y-40339853D01*
X46554147Y-40214354D01*
X46455544Y-40066784D01*
X46387624Y-39902812D01*
X46353000Y-39728741D01*
X46353000Y-39551259D01*
X46387624Y-39377188D01*
X46455544Y-39213216D01*
X46554147Y-39065646D01*
X46679646Y-38940147D01*
X46827216Y-38841544D01*
X46991188Y-38773624D01*
X47140488Y-38743927D01*
X47165258Y-38739000D01*
X47342742Y-38739000D01*
X47367512Y-38743927D01*
G37*
G36*
X107041514Y-38489927D02*
G01*
X107190814Y-38519624D01*
X107354786Y-38587544D01*
X107502356Y-38686147D01*
X107627855Y-38811646D01*
X107726458Y-38959216D01*
X107794378Y-39123188D01*
X107829002Y-39297259D01*
X107829002Y-39474741D01*
X107794378Y-39648812D01*
X107726458Y-39812784D01*
X107627855Y-39960354D01*
X107502356Y-40085853D01*
X107354786Y-40184456D01*
X107190814Y-40252376D01*
X107041514Y-40282073D01*
X107016744Y-40287000D01*
X106839260Y-40287000D01*
X106814490Y-40282073D01*
X106665190Y-40252376D01*
X106501218Y-40184456D01*
X106353648Y-40085853D01*
X106228149Y-39960354D01*
X106129546Y-39812784D01*
X106061626Y-39648812D01*
X106027002Y-39474741D01*
X106027002Y-39297259D01*
X106061626Y-39123188D01*
X106129546Y-38959216D01*
X106228149Y-38811646D01*
X106353648Y-38686147D01*
X106501218Y-38587544D01*
X106665190Y-38519624D01*
X106814490Y-38489927D01*
X106839260Y-38485000D01*
X107016744Y-38485000D01*
X107041514Y-38489927D01*
G37*
G36*
X57273512Y-38489927D02*
G01*
X57422812Y-38519624D01*
X57586784Y-38587544D01*
X57734354Y-38686147D01*
X57859853Y-38811646D01*
X57958456Y-38959216D01*
X58026376Y-39123188D01*
X58061000Y-39297259D01*
X58061000Y-39474741D01*
X58026376Y-39648812D01*
X57958456Y-39812784D01*
X57859853Y-39960354D01*
X57734354Y-40085853D01*
X57586784Y-40184456D01*
X57422812Y-40252376D01*
X57273512Y-40282073D01*
X57248742Y-40287000D01*
X57071258Y-40287000D01*
X57046488Y-40282073D01*
X56897188Y-40252376D01*
X56733216Y-40184456D01*
X56585646Y-40085853D01*
X56460147Y-39960354D01*
X56361544Y-39812784D01*
X56293624Y-39648812D01*
X56259000Y-39474741D01*
X56259000Y-39297259D01*
X56293624Y-39123188D01*
X56361544Y-38959216D01*
X56460147Y-38811646D01*
X56585646Y-38686147D01*
X56733216Y-38587544D01*
X56897188Y-38519624D01*
X57046488Y-38489927D01*
X57071258Y-38485000D01*
X57248742Y-38485000D01*
X57273512Y-38489927D01*
G37*
G36*
X30375000Y-38001000D02*
G01*
X28573000Y-38001000D01*
X28573000Y-36199000D01*
X30375000Y-36199000D01*
X30375000Y-38001000D01*
G37*
G36*
X80143002Y-38001000D02*
G01*
X78341002Y-38001000D01*
X78341002Y-36199000D01*
X80143002Y-36199000D01*
X80143002Y-38001000D01*
G37*
G36*
X48155000Y-38001000D02*
G01*
X46353000Y-38001000D01*
X46353000Y-36199000D01*
X48155000Y-36199000D01*
X48155000Y-38001000D01*
G37*
G36*
X97923002Y-38001000D02*
G01*
X96121002Y-38001000D01*
X96121002Y-36199000D01*
X97923002Y-36199000D01*
X97923002Y-38001000D01*
G37*
G36*
X58061000Y-37747000D02*
G01*
X56259000Y-37747000D01*
X56259000Y-35945000D01*
X58061000Y-35945000D01*
X58061000Y-37747000D01*
G37*
G36*
X107829002Y-37747000D02*
G01*
X106027002Y-37747000D01*
X106027002Y-35945000D01*
X107829002Y-35945000D01*
X107829002Y-37747000D01*
G37*
G36*
X63647797Y-36177233D02*
G01*
X63702575Y-36199923D01*
X63702577Y-36199924D01*
X63751876Y-36232864D01*
X63793802Y-36274790D01*
X63826742Y-36324089D01*
X63826743Y-36324091D01*
X63849433Y-36378869D01*
X63861000Y-36437019D01*
X63861000Y-36496313D01*
X63849433Y-36554463D01*
X63826743Y-36609241D01*
X63826742Y-36609243D01*
X63793802Y-36658542D01*
X63751876Y-36700468D01*
X63702577Y-36733408D01*
X63702576Y-36733409D01*
X63702575Y-36733409D01*
X63647797Y-36756099D01*
X63589647Y-36767666D01*
X63530353Y-36767666D01*
X63472203Y-36756099D01*
X63417425Y-36733409D01*
X63417424Y-36733409D01*
X63417423Y-36733408D01*
X63368124Y-36700468D01*
X63326198Y-36658542D01*
X63293258Y-36609243D01*
X63293257Y-36609241D01*
X63270567Y-36554463D01*
X63259000Y-36496313D01*
X63259000Y-36437019D01*
X63270567Y-36378869D01*
X63293257Y-36324091D01*
X63293258Y-36324089D01*
X63326198Y-36274790D01*
X63368124Y-36232864D01*
X63417423Y-36199924D01*
X63417425Y-36199923D01*
X63472203Y-36177233D01*
X63530353Y-36165666D01*
X63589647Y-36165666D01*
X63647797Y-36177233D01*
G37*
G36*
X65047797Y-36177233D02*
G01*
X65102575Y-36199923D01*
X65102577Y-36199924D01*
X65151876Y-36232864D01*
X65193802Y-36274790D01*
X65226742Y-36324089D01*
X65226743Y-36324091D01*
X65249433Y-36378869D01*
X65261000Y-36437019D01*
X65261000Y-36496313D01*
X65249433Y-36554463D01*
X65226743Y-36609241D01*
X65226742Y-36609243D01*
X65193802Y-36658542D01*
X65151876Y-36700468D01*
X65102577Y-36733408D01*
X65102576Y-36733409D01*
X65102575Y-36733409D01*
X65047797Y-36756099D01*
X64989647Y-36767666D01*
X64930353Y-36767666D01*
X64872203Y-36756099D01*
X64817425Y-36733409D01*
X64817424Y-36733409D01*
X64817423Y-36733408D01*
X64768124Y-36700468D01*
X64726198Y-36658542D01*
X64693258Y-36609243D01*
X64693257Y-36609241D01*
X64670567Y-36554463D01*
X64659000Y-36496313D01*
X64659000Y-36437019D01*
X64670567Y-36378869D01*
X64693257Y-36324091D01*
X64693258Y-36324089D01*
X64726198Y-36274790D01*
X64768124Y-36232864D01*
X64817423Y-36199924D01*
X64817425Y-36199923D01*
X64872203Y-36177233D01*
X64930353Y-36165666D01*
X64989647Y-36165666D01*
X65047797Y-36177233D01*
G37*
G36*
X63647797Y-35177233D02*
G01*
X63702575Y-35199923D01*
X63702577Y-35199924D01*
X63751876Y-35232864D01*
X63793802Y-35274790D01*
X63826742Y-35324089D01*
X63826743Y-35324091D01*
X63849433Y-35378869D01*
X63861000Y-35437019D01*
X63861000Y-35496313D01*
X63849433Y-35554463D01*
X63826743Y-35609241D01*
X63826742Y-35609243D01*
X63793802Y-35658542D01*
X63751876Y-35700468D01*
X63702577Y-35733408D01*
X63702576Y-35733409D01*
X63702575Y-35733409D01*
X63647797Y-35756099D01*
X63589647Y-35767666D01*
X63530353Y-35767666D01*
X63472203Y-35756099D01*
X63417425Y-35733409D01*
X63417424Y-35733409D01*
X63417423Y-35733408D01*
X63368124Y-35700468D01*
X63326198Y-35658542D01*
X63293258Y-35609243D01*
X63293257Y-35609241D01*
X63270567Y-35554463D01*
X63259000Y-35496313D01*
X63259000Y-35437019D01*
X63270567Y-35378869D01*
X63293257Y-35324091D01*
X63293258Y-35324089D01*
X63326198Y-35274790D01*
X63368124Y-35232864D01*
X63417423Y-35199924D01*
X63417425Y-35199923D01*
X63472203Y-35177233D01*
X63530353Y-35165666D01*
X63589647Y-35165666D01*
X63647797Y-35177233D01*
G37*
G36*
X65047797Y-35177233D02*
G01*
X65102575Y-35199923D01*
X65102577Y-35199924D01*
X65151876Y-35232864D01*
X65193802Y-35274790D01*
X65226742Y-35324089D01*
X65226743Y-35324091D01*
X65249433Y-35378869D01*
X65261000Y-35437019D01*
X65261000Y-35496313D01*
X65249433Y-35554463D01*
X65226743Y-35609241D01*
X65226742Y-35609243D01*
X65193802Y-35658542D01*
X65151876Y-35700468D01*
X65102577Y-35733408D01*
X65102576Y-35733409D01*
X65102575Y-35733409D01*
X65047797Y-35756099D01*
X64989647Y-35767666D01*
X64930353Y-35767666D01*
X64872203Y-35756099D01*
X64817425Y-35733409D01*
X64817424Y-35733409D01*
X64817423Y-35733408D01*
X64768124Y-35700468D01*
X64726198Y-35658542D01*
X64693258Y-35609243D01*
X64693257Y-35609241D01*
X64670567Y-35554463D01*
X64659000Y-35496313D01*
X64659000Y-35437019D01*
X64670567Y-35378869D01*
X64693257Y-35324091D01*
X64693258Y-35324089D01*
X64726198Y-35274790D01*
X64768124Y-35232864D01*
X64817423Y-35199924D01*
X64817425Y-35199923D01*
X64872203Y-35177233D01*
X64930353Y-35165666D01*
X64989647Y-35165666D01*
X65047797Y-35177233D01*
G37*
G36*
X97135514Y-33663927D02*
G01*
X97284814Y-33693624D01*
X97448786Y-33761544D01*
X97596356Y-33860147D01*
X97721855Y-33985646D01*
X97820458Y-34133216D01*
X97888378Y-34297188D01*
X97923002Y-34471259D01*
X97923002Y-34648741D01*
X97888378Y-34822812D01*
X97820458Y-34986784D01*
X97721855Y-35134354D01*
X97596356Y-35259853D01*
X97448786Y-35358456D01*
X97284814Y-35426376D01*
X97135514Y-35456073D01*
X97110744Y-35461000D01*
X96933260Y-35461000D01*
X96908490Y-35456073D01*
X96759190Y-35426376D01*
X96595218Y-35358456D01*
X96447648Y-35259853D01*
X96322149Y-35134354D01*
X96223546Y-34986784D01*
X96155626Y-34822812D01*
X96121002Y-34648741D01*
X96121002Y-34471259D01*
X96155626Y-34297188D01*
X96223546Y-34133216D01*
X96322149Y-33985646D01*
X96447648Y-33860147D01*
X96595218Y-33761544D01*
X96759190Y-33693624D01*
X96908490Y-33663927D01*
X96933260Y-33659000D01*
X97110744Y-33659000D01*
X97135514Y-33663927D01*
G37*
G36*
X79355514Y-33663927D02*
G01*
X79504814Y-33693624D01*
X79668786Y-33761544D01*
X79816356Y-33860147D01*
X79941855Y-33985646D01*
X80040458Y-34133216D01*
X80108378Y-34297188D01*
X80143002Y-34471259D01*
X80143002Y-34648741D01*
X80108378Y-34822812D01*
X80040458Y-34986784D01*
X79941855Y-35134354D01*
X79816356Y-35259853D01*
X79668786Y-35358456D01*
X79504814Y-35426376D01*
X79355514Y-35456073D01*
X79330744Y-35461000D01*
X79153260Y-35461000D01*
X79128490Y-35456073D01*
X78979190Y-35426376D01*
X78815218Y-35358456D01*
X78667648Y-35259853D01*
X78542149Y-35134354D01*
X78443546Y-34986784D01*
X78375626Y-34822812D01*
X78341002Y-34648741D01*
X78341002Y-34471259D01*
X78375626Y-34297188D01*
X78443546Y-34133216D01*
X78542149Y-33985646D01*
X78667648Y-33860147D01*
X78815218Y-33761544D01*
X78979190Y-33693624D01*
X79128490Y-33663927D01*
X79153260Y-33659000D01*
X79330744Y-33659000D01*
X79355514Y-33663927D01*
G37*
G36*
X47367512Y-33663927D02*
G01*
X47516812Y-33693624D01*
X47680784Y-33761544D01*
X47828354Y-33860147D01*
X47953853Y-33985646D01*
X48052456Y-34133216D01*
X48120376Y-34297188D01*
X48155000Y-34471259D01*
X48155000Y-34648741D01*
X48120376Y-34822812D01*
X48052456Y-34986784D01*
X47953853Y-35134354D01*
X47828354Y-35259853D01*
X47680784Y-35358456D01*
X47516812Y-35426376D01*
X47367512Y-35456073D01*
X47342742Y-35461000D01*
X47165258Y-35461000D01*
X47140488Y-35456073D01*
X46991188Y-35426376D01*
X46827216Y-35358456D01*
X46679646Y-35259853D01*
X46554147Y-35134354D01*
X46455544Y-34986784D01*
X46387624Y-34822812D01*
X46353000Y-34648741D01*
X46353000Y-34471259D01*
X46387624Y-34297188D01*
X46455544Y-34133216D01*
X46554147Y-33985646D01*
X46679646Y-33860147D01*
X46827216Y-33761544D01*
X46991188Y-33693624D01*
X47140488Y-33663927D01*
X47165258Y-33659000D01*
X47342742Y-33659000D01*
X47367512Y-33663927D01*
G37*
G36*
X29587512Y-33663927D02*
G01*
X29736812Y-33693624D01*
X29900784Y-33761544D01*
X30048354Y-33860147D01*
X30173853Y-33985646D01*
X30272456Y-34133216D01*
X30340376Y-34297188D01*
X30375000Y-34471259D01*
X30375000Y-34648741D01*
X30340376Y-34822812D01*
X30272456Y-34986784D01*
X30173853Y-35134354D01*
X30048354Y-35259853D01*
X29900784Y-35358456D01*
X29736812Y-35426376D01*
X29587512Y-35456073D01*
X29562742Y-35461000D01*
X29385258Y-35461000D01*
X29360488Y-35456073D01*
X29211188Y-35426376D01*
X29047216Y-35358456D01*
X28899646Y-35259853D01*
X28774147Y-35134354D01*
X28675544Y-34986784D01*
X28607624Y-34822812D01*
X28573000Y-34648741D01*
X28573000Y-34471259D01*
X28607624Y-34297188D01*
X28675544Y-34133216D01*
X28774147Y-33985646D01*
X28899646Y-33860147D01*
X29047216Y-33761544D01*
X29211188Y-33693624D01*
X29360488Y-33663927D01*
X29385258Y-33659000D01*
X29562742Y-33659000D01*
X29587512Y-33663927D01*
G37*
G36*
X63647797Y-34177233D02*
G01*
X63702575Y-34199923D01*
X63702577Y-34199924D01*
X63751876Y-34232864D01*
X63793802Y-34274790D01*
X63808768Y-34297189D01*
X63826743Y-34324091D01*
X63849433Y-34378869D01*
X63861000Y-34437019D01*
X63861000Y-34496313D01*
X63849433Y-34554463D01*
X63826743Y-34609241D01*
X63826742Y-34609243D01*
X63793802Y-34658542D01*
X63751876Y-34700468D01*
X63702577Y-34733408D01*
X63702576Y-34733409D01*
X63702575Y-34733409D01*
X63647797Y-34756099D01*
X63589647Y-34767666D01*
X63530353Y-34767666D01*
X63472203Y-34756099D01*
X63417425Y-34733409D01*
X63417424Y-34733409D01*
X63417423Y-34733408D01*
X63368124Y-34700468D01*
X63326198Y-34658542D01*
X63293258Y-34609243D01*
X63293257Y-34609241D01*
X63270567Y-34554463D01*
X63259000Y-34496313D01*
X63259000Y-34437019D01*
X63270567Y-34378869D01*
X63293257Y-34324091D01*
X63311232Y-34297189D01*
X63326198Y-34274790D01*
X63368124Y-34232864D01*
X63417423Y-34199924D01*
X63417425Y-34199923D01*
X63472203Y-34177233D01*
X63530353Y-34165666D01*
X63589647Y-34165666D01*
X63647797Y-34177233D01*
G37*
G36*
X65047797Y-34177233D02*
G01*
X65102575Y-34199923D01*
X65102577Y-34199924D01*
X65151876Y-34232864D01*
X65193802Y-34274790D01*
X65208768Y-34297189D01*
X65226743Y-34324091D01*
X65249433Y-34378869D01*
X65261000Y-34437019D01*
X65261000Y-34496313D01*
X65249433Y-34554463D01*
X65226743Y-34609241D01*
X65226742Y-34609243D01*
X65193802Y-34658542D01*
X65151876Y-34700468D01*
X65102577Y-34733408D01*
X65102576Y-34733409D01*
X65102575Y-34733409D01*
X65047797Y-34756099D01*
X64989647Y-34767666D01*
X64930353Y-34767666D01*
X64872203Y-34756099D01*
X64817425Y-34733409D01*
X64817424Y-34733409D01*
X64817423Y-34733408D01*
X64768124Y-34700468D01*
X64726198Y-34658542D01*
X64693258Y-34609243D01*
X64693257Y-34609241D01*
X64670567Y-34554463D01*
X64659000Y-34496313D01*
X64659000Y-34437019D01*
X64670567Y-34378869D01*
X64693257Y-34324091D01*
X64711232Y-34297189D01*
X64726198Y-34274790D01*
X64768124Y-34232864D01*
X64817423Y-34199924D01*
X64817425Y-34199923D01*
X64872203Y-34177233D01*
X64930353Y-34165666D01*
X64989647Y-34165666D01*
X65047797Y-34177233D01*
G37*
G36*
X65047797Y-33177233D02*
G01*
X65102575Y-33199923D01*
X65102577Y-33199924D01*
X65151876Y-33232864D01*
X65193802Y-33274790D01*
X65226742Y-33324089D01*
X65226743Y-33324091D01*
X65249433Y-33378869D01*
X65261000Y-33437019D01*
X65261000Y-33496313D01*
X65249433Y-33554463D01*
X65226743Y-33609241D01*
X65226742Y-33609243D01*
X65193802Y-33658542D01*
X65151876Y-33700468D01*
X65102577Y-33733408D01*
X65102576Y-33733409D01*
X65102575Y-33733409D01*
X65047797Y-33756099D01*
X64989647Y-33767666D01*
X64930353Y-33767666D01*
X64872203Y-33756099D01*
X64817425Y-33733409D01*
X64817424Y-33733409D01*
X64817423Y-33733408D01*
X64768124Y-33700468D01*
X64726198Y-33658542D01*
X64693258Y-33609243D01*
X64693257Y-33609241D01*
X64670567Y-33554463D01*
X64659000Y-33496313D01*
X64659000Y-33437019D01*
X64670567Y-33378869D01*
X64693257Y-33324091D01*
X64693258Y-33324089D01*
X64726198Y-33274790D01*
X64768124Y-33232864D01*
X64817423Y-33199924D01*
X64817425Y-33199923D01*
X64872203Y-33177233D01*
X64930353Y-33165666D01*
X64989647Y-33165666D01*
X65047797Y-33177233D01*
G37*
G36*
X63647797Y-33177233D02*
G01*
X63702575Y-33199923D01*
X63702577Y-33199924D01*
X63751876Y-33232864D01*
X63793802Y-33274790D01*
X63826742Y-33324089D01*
X63826743Y-33324091D01*
X63849433Y-33378869D01*
X63861000Y-33437019D01*
X63861000Y-33496313D01*
X63849433Y-33554463D01*
X63826743Y-33609241D01*
X63826742Y-33609243D01*
X63793802Y-33658542D01*
X63751876Y-33700468D01*
X63702577Y-33733408D01*
X63702576Y-33733409D01*
X63702575Y-33733409D01*
X63647797Y-33756099D01*
X63589647Y-33767666D01*
X63530353Y-33767666D01*
X63472203Y-33756099D01*
X63417425Y-33733409D01*
X63417424Y-33733409D01*
X63417423Y-33733408D01*
X63368124Y-33700468D01*
X63326198Y-33658542D01*
X63293258Y-33609243D01*
X63293257Y-33609241D01*
X63270567Y-33554463D01*
X63259000Y-33496313D01*
X63259000Y-33437019D01*
X63270567Y-33378869D01*
X63293257Y-33324091D01*
X63293258Y-33324089D01*
X63326198Y-33274790D01*
X63368124Y-33232864D01*
X63417423Y-33199924D01*
X63417425Y-33199923D01*
X63472203Y-33177233D01*
X63530353Y-33165666D01*
X63589647Y-33165666D01*
X63647797Y-33177233D01*
G37*
G36*
X56958564Y-31263389D02*
G01*
X57149833Y-31342615D01*
X57149835Y-31342616D01*
X57321973Y-31457635D01*
X57468365Y-31604027D01*
X57570705Y-31757189D01*
X57583385Y-31776167D01*
X57662611Y-31967436D01*
X57703000Y-32170484D01*
X57703000Y-32377516D01*
X57662611Y-32580564D01*
X57589902Y-32756099D01*
X57583384Y-32771835D01*
X57468365Y-32943973D01*
X57321973Y-33090365D01*
X57149835Y-33205384D01*
X57149834Y-33205385D01*
X57149833Y-33205385D01*
X56958564Y-33284611D01*
X56755516Y-33325000D01*
X56548484Y-33325000D01*
X56345436Y-33284611D01*
X56154167Y-33205385D01*
X56154166Y-33205385D01*
X56154165Y-33205384D01*
X55982027Y-33090365D01*
X55835635Y-32943973D01*
X55720616Y-32771835D01*
X55714098Y-32756099D01*
X55641389Y-32580564D01*
X55601000Y-32377516D01*
X55601000Y-32170484D01*
X55641389Y-31967436D01*
X55720615Y-31776167D01*
X55733296Y-31757189D01*
X55835635Y-31604027D01*
X55982027Y-31457635D01*
X56154165Y-31342616D01*
X56154167Y-31342615D01*
X56345436Y-31263389D01*
X56548484Y-31223000D01*
X56755516Y-31223000D01*
X56958564Y-31263389D01*
G37*
G36*
X106726566Y-31263389D02*
G01*
X106917835Y-31342615D01*
X106917837Y-31342616D01*
X107089975Y-31457635D01*
X107236367Y-31604027D01*
X107338707Y-31757189D01*
X107351387Y-31776167D01*
X107430613Y-31967436D01*
X107471002Y-32170484D01*
X107471002Y-32377516D01*
X107430613Y-32580564D01*
X107357904Y-32756099D01*
X107351386Y-32771835D01*
X107236367Y-32943973D01*
X107089975Y-33090365D01*
X106917837Y-33205384D01*
X106917836Y-33205385D01*
X106917835Y-33205385D01*
X106726566Y-33284611D01*
X106523518Y-33325000D01*
X106316486Y-33325000D01*
X106113438Y-33284611D01*
X105922169Y-33205385D01*
X105922168Y-33205385D01*
X105922167Y-33205384D01*
X105750029Y-33090365D01*
X105603637Y-32943973D01*
X105488618Y-32771835D01*
X105482100Y-32756099D01*
X105409391Y-32580564D01*
X105369002Y-32377516D01*
X105369002Y-32170484D01*
X105409391Y-31967436D01*
X105488617Y-31776167D01*
X105501298Y-31757189D01*
X105603637Y-31604027D01*
X105750029Y-31457635D01*
X105922167Y-31342616D01*
X105922169Y-31342615D01*
X106113438Y-31263389D01*
X106316486Y-31223000D01*
X106523518Y-31223000D01*
X106726566Y-31263389D01*
G37*
G36*
X111226566Y-31263389D02*
G01*
X111417835Y-31342615D01*
X111417837Y-31342616D01*
X111589975Y-31457635D01*
X111736367Y-31604027D01*
X111838707Y-31757189D01*
X111851387Y-31776167D01*
X111930613Y-31967436D01*
X111971002Y-32170484D01*
X111971002Y-32377516D01*
X111930613Y-32580564D01*
X111857904Y-32756099D01*
X111851386Y-32771835D01*
X111736367Y-32943973D01*
X111589975Y-33090365D01*
X111417837Y-33205384D01*
X111417836Y-33205385D01*
X111417835Y-33205385D01*
X111226566Y-33284611D01*
X111023518Y-33325000D01*
X110816486Y-33325000D01*
X110613438Y-33284611D01*
X110422169Y-33205385D01*
X110422168Y-33205385D01*
X110422167Y-33205384D01*
X110250029Y-33090365D01*
X110103637Y-32943973D01*
X109988618Y-32771835D01*
X109982100Y-32756099D01*
X109909391Y-32580564D01*
X109869002Y-32377516D01*
X109869002Y-32170484D01*
X109909391Y-31967436D01*
X109988617Y-31776167D01*
X110001298Y-31757189D01*
X110103637Y-31604027D01*
X110250029Y-31457635D01*
X110422167Y-31342616D01*
X110422169Y-31342615D01*
X110613438Y-31263389D01*
X110816486Y-31223000D01*
X111023518Y-31223000D01*
X111226566Y-31263389D01*
G37*
G36*
X61458564Y-31263389D02*
G01*
X61649833Y-31342615D01*
X61649835Y-31342616D01*
X61821973Y-31457635D01*
X61968365Y-31604027D01*
X62070705Y-31757189D01*
X62083385Y-31776167D01*
X62162611Y-31967436D01*
X62203000Y-32170484D01*
X62203000Y-32377516D01*
X62162611Y-32580564D01*
X62089902Y-32756099D01*
X62083384Y-32771835D01*
X61968365Y-32943973D01*
X61821973Y-33090365D01*
X61649835Y-33205384D01*
X61649834Y-33205385D01*
X61649833Y-33205385D01*
X61458564Y-33284611D01*
X61255516Y-33325000D01*
X61048484Y-33325000D01*
X60845436Y-33284611D01*
X60654167Y-33205385D01*
X60654166Y-33205385D01*
X60654165Y-33205384D01*
X60482027Y-33090365D01*
X60335635Y-32943973D01*
X60220616Y-32771835D01*
X60214098Y-32756099D01*
X60141389Y-32580564D01*
X60101000Y-32377516D01*
X60101000Y-32170484D01*
X60141389Y-31967436D01*
X60220615Y-31776167D01*
X60233296Y-31757189D01*
X60335635Y-31604027D01*
X60482027Y-31457635D01*
X60654165Y-31342616D01*
X60654167Y-31342615D01*
X60845436Y-31263389D01*
X61048484Y-31223000D01*
X61255516Y-31223000D01*
X61458564Y-31263389D01*
G37*
G36*
X97135514Y-31123927D02*
G01*
X97284814Y-31153624D01*
X97448786Y-31221544D01*
X97596356Y-31320147D01*
X97721855Y-31445646D01*
X97820458Y-31593216D01*
X97888378Y-31757188D01*
X97923002Y-31931259D01*
X97923002Y-32108741D01*
X97888378Y-32282812D01*
X97820458Y-32446784D01*
X97721855Y-32594354D01*
X97596356Y-32719853D01*
X97448786Y-32818456D01*
X97284814Y-32886376D01*
X97135514Y-32916073D01*
X97110744Y-32921000D01*
X96933260Y-32921000D01*
X96908490Y-32916073D01*
X96759190Y-32886376D01*
X96595218Y-32818456D01*
X96447648Y-32719853D01*
X96322149Y-32594354D01*
X96223546Y-32446784D01*
X96155626Y-32282812D01*
X96121002Y-32108741D01*
X96121002Y-31931259D01*
X96155626Y-31757188D01*
X96223546Y-31593216D01*
X96322149Y-31445646D01*
X96447648Y-31320147D01*
X96595218Y-31221544D01*
X96759190Y-31153624D01*
X96908490Y-31123927D01*
X96933260Y-31119000D01*
X97110744Y-31119000D01*
X97135514Y-31123927D01*
G37*
G36*
X47367512Y-31123927D02*
G01*
X47516812Y-31153624D01*
X47680784Y-31221544D01*
X47828354Y-31320147D01*
X47953853Y-31445646D01*
X48052456Y-31593216D01*
X48120376Y-31757188D01*
X48155000Y-31931259D01*
X48155000Y-32108741D01*
X48120376Y-32282812D01*
X48052456Y-32446784D01*
X47953853Y-32594354D01*
X47828354Y-32719853D01*
X47680784Y-32818456D01*
X47516812Y-32886376D01*
X47367512Y-32916073D01*
X47342742Y-32921000D01*
X47165258Y-32921000D01*
X47140488Y-32916073D01*
X46991188Y-32886376D01*
X46827216Y-32818456D01*
X46679646Y-32719853D01*
X46554147Y-32594354D01*
X46455544Y-32446784D01*
X46387624Y-32282812D01*
X46353000Y-32108741D01*
X46353000Y-31931259D01*
X46387624Y-31757188D01*
X46455544Y-31593216D01*
X46554147Y-31445646D01*
X46679646Y-31320147D01*
X46827216Y-31221544D01*
X46991188Y-31153624D01*
X47140488Y-31123927D01*
X47165258Y-31119000D01*
X47342742Y-31119000D01*
X47367512Y-31123927D01*
G37*
G36*
X29587512Y-31123927D02*
G01*
X29736812Y-31153624D01*
X29900784Y-31221544D01*
X30048354Y-31320147D01*
X30173853Y-31445646D01*
X30272456Y-31593216D01*
X30340376Y-31757188D01*
X30375000Y-31931259D01*
X30375000Y-32108741D01*
X30340376Y-32282812D01*
X30272456Y-32446784D01*
X30173853Y-32594354D01*
X30048354Y-32719853D01*
X29900784Y-32818456D01*
X29736812Y-32886376D01*
X29587512Y-32916073D01*
X29562742Y-32921000D01*
X29385258Y-32921000D01*
X29360488Y-32916073D01*
X29211188Y-32886376D01*
X29047216Y-32818456D01*
X28899646Y-32719853D01*
X28774147Y-32594354D01*
X28675544Y-32446784D01*
X28607624Y-32282812D01*
X28573000Y-32108741D01*
X28573000Y-31931259D01*
X28607624Y-31757188D01*
X28675544Y-31593216D01*
X28774147Y-31445646D01*
X28899646Y-31320147D01*
X29047216Y-31221544D01*
X29211188Y-31153624D01*
X29360488Y-31123927D01*
X29385258Y-31119000D01*
X29562742Y-31119000D01*
X29587512Y-31123927D01*
G37*
G36*
X79355514Y-31123927D02*
G01*
X79504814Y-31153624D01*
X79668786Y-31221544D01*
X79816356Y-31320147D01*
X79941855Y-31445646D01*
X80040458Y-31593216D01*
X80108378Y-31757188D01*
X80143002Y-31931259D01*
X80143002Y-32108741D01*
X80108378Y-32282812D01*
X80040458Y-32446784D01*
X79941855Y-32594354D01*
X79816356Y-32719853D01*
X79668786Y-32818456D01*
X79504814Y-32886376D01*
X79355514Y-32916073D01*
X79330744Y-32921000D01*
X79153260Y-32921000D01*
X79128490Y-32916073D01*
X78979190Y-32886376D01*
X78815218Y-32818456D01*
X78667648Y-32719853D01*
X78542149Y-32594354D01*
X78443546Y-32446784D01*
X78375626Y-32282812D01*
X78341002Y-32108741D01*
X78341002Y-31931259D01*
X78375626Y-31757188D01*
X78443546Y-31593216D01*
X78542149Y-31445646D01*
X78667648Y-31320147D01*
X78815218Y-31221544D01*
X78979190Y-31153624D01*
X79128490Y-31123927D01*
X79153260Y-31119000D01*
X79330744Y-31119000D01*
X79355514Y-31123927D01*
G37*
G36*
X65047797Y-32177233D02*
G01*
X65102575Y-32199923D01*
X65102577Y-32199924D01*
X65151876Y-32232864D01*
X65193802Y-32274790D01*
X65226742Y-32324089D01*
X65226743Y-32324091D01*
X65249433Y-32378869D01*
X65261000Y-32437019D01*
X65261000Y-32496313D01*
X65249433Y-32554463D01*
X65238621Y-32580565D01*
X65226742Y-32609243D01*
X65193802Y-32658542D01*
X65151876Y-32700468D01*
X65102577Y-32733408D01*
X65102576Y-32733409D01*
X65102575Y-32733409D01*
X65047797Y-32756099D01*
X64989647Y-32767666D01*
X64930353Y-32767666D01*
X64872203Y-32756099D01*
X64817425Y-32733409D01*
X64817424Y-32733409D01*
X64817423Y-32733408D01*
X64768124Y-32700468D01*
X64726198Y-32658542D01*
X64693258Y-32609243D01*
X64681379Y-32580565D01*
X64670567Y-32554463D01*
X64659000Y-32496313D01*
X64659000Y-32437019D01*
X64670567Y-32378869D01*
X64693257Y-32324091D01*
X64693258Y-32324089D01*
X64726198Y-32274790D01*
X64768124Y-32232864D01*
X64817423Y-32199924D01*
X64817425Y-32199923D01*
X64872203Y-32177233D01*
X64930353Y-32165666D01*
X64989647Y-32165666D01*
X65047797Y-32177233D01*
G37*
G36*
X63647797Y-32177233D02*
G01*
X63702575Y-32199923D01*
X63702577Y-32199924D01*
X63751876Y-32232864D01*
X63793802Y-32274790D01*
X63826742Y-32324089D01*
X63826743Y-32324091D01*
X63849433Y-32378869D01*
X63861000Y-32437019D01*
X63861000Y-32496313D01*
X63849433Y-32554463D01*
X63838621Y-32580565D01*
X63826742Y-32609243D01*
X63793802Y-32658542D01*
X63751876Y-32700468D01*
X63702577Y-32733408D01*
X63702576Y-32733409D01*
X63702575Y-32733409D01*
X63647797Y-32756099D01*
X63589647Y-32767666D01*
X63530353Y-32767666D01*
X63472203Y-32756099D01*
X63417425Y-32733409D01*
X63417424Y-32733409D01*
X63417423Y-32733408D01*
X63368124Y-32700468D01*
X63326198Y-32658542D01*
X63293258Y-32609243D01*
X63281379Y-32580565D01*
X63270567Y-32554463D01*
X63259000Y-32496313D01*
X63259000Y-32437019D01*
X63270567Y-32378869D01*
X63293257Y-32324091D01*
X63293258Y-32324089D01*
X63326198Y-32274790D01*
X63368124Y-32232864D01*
X63417423Y-32199924D01*
X63417425Y-32199923D01*
X63472203Y-32177233D01*
X63530353Y-32165666D01*
X63589647Y-32165666D01*
X63647797Y-32177233D01*
G37*
G36*
X63647797Y-31177233D02*
G01*
X63702575Y-31199923D01*
X63702577Y-31199924D01*
X63751876Y-31232864D01*
X63793802Y-31274790D01*
X63826742Y-31324089D01*
X63826743Y-31324091D01*
X63849433Y-31378869D01*
X63861000Y-31437019D01*
X63861000Y-31496313D01*
X63849433Y-31554463D01*
X63833381Y-31593216D01*
X63826742Y-31609243D01*
X63793802Y-31658542D01*
X63751876Y-31700468D01*
X63702577Y-31733408D01*
X63702576Y-31733409D01*
X63702575Y-31733409D01*
X63647797Y-31756099D01*
X63589647Y-31767666D01*
X63530353Y-31767666D01*
X63472203Y-31756099D01*
X63417425Y-31733409D01*
X63417424Y-31733409D01*
X63417423Y-31733408D01*
X63368124Y-31700468D01*
X63326198Y-31658542D01*
X63293258Y-31609243D01*
X63286619Y-31593216D01*
X63270567Y-31554463D01*
X63259000Y-31496313D01*
X63259000Y-31437019D01*
X63270567Y-31378869D01*
X63293257Y-31324091D01*
X63293258Y-31324089D01*
X63326198Y-31274790D01*
X63368124Y-31232864D01*
X63417423Y-31199924D01*
X63417425Y-31199923D01*
X63472203Y-31177233D01*
X63530353Y-31165666D01*
X63589647Y-31165666D01*
X63647797Y-31177233D01*
G37*
G36*
X65047797Y-31177233D02*
G01*
X65102575Y-31199923D01*
X65102577Y-31199924D01*
X65151876Y-31232864D01*
X65193802Y-31274790D01*
X65226742Y-31324089D01*
X65226743Y-31324091D01*
X65249433Y-31378869D01*
X65261000Y-31437019D01*
X65261000Y-31496313D01*
X65249433Y-31554463D01*
X65233381Y-31593216D01*
X65226742Y-31609243D01*
X65193802Y-31658542D01*
X65151876Y-31700468D01*
X65102577Y-31733408D01*
X65102576Y-31733409D01*
X65102575Y-31733409D01*
X65047797Y-31756099D01*
X64989647Y-31767666D01*
X64930353Y-31767666D01*
X64872203Y-31756099D01*
X64817425Y-31733409D01*
X64817424Y-31733409D01*
X64817423Y-31733408D01*
X64768124Y-31700468D01*
X64726198Y-31658542D01*
X64693258Y-31609243D01*
X64686619Y-31593216D01*
X64670567Y-31554463D01*
X64659000Y-31496313D01*
X64659000Y-31437019D01*
X64670567Y-31378869D01*
X64693257Y-31324091D01*
X64693258Y-31324089D01*
X64726198Y-31274790D01*
X64768124Y-31232864D01*
X64817423Y-31199924D01*
X64817425Y-31199923D01*
X64872203Y-31177233D01*
X64930353Y-31165666D01*
X64989647Y-31165666D01*
X65047797Y-31177233D01*
G37*
G36*
X47367512Y-28583927D02*
G01*
X47516812Y-28613624D01*
X47680784Y-28681544D01*
X47828354Y-28780147D01*
X47953853Y-28905646D01*
X48052456Y-29053216D01*
X48120376Y-29217188D01*
X48155000Y-29391259D01*
X48155000Y-29568741D01*
X48120376Y-29742812D01*
X48052456Y-29906784D01*
X47953853Y-30054354D01*
X47828354Y-30179853D01*
X47680784Y-30278456D01*
X47516812Y-30346376D01*
X47367512Y-30376073D01*
X47342742Y-30381000D01*
X47165258Y-30381000D01*
X47140488Y-30376073D01*
X46991188Y-30346376D01*
X46827216Y-30278456D01*
X46679646Y-30179853D01*
X46554147Y-30054354D01*
X46455544Y-29906784D01*
X46387624Y-29742812D01*
X46353000Y-29568741D01*
X46353000Y-29391259D01*
X46387624Y-29217188D01*
X46455544Y-29053216D01*
X46554147Y-28905646D01*
X46679646Y-28780147D01*
X46827216Y-28681544D01*
X46991188Y-28613624D01*
X47140488Y-28583927D01*
X47165258Y-28579000D01*
X47342742Y-28579000D01*
X47367512Y-28583927D01*
G37*
G36*
X97135514Y-28583927D02*
G01*
X97284814Y-28613624D01*
X97448786Y-28681544D01*
X97596356Y-28780147D01*
X97721855Y-28905646D01*
X97820458Y-29053216D01*
X97888378Y-29217188D01*
X97923002Y-29391259D01*
X97923002Y-29568741D01*
X97888378Y-29742812D01*
X97820458Y-29906784D01*
X97721855Y-30054354D01*
X97596356Y-30179853D01*
X97448786Y-30278456D01*
X97284814Y-30346376D01*
X97135514Y-30376073D01*
X97110744Y-30381000D01*
X96933260Y-30381000D01*
X96908490Y-30376073D01*
X96759190Y-30346376D01*
X96595218Y-30278456D01*
X96447648Y-30179853D01*
X96322149Y-30054354D01*
X96223546Y-29906784D01*
X96155626Y-29742812D01*
X96121002Y-29568741D01*
X96121002Y-29391259D01*
X96155626Y-29217188D01*
X96223546Y-29053216D01*
X96322149Y-28905646D01*
X96447648Y-28780147D01*
X96595218Y-28681544D01*
X96759190Y-28613624D01*
X96908490Y-28583927D01*
X96933260Y-28579000D01*
X97110744Y-28579000D01*
X97135514Y-28583927D01*
G37*
G36*
X29587512Y-28583927D02*
G01*
X29736812Y-28613624D01*
X29900784Y-28681544D01*
X30048354Y-28780147D01*
X30173853Y-28905646D01*
X30272456Y-29053216D01*
X30340376Y-29217188D01*
X30375000Y-29391259D01*
X30375000Y-29568741D01*
X30340376Y-29742812D01*
X30272456Y-29906784D01*
X30173853Y-30054354D01*
X30048354Y-30179853D01*
X29900784Y-30278456D01*
X29736812Y-30346376D01*
X29587512Y-30376073D01*
X29562742Y-30381000D01*
X29385258Y-30381000D01*
X29360488Y-30376073D01*
X29211188Y-30346376D01*
X29047216Y-30278456D01*
X28899646Y-30179853D01*
X28774147Y-30054354D01*
X28675544Y-29906784D01*
X28607624Y-29742812D01*
X28573000Y-29568741D01*
X28573000Y-29391259D01*
X28607624Y-29217188D01*
X28675544Y-29053216D01*
X28774147Y-28905646D01*
X28899646Y-28780147D01*
X29047216Y-28681544D01*
X29211188Y-28613624D01*
X29360488Y-28583927D01*
X29385258Y-28579000D01*
X29562742Y-28579000D01*
X29587512Y-28583927D01*
G37*
G36*
X79355514Y-28583927D02*
G01*
X79504814Y-28613624D01*
X79668786Y-28681544D01*
X79816356Y-28780147D01*
X79941855Y-28905646D01*
X80040458Y-29053216D01*
X80108378Y-29217188D01*
X80143002Y-29391259D01*
X80143002Y-29568741D01*
X80108378Y-29742812D01*
X80040458Y-29906784D01*
X79941855Y-30054354D01*
X79816356Y-30179853D01*
X79668786Y-30278456D01*
X79504814Y-30346376D01*
X79355514Y-30376073D01*
X79330744Y-30381000D01*
X79153260Y-30381000D01*
X79128490Y-30376073D01*
X78979190Y-30346376D01*
X78815218Y-30278456D01*
X78667648Y-30179853D01*
X78542149Y-30054354D01*
X78443546Y-29906784D01*
X78375626Y-29742812D01*
X78341002Y-29568741D01*
X78341002Y-29391259D01*
X78375626Y-29217188D01*
X78443546Y-29053216D01*
X78542149Y-28905646D01*
X78667648Y-28780147D01*
X78815218Y-28681544D01*
X78979190Y-28613624D01*
X79128490Y-28583927D01*
X79153260Y-28579000D01*
X79330744Y-28579000D01*
X79355514Y-28583927D01*
G37*
G36*
X21369395Y-28311546D02*
G01*
X21542466Y-28383234D01*
X21542467Y-28383235D01*
X21698227Y-28487310D01*
X21830690Y-28619773D01*
X21830691Y-28619775D01*
X21934766Y-28775534D01*
X22006454Y-28948605D01*
X22043000Y-29132333D01*
X22043000Y-29319667D01*
X22006454Y-29503395D01*
X21934766Y-29676466D01*
X21934765Y-29676467D01*
X21830690Y-29832227D01*
X21698227Y-29964690D01*
X21619818Y-30017081D01*
X21542466Y-30068766D01*
X21369395Y-30140454D01*
X21185667Y-30177000D01*
X20998333Y-30177000D01*
X20814605Y-30140454D01*
X20641534Y-30068766D01*
X20564182Y-30017081D01*
X20485773Y-29964690D01*
X20353310Y-29832227D01*
X20249235Y-29676467D01*
X20249234Y-29676466D01*
X20177546Y-29503395D01*
X20141000Y-29319667D01*
X20141000Y-29132333D01*
X20177546Y-28948605D01*
X20249234Y-28775534D01*
X20353309Y-28619775D01*
X20353310Y-28619773D01*
X20485773Y-28487310D01*
X20641533Y-28383235D01*
X20641534Y-28383234D01*
X20814605Y-28311546D01*
X20998333Y-28275000D01*
X21185667Y-28275000D01*
X21369395Y-28311546D01*
G37*
G36*
X69271002Y-30177000D02*
G01*
X67369002Y-30177000D01*
X67369002Y-28275000D01*
X69271002Y-28275000D01*
X69271002Y-30177000D01*
G37*
G36*
X71137397Y-28311546D02*
G01*
X71310468Y-28383234D01*
X71310469Y-28383235D01*
X71466229Y-28487310D01*
X71598692Y-28619773D01*
X71598693Y-28619775D01*
X71702768Y-28775534D01*
X71774456Y-28948605D01*
X71811002Y-29132333D01*
X71811002Y-29319667D01*
X71774456Y-29503395D01*
X71702768Y-29676466D01*
X71702767Y-29676467D01*
X71598692Y-29832227D01*
X71466229Y-29964690D01*
X71387820Y-30017081D01*
X71310468Y-30068766D01*
X71137397Y-30140454D01*
X70953669Y-30177000D01*
X70766335Y-30177000D01*
X70582607Y-30140454D01*
X70409536Y-30068766D01*
X70332184Y-30017081D01*
X70253775Y-29964690D01*
X70121312Y-29832227D01*
X70017237Y-29676467D01*
X70017236Y-29676466D01*
X69945548Y-29503395D01*
X69909002Y-29319667D01*
X69909002Y-29132333D01*
X69945548Y-28948605D01*
X70017236Y-28775534D01*
X70121311Y-28619775D01*
X70121312Y-28619773D01*
X70253775Y-28487310D01*
X70409535Y-28383235D01*
X70409536Y-28383234D01*
X70582607Y-28311546D01*
X70766335Y-28275000D01*
X70953669Y-28275000D01*
X71137397Y-28311546D01*
G37*
G36*
X19503000Y-30177000D02*
G01*
X17601000Y-30177000D01*
X17601000Y-28275000D01*
X19503000Y-28275000D01*
X19503000Y-30177000D01*
G37*
G36*
X97135514Y-26043927D02*
G01*
X97284814Y-26073624D01*
X97448786Y-26141544D01*
X97596356Y-26240147D01*
X97721855Y-26365646D01*
X97820458Y-26513216D01*
X97888378Y-26677188D01*
X97923002Y-26851259D01*
X97923002Y-27028741D01*
X97888378Y-27202812D01*
X97820458Y-27366784D01*
X97721855Y-27514354D01*
X97596356Y-27639853D01*
X97448786Y-27738456D01*
X97284814Y-27806376D01*
X97135514Y-27836073D01*
X97110744Y-27841000D01*
X96933260Y-27841000D01*
X96908490Y-27836073D01*
X96759190Y-27806376D01*
X96595218Y-27738456D01*
X96447648Y-27639853D01*
X96322149Y-27514354D01*
X96223546Y-27366784D01*
X96155626Y-27202812D01*
X96121002Y-27028741D01*
X96121002Y-26851259D01*
X96155626Y-26677188D01*
X96223546Y-26513216D01*
X96322149Y-26365646D01*
X96447648Y-26240147D01*
X96595218Y-26141544D01*
X96759190Y-26073624D01*
X96908490Y-26043927D01*
X96933260Y-26039000D01*
X97110744Y-26039000D01*
X97135514Y-26043927D01*
G37*
G36*
X47367512Y-26043927D02*
G01*
X47516812Y-26073624D01*
X47680784Y-26141544D01*
X47828354Y-26240147D01*
X47953853Y-26365646D01*
X48052456Y-26513216D01*
X48120376Y-26677188D01*
X48155000Y-26851259D01*
X48155000Y-27028741D01*
X48120376Y-27202812D01*
X48052456Y-27366784D01*
X47953853Y-27514354D01*
X47828354Y-27639853D01*
X47680784Y-27738456D01*
X47516812Y-27806376D01*
X47367512Y-27836073D01*
X47342742Y-27841000D01*
X47165258Y-27841000D01*
X47140488Y-27836073D01*
X46991188Y-27806376D01*
X46827216Y-27738456D01*
X46679646Y-27639853D01*
X46554147Y-27514354D01*
X46455544Y-27366784D01*
X46387624Y-27202812D01*
X46353000Y-27028741D01*
X46353000Y-26851259D01*
X46387624Y-26677188D01*
X46455544Y-26513216D01*
X46554147Y-26365646D01*
X46679646Y-26240147D01*
X46827216Y-26141544D01*
X46991188Y-26073624D01*
X47140488Y-26043927D01*
X47165258Y-26039000D01*
X47342742Y-26039000D01*
X47367512Y-26043927D01*
G37*
G36*
X79355514Y-26043927D02*
G01*
X79504814Y-26073624D01*
X79668786Y-26141544D01*
X79816356Y-26240147D01*
X79941855Y-26365646D01*
X80040458Y-26513216D01*
X80108378Y-26677188D01*
X80143002Y-26851259D01*
X80143002Y-27028741D01*
X80108378Y-27202812D01*
X80040458Y-27366784D01*
X79941855Y-27514354D01*
X79816356Y-27639853D01*
X79668786Y-27738456D01*
X79504814Y-27806376D01*
X79355514Y-27836073D01*
X79330744Y-27841000D01*
X79153260Y-27841000D01*
X79128490Y-27836073D01*
X78979190Y-27806376D01*
X78815218Y-27738456D01*
X78667648Y-27639853D01*
X78542149Y-27514354D01*
X78443546Y-27366784D01*
X78375626Y-27202812D01*
X78341002Y-27028741D01*
X78341002Y-26851259D01*
X78375626Y-26677188D01*
X78443546Y-26513216D01*
X78542149Y-26365646D01*
X78667648Y-26240147D01*
X78815218Y-26141544D01*
X78979190Y-26073624D01*
X79128490Y-26043927D01*
X79153260Y-26039000D01*
X79330744Y-26039000D01*
X79355514Y-26043927D01*
G37*
G36*
X29587512Y-26043927D02*
G01*
X29736812Y-26073624D01*
X29900784Y-26141544D01*
X30048354Y-26240147D01*
X30173853Y-26365646D01*
X30272456Y-26513216D01*
X30340376Y-26677188D01*
X30375000Y-26851259D01*
X30375000Y-27028741D01*
X30340376Y-27202812D01*
X30272456Y-27366784D01*
X30173853Y-27514354D01*
X30048354Y-27639853D01*
X29900784Y-27738456D01*
X29736812Y-27806376D01*
X29587512Y-27836073D01*
X29562742Y-27841000D01*
X29385258Y-27841000D01*
X29360488Y-27836073D01*
X29211188Y-27806376D01*
X29047216Y-27738456D01*
X28899646Y-27639853D01*
X28774147Y-27514354D01*
X28675544Y-27366784D01*
X28607624Y-27202812D01*
X28573000Y-27028741D01*
X28573000Y-26851259D01*
X28607624Y-26677188D01*
X28675544Y-26513216D01*
X28774147Y-26365646D01*
X28899646Y-26240147D01*
X29047216Y-26141544D01*
X29211188Y-26073624D01*
X29360488Y-26043927D01*
X29385258Y-26039000D01*
X29562742Y-26039000D01*
X29587512Y-26043927D01*
G37*
G36*
X111226566Y-24763389D02*
G01*
X111417835Y-24842615D01*
X111417837Y-24842616D01*
X111589975Y-24957635D01*
X111736367Y-25104027D01*
X111851387Y-25276167D01*
X111930613Y-25467436D01*
X111971002Y-25670484D01*
X111971002Y-25877516D01*
X111930613Y-26080564D01*
X111864511Y-26240148D01*
X111851386Y-26271835D01*
X111736367Y-26443973D01*
X111589975Y-26590365D01*
X111417837Y-26705384D01*
X111417836Y-26705385D01*
X111417835Y-26705385D01*
X111226566Y-26784611D01*
X111023518Y-26825000D01*
X110816486Y-26825000D01*
X110613438Y-26784611D01*
X110422169Y-26705385D01*
X110422168Y-26705385D01*
X110422167Y-26705384D01*
X110250029Y-26590365D01*
X110103637Y-26443973D01*
X109988618Y-26271835D01*
X109975493Y-26240148D01*
X109909391Y-26080564D01*
X109869002Y-25877516D01*
X109869002Y-25670484D01*
X109909391Y-25467436D01*
X109988617Y-25276167D01*
X110103637Y-25104027D01*
X110250029Y-24957635D01*
X110422167Y-24842616D01*
X110422169Y-24842615D01*
X110613438Y-24763389D01*
X110816486Y-24723000D01*
X111023518Y-24723000D01*
X111226566Y-24763389D01*
G37*
G36*
X106726566Y-24763389D02*
G01*
X106917835Y-24842615D01*
X106917837Y-24842616D01*
X107089975Y-24957635D01*
X107236367Y-25104027D01*
X107351387Y-25276167D01*
X107430613Y-25467436D01*
X107471002Y-25670484D01*
X107471002Y-25877516D01*
X107430613Y-26080564D01*
X107364511Y-26240148D01*
X107351386Y-26271835D01*
X107236367Y-26443973D01*
X107089975Y-26590365D01*
X106917837Y-26705384D01*
X106917836Y-26705385D01*
X106917835Y-26705385D01*
X106726566Y-26784611D01*
X106523518Y-26825000D01*
X106316486Y-26825000D01*
X106113438Y-26784611D01*
X105922169Y-26705385D01*
X105922168Y-26705385D01*
X105922167Y-26705384D01*
X105750029Y-26590365D01*
X105603637Y-26443973D01*
X105488618Y-26271835D01*
X105475493Y-26240148D01*
X105409391Y-26080564D01*
X105369002Y-25877516D01*
X105369002Y-25670484D01*
X105409391Y-25467436D01*
X105488617Y-25276167D01*
X105603637Y-25104027D01*
X105750029Y-24957635D01*
X105922167Y-24842616D01*
X105922169Y-24842615D01*
X106113438Y-24763389D01*
X106316486Y-24723000D01*
X106523518Y-24723000D01*
X106726566Y-24763389D01*
G37*
G36*
X61458564Y-24763389D02*
G01*
X61649833Y-24842615D01*
X61649835Y-24842616D01*
X61821973Y-24957635D01*
X61968365Y-25104027D01*
X62083385Y-25276167D01*
X62162611Y-25467436D01*
X62203000Y-25670484D01*
X62203000Y-25877516D01*
X62162611Y-26080564D01*
X62096509Y-26240148D01*
X62083384Y-26271835D01*
X61968365Y-26443973D01*
X61821973Y-26590365D01*
X61649835Y-26705384D01*
X61649834Y-26705385D01*
X61649833Y-26705385D01*
X61458564Y-26784611D01*
X61255516Y-26825000D01*
X61048484Y-26825000D01*
X60845436Y-26784611D01*
X60654167Y-26705385D01*
X60654166Y-26705385D01*
X60654165Y-26705384D01*
X60482027Y-26590365D01*
X60335635Y-26443973D01*
X60220616Y-26271835D01*
X60207491Y-26240148D01*
X60141389Y-26080564D01*
X60101000Y-25877516D01*
X60101000Y-25670484D01*
X60141389Y-25467436D01*
X60220615Y-25276167D01*
X60335635Y-25104027D01*
X60482027Y-24957635D01*
X60654165Y-24842616D01*
X60654167Y-24842615D01*
X60845436Y-24763389D01*
X61048484Y-24723000D01*
X61255516Y-24723000D01*
X61458564Y-24763389D01*
G37*
G36*
X56958564Y-24763389D02*
G01*
X57149833Y-24842615D01*
X57149835Y-24842616D01*
X57321973Y-24957635D01*
X57468365Y-25104027D01*
X57583385Y-25276167D01*
X57662611Y-25467436D01*
X57703000Y-25670484D01*
X57703000Y-25877516D01*
X57662611Y-26080564D01*
X57596509Y-26240148D01*
X57583384Y-26271835D01*
X57468365Y-26443973D01*
X57321973Y-26590365D01*
X57149835Y-26705384D01*
X57149834Y-26705385D01*
X57149833Y-26705385D01*
X56958564Y-26784611D01*
X56755516Y-26825000D01*
X56548484Y-26825000D01*
X56345436Y-26784611D01*
X56154167Y-26705385D01*
X56154166Y-26705385D01*
X56154165Y-26705384D01*
X55982027Y-26590365D01*
X55835635Y-26443973D01*
X55720616Y-26271835D01*
X55707491Y-26240148D01*
X55641389Y-26080564D01*
X55601000Y-25877516D01*
X55601000Y-25670484D01*
X55641389Y-25467436D01*
X55720615Y-25276167D01*
X55835635Y-25104027D01*
X55982027Y-24957635D01*
X56154165Y-24842616D01*
X56154167Y-24842615D01*
X56345436Y-24763389D01*
X56548484Y-24723000D01*
X56755516Y-24723000D01*
X56958564Y-24763389D01*
G37*
G36*
X30375000Y-25301000D02*
G01*
X28573000Y-25301000D01*
X28573000Y-23499000D01*
X30375000Y-23499000D01*
X30375000Y-25301000D01*
G37*
G36*
X97923002Y-25301000D02*
G01*
X96121002Y-25301000D01*
X96121002Y-23499000D01*
X97923002Y-23499000D01*
X97923002Y-25301000D01*
G37*
G36*
X80143002Y-25301000D02*
G01*
X78341002Y-25301000D01*
X78341002Y-23499000D01*
X80143002Y-23499000D01*
X80143002Y-25301000D01*
G37*
G36*
X48155000Y-25301000D02*
G01*
X46353000Y-25301000D01*
X46353000Y-23499000D01*
X48155000Y-23499000D01*
X48155000Y-25301000D01*
G37*
G36*
X85940644Y-21709781D02*
G01*
X86086416Y-21770162D01*
X86086418Y-21770163D01*
X86217610Y-21857822D01*
X86329180Y-21969392D01*
X86387361Y-22056467D01*
X86416840Y-22100586D01*
X86477221Y-22246358D01*
X86508002Y-22401107D01*
X86508002Y-22558893D01*
X86477221Y-22713642D01*
X86416840Y-22859414D01*
X86416839Y-22859416D01*
X86329180Y-22990608D01*
X86217610Y-23102178D01*
X86086418Y-23189837D01*
X86086417Y-23189838D01*
X86086416Y-23189838D01*
X85940644Y-23250219D01*
X85785895Y-23281000D01*
X85628109Y-23281000D01*
X85473360Y-23250219D01*
X85327588Y-23189838D01*
X85327587Y-23189838D01*
X85327586Y-23189837D01*
X85196394Y-23102178D01*
X85084824Y-22990608D01*
X84997165Y-22859416D01*
X84997164Y-22859414D01*
X84936783Y-22713642D01*
X84906002Y-22558893D01*
X84906002Y-22401107D01*
X84936783Y-22246358D01*
X84997164Y-22100586D01*
X85026643Y-22056467D01*
X85084824Y-21969392D01*
X85196394Y-21857822D01*
X85327586Y-21770163D01*
X85327588Y-21770162D01*
X85473360Y-21709781D01*
X85628109Y-21679000D01*
X85785895Y-21679000D01*
X85940644Y-21709781D01*
G37*
G36*
X41022642Y-21709781D02*
G01*
X41168414Y-21770162D01*
X41168416Y-21770163D01*
X41299608Y-21857822D01*
X41411178Y-21969392D01*
X41469359Y-22056467D01*
X41498838Y-22100586D01*
X41559219Y-22246358D01*
X41590000Y-22401107D01*
X41590000Y-22558893D01*
X41559219Y-22713642D01*
X41498838Y-22859414D01*
X41498837Y-22859416D01*
X41411178Y-22990608D01*
X41299608Y-23102178D01*
X41168416Y-23189837D01*
X41168415Y-23189838D01*
X41168414Y-23189838D01*
X41022642Y-23250219D01*
X40867893Y-23281000D01*
X40710107Y-23281000D01*
X40555358Y-23250219D01*
X40409586Y-23189838D01*
X40409585Y-23189838D01*
X40409584Y-23189837D01*
X40278392Y-23102178D01*
X40166822Y-22990608D01*
X40079163Y-22859416D01*
X40079162Y-22859414D01*
X40018781Y-22713642D01*
X39988000Y-22558893D01*
X39988000Y-22401107D01*
X40018781Y-22246358D01*
X40079162Y-22100586D01*
X40108641Y-22056467D01*
X40166822Y-21969392D01*
X40278392Y-21857822D01*
X40409584Y-21770163D01*
X40409586Y-21770162D01*
X40555358Y-21709781D01*
X40710107Y-21679000D01*
X40867893Y-21679000D01*
X41022642Y-21709781D01*
G37*
G36*
X90790644Y-21709781D02*
G01*
X90936416Y-21770162D01*
X90936418Y-21770163D01*
X91067610Y-21857822D01*
X91179180Y-21969392D01*
X91237361Y-22056467D01*
X91266840Y-22100586D01*
X91327221Y-22246358D01*
X91358002Y-22401107D01*
X91358002Y-22558893D01*
X91327221Y-22713642D01*
X91266840Y-22859414D01*
X91266839Y-22859416D01*
X91179180Y-22990608D01*
X91067610Y-23102178D01*
X90936418Y-23189837D01*
X90936417Y-23189838D01*
X90936416Y-23189838D01*
X90790644Y-23250219D01*
X90635895Y-23281000D01*
X90478109Y-23281000D01*
X90323360Y-23250219D01*
X90177588Y-23189838D01*
X90177587Y-23189838D01*
X90177586Y-23189837D01*
X90046394Y-23102178D01*
X89934824Y-22990608D01*
X89847165Y-22859416D01*
X89847164Y-22859414D01*
X89786783Y-22713642D01*
X89756002Y-22558893D01*
X89756002Y-22401107D01*
X89786783Y-22246358D01*
X89847164Y-22100586D01*
X89876643Y-22056467D01*
X89934824Y-21969392D01*
X90046394Y-21857822D01*
X90177586Y-21770163D01*
X90177588Y-21770162D01*
X90323360Y-21709781D01*
X90478109Y-21679000D01*
X90635895Y-21679000D01*
X90790644Y-21709781D01*
G37*
G36*
X36172642Y-21709781D02*
G01*
X36318414Y-21770162D01*
X36318416Y-21770163D01*
X36449608Y-21857822D01*
X36561178Y-21969392D01*
X36619359Y-22056467D01*
X36648838Y-22100586D01*
X36709219Y-22246358D01*
X36740000Y-22401107D01*
X36740000Y-22558893D01*
X36709219Y-22713642D01*
X36648838Y-22859414D01*
X36648837Y-22859416D01*
X36561178Y-22990608D01*
X36449608Y-23102178D01*
X36318416Y-23189837D01*
X36318415Y-23189838D01*
X36318414Y-23189838D01*
X36172642Y-23250219D01*
X36017893Y-23281000D01*
X35860107Y-23281000D01*
X35705358Y-23250219D01*
X35559586Y-23189838D01*
X35559585Y-23189838D01*
X35559584Y-23189837D01*
X35428392Y-23102178D01*
X35316822Y-22990608D01*
X35229163Y-22859416D01*
X35229162Y-22859414D01*
X35168781Y-22713642D01*
X35138000Y-22558893D01*
X35138000Y-22401107D01*
X35168781Y-22246358D01*
X35229162Y-22100586D01*
X35258641Y-22056467D01*
X35316822Y-21969392D01*
X35428392Y-21857822D01*
X35559584Y-21770163D01*
X35559586Y-21770162D01*
X35705358Y-21709781D01*
X35860107Y-21679000D01*
X36017893Y-21679000D01*
X36172642Y-21709781D01*
G37*
G36*
X29587512Y-20963927D02*
G01*
X29736812Y-20993624D01*
X29900784Y-21061544D01*
X30048354Y-21160147D01*
X30173853Y-21285646D01*
X30272456Y-21433216D01*
X30340376Y-21597188D01*
X30375000Y-21771259D01*
X30375000Y-21948741D01*
X30340376Y-22122812D01*
X30272456Y-22286784D01*
X30173853Y-22434354D01*
X30048354Y-22559853D01*
X29900784Y-22658456D01*
X29736812Y-22726376D01*
X29587512Y-22756073D01*
X29562742Y-22761000D01*
X29385258Y-22761000D01*
X29360488Y-22756073D01*
X29211188Y-22726376D01*
X29047216Y-22658456D01*
X28899646Y-22559853D01*
X28774147Y-22434354D01*
X28675544Y-22286784D01*
X28607624Y-22122812D01*
X28573000Y-21948741D01*
X28573000Y-21771259D01*
X28607624Y-21597188D01*
X28675544Y-21433216D01*
X28774147Y-21285646D01*
X28899646Y-21160147D01*
X29047216Y-21061544D01*
X29211188Y-20993624D01*
X29360488Y-20963927D01*
X29385258Y-20959000D01*
X29562742Y-20959000D01*
X29587512Y-20963927D01*
G37*
G36*
X97135514Y-20963927D02*
G01*
X97284814Y-20993624D01*
X97448786Y-21061544D01*
X97596356Y-21160147D01*
X97721855Y-21285646D01*
X97820458Y-21433216D01*
X97888378Y-21597188D01*
X97923002Y-21771259D01*
X97923002Y-21948741D01*
X97888378Y-22122812D01*
X97820458Y-22286784D01*
X97721855Y-22434354D01*
X97596356Y-22559853D01*
X97448786Y-22658456D01*
X97284814Y-22726376D01*
X97135514Y-22756073D01*
X97110744Y-22761000D01*
X96933260Y-22761000D01*
X96908490Y-22756073D01*
X96759190Y-22726376D01*
X96595218Y-22658456D01*
X96447648Y-22559853D01*
X96322149Y-22434354D01*
X96223546Y-22286784D01*
X96155626Y-22122812D01*
X96121002Y-21948741D01*
X96121002Y-21771259D01*
X96155626Y-21597188D01*
X96223546Y-21433216D01*
X96322149Y-21285646D01*
X96447648Y-21160147D01*
X96595218Y-21061544D01*
X96759190Y-20993624D01*
X96908490Y-20963927D01*
X96933260Y-20959000D01*
X97110744Y-20959000D01*
X97135514Y-20963927D01*
G37*
G36*
X47367512Y-20963927D02*
G01*
X47516812Y-20993624D01*
X47680784Y-21061544D01*
X47828354Y-21160147D01*
X47953853Y-21285646D01*
X48052456Y-21433216D01*
X48120376Y-21597188D01*
X48155000Y-21771259D01*
X48155000Y-21948741D01*
X48120376Y-22122812D01*
X48052456Y-22286784D01*
X47953853Y-22434354D01*
X47828354Y-22559853D01*
X47680784Y-22658456D01*
X47516812Y-22726376D01*
X47367512Y-22756073D01*
X47342742Y-22761000D01*
X47165258Y-22761000D01*
X47140488Y-22756073D01*
X46991188Y-22726376D01*
X46827216Y-22658456D01*
X46679646Y-22559853D01*
X46554147Y-22434354D01*
X46455544Y-22286784D01*
X46387624Y-22122812D01*
X46353000Y-21948741D01*
X46353000Y-21771259D01*
X46387624Y-21597188D01*
X46455544Y-21433216D01*
X46554147Y-21285646D01*
X46679646Y-21160147D01*
X46827216Y-21061544D01*
X46991188Y-20993624D01*
X47140488Y-20963927D01*
X47165258Y-20959000D01*
X47342742Y-20959000D01*
X47367512Y-20963927D01*
G37*
G36*
X79355514Y-20963927D02*
G01*
X79504814Y-20993624D01*
X79668786Y-21061544D01*
X79816356Y-21160147D01*
X79941855Y-21285646D01*
X80040458Y-21433216D01*
X80108378Y-21597188D01*
X80143002Y-21771259D01*
X80143002Y-21948741D01*
X80108378Y-22122812D01*
X80040458Y-22286784D01*
X79941855Y-22434354D01*
X79816356Y-22559853D01*
X79668786Y-22658456D01*
X79504814Y-22726376D01*
X79355514Y-22756073D01*
X79330744Y-22761000D01*
X79153260Y-22761000D01*
X79128490Y-22756073D01*
X78979190Y-22726376D01*
X78815218Y-22658456D01*
X78667648Y-22559853D01*
X78542149Y-22434354D01*
X78443546Y-22286784D01*
X78375626Y-22122812D01*
X78341002Y-21948741D01*
X78341002Y-21771259D01*
X78375626Y-21597188D01*
X78443546Y-21433216D01*
X78542149Y-21285646D01*
X78667648Y-21160147D01*
X78815218Y-21061544D01*
X78979190Y-20993624D01*
X79128490Y-20963927D01*
X79153260Y-20959000D01*
X79330744Y-20959000D01*
X79355514Y-20963927D01*
G37*
G36*
X20861395Y-20691546D02*
G01*
X21034466Y-20763234D01*
X21111818Y-20814919D01*
X21190227Y-20867310D01*
X21322690Y-20999773D01*
X21363964Y-21061544D01*
X21426766Y-21155534D01*
X21498454Y-21328605D01*
X21535000Y-21512333D01*
X21535000Y-21699667D01*
X21498454Y-21883395D01*
X21426766Y-22056466D01*
X21426765Y-22056467D01*
X21322690Y-22212227D01*
X21190227Y-22344690D01*
X21188669Y-22345731D01*
X21034466Y-22448766D01*
X20861395Y-22520454D01*
X20677667Y-22557000D01*
X20490333Y-22557000D01*
X20306605Y-22520454D01*
X20133534Y-22448766D01*
X19979331Y-22345731D01*
X19977773Y-22344690D01*
X19845310Y-22212227D01*
X19741235Y-22056467D01*
X19741234Y-22056466D01*
X19669546Y-21883395D01*
X19633000Y-21699667D01*
X19633000Y-21512333D01*
X19669546Y-21328605D01*
X19741234Y-21155534D01*
X19804036Y-21061544D01*
X19845310Y-20999773D01*
X19977773Y-20867310D01*
X20056182Y-20814919D01*
X20133534Y-20763234D01*
X20306605Y-20691546D01*
X20490333Y-20655000D01*
X20677667Y-20655000D01*
X20861395Y-20691546D01*
G37*
G36*
X70629397Y-20691546D02*
G01*
X70802468Y-20763234D01*
X70879820Y-20814919D01*
X70958229Y-20867310D01*
X71090692Y-20999773D01*
X71131966Y-21061544D01*
X71194768Y-21155534D01*
X71266456Y-21328605D01*
X71303002Y-21512333D01*
X71303002Y-21699667D01*
X71266456Y-21883395D01*
X71194768Y-22056466D01*
X71194767Y-22056467D01*
X71090692Y-22212227D01*
X70958229Y-22344690D01*
X70956671Y-22345731D01*
X70802468Y-22448766D01*
X70629397Y-22520454D01*
X70445669Y-22557000D01*
X70258335Y-22557000D01*
X70074607Y-22520454D01*
X69901536Y-22448766D01*
X69747333Y-22345731D01*
X69745775Y-22344690D01*
X69613312Y-22212227D01*
X69509237Y-22056467D01*
X69509236Y-22056466D01*
X69437548Y-21883395D01*
X69401002Y-21699667D01*
X69401002Y-21512333D01*
X69437548Y-21328605D01*
X69509236Y-21155534D01*
X69572038Y-21061544D01*
X69613312Y-20999773D01*
X69745775Y-20867310D01*
X69824184Y-20814919D01*
X69901536Y-20763234D01*
X70074607Y-20691546D01*
X70258335Y-20655000D01*
X70445669Y-20655000D01*
X70629397Y-20691546D01*
G37*
G36*
X68089397Y-20691546D02*
G01*
X68262468Y-20763234D01*
X68339820Y-20814919D01*
X68418229Y-20867310D01*
X68550692Y-20999773D01*
X68591966Y-21061544D01*
X68654768Y-21155534D01*
X68726456Y-21328605D01*
X68763002Y-21512333D01*
X68763002Y-21699667D01*
X68726456Y-21883395D01*
X68654768Y-22056466D01*
X68654767Y-22056467D01*
X68550692Y-22212227D01*
X68418229Y-22344690D01*
X68416671Y-22345731D01*
X68262468Y-22448766D01*
X68089397Y-22520454D01*
X67905669Y-22557000D01*
X67718335Y-22557000D01*
X67534607Y-22520454D01*
X67361536Y-22448766D01*
X67207333Y-22345731D01*
X67205775Y-22344690D01*
X67073312Y-22212227D01*
X66969237Y-22056467D01*
X66969236Y-22056466D01*
X66897548Y-21883395D01*
X66861002Y-21699667D01*
X66861002Y-21512333D01*
X66897548Y-21328605D01*
X66969236Y-21155534D01*
X67032038Y-21061544D01*
X67073312Y-20999773D01*
X67205775Y-20867310D01*
X67284184Y-20814919D01*
X67361536Y-20763234D01*
X67534607Y-20691546D01*
X67718335Y-20655000D01*
X67905669Y-20655000D01*
X68089397Y-20691546D01*
G37*
G36*
X23936457Y-20658897D02*
G01*
X23968602Y-20668649D01*
X23998230Y-20684485D01*
X24024201Y-20705799D01*
X24045515Y-20731770D01*
X24061351Y-20761398D01*
X24071103Y-20793543D01*
X24075000Y-20833114D01*
X24075000Y-22378886D01*
X24071103Y-22418457D01*
X24061351Y-22450602D01*
X24045515Y-22480230D01*
X24024201Y-22506201D01*
X23998230Y-22527515D01*
X23968602Y-22543351D01*
X23936457Y-22553103D01*
X23896886Y-22557000D01*
X22351114Y-22557000D01*
X22311543Y-22553103D01*
X22279398Y-22543351D01*
X22249770Y-22527515D01*
X22223799Y-22506201D01*
X22202485Y-22480230D01*
X22186649Y-22450602D01*
X22176897Y-22418457D01*
X22173000Y-22378886D01*
X22173000Y-20833114D01*
X22176897Y-20793543D01*
X22186649Y-20761398D01*
X22202485Y-20731770D01*
X22223799Y-20705799D01*
X22249770Y-20684485D01*
X22279398Y-20668649D01*
X22311543Y-20658897D01*
X22351114Y-20655000D01*
X23896886Y-20655000D01*
X23936457Y-20658897D01*
G37*
G36*
X18321395Y-20691546D02*
G01*
X18494466Y-20763234D01*
X18571818Y-20814919D01*
X18650227Y-20867310D01*
X18782690Y-20999773D01*
X18823964Y-21061544D01*
X18886766Y-21155534D01*
X18958454Y-21328605D01*
X18995000Y-21512333D01*
X18995000Y-21699667D01*
X18958454Y-21883395D01*
X18886766Y-22056466D01*
X18886765Y-22056467D01*
X18782690Y-22212227D01*
X18650227Y-22344690D01*
X18648669Y-22345731D01*
X18494466Y-22448766D01*
X18321395Y-22520454D01*
X18137667Y-22557000D01*
X17950333Y-22557000D01*
X17766605Y-22520454D01*
X17593534Y-22448766D01*
X17439331Y-22345731D01*
X17437773Y-22344690D01*
X17305310Y-22212227D01*
X17201235Y-22056467D01*
X17201234Y-22056466D01*
X17129546Y-21883395D01*
X17093000Y-21699667D01*
X17093000Y-21512333D01*
X17129546Y-21328605D01*
X17201234Y-21155534D01*
X17264036Y-21061544D01*
X17305310Y-20999773D01*
X17437773Y-20867310D01*
X17516182Y-20814919D01*
X17593534Y-20763234D01*
X17766605Y-20691546D01*
X17950333Y-20655000D01*
X18137667Y-20655000D01*
X18321395Y-20691546D01*
G37*
G36*
X73704459Y-20658897D02*
G01*
X73736604Y-20668649D01*
X73766232Y-20684485D01*
X73792203Y-20705799D01*
X73813517Y-20731770D01*
X73829353Y-20761398D01*
X73839105Y-20793543D01*
X73843002Y-20833114D01*
X73843002Y-22378886D01*
X73839105Y-22418457D01*
X73829353Y-22450602D01*
X73813517Y-22480230D01*
X73792203Y-22506201D01*
X73766232Y-22527515D01*
X73736604Y-22543351D01*
X73704459Y-22553103D01*
X73664888Y-22557000D01*
X72119116Y-22557000D01*
X72079545Y-22553103D01*
X72047400Y-22543351D01*
X72017772Y-22527515D01*
X71991801Y-22506201D01*
X71970487Y-22480230D01*
X71954651Y-22450602D01*
X71944899Y-22418457D01*
X71941002Y-22378886D01*
X71941002Y-20833114D01*
X71944899Y-20793543D01*
X71954651Y-20761398D01*
X71970487Y-20731770D01*
X71991801Y-20705799D01*
X72017772Y-20684485D01*
X72047400Y-20668649D01*
X72079545Y-20658897D01*
X72119116Y-20655000D01*
X73664888Y-20655000D01*
X73704459Y-20658897D01*
G37*
G36*
X109335258Y-17965298D02*
G01*
X109441581Y-17986447D01*
X109742044Y-18110903D01*
X110012453Y-18291585D01*
X110242417Y-18521549D01*
X110392154Y-18745646D01*
X110423100Y-18791960D01*
X110547555Y-19092422D01*
X110611002Y-19411389D01*
X110611002Y-19736611D01*
X110608978Y-19746784D01*
X110547555Y-20055579D01*
X110423099Y-20356042D01*
X110242417Y-20626451D01*
X110012453Y-20856415D01*
X109742044Y-21037097D01*
X109441581Y-21161553D01*
X109335258Y-21182702D01*
X109122613Y-21225000D01*
X108797391Y-21225000D01*
X108584746Y-21182702D01*
X108478423Y-21161553D01*
X108177960Y-21037097D01*
X107907551Y-20856415D01*
X107677587Y-20626451D01*
X107496905Y-20356042D01*
X107372449Y-20055579D01*
X107311026Y-19746784D01*
X107309002Y-19736611D01*
X107309002Y-19411389D01*
X107372449Y-19092422D01*
X107496904Y-18791960D01*
X107527850Y-18745646D01*
X107677587Y-18521549D01*
X107907551Y-18291585D01*
X108177960Y-18110903D01*
X108478423Y-17986447D01*
X108584746Y-17965298D01*
X108797391Y-17923000D01*
X109122613Y-17923000D01*
X109335258Y-17965298D01*
G37*
G36*
X59567256Y-17965298D02*
G01*
X59673579Y-17986447D01*
X59974042Y-18110903D01*
X60244451Y-18291585D01*
X60474415Y-18521549D01*
X60624152Y-18745646D01*
X60655098Y-18791960D01*
X60779553Y-19092422D01*
X60843000Y-19411389D01*
X60843000Y-19736611D01*
X60840976Y-19746784D01*
X60779553Y-20055579D01*
X60655097Y-20356042D01*
X60474415Y-20626451D01*
X60244451Y-20856415D01*
X59974042Y-21037097D01*
X59673579Y-21161553D01*
X59567256Y-21182702D01*
X59354611Y-21225000D01*
X59029389Y-21225000D01*
X58816744Y-21182702D01*
X58710421Y-21161553D01*
X58409958Y-21037097D01*
X58139549Y-20856415D01*
X57909585Y-20626451D01*
X57728903Y-20356042D01*
X57604447Y-20055579D01*
X57543024Y-19746784D01*
X57541000Y-19736611D01*
X57541000Y-19411389D01*
X57604447Y-19092422D01*
X57728902Y-18791960D01*
X57759848Y-18745646D01*
X57909585Y-18521549D01*
X58139549Y-18291585D01*
X58409958Y-18110903D01*
X58710421Y-17986447D01*
X58816744Y-17965298D01*
X59029389Y-17923000D01*
X59354611Y-17923000D01*
X59567256Y-17965298D01*
G37*
G36*
X35916395Y-18535546D02*
G01*
X36089466Y-18607234D01*
X36108793Y-18620148D01*
X36245227Y-18711310D01*
X36377690Y-18843773D01*
X36410728Y-18893218D01*
X36481766Y-18999534D01*
X36553454Y-19172605D01*
X36590000Y-19356333D01*
X36590000Y-19543667D01*
X36553454Y-19727395D01*
X36481766Y-19900466D01*
X36481765Y-19900467D01*
X36377690Y-20056227D01*
X36245227Y-20188690D01*
X36196871Y-20221000D01*
X36089466Y-20292766D01*
X35916395Y-20364454D01*
X35732667Y-20401000D01*
X35545333Y-20401000D01*
X35361605Y-20364454D01*
X35188534Y-20292766D01*
X35081129Y-20221000D01*
X35032773Y-20188690D01*
X34900310Y-20056227D01*
X34796235Y-19900467D01*
X34796234Y-19900466D01*
X34724546Y-19727395D01*
X34688000Y-19543667D01*
X34688000Y-19356333D01*
X34724546Y-19172605D01*
X34796234Y-18999534D01*
X34867272Y-18893218D01*
X34900310Y-18843773D01*
X35032773Y-18711310D01*
X35169207Y-18620148D01*
X35188534Y-18607234D01*
X35361605Y-18535546D01*
X35545333Y-18499000D01*
X35732667Y-18499000D01*
X35916395Y-18535546D01*
G37*
G36*
X41366395Y-18535546D02*
G01*
X41539466Y-18607234D01*
X41558793Y-18620148D01*
X41695227Y-18711310D01*
X41827690Y-18843773D01*
X41860728Y-18893218D01*
X41931766Y-18999534D01*
X42003454Y-19172605D01*
X42040000Y-19356333D01*
X42040000Y-19543667D01*
X42003454Y-19727395D01*
X41931766Y-19900466D01*
X41931765Y-19900467D01*
X41827690Y-20056227D01*
X41695227Y-20188690D01*
X41646871Y-20221000D01*
X41539466Y-20292766D01*
X41366395Y-20364454D01*
X41182667Y-20401000D01*
X40995333Y-20401000D01*
X40811605Y-20364454D01*
X40638534Y-20292766D01*
X40531129Y-20221000D01*
X40482773Y-20188690D01*
X40350310Y-20056227D01*
X40246235Y-19900467D01*
X40246234Y-19900466D01*
X40174546Y-19727395D01*
X40138000Y-19543667D01*
X40138000Y-19356333D01*
X40174546Y-19172605D01*
X40246234Y-18999534D01*
X40317272Y-18893218D01*
X40350310Y-18843773D01*
X40482773Y-18711310D01*
X40619207Y-18620148D01*
X40638534Y-18607234D01*
X40811605Y-18535546D01*
X40995333Y-18499000D01*
X41182667Y-18499000D01*
X41366395Y-18535546D01*
G37*
G36*
X85684397Y-18535546D02*
G01*
X85857468Y-18607234D01*
X85876795Y-18620148D01*
X86013229Y-18711310D01*
X86145692Y-18843773D01*
X86178730Y-18893218D01*
X86249768Y-18999534D01*
X86321456Y-19172605D01*
X86358002Y-19356333D01*
X86358002Y-19543667D01*
X86321456Y-19727395D01*
X86249768Y-19900466D01*
X86249767Y-19900467D01*
X86145692Y-20056227D01*
X86013229Y-20188690D01*
X85964873Y-20221000D01*
X85857468Y-20292766D01*
X85684397Y-20364454D01*
X85500669Y-20401000D01*
X85313335Y-20401000D01*
X85129607Y-20364454D01*
X84956536Y-20292766D01*
X84849131Y-20221000D01*
X84800775Y-20188690D01*
X84668312Y-20056227D01*
X84564237Y-19900467D01*
X84564236Y-19900466D01*
X84492548Y-19727395D01*
X84456002Y-19543667D01*
X84456002Y-19356333D01*
X84492548Y-19172605D01*
X84564236Y-18999534D01*
X84635274Y-18893218D01*
X84668312Y-18843773D01*
X84800775Y-18711310D01*
X84937209Y-18620148D01*
X84956536Y-18607234D01*
X85129607Y-18535546D01*
X85313335Y-18499000D01*
X85500669Y-18499000D01*
X85684397Y-18535546D01*
G37*
G36*
X91134397Y-18535546D02*
G01*
X91307468Y-18607234D01*
X91326795Y-18620148D01*
X91463229Y-18711310D01*
X91595692Y-18843773D01*
X91628730Y-18893218D01*
X91699768Y-18999534D01*
X91771456Y-19172605D01*
X91808002Y-19356333D01*
X91808002Y-19543667D01*
X91771456Y-19727395D01*
X91699768Y-19900466D01*
X91699767Y-19900467D01*
X91595692Y-20056227D01*
X91463229Y-20188690D01*
X91414873Y-20221000D01*
X91307468Y-20292766D01*
X91134397Y-20364454D01*
X90950669Y-20401000D01*
X90763335Y-20401000D01*
X90579607Y-20364454D01*
X90406536Y-20292766D01*
X90299131Y-20221000D01*
X90250775Y-20188690D01*
X90118312Y-20056227D01*
X90014237Y-19900467D01*
X90014236Y-19900466D01*
X89942548Y-19727395D01*
X89906002Y-19543667D01*
X89906002Y-19356333D01*
X89942548Y-19172605D01*
X90014236Y-18999534D01*
X90085274Y-18893218D01*
X90118312Y-18843773D01*
X90250775Y-18711310D01*
X90387209Y-18620148D01*
X90406536Y-18607234D01*
X90579607Y-18535546D01*
X90763335Y-18499000D01*
X90950669Y-18499000D01*
X91134397Y-18535546D01*
G37*
G36*
X29587512Y-18423927D02*
G01*
X29736812Y-18453624D01*
X29900784Y-18521544D01*
X30048354Y-18620147D01*
X30173853Y-18745646D01*
X30272456Y-18893216D01*
X30340376Y-19057188D01*
X30375000Y-19231259D01*
X30375000Y-19408741D01*
X30340376Y-19582812D01*
X30272456Y-19746784D01*
X30173853Y-19894354D01*
X30048354Y-20019853D01*
X29900784Y-20118456D01*
X29736812Y-20186376D01*
X29587512Y-20216073D01*
X29562742Y-20221000D01*
X29385258Y-20221000D01*
X29360488Y-20216073D01*
X29211188Y-20186376D01*
X29047216Y-20118456D01*
X28899646Y-20019853D01*
X28774147Y-19894354D01*
X28675544Y-19746784D01*
X28607624Y-19582812D01*
X28573000Y-19408741D01*
X28573000Y-19231259D01*
X28607624Y-19057188D01*
X28675544Y-18893216D01*
X28774147Y-18745646D01*
X28899646Y-18620147D01*
X29047216Y-18521544D01*
X29211188Y-18453624D01*
X29360488Y-18423927D01*
X29385258Y-18419000D01*
X29562742Y-18419000D01*
X29587512Y-18423927D01*
G37*
G36*
X97135514Y-18423927D02*
G01*
X97284814Y-18453624D01*
X97448786Y-18521544D01*
X97596356Y-18620147D01*
X97721855Y-18745646D01*
X97820458Y-18893216D01*
X97888378Y-19057188D01*
X97923002Y-19231259D01*
X97923002Y-19408741D01*
X97888378Y-19582812D01*
X97820458Y-19746784D01*
X97721855Y-19894354D01*
X97596356Y-20019853D01*
X97448786Y-20118456D01*
X97284814Y-20186376D01*
X97135514Y-20216073D01*
X97110744Y-20221000D01*
X96933260Y-20221000D01*
X96908490Y-20216073D01*
X96759190Y-20186376D01*
X96595218Y-20118456D01*
X96447648Y-20019853D01*
X96322149Y-19894354D01*
X96223546Y-19746784D01*
X96155626Y-19582812D01*
X96121002Y-19408741D01*
X96121002Y-19231259D01*
X96155626Y-19057188D01*
X96223546Y-18893216D01*
X96322149Y-18745646D01*
X96447648Y-18620147D01*
X96595218Y-18521544D01*
X96759190Y-18453624D01*
X96908490Y-18423927D01*
X96933260Y-18419000D01*
X97110744Y-18419000D01*
X97135514Y-18423927D01*
G37*
G36*
X79355514Y-18423927D02*
G01*
X79504814Y-18453624D01*
X79668786Y-18521544D01*
X79816356Y-18620147D01*
X79941855Y-18745646D01*
X80040458Y-18893216D01*
X80108378Y-19057188D01*
X80143002Y-19231259D01*
X80143002Y-19408741D01*
X80108378Y-19582812D01*
X80040458Y-19746784D01*
X79941855Y-19894354D01*
X79816356Y-20019853D01*
X79668786Y-20118456D01*
X79504814Y-20186376D01*
X79355514Y-20216073D01*
X79330744Y-20221000D01*
X79153260Y-20221000D01*
X79128490Y-20216073D01*
X78979190Y-20186376D01*
X78815218Y-20118456D01*
X78667648Y-20019853D01*
X78542149Y-19894354D01*
X78443546Y-19746784D01*
X78375626Y-19582812D01*
X78341002Y-19408741D01*
X78341002Y-19231259D01*
X78375626Y-19057188D01*
X78443546Y-18893216D01*
X78542149Y-18745646D01*
X78667648Y-18620147D01*
X78815218Y-18521544D01*
X78979190Y-18453624D01*
X79128490Y-18423927D01*
X79153260Y-18419000D01*
X79330744Y-18419000D01*
X79355514Y-18423927D01*
G37*
G36*
X47367512Y-18423927D02*
G01*
X47516812Y-18453624D01*
X47680784Y-18521544D01*
X47828354Y-18620147D01*
X47953853Y-18745646D01*
X48052456Y-18893216D01*
X48120376Y-19057188D01*
X48155000Y-19231259D01*
X48155000Y-19408741D01*
X48120376Y-19582812D01*
X48052456Y-19746784D01*
X47953853Y-19894354D01*
X47828354Y-20019853D01*
X47680784Y-20118456D01*
X47516812Y-20186376D01*
X47367512Y-20216073D01*
X47342742Y-20221000D01*
X47165258Y-20221000D01*
X47140488Y-20216073D01*
X46991188Y-20186376D01*
X46827216Y-20118456D01*
X46679646Y-20019853D01*
X46554147Y-19894354D01*
X46455544Y-19746784D01*
X46387624Y-19582812D01*
X46353000Y-19408741D01*
X46353000Y-19231259D01*
X46387624Y-19057188D01*
X46455544Y-18893216D01*
X46554147Y-18745646D01*
X46679646Y-18620147D01*
X46827216Y-18521544D01*
X46991188Y-18453624D01*
X47140488Y-18423927D01*
X47165258Y-18419000D01*
X47342742Y-18419000D01*
X47367512Y-18423927D01*
G37*
M02*
