M48
; DRILL file {KiCad 5.1.5+dfsg1-2build2} date Sb 18 iun 2022 16:32:43 +0300
; FORMAT={-:-/ absolute / metric / decimal}
; #@! TF.CreationDate,2022-06-18T16:32:43+03:00
; #@! TF.GenerationSoftware,Kicad,Pcbnew,5.1.5+dfsg1-2build2
; #@! TF.FileFunction,Plated,1,2,PTH
FMAT,2
METRIC
T1C0.900
T2C1.000
T3C1.020
T4C1.100
%
G90
G05
T1
X67.812Y-21.606
X70.352Y-21.606
X72.892Y-21.606
X18.044Y-21.606
X20.584Y-21.606
X23.124Y-21.606
X18.552Y-29.226
X21.092Y-29.226
X68.32Y-29.226
X70.86Y-29.226
T2
X106.928Y-36.846
X106.928Y-39.386
X106.928Y-41.926
X57.16Y-36.846
X57.16Y-39.386
X57.16Y-41.926
T3
X79.242Y-19.32
X79.242Y-21.86
X79.242Y-24.4
X79.242Y-26.94
X79.242Y-29.48
X79.242Y-32.02
X79.242Y-34.56
X79.242Y-37.1
X79.242Y-39.64
X79.242Y-42.18
X79.242Y-44.72
X79.242Y-47.26
X79.242Y-49.8
X79.242Y-52.34
X79.242Y-54.88
X79.242Y-57.42
X79.242Y-59.96
X79.242Y-62.5
X79.242Y-65.04
X79.242Y-67.58
X85.592Y-67.35
X88.132Y-67.35
X90.672Y-67.35
X97.022Y-19.32
X97.022Y-21.86
X97.022Y-24.4
X97.022Y-26.94
X97.022Y-29.48
X97.022Y-32.02
X97.022Y-34.56
X97.022Y-37.1
X97.022Y-39.64
X97.022Y-42.18
X97.022Y-44.72
X97.022Y-47.26
X97.022Y-49.8
X97.022Y-52.34
X97.022Y-54.88
X97.022Y-57.42
X97.022Y-59.96
X97.022Y-62.5
X97.022Y-65.04
X97.022Y-67.58
X29.474Y-19.32
X29.474Y-21.86
X29.474Y-24.4
X29.474Y-26.94
X29.474Y-29.48
X29.474Y-32.02
X29.474Y-34.56
X29.474Y-37.1
X29.474Y-39.64
X29.474Y-42.18
X29.474Y-44.72
X29.474Y-47.26
X29.474Y-49.8
X29.474Y-52.34
X29.474Y-54.88
X29.474Y-57.42
X29.474Y-59.96
X29.474Y-62.5
X29.474Y-65.04
X29.474Y-67.58
X35.824Y-67.35
X38.364Y-67.35
X40.904Y-67.35
X47.254Y-19.32
X47.254Y-21.86
X47.254Y-24.4
X47.254Y-26.94
X47.254Y-29.48
X47.254Y-32.02
X47.254Y-34.56
X47.254Y-37.1
X47.254Y-39.64
X47.254Y-42.18
X47.254Y-44.72
X47.254Y-47.26
X47.254Y-49.8
X47.254Y-52.34
X47.254Y-54.88
X47.254Y-57.42
X47.254Y-59.96
X47.254Y-62.5
X47.254Y-65.04
X47.254Y-67.58
T4
X67.376Y-60.722
X67.376Y-67.222
X71.876Y-60.722
X71.876Y-67.222
X17.608Y-60.722
X17.608Y-67.222
X22.108Y-60.722
X22.108Y-67.222
X56.652Y-25.774
X56.652Y-32.274
X61.152Y-25.774
X61.152Y-32.274
X106.42Y-25.774
X106.42Y-32.274
X110.92Y-25.774
X110.92Y-32.274
T0
M30
