M48
; DRILL file {KiCad 5.1.5+dfsg1-2build2} date Sb 18 iun 2022 16:32:43 +0300
; FORMAT={-:-/ absolute / metric / decimal}
; #@! TF.CreationDate,2022-06-18T16:32:43+03:00
; #@! TF.GenerationSoftware,Kicad,Pcbnew,5.1.5+dfsg1-2build2
; #@! TF.FileFunction,NonPlated,1,2,NPTH
FMAT,2
METRIC
T1C0.500
T2C1.500
T3C1.800
T4C3.200
%
G90
G05
T1
X63.56Y-54.433
X64.96Y-35.467
X63.56Y-55.433
X64.96Y-32.467
X63.56Y-51.433
X64.96Y-34.467
X63.56Y-53.433
X64.96Y-31.467
X63.56Y-36.467
X64.96Y-51.433
X63.56Y-33.467
X63.56Y-31.467
X64.96Y-36.467
X63.56Y-35.467
X64.96Y-55.433
X63.56Y-50.433
X64.96Y-52.433
X63.56Y-52.433
X64.96Y-53.433
X64.96Y-54.433
X64.96Y-33.467
X63.56Y-34.467
X64.96Y-50.433
X63.56Y-32.467
T2
X85.707Y-22.48
X90.557Y-22.48
X35.939Y-22.48
X40.789Y-22.48
T3
X85.407Y-19.45
X90.857Y-19.45
X35.639Y-19.45
X41.089Y-19.45
T4
X59.7Y-67.834
X20.076Y-48.53
X108.96Y-19.574
X109.468Y-67.834
X69.844Y-48.53
X59.192Y-19.574
T0
M30
