G04 #@! TF.GenerationSoftware,KiCad,Pcbnew,5.1.5+dfsg1-2build2*
G04 #@! TF.CreationDate,2022-06-18T16:31:26+03:00*
G04 #@! TF.ProjectId,pico-panel,7069636f-2d70-4616-9e65-6c2e6b696361,rev?*
G04 #@! TF.SameCoordinates,Original*
G04 #@! TF.FileFunction,Soldermask,Top*
G04 #@! TF.FilePolarity,Negative*
%FSLAX46Y46*%
G04 Gerber Fmt 4.6, Leading zero omitted, Abs format (unit mm)*
G04 Created by KiCad (PCBNEW 5.1.5+dfsg1-2build2) date 2022-06-18 16:31:26*
%MOMM*%
%LPD*%
G04 APERTURE LIST*
%ADD10C,0.150000*%
G04 APERTURE END LIST*
D10*
G36*
X86493002Y-70051000D02*
G01*
X84691002Y-70051000D01*
X84691002Y-66449000D01*
X86493002Y-66449000D01*
X86493002Y-70051000D01*
G37*
G36*
X89033002Y-70051000D02*
G01*
X87231002Y-70051000D01*
X87231002Y-66449000D01*
X89033002Y-66449000D01*
X89033002Y-70051000D01*
G37*
G36*
X91573002Y-70051000D02*
G01*
X89771002Y-70051000D01*
X89771002Y-66449000D01*
X91573002Y-66449000D01*
X91573002Y-70051000D01*
G37*
G36*
X36725000Y-70051000D02*
G01*
X34923000Y-70051000D01*
X34923000Y-66449000D01*
X36725000Y-66449000D01*
X36725000Y-70051000D01*
G37*
G36*
X41805000Y-70051000D02*
G01*
X40003000Y-70051000D01*
X40003000Y-66449000D01*
X41805000Y-66449000D01*
X41805000Y-70051000D01*
G37*
G36*
X39265000Y-70051000D02*
G01*
X37463000Y-70051000D01*
X37463000Y-66449000D01*
X39265000Y-66449000D01*
X39265000Y-70051000D01*
G37*
G36*
X60075256Y-66225298D02*
G01*
X60181579Y-66246447D01*
X60482042Y-66370903D01*
X60752451Y-66551585D01*
X60982415Y-66781549D01*
X61163097Y-67051958D01*
X61276409Y-67325516D01*
X61287553Y-67352422D01*
X61351000Y-67671389D01*
X61351000Y-67996611D01*
X61340409Y-68049853D01*
X61287553Y-68315579D01*
X61163097Y-68616042D01*
X60982415Y-68886451D01*
X60752451Y-69116415D01*
X60482042Y-69297097D01*
X60181579Y-69421553D01*
X60075256Y-69442702D01*
X59862611Y-69485000D01*
X59537389Y-69485000D01*
X59324744Y-69442702D01*
X59218421Y-69421553D01*
X58917958Y-69297097D01*
X58647549Y-69116415D01*
X58417585Y-68886451D01*
X58236903Y-68616042D01*
X58112447Y-68315579D01*
X58059591Y-68049853D01*
X58049000Y-67996611D01*
X58049000Y-67671389D01*
X58112447Y-67352422D01*
X58123592Y-67325516D01*
X58236903Y-67051958D01*
X58417585Y-66781549D01*
X58647549Y-66551585D01*
X58917958Y-66370903D01*
X59218421Y-66246447D01*
X59324744Y-66225298D01*
X59537389Y-66183000D01*
X59862611Y-66183000D01*
X60075256Y-66225298D01*
G37*
G36*
X109843258Y-66225298D02*
G01*
X109949581Y-66246447D01*
X110250044Y-66370903D01*
X110520453Y-66551585D01*
X110750417Y-66781549D01*
X110931099Y-67051958D01*
X111044411Y-67325516D01*
X111055555Y-67352422D01*
X111119002Y-67671389D01*
X111119002Y-67996611D01*
X111108411Y-68049853D01*
X111055555Y-68315579D01*
X110931099Y-68616042D01*
X110750417Y-68886451D01*
X110520453Y-69116415D01*
X110250044Y-69297097D01*
X109949581Y-69421553D01*
X109843258Y-69442702D01*
X109630613Y-69485000D01*
X109305391Y-69485000D01*
X109092746Y-69442702D01*
X108986423Y-69421553D01*
X108685960Y-69297097D01*
X108415551Y-69116415D01*
X108185587Y-68886451D01*
X108004905Y-68616042D01*
X107880449Y-68315579D01*
X107827593Y-68049853D01*
X107817002Y-67996611D01*
X107817002Y-67671389D01*
X107880449Y-67352422D01*
X107891594Y-67325516D01*
X108004905Y-67051958D01*
X108185587Y-66781549D01*
X108415551Y-66551585D01*
X108685960Y-66370903D01*
X108986423Y-66246447D01*
X109092746Y-66225298D01*
X109305391Y-66183000D01*
X109630613Y-66183000D01*
X109843258Y-66225298D01*
G37*
G36*
X99723002Y-68481000D02*
G01*
X96121002Y-68481000D01*
X96121002Y-66679000D01*
X99723002Y-66679000D01*
X99723002Y-68481000D01*
G37*
G36*
X49955000Y-68481000D02*
G01*
X46353000Y-68481000D01*
X46353000Y-66679000D01*
X49955000Y-66679000D01*
X49955000Y-68481000D01*
G37*
G36*
X80143002Y-68481000D02*
G01*
X76541002Y-68481000D01*
X76541002Y-66679000D01*
X80143002Y-66679000D01*
X80143002Y-68481000D01*
G37*
G36*
X30375000Y-68481000D02*
G01*
X26773000Y-68481000D01*
X26773000Y-66679000D01*
X30375000Y-66679000D01*
X30375000Y-68481000D01*
G37*
G36*
X17914564Y-66211389D02*
G01*
X18105833Y-66290615D01*
X18105835Y-66290616D01*
X18277973Y-66405635D01*
X18424365Y-66552027D01*
X18532341Y-66713624D01*
X18539385Y-66724167D01*
X18618611Y-66915436D01*
X18659000Y-67118484D01*
X18659000Y-67325516D01*
X18618611Y-67528564D01*
X18583714Y-67612812D01*
X18539384Y-67719835D01*
X18424365Y-67891973D01*
X18277973Y-68038365D01*
X18105835Y-68153384D01*
X18105834Y-68153385D01*
X18105833Y-68153385D01*
X17914564Y-68232611D01*
X17711516Y-68273000D01*
X17504484Y-68273000D01*
X17301436Y-68232611D01*
X17110167Y-68153385D01*
X17110166Y-68153385D01*
X17110165Y-68153384D01*
X16938027Y-68038365D01*
X16791635Y-67891973D01*
X16676616Y-67719835D01*
X16632286Y-67612812D01*
X16597389Y-67528564D01*
X16557000Y-67325516D01*
X16557000Y-67118484D01*
X16597389Y-66915436D01*
X16676615Y-66724167D01*
X16683660Y-66713624D01*
X16791635Y-66552027D01*
X16938027Y-66405635D01*
X17110165Y-66290616D01*
X17110167Y-66290615D01*
X17301436Y-66211389D01*
X17504484Y-66171000D01*
X17711516Y-66171000D01*
X17914564Y-66211389D01*
G37*
G36*
X22414564Y-66211389D02*
G01*
X22605833Y-66290615D01*
X22605835Y-66290616D01*
X22777973Y-66405635D01*
X22924365Y-66552027D01*
X23032341Y-66713624D01*
X23039385Y-66724167D01*
X23118611Y-66915436D01*
X23159000Y-67118484D01*
X23159000Y-67325516D01*
X23118611Y-67528564D01*
X23083714Y-67612812D01*
X23039384Y-67719835D01*
X22924365Y-67891973D01*
X22777973Y-68038365D01*
X22605835Y-68153384D01*
X22605834Y-68153385D01*
X22605833Y-68153385D01*
X22414564Y-68232611D01*
X22211516Y-68273000D01*
X22004484Y-68273000D01*
X21801436Y-68232611D01*
X21610167Y-68153385D01*
X21610166Y-68153385D01*
X21610165Y-68153384D01*
X21438027Y-68038365D01*
X21291635Y-67891973D01*
X21176616Y-67719835D01*
X21132286Y-67612812D01*
X21097389Y-67528564D01*
X21057000Y-67325516D01*
X21057000Y-67118484D01*
X21097389Y-66915436D01*
X21176615Y-66724167D01*
X21183660Y-66713624D01*
X21291635Y-66552027D01*
X21438027Y-66405635D01*
X21610165Y-66290616D01*
X21610167Y-66290615D01*
X21801436Y-66211389D01*
X22004484Y-66171000D01*
X22211516Y-66171000D01*
X22414564Y-66211389D01*
G37*
G36*
X72182566Y-66211389D02*
G01*
X72373835Y-66290615D01*
X72373837Y-66290616D01*
X72545975Y-66405635D01*
X72692367Y-66552027D01*
X72800343Y-66713624D01*
X72807387Y-66724167D01*
X72886613Y-66915436D01*
X72927002Y-67118484D01*
X72927002Y-67325516D01*
X72886613Y-67528564D01*
X72851716Y-67612812D01*
X72807386Y-67719835D01*
X72692367Y-67891973D01*
X72545975Y-68038365D01*
X72373837Y-68153384D01*
X72373836Y-68153385D01*
X72373835Y-68153385D01*
X72182566Y-68232611D01*
X71979518Y-68273000D01*
X71772486Y-68273000D01*
X71569438Y-68232611D01*
X71378169Y-68153385D01*
X71378168Y-68153385D01*
X71378167Y-68153384D01*
X71206029Y-68038365D01*
X71059637Y-67891973D01*
X70944618Y-67719835D01*
X70900288Y-67612812D01*
X70865391Y-67528564D01*
X70825002Y-67325516D01*
X70825002Y-67118484D01*
X70865391Y-66915436D01*
X70944617Y-66724167D01*
X70951662Y-66713624D01*
X71059637Y-66552027D01*
X71206029Y-66405635D01*
X71378167Y-66290616D01*
X71378169Y-66290615D01*
X71569438Y-66211389D01*
X71772486Y-66171000D01*
X71979518Y-66171000D01*
X72182566Y-66211389D01*
G37*
G36*
X67682566Y-66211389D02*
G01*
X67873835Y-66290615D01*
X67873837Y-66290616D01*
X68045975Y-66405635D01*
X68192367Y-66552027D01*
X68300343Y-66713624D01*
X68307387Y-66724167D01*
X68386613Y-66915436D01*
X68427002Y-67118484D01*
X68427002Y-67325516D01*
X68386613Y-67528564D01*
X68351716Y-67612812D01*
X68307386Y-67719835D01*
X68192367Y-67891973D01*
X68045975Y-68038365D01*
X67873837Y-68153384D01*
X67873836Y-68153385D01*
X67873835Y-68153385D01*
X67682566Y-68232611D01*
X67479518Y-68273000D01*
X67272486Y-68273000D01*
X67069438Y-68232611D01*
X66878169Y-68153385D01*
X66878168Y-68153385D01*
X66878167Y-68153384D01*
X66706029Y-68038365D01*
X66559637Y-67891973D01*
X66444618Y-67719835D01*
X66400288Y-67612812D01*
X66365391Y-67528564D01*
X66325002Y-67325516D01*
X66325002Y-67118484D01*
X66365391Y-66915436D01*
X66444617Y-66724167D01*
X66451662Y-66713624D01*
X66559637Y-66552027D01*
X66706029Y-66405635D01*
X66878167Y-66290616D01*
X66878169Y-66290615D01*
X67069438Y-66211389D01*
X67272486Y-66171000D01*
X67479518Y-66171000D01*
X67682566Y-66211389D01*
G37*
G36*
X49955000Y-65941000D02*
G01*
X46353000Y-65941000D01*
X46353000Y-64139000D01*
X49955000Y-64139000D01*
X49955000Y-65941000D01*
G37*
G36*
X99723002Y-65941000D02*
G01*
X96121002Y-65941000D01*
X96121002Y-64139000D01*
X99723002Y-64139000D01*
X99723002Y-65941000D01*
G37*
G36*
X80143002Y-65941000D02*
G01*
X76541002Y-65941000D01*
X76541002Y-64139000D01*
X80143002Y-64139000D01*
X80143002Y-65941000D01*
G37*
G36*
X30375000Y-65941000D02*
G01*
X26773000Y-65941000D01*
X26773000Y-64139000D01*
X30375000Y-64139000D01*
X30375000Y-65941000D01*
G37*
G36*
X56117674Y-62007465D02*
G01*
X56155367Y-62018899D01*
X56190103Y-62037466D01*
X56220548Y-62062452D01*
X56245534Y-62092897D01*
X56264101Y-62127633D01*
X56275535Y-62165326D01*
X56280000Y-62210661D01*
X56280000Y-63297339D01*
X56275535Y-63342674D01*
X56264101Y-63380367D01*
X56245534Y-63415103D01*
X56220548Y-63445548D01*
X56190103Y-63470534D01*
X56155367Y-63489101D01*
X56117674Y-63500535D01*
X56072339Y-63505000D01*
X55235661Y-63505000D01*
X55190326Y-63500535D01*
X55152633Y-63489101D01*
X55117897Y-63470534D01*
X55087452Y-63445548D01*
X55062466Y-63415103D01*
X55043899Y-63380367D01*
X55032465Y-63342674D01*
X55028000Y-63297339D01*
X55028000Y-62210661D01*
X55032465Y-62165326D01*
X55043899Y-62127633D01*
X55062466Y-62092897D01*
X55087452Y-62062452D01*
X55117897Y-62037466D01*
X55152633Y-62018899D01*
X55190326Y-62007465D01*
X55235661Y-62003000D01*
X56072339Y-62003000D01*
X56117674Y-62007465D01*
G37*
G36*
X103835676Y-62007465D02*
G01*
X103873369Y-62018899D01*
X103908105Y-62037466D01*
X103938550Y-62062452D01*
X103963536Y-62092897D01*
X103982103Y-62127633D01*
X103993537Y-62165326D01*
X103998002Y-62210661D01*
X103998002Y-63297339D01*
X103993537Y-63342674D01*
X103982103Y-63380367D01*
X103963536Y-63415103D01*
X103938550Y-63445548D01*
X103908105Y-63470534D01*
X103873369Y-63489101D01*
X103835676Y-63500535D01*
X103790341Y-63505000D01*
X102953663Y-63505000D01*
X102908328Y-63500535D01*
X102870635Y-63489101D01*
X102835899Y-63470534D01*
X102805454Y-63445548D01*
X102780468Y-63415103D01*
X102761901Y-63380367D01*
X102750467Y-63342674D01*
X102746002Y-63297339D01*
X102746002Y-62210661D01*
X102750467Y-62165326D01*
X102761901Y-62127633D01*
X102780468Y-62092897D01*
X102805454Y-62062452D01*
X102835899Y-62037466D01*
X102870635Y-62018899D01*
X102908328Y-62007465D01*
X102953663Y-62003000D01*
X103790341Y-62003000D01*
X103835676Y-62007465D01*
G37*
G36*
X54067674Y-62007465D02*
G01*
X54105367Y-62018899D01*
X54140103Y-62037466D01*
X54170548Y-62062452D01*
X54195534Y-62092897D01*
X54214101Y-62127633D01*
X54225535Y-62165326D01*
X54230000Y-62210661D01*
X54230000Y-63297339D01*
X54225535Y-63342674D01*
X54214101Y-63380367D01*
X54195534Y-63415103D01*
X54170548Y-63445548D01*
X54140103Y-63470534D01*
X54105367Y-63489101D01*
X54067674Y-63500535D01*
X54022339Y-63505000D01*
X53185661Y-63505000D01*
X53140326Y-63500535D01*
X53102633Y-63489101D01*
X53067897Y-63470534D01*
X53037452Y-63445548D01*
X53012466Y-63415103D01*
X52993899Y-63380367D01*
X52982465Y-63342674D01*
X52978000Y-63297339D01*
X52978000Y-62210661D01*
X52982465Y-62165326D01*
X52993899Y-62127633D01*
X53012466Y-62092897D01*
X53037452Y-62062452D01*
X53067897Y-62037466D01*
X53102633Y-62018899D01*
X53140326Y-62007465D01*
X53185661Y-62003000D01*
X54022339Y-62003000D01*
X54067674Y-62007465D01*
G37*
G36*
X105885676Y-62007465D02*
G01*
X105923369Y-62018899D01*
X105958105Y-62037466D01*
X105988550Y-62062452D01*
X106013536Y-62092897D01*
X106032103Y-62127633D01*
X106043537Y-62165326D01*
X106048002Y-62210661D01*
X106048002Y-63297339D01*
X106043537Y-63342674D01*
X106032103Y-63380367D01*
X106013536Y-63415103D01*
X105988550Y-63445548D01*
X105958105Y-63470534D01*
X105923369Y-63489101D01*
X105885676Y-63500535D01*
X105840341Y-63505000D01*
X105003663Y-63505000D01*
X104958328Y-63500535D01*
X104920635Y-63489101D01*
X104885899Y-63470534D01*
X104855454Y-63445548D01*
X104830468Y-63415103D01*
X104811901Y-63380367D01*
X104800467Y-63342674D01*
X104796002Y-63297339D01*
X104796002Y-62210661D01*
X104800467Y-62165326D01*
X104811901Y-62127633D01*
X104830468Y-62092897D01*
X104855454Y-62062452D01*
X104885899Y-62037466D01*
X104920635Y-62018899D01*
X104958328Y-62007465D01*
X105003663Y-62003000D01*
X105840341Y-62003000D01*
X105885676Y-62007465D01*
G37*
G36*
X49955000Y-63401000D02*
G01*
X46353000Y-63401000D01*
X46353000Y-61599000D01*
X49955000Y-61599000D01*
X49955000Y-63401000D01*
G37*
G36*
X30375000Y-63401000D02*
G01*
X26773000Y-63401000D01*
X26773000Y-61599000D01*
X30375000Y-61599000D01*
X30375000Y-63401000D01*
G37*
G36*
X80143002Y-63401000D02*
G01*
X76541002Y-63401000D01*
X76541002Y-61599000D01*
X80143002Y-61599000D01*
X80143002Y-63401000D01*
G37*
G36*
X99723002Y-63401000D02*
G01*
X96121002Y-63401000D01*
X96121002Y-61599000D01*
X99723002Y-61599000D01*
X99723002Y-63401000D01*
G37*
G36*
X67682566Y-59711389D02*
G01*
X67873835Y-59790615D01*
X67873837Y-59790616D01*
X67994528Y-59871259D01*
X68045975Y-59905635D01*
X68192367Y-60052027D01*
X68307387Y-60224167D01*
X68386613Y-60415436D01*
X68427002Y-60618484D01*
X68427002Y-60825516D01*
X68386613Y-61028564D01*
X68307387Y-61219833D01*
X68307386Y-61219835D01*
X68192367Y-61391973D01*
X68045975Y-61538365D01*
X67873837Y-61653384D01*
X67873836Y-61653385D01*
X67873835Y-61653385D01*
X67682566Y-61732611D01*
X67479518Y-61773000D01*
X67272486Y-61773000D01*
X67069438Y-61732611D01*
X66878169Y-61653385D01*
X66878168Y-61653385D01*
X66878167Y-61653384D01*
X66706029Y-61538365D01*
X66559637Y-61391973D01*
X66444618Y-61219835D01*
X66444617Y-61219833D01*
X66365391Y-61028564D01*
X66325002Y-60825516D01*
X66325002Y-60618484D01*
X66365391Y-60415436D01*
X66444617Y-60224167D01*
X66559637Y-60052027D01*
X66706029Y-59905635D01*
X66757476Y-59871259D01*
X66878167Y-59790616D01*
X66878169Y-59790615D01*
X67069438Y-59711389D01*
X67272486Y-59671000D01*
X67479518Y-59671000D01*
X67682566Y-59711389D01*
G37*
G36*
X22414564Y-59711389D02*
G01*
X22605833Y-59790615D01*
X22605835Y-59790616D01*
X22726526Y-59871259D01*
X22777973Y-59905635D01*
X22924365Y-60052027D01*
X23039385Y-60224167D01*
X23118611Y-60415436D01*
X23159000Y-60618484D01*
X23159000Y-60825516D01*
X23118611Y-61028564D01*
X23039385Y-61219833D01*
X23039384Y-61219835D01*
X22924365Y-61391973D01*
X22777973Y-61538365D01*
X22605835Y-61653384D01*
X22605834Y-61653385D01*
X22605833Y-61653385D01*
X22414564Y-61732611D01*
X22211516Y-61773000D01*
X22004484Y-61773000D01*
X21801436Y-61732611D01*
X21610167Y-61653385D01*
X21610166Y-61653385D01*
X21610165Y-61653384D01*
X21438027Y-61538365D01*
X21291635Y-61391973D01*
X21176616Y-61219835D01*
X21176615Y-61219833D01*
X21097389Y-61028564D01*
X21057000Y-60825516D01*
X21057000Y-60618484D01*
X21097389Y-60415436D01*
X21176615Y-60224167D01*
X21291635Y-60052027D01*
X21438027Y-59905635D01*
X21489474Y-59871259D01*
X21610165Y-59790616D01*
X21610167Y-59790615D01*
X21801436Y-59711389D01*
X22004484Y-59671000D01*
X22211516Y-59671000D01*
X22414564Y-59711389D01*
G37*
G36*
X17914564Y-59711389D02*
G01*
X18105833Y-59790615D01*
X18105835Y-59790616D01*
X18226526Y-59871259D01*
X18277973Y-59905635D01*
X18424365Y-60052027D01*
X18539385Y-60224167D01*
X18618611Y-60415436D01*
X18659000Y-60618484D01*
X18659000Y-60825516D01*
X18618611Y-61028564D01*
X18539385Y-61219833D01*
X18539384Y-61219835D01*
X18424365Y-61391973D01*
X18277973Y-61538365D01*
X18105835Y-61653384D01*
X18105834Y-61653385D01*
X18105833Y-61653385D01*
X17914564Y-61732611D01*
X17711516Y-61773000D01*
X17504484Y-61773000D01*
X17301436Y-61732611D01*
X17110167Y-61653385D01*
X17110166Y-61653385D01*
X17110165Y-61653384D01*
X16938027Y-61538365D01*
X16791635Y-61391973D01*
X16676616Y-61219835D01*
X16676615Y-61219833D01*
X16597389Y-61028564D01*
X16557000Y-60825516D01*
X16557000Y-60618484D01*
X16597389Y-60415436D01*
X16676615Y-60224167D01*
X16791635Y-60052027D01*
X16938027Y-59905635D01*
X16989474Y-59871259D01*
X17110165Y-59790616D01*
X17110167Y-59790615D01*
X17301436Y-59711389D01*
X17504484Y-59671000D01*
X17711516Y-59671000D01*
X17914564Y-59711389D01*
G37*
G36*
X72182566Y-59711389D02*
G01*
X72373835Y-59790615D01*
X72373837Y-59790616D01*
X72494528Y-59871259D01*
X72545975Y-59905635D01*
X72692367Y-60052027D01*
X72807387Y-60224167D01*
X72886613Y-60415436D01*
X72927002Y-60618484D01*
X72927002Y-60825516D01*
X72886613Y-61028564D01*
X72807387Y-61219833D01*
X72807386Y-61219835D01*
X72692367Y-61391973D01*
X72545975Y-61538365D01*
X72373837Y-61653384D01*
X72373836Y-61653385D01*
X72373835Y-61653385D01*
X72182566Y-61732611D01*
X71979518Y-61773000D01*
X71772486Y-61773000D01*
X71569438Y-61732611D01*
X71378169Y-61653385D01*
X71378168Y-61653385D01*
X71378167Y-61653384D01*
X71206029Y-61538365D01*
X71059637Y-61391973D01*
X70944618Y-61219835D01*
X70944617Y-61219833D01*
X70865391Y-61028564D01*
X70825002Y-60825516D01*
X70825002Y-60618484D01*
X70865391Y-60415436D01*
X70944617Y-60224167D01*
X71059637Y-60052027D01*
X71206029Y-59905635D01*
X71257476Y-59871259D01*
X71378167Y-59790616D01*
X71378169Y-59790615D01*
X71569438Y-59711389D01*
X71772486Y-59671000D01*
X71979518Y-59671000D01*
X72182566Y-59711389D01*
G37*
G36*
X57614674Y-59467465D02*
G01*
X57652367Y-59478899D01*
X57687103Y-59497466D01*
X57717548Y-59522452D01*
X57742534Y-59552897D01*
X57761101Y-59587633D01*
X57772535Y-59625326D01*
X57777000Y-59670661D01*
X57777000Y-60757339D01*
X57772535Y-60802674D01*
X57761101Y-60840367D01*
X57742534Y-60875103D01*
X57717548Y-60905548D01*
X57687103Y-60930534D01*
X57652367Y-60949101D01*
X57614674Y-60960535D01*
X57569339Y-60965000D01*
X56732661Y-60965000D01*
X56687326Y-60960535D01*
X56649633Y-60949101D01*
X56614897Y-60930534D01*
X56584452Y-60905548D01*
X56559466Y-60875103D01*
X56540899Y-60840367D01*
X56529465Y-60802674D01*
X56525000Y-60757339D01*
X56525000Y-59670661D01*
X56529465Y-59625326D01*
X56540899Y-59587633D01*
X56559466Y-59552897D01*
X56584452Y-59522452D01*
X56614897Y-59497466D01*
X56649633Y-59478899D01*
X56687326Y-59467465D01*
X56732661Y-59463000D01*
X57569339Y-59463000D01*
X57614674Y-59467465D01*
G37*
G36*
X109432676Y-59467465D02*
G01*
X109470369Y-59478899D01*
X109505105Y-59497466D01*
X109535550Y-59522452D01*
X109560536Y-59552897D01*
X109579103Y-59587633D01*
X109590537Y-59625326D01*
X109595002Y-59670661D01*
X109595002Y-60757339D01*
X109590537Y-60802674D01*
X109579103Y-60840367D01*
X109560536Y-60875103D01*
X109535550Y-60905548D01*
X109505105Y-60930534D01*
X109470369Y-60949101D01*
X109432676Y-60960535D01*
X109387341Y-60965000D01*
X108550663Y-60965000D01*
X108505328Y-60960535D01*
X108467635Y-60949101D01*
X108432899Y-60930534D01*
X108402454Y-60905548D01*
X108377468Y-60875103D01*
X108358901Y-60840367D01*
X108347467Y-60802674D01*
X108343002Y-60757339D01*
X108343002Y-59670661D01*
X108347467Y-59625326D01*
X108358901Y-59587633D01*
X108377468Y-59552897D01*
X108402454Y-59522452D01*
X108432899Y-59497466D01*
X108467635Y-59478899D01*
X108505328Y-59467465D01*
X108550663Y-59463000D01*
X109387341Y-59463000D01*
X109432676Y-59467465D01*
G37*
G36*
X107382676Y-59467465D02*
G01*
X107420369Y-59478899D01*
X107455105Y-59497466D01*
X107485550Y-59522452D01*
X107510536Y-59552897D01*
X107529103Y-59587633D01*
X107540537Y-59625326D01*
X107545002Y-59670661D01*
X107545002Y-60757339D01*
X107540537Y-60802674D01*
X107529103Y-60840367D01*
X107510536Y-60875103D01*
X107485550Y-60905548D01*
X107455105Y-60930534D01*
X107420369Y-60949101D01*
X107382676Y-60960535D01*
X107337341Y-60965000D01*
X106500663Y-60965000D01*
X106455328Y-60960535D01*
X106417635Y-60949101D01*
X106382899Y-60930534D01*
X106352454Y-60905548D01*
X106327468Y-60875103D01*
X106308901Y-60840367D01*
X106297467Y-60802674D01*
X106293002Y-60757339D01*
X106293002Y-59670661D01*
X106297467Y-59625326D01*
X106308901Y-59587633D01*
X106327468Y-59552897D01*
X106352454Y-59522452D01*
X106382899Y-59497466D01*
X106417635Y-59478899D01*
X106455328Y-59467465D01*
X106500663Y-59463000D01*
X107337341Y-59463000D01*
X107382676Y-59467465D01*
G37*
G36*
X59664674Y-59467465D02*
G01*
X59702367Y-59478899D01*
X59737103Y-59497466D01*
X59767548Y-59522452D01*
X59792534Y-59552897D01*
X59811101Y-59587633D01*
X59822535Y-59625326D01*
X59827000Y-59670661D01*
X59827000Y-60757339D01*
X59822535Y-60802674D01*
X59811101Y-60840367D01*
X59792534Y-60875103D01*
X59767548Y-60905548D01*
X59737103Y-60930534D01*
X59702367Y-60949101D01*
X59664674Y-60960535D01*
X59619339Y-60965000D01*
X58782661Y-60965000D01*
X58737326Y-60960535D01*
X58699633Y-60949101D01*
X58664897Y-60930534D01*
X58634452Y-60905548D01*
X58609466Y-60875103D01*
X58590899Y-60840367D01*
X58579465Y-60802674D01*
X58575000Y-60757339D01*
X58575000Y-59670661D01*
X58579465Y-59625326D01*
X58590899Y-59587633D01*
X58609466Y-59552897D01*
X58634452Y-59522452D01*
X58664897Y-59497466D01*
X58699633Y-59478899D01*
X58737326Y-59467465D01*
X58782661Y-59463000D01*
X59619339Y-59463000D01*
X59664674Y-59467465D01*
G37*
G36*
X80143002Y-60861000D02*
G01*
X76541002Y-60861000D01*
X76541002Y-59059000D01*
X80143002Y-59059000D01*
X80143002Y-60861000D01*
G37*
G36*
X99723002Y-60861000D02*
G01*
X96121002Y-60861000D01*
X96121002Y-59059000D01*
X99723002Y-59059000D01*
X99723002Y-60861000D01*
G37*
G36*
X30375000Y-60861000D02*
G01*
X26773000Y-60861000D01*
X26773000Y-59059000D01*
X30375000Y-59059000D01*
X30375000Y-60861000D01*
G37*
G36*
X49955000Y-60861000D02*
G01*
X46353000Y-60861000D01*
X46353000Y-59059000D01*
X49955000Y-59059000D01*
X49955000Y-60861000D01*
G37*
G36*
X49955000Y-58321000D02*
G01*
X46353000Y-58321000D01*
X46353000Y-56519000D01*
X49955000Y-56519000D01*
X49955000Y-58321000D01*
G37*
G36*
X80143002Y-58321000D02*
G01*
X76541002Y-58321000D01*
X76541002Y-56519000D01*
X80143002Y-56519000D01*
X80143002Y-58321000D01*
G37*
G36*
X99723002Y-58321000D02*
G01*
X96121002Y-58321000D01*
X96121002Y-56519000D01*
X99723002Y-56519000D01*
X99723002Y-58321000D01*
G37*
G36*
X30375000Y-58321000D02*
G01*
X26773000Y-58321000D01*
X26773000Y-56519000D01*
X30375000Y-56519000D01*
X30375000Y-58321000D01*
G37*
G36*
X105885676Y-56419465D02*
G01*
X105923369Y-56430899D01*
X105958105Y-56449466D01*
X105988550Y-56474452D01*
X106013536Y-56504897D01*
X106032103Y-56539633D01*
X106043537Y-56577326D01*
X106048002Y-56622661D01*
X106048002Y-57709339D01*
X106043537Y-57754674D01*
X106032103Y-57792367D01*
X106013536Y-57827103D01*
X105988550Y-57857548D01*
X105958105Y-57882534D01*
X105923369Y-57901101D01*
X105885676Y-57912535D01*
X105840341Y-57917000D01*
X105003663Y-57917000D01*
X104958328Y-57912535D01*
X104920635Y-57901101D01*
X104885899Y-57882534D01*
X104855454Y-57857548D01*
X104830468Y-57827103D01*
X104811901Y-57792367D01*
X104800467Y-57754674D01*
X104796002Y-57709339D01*
X104796002Y-56622661D01*
X104800467Y-56577326D01*
X104811901Y-56539633D01*
X104830468Y-56504897D01*
X104855454Y-56474452D01*
X104885899Y-56449466D01*
X104920635Y-56430899D01*
X104958328Y-56419465D01*
X105003663Y-56415000D01*
X105840341Y-56415000D01*
X105885676Y-56419465D01*
G37*
G36*
X56117674Y-56419465D02*
G01*
X56155367Y-56430899D01*
X56190103Y-56449466D01*
X56220548Y-56474452D01*
X56245534Y-56504897D01*
X56264101Y-56539633D01*
X56275535Y-56577326D01*
X56280000Y-56622661D01*
X56280000Y-57709339D01*
X56275535Y-57754674D01*
X56264101Y-57792367D01*
X56245534Y-57827103D01*
X56220548Y-57857548D01*
X56190103Y-57882534D01*
X56155367Y-57901101D01*
X56117674Y-57912535D01*
X56072339Y-57917000D01*
X55235661Y-57917000D01*
X55190326Y-57912535D01*
X55152633Y-57901101D01*
X55117897Y-57882534D01*
X55087452Y-57857548D01*
X55062466Y-57827103D01*
X55043899Y-57792367D01*
X55032465Y-57754674D01*
X55028000Y-57709339D01*
X55028000Y-56622661D01*
X55032465Y-56577326D01*
X55043899Y-56539633D01*
X55062466Y-56504897D01*
X55087452Y-56474452D01*
X55117897Y-56449466D01*
X55152633Y-56430899D01*
X55190326Y-56419465D01*
X55235661Y-56415000D01*
X56072339Y-56415000D01*
X56117674Y-56419465D01*
G37*
G36*
X54067674Y-56419465D02*
G01*
X54105367Y-56430899D01*
X54140103Y-56449466D01*
X54170548Y-56474452D01*
X54195534Y-56504897D01*
X54214101Y-56539633D01*
X54225535Y-56577326D01*
X54230000Y-56622661D01*
X54230000Y-57709339D01*
X54225535Y-57754674D01*
X54214101Y-57792367D01*
X54195534Y-57827103D01*
X54170548Y-57857548D01*
X54140103Y-57882534D01*
X54105367Y-57901101D01*
X54067674Y-57912535D01*
X54022339Y-57917000D01*
X53185661Y-57917000D01*
X53140326Y-57912535D01*
X53102633Y-57901101D01*
X53067897Y-57882534D01*
X53037452Y-57857548D01*
X53012466Y-57827103D01*
X52993899Y-57792367D01*
X52982465Y-57754674D01*
X52978000Y-57709339D01*
X52978000Y-56622661D01*
X52982465Y-56577326D01*
X52993899Y-56539633D01*
X53012466Y-56504897D01*
X53037452Y-56474452D01*
X53067897Y-56449466D01*
X53102633Y-56430899D01*
X53140326Y-56419465D01*
X53185661Y-56415000D01*
X54022339Y-56415000D01*
X54067674Y-56419465D01*
G37*
G36*
X103835676Y-56419465D02*
G01*
X103873369Y-56430899D01*
X103908105Y-56449466D01*
X103938550Y-56474452D01*
X103963536Y-56504897D01*
X103982103Y-56539633D01*
X103993537Y-56577326D01*
X103998002Y-56622661D01*
X103998002Y-57709339D01*
X103993537Y-57754674D01*
X103982103Y-57792367D01*
X103963536Y-57827103D01*
X103938550Y-57857548D01*
X103908105Y-57882534D01*
X103873369Y-57901101D01*
X103835676Y-57912535D01*
X103790341Y-57917000D01*
X102953663Y-57917000D01*
X102908328Y-57912535D01*
X102870635Y-57901101D01*
X102835899Y-57882534D01*
X102805454Y-57857548D01*
X102780468Y-57827103D01*
X102761901Y-57792367D01*
X102750467Y-57754674D01*
X102746002Y-57709339D01*
X102746002Y-56622661D01*
X102750467Y-56577326D01*
X102761901Y-56539633D01*
X102780468Y-56504897D01*
X102805454Y-56474452D01*
X102835899Y-56449466D01*
X102870635Y-56430899D01*
X102908328Y-56419465D01*
X102953663Y-56415000D01*
X103790341Y-56415000D01*
X103835676Y-56419465D01*
G37*
G36*
X80143002Y-55781000D02*
G01*
X76541002Y-55781000D01*
X76541002Y-53979000D01*
X80143002Y-53979000D01*
X80143002Y-55781000D01*
G37*
G36*
X99723002Y-55781000D02*
G01*
X96121002Y-55781000D01*
X96121002Y-53979000D01*
X99723002Y-53979000D01*
X99723002Y-55781000D01*
G37*
G36*
X30375000Y-55781000D02*
G01*
X26773000Y-55781000D01*
X26773000Y-53979000D01*
X30375000Y-53979000D01*
X30375000Y-55781000D01*
G37*
G36*
X49955000Y-55781000D02*
G01*
X46353000Y-55781000D01*
X46353000Y-53979000D01*
X49955000Y-53979000D01*
X49955000Y-55781000D01*
G37*
G36*
X63647797Y-55143900D02*
G01*
X63702575Y-55166590D01*
X63702577Y-55166591D01*
X63751876Y-55199531D01*
X63793802Y-55241457D01*
X63824301Y-55287103D01*
X63826743Y-55290758D01*
X63849433Y-55345536D01*
X63861000Y-55403686D01*
X63861000Y-55462980D01*
X63849433Y-55521130D01*
X63826743Y-55575908D01*
X63826742Y-55575910D01*
X63793802Y-55625209D01*
X63751876Y-55667135D01*
X63702577Y-55700075D01*
X63702576Y-55700076D01*
X63702575Y-55700076D01*
X63647797Y-55722766D01*
X63589647Y-55734333D01*
X63530353Y-55734333D01*
X63472203Y-55722766D01*
X63417425Y-55700076D01*
X63417424Y-55700076D01*
X63417423Y-55700075D01*
X63368124Y-55667135D01*
X63326198Y-55625209D01*
X63293258Y-55575910D01*
X63293257Y-55575908D01*
X63270567Y-55521130D01*
X63259000Y-55462980D01*
X63259000Y-55403686D01*
X63270567Y-55345536D01*
X63293257Y-55290758D01*
X63295699Y-55287103D01*
X63326198Y-55241457D01*
X63368124Y-55199531D01*
X63417423Y-55166591D01*
X63417425Y-55166590D01*
X63472203Y-55143900D01*
X63530353Y-55132333D01*
X63589647Y-55132333D01*
X63647797Y-55143900D01*
G37*
G36*
X65047797Y-55143900D02*
G01*
X65102575Y-55166590D01*
X65102577Y-55166591D01*
X65151876Y-55199531D01*
X65193802Y-55241457D01*
X65224301Y-55287103D01*
X65226743Y-55290758D01*
X65249433Y-55345536D01*
X65261000Y-55403686D01*
X65261000Y-55462980D01*
X65249433Y-55521130D01*
X65226743Y-55575908D01*
X65226742Y-55575910D01*
X65193802Y-55625209D01*
X65151876Y-55667135D01*
X65102577Y-55700075D01*
X65102576Y-55700076D01*
X65102575Y-55700076D01*
X65047797Y-55722766D01*
X64989647Y-55734333D01*
X64930353Y-55734333D01*
X64872203Y-55722766D01*
X64817425Y-55700076D01*
X64817424Y-55700076D01*
X64817423Y-55700075D01*
X64768124Y-55667135D01*
X64726198Y-55625209D01*
X64693258Y-55575910D01*
X64693257Y-55575908D01*
X64670567Y-55521130D01*
X64659000Y-55462980D01*
X64659000Y-55403686D01*
X64670567Y-55345536D01*
X64693257Y-55290758D01*
X64695699Y-55287103D01*
X64726198Y-55241457D01*
X64768124Y-55199531D01*
X64817423Y-55166591D01*
X64817425Y-55166590D01*
X64872203Y-55143900D01*
X64930353Y-55132333D01*
X64989647Y-55132333D01*
X65047797Y-55143900D01*
G37*
G36*
X109423676Y-53879465D02*
G01*
X109461369Y-53890899D01*
X109496105Y-53909466D01*
X109526550Y-53934452D01*
X109551536Y-53964897D01*
X109570103Y-53999633D01*
X109581537Y-54037326D01*
X109586002Y-54082661D01*
X109586002Y-55169339D01*
X109581537Y-55214674D01*
X109570103Y-55252367D01*
X109551536Y-55287103D01*
X109526550Y-55317548D01*
X109496105Y-55342534D01*
X109461369Y-55361101D01*
X109423676Y-55372535D01*
X109378341Y-55377000D01*
X108541663Y-55377000D01*
X108496328Y-55372535D01*
X108458635Y-55361101D01*
X108423899Y-55342534D01*
X108393454Y-55317548D01*
X108368468Y-55287103D01*
X108349901Y-55252367D01*
X108338467Y-55214674D01*
X108334002Y-55169339D01*
X108334002Y-54082661D01*
X108338467Y-54037326D01*
X108349901Y-53999633D01*
X108368468Y-53964897D01*
X108393454Y-53934452D01*
X108423899Y-53909466D01*
X108458635Y-53890899D01*
X108496328Y-53879465D01*
X108541663Y-53875000D01*
X109378341Y-53875000D01*
X109423676Y-53879465D01*
G37*
G36*
X107373676Y-53879465D02*
G01*
X107411369Y-53890899D01*
X107446105Y-53909466D01*
X107476550Y-53934452D01*
X107501536Y-53964897D01*
X107520103Y-53999633D01*
X107531537Y-54037326D01*
X107536002Y-54082661D01*
X107536002Y-55169339D01*
X107531537Y-55214674D01*
X107520103Y-55252367D01*
X107501536Y-55287103D01*
X107476550Y-55317548D01*
X107446105Y-55342534D01*
X107411369Y-55361101D01*
X107373676Y-55372535D01*
X107328341Y-55377000D01*
X106491663Y-55377000D01*
X106446328Y-55372535D01*
X106408635Y-55361101D01*
X106373899Y-55342534D01*
X106343454Y-55317548D01*
X106318468Y-55287103D01*
X106299901Y-55252367D01*
X106288467Y-55214674D01*
X106284002Y-55169339D01*
X106284002Y-54082661D01*
X106288467Y-54037326D01*
X106299901Y-53999633D01*
X106318468Y-53964897D01*
X106343454Y-53934452D01*
X106373899Y-53909466D01*
X106408635Y-53890899D01*
X106446328Y-53879465D01*
X106491663Y-53875000D01*
X107328341Y-53875000D01*
X107373676Y-53879465D01*
G37*
G36*
X57605674Y-53879465D02*
G01*
X57643367Y-53890899D01*
X57678103Y-53909466D01*
X57708548Y-53934452D01*
X57733534Y-53964897D01*
X57752101Y-53999633D01*
X57763535Y-54037326D01*
X57768000Y-54082661D01*
X57768000Y-55169339D01*
X57763535Y-55214674D01*
X57752101Y-55252367D01*
X57733534Y-55287103D01*
X57708548Y-55317548D01*
X57678103Y-55342534D01*
X57643367Y-55361101D01*
X57605674Y-55372535D01*
X57560339Y-55377000D01*
X56723661Y-55377000D01*
X56678326Y-55372535D01*
X56640633Y-55361101D01*
X56605897Y-55342534D01*
X56575452Y-55317548D01*
X56550466Y-55287103D01*
X56531899Y-55252367D01*
X56520465Y-55214674D01*
X56516000Y-55169339D01*
X56516000Y-54082661D01*
X56520465Y-54037326D01*
X56531899Y-53999633D01*
X56550466Y-53964897D01*
X56575452Y-53934452D01*
X56605897Y-53909466D01*
X56640633Y-53890899D01*
X56678326Y-53879465D01*
X56723661Y-53875000D01*
X57560339Y-53875000D01*
X57605674Y-53879465D01*
G37*
G36*
X59655674Y-53879465D02*
G01*
X59693367Y-53890899D01*
X59728103Y-53909466D01*
X59758548Y-53934452D01*
X59783534Y-53964897D01*
X59802101Y-53999633D01*
X59813535Y-54037326D01*
X59818000Y-54082661D01*
X59818000Y-55169339D01*
X59813535Y-55214674D01*
X59802101Y-55252367D01*
X59783534Y-55287103D01*
X59758548Y-55317548D01*
X59728103Y-55342534D01*
X59693367Y-55361101D01*
X59655674Y-55372535D01*
X59610339Y-55377000D01*
X58773661Y-55377000D01*
X58728326Y-55372535D01*
X58690633Y-55361101D01*
X58655897Y-55342534D01*
X58625452Y-55317548D01*
X58600466Y-55287103D01*
X58581899Y-55252367D01*
X58570465Y-55214674D01*
X58566000Y-55169339D01*
X58566000Y-54082661D01*
X58570465Y-54037326D01*
X58581899Y-53999633D01*
X58600466Y-53964897D01*
X58625452Y-53934452D01*
X58655897Y-53909466D01*
X58690633Y-53890899D01*
X58728326Y-53879465D01*
X58773661Y-53875000D01*
X59610339Y-53875000D01*
X59655674Y-53879465D01*
G37*
G36*
X63647797Y-54143900D02*
G01*
X63702575Y-54166590D01*
X63702577Y-54166591D01*
X63751876Y-54199531D01*
X63793802Y-54241457D01*
X63826742Y-54290756D01*
X63826743Y-54290758D01*
X63849433Y-54345536D01*
X63861000Y-54403686D01*
X63861000Y-54462980D01*
X63849433Y-54521130D01*
X63826743Y-54575908D01*
X63826742Y-54575910D01*
X63793802Y-54625209D01*
X63751876Y-54667135D01*
X63702577Y-54700075D01*
X63702576Y-54700076D01*
X63702575Y-54700076D01*
X63647797Y-54722766D01*
X63589647Y-54734333D01*
X63530353Y-54734333D01*
X63472203Y-54722766D01*
X63417425Y-54700076D01*
X63417424Y-54700076D01*
X63417423Y-54700075D01*
X63368124Y-54667135D01*
X63326198Y-54625209D01*
X63293258Y-54575910D01*
X63293257Y-54575908D01*
X63270567Y-54521130D01*
X63259000Y-54462980D01*
X63259000Y-54403686D01*
X63270567Y-54345536D01*
X63293257Y-54290758D01*
X63293258Y-54290756D01*
X63326198Y-54241457D01*
X63368124Y-54199531D01*
X63417423Y-54166591D01*
X63417425Y-54166590D01*
X63472203Y-54143900D01*
X63530353Y-54132333D01*
X63589647Y-54132333D01*
X63647797Y-54143900D01*
G37*
G36*
X65047797Y-54143900D02*
G01*
X65102575Y-54166590D01*
X65102577Y-54166591D01*
X65151876Y-54199531D01*
X65193802Y-54241457D01*
X65226742Y-54290756D01*
X65226743Y-54290758D01*
X65249433Y-54345536D01*
X65261000Y-54403686D01*
X65261000Y-54462980D01*
X65249433Y-54521130D01*
X65226743Y-54575908D01*
X65226742Y-54575910D01*
X65193802Y-54625209D01*
X65151876Y-54667135D01*
X65102577Y-54700075D01*
X65102576Y-54700076D01*
X65102575Y-54700076D01*
X65047797Y-54722766D01*
X64989647Y-54734333D01*
X64930353Y-54734333D01*
X64872203Y-54722766D01*
X64817425Y-54700076D01*
X64817424Y-54700076D01*
X64817423Y-54700075D01*
X64768124Y-54667135D01*
X64726198Y-54625209D01*
X64693258Y-54575910D01*
X64693257Y-54575908D01*
X64670567Y-54521130D01*
X64659000Y-54462980D01*
X64659000Y-54403686D01*
X64670567Y-54345536D01*
X64693257Y-54290758D01*
X64693258Y-54290756D01*
X64726198Y-54241457D01*
X64768124Y-54199531D01*
X64817423Y-54166591D01*
X64817425Y-54166590D01*
X64872203Y-54143900D01*
X64930353Y-54132333D01*
X64989647Y-54132333D01*
X65047797Y-54143900D01*
G37*
G36*
X65047797Y-53143900D02*
G01*
X65102575Y-53166590D01*
X65102577Y-53166591D01*
X65151876Y-53199531D01*
X65193802Y-53241457D01*
X65226742Y-53290756D01*
X65226743Y-53290758D01*
X65249433Y-53345536D01*
X65261000Y-53403686D01*
X65261000Y-53462980D01*
X65249433Y-53521130D01*
X65226743Y-53575908D01*
X65226742Y-53575910D01*
X65193802Y-53625209D01*
X65151876Y-53667135D01*
X65102577Y-53700075D01*
X65102576Y-53700076D01*
X65102575Y-53700076D01*
X65047797Y-53722766D01*
X64989647Y-53734333D01*
X64930353Y-53734333D01*
X64872203Y-53722766D01*
X64817425Y-53700076D01*
X64817424Y-53700076D01*
X64817423Y-53700075D01*
X64768124Y-53667135D01*
X64726198Y-53625209D01*
X64693258Y-53575910D01*
X64693257Y-53575908D01*
X64670567Y-53521130D01*
X64659000Y-53462980D01*
X64659000Y-53403686D01*
X64670567Y-53345536D01*
X64693257Y-53290758D01*
X64693258Y-53290756D01*
X64726198Y-53241457D01*
X64768124Y-53199531D01*
X64817423Y-53166591D01*
X64817425Y-53166590D01*
X64872203Y-53143900D01*
X64930353Y-53132333D01*
X64989647Y-53132333D01*
X65047797Y-53143900D01*
G37*
G36*
X63647797Y-53143900D02*
G01*
X63702575Y-53166590D01*
X63702577Y-53166591D01*
X63751876Y-53199531D01*
X63793802Y-53241457D01*
X63826742Y-53290756D01*
X63826743Y-53290758D01*
X63849433Y-53345536D01*
X63861000Y-53403686D01*
X63861000Y-53462980D01*
X63849433Y-53521130D01*
X63826743Y-53575908D01*
X63826742Y-53575910D01*
X63793802Y-53625209D01*
X63751876Y-53667135D01*
X63702577Y-53700075D01*
X63702576Y-53700076D01*
X63702575Y-53700076D01*
X63647797Y-53722766D01*
X63589647Y-53734333D01*
X63530353Y-53734333D01*
X63472203Y-53722766D01*
X63417425Y-53700076D01*
X63417424Y-53700076D01*
X63417423Y-53700075D01*
X63368124Y-53667135D01*
X63326198Y-53625209D01*
X63293258Y-53575910D01*
X63293257Y-53575908D01*
X63270567Y-53521130D01*
X63259000Y-53462980D01*
X63259000Y-53403686D01*
X63270567Y-53345536D01*
X63293257Y-53290758D01*
X63293258Y-53290756D01*
X63326198Y-53241457D01*
X63368124Y-53199531D01*
X63417423Y-53166591D01*
X63417425Y-53166590D01*
X63472203Y-53143900D01*
X63530353Y-53132333D01*
X63589647Y-53132333D01*
X63647797Y-53143900D01*
G37*
G36*
X30375000Y-53241000D02*
G01*
X26773000Y-53241000D01*
X26773000Y-51439000D01*
X30375000Y-51439000D01*
X30375000Y-53241000D01*
G37*
G36*
X99723002Y-53241000D02*
G01*
X96121002Y-53241000D01*
X96121002Y-51439000D01*
X99723002Y-51439000D01*
X99723002Y-53241000D01*
G37*
G36*
X80143002Y-53241000D02*
G01*
X76541002Y-53241000D01*
X76541002Y-51439000D01*
X80143002Y-51439000D01*
X80143002Y-53241000D01*
G37*
G36*
X49955000Y-53241000D02*
G01*
X46353000Y-53241000D01*
X46353000Y-51439000D01*
X49955000Y-51439000D01*
X49955000Y-53241000D01*
G37*
G36*
X103817676Y-51339465D02*
G01*
X103855369Y-51350899D01*
X103890105Y-51369466D01*
X103920550Y-51394452D01*
X103945536Y-51424897D01*
X103964103Y-51459633D01*
X103975537Y-51497326D01*
X103980002Y-51542661D01*
X103980002Y-52629339D01*
X103975537Y-52674674D01*
X103964103Y-52712367D01*
X103945536Y-52747103D01*
X103920550Y-52777548D01*
X103890105Y-52802534D01*
X103855369Y-52821101D01*
X103817676Y-52832535D01*
X103772341Y-52837000D01*
X102935663Y-52837000D01*
X102890328Y-52832535D01*
X102852635Y-52821101D01*
X102817899Y-52802534D01*
X102787454Y-52777548D01*
X102762468Y-52747103D01*
X102743901Y-52712367D01*
X102732467Y-52674674D01*
X102728002Y-52629339D01*
X102728002Y-51542661D01*
X102732467Y-51497326D01*
X102743901Y-51459633D01*
X102762468Y-51424897D01*
X102787454Y-51394452D01*
X102817899Y-51369466D01*
X102852635Y-51350899D01*
X102890328Y-51339465D01*
X102935663Y-51335000D01*
X103772341Y-51335000D01*
X103817676Y-51339465D01*
G37*
G36*
X105867676Y-51339465D02*
G01*
X105905369Y-51350899D01*
X105940105Y-51369466D01*
X105970550Y-51394452D01*
X105995536Y-51424897D01*
X106014103Y-51459633D01*
X106025537Y-51497326D01*
X106030002Y-51542661D01*
X106030002Y-52629339D01*
X106025537Y-52674674D01*
X106014103Y-52712367D01*
X105995536Y-52747103D01*
X105970550Y-52777548D01*
X105940105Y-52802534D01*
X105905369Y-52821101D01*
X105867676Y-52832535D01*
X105822341Y-52837000D01*
X104985663Y-52837000D01*
X104940328Y-52832535D01*
X104902635Y-52821101D01*
X104867899Y-52802534D01*
X104837454Y-52777548D01*
X104812468Y-52747103D01*
X104793901Y-52712367D01*
X104782467Y-52674674D01*
X104778002Y-52629339D01*
X104778002Y-51542661D01*
X104782467Y-51497326D01*
X104793901Y-51459633D01*
X104812468Y-51424897D01*
X104837454Y-51394452D01*
X104867899Y-51369466D01*
X104902635Y-51350899D01*
X104940328Y-51339465D01*
X104985663Y-51335000D01*
X105822341Y-51335000D01*
X105867676Y-51339465D01*
G37*
G36*
X54049674Y-51339465D02*
G01*
X54087367Y-51350899D01*
X54122103Y-51369466D01*
X54152548Y-51394452D01*
X54177534Y-51424897D01*
X54196101Y-51459633D01*
X54207535Y-51497326D01*
X54212000Y-51542661D01*
X54212000Y-52629339D01*
X54207535Y-52674674D01*
X54196101Y-52712367D01*
X54177534Y-52747103D01*
X54152548Y-52777548D01*
X54122103Y-52802534D01*
X54087367Y-52821101D01*
X54049674Y-52832535D01*
X54004339Y-52837000D01*
X53167661Y-52837000D01*
X53122326Y-52832535D01*
X53084633Y-52821101D01*
X53049897Y-52802534D01*
X53019452Y-52777548D01*
X52994466Y-52747103D01*
X52975899Y-52712367D01*
X52964465Y-52674674D01*
X52960000Y-52629339D01*
X52960000Y-51542661D01*
X52964465Y-51497326D01*
X52975899Y-51459633D01*
X52994466Y-51424897D01*
X53019452Y-51394452D01*
X53049897Y-51369466D01*
X53084633Y-51350899D01*
X53122326Y-51339465D01*
X53167661Y-51335000D01*
X54004339Y-51335000D01*
X54049674Y-51339465D01*
G37*
G36*
X56099674Y-51339465D02*
G01*
X56137367Y-51350899D01*
X56172103Y-51369466D01*
X56202548Y-51394452D01*
X56227534Y-51424897D01*
X56246101Y-51459633D01*
X56257535Y-51497326D01*
X56262000Y-51542661D01*
X56262000Y-52629339D01*
X56257535Y-52674674D01*
X56246101Y-52712367D01*
X56227534Y-52747103D01*
X56202548Y-52777548D01*
X56172103Y-52802534D01*
X56137367Y-52821101D01*
X56099674Y-52832535D01*
X56054339Y-52837000D01*
X55217661Y-52837000D01*
X55172326Y-52832535D01*
X55134633Y-52821101D01*
X55099897Y-52802534D01*
X55069452Y-52777548D01*
X55044466Y-52747103D01*
X55025899Y-52712367D01*
X55014465Y-52674674D01*
X55010000Y-52629339D01*
X55010000Y-51542661D01*
X55014465Y-51497326D01*
X55025899Y-51459633D01*
X55044466Y-51424897D01*
X55069452Y-51394452D01*
X55099897Y-51369466D01*
X55134633Y-51350899D01*
X55172326Y-51339465D01*
X55217661Y-51335000D01*
X56054339Y-51335000D01*
X56099674Y-51339465D01*
G37*
G36*
X65047797Y-52143900D02*
G01*
X65102575Y-52166590D01*
X65102577Y-52166591D01*
X65151876Y-52199531D01*
X65193802Y-52241457D01*
X65200351Y-52251259D01*
X65226743Y-52290758D01*
X65249433Y-52345536D01*
X65261000Y-52403686D01*
X65261000Y-52462980D01*
X65249433Y-52521130D01*
X65231333Y-52564827D01*
X65226742Y-52575910D01*
X65193802Y-52625209D01*
X65151876Y-52667135D01*
X65102577Y-52700075D01*
X65102576Y-52700076D01*
X65102575Y-52700076D01*
X65047797Y-52722766D01*
X64989647Y-52734333D01*
X64930353Y-52734333D01*
X64872203Y-52722766D01*
X64817425Y-52700076D01*
X64817424Y-52700076D01*
X64817423Y-52700075D01*
X64768124Y-52667135D01*
X64726198Y-52625209D01*
X64693258Y-52575910D01*
X64688667Y-52564827D01*
X64670567Y-52521130D01*
X64659000Y-52462980D01*
X64659000Y-52403686D01*
X64670567Y-52345536D01*
X64693257Y-52290758D01*
X64719649Y-52251259D01*
X64726198Y-52241457D01*
X64768124Y-52199531D01*
X64817423Y-52166591D01*
X64817425Y-52166590D01*
X64872203Y-52143900D01*
X64930353Y-52132333D01*
X64989647Y-52132333D01*
X65047797Y-52143900D01*
G37*
G36*
X63647797Y-52143900D02*
G01*
X63702575Y-52166590D01*
X63702577Y-52166591D01*
X63751876Y-52199531D01*
X63793802Y-52241457D01*
X63800351Y-52251259D01*
X63826743Y-52290758D01*
X63849433Y-52345536D01*
X63861000Y-52403686D01*
X63861000Y-52462980D01*
X63849433Y-52521130D01*
X63831333Y-52564827D01*
X63826742Y-52575910D01*
X63793802Y-52625209D01*
X63751876Y-52667135D01*
X63702577Y-52700075D01*
X63702576Y-52700076D01*
X63702575Y-52700076D01*
X63647797Y-52722766D01*
X63589647Y-52734333D01*
X63530353Y-52734333D01*
X63472203Y-52722766D01*
X63417425Y-52700076D01*
X63417424Y-52700076D01*
X63417423Y-52700075D01*
X63368124Y-52667135D01*
X63326198Y-52625209D01*
X63293258Y-52575910D01*
X63288667Y-52564827D01*
X63270567Y-52521130D01*
X63259000Y-52462980D01*
X63259000Y-52403686D01*
X63270567Y-52345536D01*
X63293257Y-52290758D01*
X63319649Y-52251259D01*
X63326198Y-52241457D01*
X63368124Y-52199531D01*
X63417423Y-52166591D01*
X63417425Y-52166590D01*
X63472203Y-52143900D01*
X63530353Y-52132333D01*
X63589647Y-52132333D01*
X63647797Y-52143900D01*
G37*
G36*
X65047797Y-51143900D02*
G01*
X65102575Y-51166590D01*
X65102577Y-51166591D01*
X65151876Y-51199531D01*
X65193802Y-51241457D01*
X65226742Y-51290756D01*
X65226743Y-51290758D01*
X65249433Y-51345536D01*
X65261000Y-51403686D01*
X65261000Y-51462980D01*
X65249433Y-51521130D01*
X65226743Y-51575908D01*
X65226742Y-51575910D01*
X65193802Y-51625209D01*
X65151876Y-51667135D01*
X65102577Y-51700075D01*
X65102576Y-51700076D01*
X65102575Y-51700076D01*
X65047797Y-51722766D01*
X64989647Y-51734333D01*
X64930353Y-51734333D01*
X64872203Y-51722766D01*
X64817425Y-51700076D01*
X64817424Y-51700076D01*
X64817423Y-51700075D01*
X64768124Y-51667135D01*
X64726198Y-51625209D01*
X64693258Y-51575910D01*
X64693257Y-51575908D01*
X64670567Y-51521130D01*
X64659000Y-51462980D01*
X64659000Y-51403686D01*
X64670567Y-51345536D01*
X64693257Y-51290758D01*
X64693258Y-51290756D01*
X64726198Y-51241457D01*
X64768124Y-51199531D01*
X64817423Y-51166591D01*
X64817425Y-51166590D01*
X64872203Y-51143900D01*
X64930353Y-51132333D01*
X64989647Y-51132333D01*
X65047797Y-51143900D01*
G37*
G36*
X63647797Y-51143900D02*
G01*
X63702575Y-51166590D01*
X63702577Y-51166591D01*
X63751876Y-51199531D01*
X63793802Y-51241457D01*
X63826742Y-51290756D01*
X63826743Y-51290758D01*
X63849433Y-51345536D01*
X63861000Y-51403686D01*
X63861000Y-51462980D01*
X63849433Y-51521130D01*
X63826743Y-51575908D01*
X63826742Y-51575910D01*
X63793802Y-51625209D01*
X63751876Y-51667135D01*
X63702577Y-51700075D01*
X63702576Y-51700076D01*
X63702575Y-51700076D01*
X63647797Y-51722766D01*
X63589647Y-51734333D01*
X63530353Y-51734333D01*
X63472203Y-51722766D01*
X63417425Y-51700076D01*
X63417424Y-51700076D01*
X63417423Y-51700075D01*
X63368124Y-51667135D01*
X63326198Y-51625209D01*
X63293258Y-51575910D01*
X63293257Y-51575908D01*
X63270567Y-51521130D01*
X63259000Y-51462980D01*
X63259000Y-51403686D01*
X63270567Y-51345536D01*
X63293257Y-51290758D01*
X63293258Y-51290756D01*
X63326198Y-51241457D01*
X63368124Y-51199531D01*
X63417423Y-51166591D01*
X63417425Y-51166590D01*
X63472203Y-51143900D01*
X63530353Y-51132333D01*
X63589647Y-51132333D01*
X63647797Y-51143900D01*
G37*
G36*
X65047797Y-50143900D02*
G01*
X65102575Y-50166590D01*
X65102577Y-50166591D01*
X65151876Y-50199531D01*
X65193802Y-50241457D01*
X65226742Y-50290756D01*
X65226743Y-50290758D01*
X65249433Y-50345536D01*
X65261000Y-50403686D01*
X65261000Y-50462980D01*
X65249433Y-50521130D01*
X65226743Y-50575908D01*
X65226742Y-50575910D01*
X65193802Y-50625209D01*
X65151876Y-50667135D01*
X65102577Y-50700075D01*
X65102576Y-50700076D01*
X65102575Y-50700076D01*
X65047797Y-50722766D01*
X64989647Y-50734333D01*
X64930353Y-50734333D01*
X64872203Y-50722766D01*
X64817425Y-50700076D01*
X64817424Y-50700076D01*
X64817423Y-50700075D01*
X64768124Y-50667135D01*
X64726198Y-50625209D01*
X64693258Y-50575910D01*
X64693257Y-50575908D01*
X64670567Y-50521130D01*
X64659000Y-50462980D01*
X64659000Y-50403686D01*
X64670567Y-50345536D01*
X64693257Y-50290758D01*
X64693258Y-50290756D01*
X64726198Y-50241457D01*
X64768124Y-50199531D01*
X64817423Y-50166591D01*
X64817425Y-50166590D01*
X64872203Y-50143900D01*
X64930353Y-50132333D01*
X64989647Y-50132333D01*
X65047797Y-50143900D01*
G37*
G36*
X63647797Y-50143900D02*
G01*
X63702575Y-50166590D01*
X63702577Y-50166591D01*
X63751876Y-50199531D01*
X63793802Y-50241457D01*
X63826742Y-50290756D01*
X63826743Y-50290758D01*
X63849433Y-50345536D01*
X63861000Y-50403686D01*
X63861000Y-50462980D01*
X63849433Y-50521130D01*
X63826743Y-50575908D01*
X63826742Y-50575910D01*
X63793802Y-50625209D01*
X63751876Y-50667135D01*
X63702577Y-50700075D01*
X63702576Y-50700076D01*
X63702575Y-50700076D01*
X63647797Y-50722766D01*
X63589647Y-50734333D01*
X63530353Y-50734333D01*
X63472203Y-50722766D01*
X63417425Y-50700076D01*
X63417424Y-50700076D01*
X63417423Y-50700075D01*
X63368124Y-50667135D01*
X63326198Y-50625209D01*
X63293258Y-50575910D01*
X63293257Y-50575908D01*
X63270567Y-50521130D01*
X63259000Y-50462980D01*
X63259000Y-50403686D01*
X63270567Y-50345536D01*
X63293257Y-50290758D01*
X63293258Y-50290756D01*
X63326198Y-50241457D01*
X63368124Y-50199531D01*
X63417423Y-50166591D01*
X63417425Y-50166590D01*
X63472203Y-50143900D01*
X63530353Y-50132333D01*
X63589647Y-50132333D01*
X63647797Y-50143900D01*
G37*
G36*
X49955000Y-50701000D02*
G01*
X46353000Y-50701000D01*
X46353000Y-48899000D01*
X49955000Y-48899000D01*
X49955000Y-50701000D01*
G37*
G36*
X30375000Y-50701000D02*
G01*
X26773000Y-50701000D01*
X26773000Y-48899000D01*
X30375000Y-48899000D01*
X30375000Y-50701000D01*
G37*
G36*
X99723002Y-50701000D02*
G01*
X96121002Y-50701000D01*
X96121002Y-48899000D01*
X99723002Y-48899000D01*
X99723002Y-50701000D01*
G37*
G36*
X80143002Y-50701000D02*
G01*
X76541002Y-50701000D01*
X76541002Y-48899000D01*
X80143002Y-48899000D01*
X80143002Y-50701000D01*
G37*
G36*
X20451256Y-46921298D02*
G01*
X20557579Y-46942447D01*
X20858042Y-47066903D01*
X21128451Y-47247585D01*
X21358415Y-47477549D01*
X21539097Y-47747958D01*
X21663553Y-48048421D01*
X21727000Y-48367391D01*
X21727000Y-48692609D01*
X21663553Y-49011579D01*
X21539097Y-49312042D01*
X21358415Y-49582451D01*
X21128451Y-49812415D01*
X20858042Y-49993097D01*
X20557579Y-50117553D01*
X20483275Y-50132333D01*
X20238611Y-50181000D01*
X19913389Y-50181000D01*
X19668725Y-50132333D01*
X19594421Y-50117553D01*
X19293958Y-49993097D01*
X19023549Y-49812415D01*
X18793585Y-49582451D01*
X18612903Y-49312042D01*
X18488447Y-49011579D01*
X18425000Y-48692609D01*
X18425000Y-48367391D01*
X18488447Y-48048421D01*
X18612903Y-47747958D01*
X18793585Y-47477549D01*
X19023549Y-47247585D01*
X19293958Y-47066903D01*
X19594421Y-46942447D01*
X19700744Y-46921298D01*
X19913389Y-46879000D01*
X20238611Y-46879000D01*
X20451256Y-46921298D01*
G37*
G36*
X70219258Y-46921298D02*
G01*
X70325581Y-46942447D01*
X70626044Y-47066903D01*
X70896453Y-47247585D01*
X71126417Y-47477549D01*
X71307099Y-47747958D01*
X71431555Y-48048421D01*
X71495002Y-48367391D01*
X71495002Y-48692609D01*
X71431555Y-49011579D01*
X71307099Y-49312042D01*
X71126417Y-49582451D01*
X70896453Y-49812415D01*
X70626044Y-49993097D01*
X70325581Y-50117553D01*
X70251277Y-50132333D01*
X70006613Y-50181000D01*
X69681391Y-50181000D01*
X69436727Y-50132333D01*
X69362423Y-50117553D01*
X69061960Y-49993097D01*
X68791551Y-49812415D01*
X68561587Y-49582451D01*
X68380905Y-49312042D01*
X68256449Y-49011579D01*
X68193002Y-48692609D01*
X68193002Y-48367391D01*
X68256449Y-48048421D01*
X68380905Y-47747958D01*
X68561587Y-47477549D01*
X68791551Y-47247585D01*
X69061960Y-47066903D01*
X69362423Y-46942447D01*
X69468746Y-46921298D01*
X69681391Y-46879000D01*
X70006613Y-46879000D01*
X70219258Y-46921298D01*
G37*
G36*
X30375000Y-48161000D02*
G01*
X26773000Y-48161000D01*
X26773000Y-46359000D01*
X30375000Y-46359000D01*
X30375000Y-48161000D01*
G37*
G36*
X99723002Y-48161000D02*
G01*
X96121002Y-48161000D01*
X96121002Y-46359000D01*
X99723002Y-46359000D01*
X99723002Y-48161000D01*
G37*
G36*
X49955000Y-48161000D02*
G01*
X46353000Y-48161000D01*
X46353000Y-46359000D01*
X49955000Y-46359000D01*
X49955000Y-48161000D01*
G37*
G36*
X80143002Y-48161000D02*
G01*
X76541002Y-48161000D01*
X76541002Y-46359000D01*
X80143002Y-46359000D01*
X80143002Y-48161000D01*
G37*
G36*
X109423676Y-46259465D02*
G01*
X109461369Y-46270899D01*
X109496105Y-46289466D01*
X109526550Y-46314452D01*
X109551536Y-46344897D01*
X109570103Y-46379633D01*
X109581537Y-46417326D01*
X109586002Y-46462661D01*
X109586002Y-47549339D01*
X109581537Y-47594674D01*
X109570103Y-47632367D01*
X109551536Y-47667103D01*
X109526550Y-47697548D01*
X109496105Y-47722534D01*
X109461369Y-47741101D01*
X109423676Y-47752535D01*
X109378341Y-47757000D01*
X108541663Y-47757000D01*
X108496328Y-47752535D01*
X108458635Y-47741101D01*
X108423899Y-47722534D01*
X108393454Y-47697548D01*
X108368468Y-47667103D01*
X108349901Y-47632367D01*
X108338467Y-47594674D01*
X108334002Y-47549339D01*
X108334002Y-46462661D01*
X108338467Y-46417326D01*
X108349901Y-46379633D01*
X108368468Y-46344897D01*
X108393454Y-46314452D01*
X108423899Y-46289466D01*
X108458635Y-46270899D01*
X108496328Y-46259465D01*
X108541663Y-46255000D01*
X109378341Y-46255000D01*
X109423676Y-46259465D01*
G37*
G36*
X57605674Y-46259465D02*
G01*
X57643367Y-46270899D01*
X57678103Y-46289466D01*
X57708548Y-46314452D01*
X57733534Y-46344897D01*
X57752101Y-46379633D01*
X57763535Y-46417326D01*
X57768000Y-46462661D01*
X57768000Y-47549339D01*
X57763535Y-47594674D01*
X57752101Y-47632367D01*
X57733534Y-47667103D01*
X57708548Y-47697548D01*
X57678103Y-47722534D01*
X57643367Y-47741101D01*
X57605674Y-47752535D01*
X57560339Y-47757000D01*
X56723661Y-47757000D01*
X56678326Y-47752535D01*
X56640633Y-47741101D01*
X56605897Y-47722534D01*
X56575452Y-47697548D01*
X56550466Y-47667103D01*
X56531899Y-47632367D01*
X56520465Y-47594674D01*
X56516000Y-47549339D01*
X56516000Y-46462661D01*
X56520465Y-46417326D01*
X56531899Y-46379633D01*
X56550466Y-46344897D01*
X56575452Y-46314452D01*
X56605897Y-46289466D01*
X56640633Y-46270899D01*
X56678326Y-46259465D01*
X56723661Y-46255000D01*
X57560339Y-46255000D01*
X57605674Y-46259465D01*
G37*
G36*
X107373676Y-46259465D02*
G01*
X107411369Y-46270899D01*
X107446105Y-46289466D01*
X107476550Y-46314452D01*
X107501536Y-46344897D01*
X107520103Y-46379633D01*
X107531537Y-46417326D01*
X107536002Y-46462661D01*
X107536002Y-47549339D01*
X107531537Y-47594674D01*
X107520103Y-47632367D01*
X107501536Y-47667103D01*
X107476550Y-47697548D01*
X107446105Y-47722534D01*
X107411369Y-47741101D01*
X107373676Y-47752535D01*
X107328341Y-47757000D01*
X106491663Y-47757000D01*
X106446328Y-47752535D01*
X106408635Y-47741101D01*
X106373899Y-47722534D01*
X106343454Y-47697548D01*
X106318468Y-47667103D01*
X106299901Y-47632367D01*
X106288467Y-47594674D01*
X106284002Y-47549339D01*
X106284002Y-46462661D01*
X106288467Y-46417326D01*
X106299901Y-46379633D01*
X106318468Y-46344897D01*
X106343454Y-46314452D01*
X106373899Y-46289466D01*
X106408635Y-46270899D01*
X106446328Y-46259465D01*
X106491663Y-46255000D01*
X107328341Y-46255000D01*
X107373676Y-46259465D01*
G37*
G36*
X59655674Y-46259465D02*
G01*
X59693367Y-46270899D01*
X59728103Y-46289466D01*
X59758548Y-46314452D01*
X59783534Y-46344897D01*
X59802101Y-46379633D01*
X59813535Y-46417326D01*
X59818000Y-46462661D01*
X59818000Y-47549339D01*
X59813535Y-47594674D01*
X59802101Y-47632367D01*
X59783534Y-47667103D01*
X59758548Y-47697548D01*
X59728103Y-47722534D01*
X59693367Y-47741101D01*
X59655674Y-47752535D01*
X59610339Y-47757000D01*
X58773661Y-47757000D01*
X58728326Y-47752535D01*
X58690633Y-47741101D01*
X58655897Y-47722534D01*
X58625452Y-47697548D01*
X58600466Y-47667103D01*
X58581899Y-47632367D01*
X58570465Y-47594674D01*
X58566000Y-47549339D01*
X58566000Y-46462661D01*
X58570465Y-46417326D01*
X58581899Y-46379633D01*
X58600466Y-46344897D01*
X58625452Y-46314452D01*
X58655897Y-46289466D01*
X58690633Y-46270899D01*
X58728326Y-46259465D01*
X58773661Y-46255000D01*
X59610339Y-46255000D01*
X59655674Y-46259465D01*
G37*
G36*
X49955000Y-45621000D02*
G01*
X46353000Y-45621000D01*
X46353000Y-43819000D01*
X49955000Y-43819000D01*
X49955000Y-45621000D01*
G37*
G36*
X99723002Y-45621000D02*
G01*
X96121002Y-45621000D01*
X96121002Y-43819000D01*
X99723002Y-43819000D01*
X99723002Y-45621000D01*
G37*
G36*
X30375000Y-45621000D02*
G01*
X26773000Y-45621000D01*
X26773000Y-43819000D01*
X30375000Y-43819000D01*
X30375000Y-45621000D01*
G37*
G36*
X80143002Y-45621000D02*
G01*
X76541002Y-45621000D01*
X76541002Y-43819000D01*
X80143002Y-43819000D01*
X80143002Y-45621000D01*
G37*
G36*
X80143002Y-43081000D02*
G01*
X76541002Y-43081000D01*
X76541002Y-41279000D01*
X80143002Y-41279000D01*
X80143002Y-43081000D01*
G37*
G36*
X99723002Y-43081000D02*
G01*
X96121002Y-43081000D01*
X96121002Y-41279000D01*
X99723002Y-41279000D01*
X99723002Y-43081000D01*
G37*
G36*
X49955000Y-43081000D02*
G01*
X46353000Y-43081000D01*
X46353000Y-41279000D01*
X49955000Y-41279000D01*
X49955000Y-43081000D01*
G37*
G36*
X30375000Y-43081000D02*
G01*
X26773000Y-43081000D01*
X26773000Y-41279000D01*
X30375000Y-41279000D01*
X30375000Y-43081000D01*
G37*
G36*
X57273512Y-41029927D02*
G01*
X57422812Y-41059624D01*
X57586784Y-41127544D01*
X57734354Y-41226147D01*
X57859853Y-41351646D01*
X57958456Y-41499216D01*
X58026376Y-41663188D01*
X58061000Y-41837259D01*
X58061000Y-42014741D01*
X58026376Y-42188812D01*
X57958456Y-42352784D01*
X57859853Y-42500354D01*
X57734354Y-42625853D01*
X57586784Y-42724456D01*
X57422812Y-42792376D01*
X57273512Y-42822073D01*
X57248742Y-42827000D01*
X57071258Y-42827000D01*
X57046488Y-42822073D01*
X56897188Y-42792376D01*
X56733216Y-42724456D01*
X56585646Y-42625853D01*
X56460147Y-42500354D01*
X56361544Y-42352784D01*
X56293624Y-42188812D01*
X56259000Y-42014741D01*
X56259000Y-41837259D01*
X56293624Y-41663188D01*
X56361544Y-41499216D01*
X56460147Y-41351646D01*
X56585646Y-41226147D01*
X56733216Y-41127544D01*
X56897188Y-41059624D01*
X57046488Y-41029927D01*
X57071258Y-41025000D01*
X57248742Y-41025000D01*
X57273512Y-41029927D01*
G37*
G36*
X107041514Y-41029927D02*
G01*
X107190814Y-41059624D01*
X107354786Y-41127544D01*
X107502356Y-41226147D01*
X107627855Y-41351646D01*
X107726458Y-41499216D01*
X107794378Y-41663188D01*
X107829002Y-41837259D01*
X107829002Y-42014741D01*
X107794378Y-42188812D01*
X107726458Y-42352784D01*
X107627855Y-42500354D01*
X107502356Y-42625853D01*
X107354786Y-42724456D01*
X107190814Y-42792376D01*
X107041514Y-42822073D01*
X107016744Y-42827000D01*
X106839260Y-42827000D01*
X106814490Y-42822073D01*
X106665190Y-42792376D01*
X106501218Y-42724456D01*
X106353648Y-42625853D01*
X106228149Y-42500354D01*
X106129546Y-42352784D01*
X106061626Y-42188812D01*
X106027002Y-42014741D01*
X106027002Y-41837259D01*
X106061626Y-41663188D01*
X106129546Y-41499216D01*
X106228149Y-41351646D01*
X106353648Y-41226147D01*
X106501218Y-41127544D01*
X106665190Y-41059624D01*
X106814490Y-41029927D01*
X106839260Y-41025000D01*
X107016744Y-41025000D01*
X107041514Y-41029927D01*
G37*
G36*
X80143002Y-40541000D02*
G01*
X76541002Y-40541000D01*
X76541002Y-38739000D01*
X80143002Y-38739000D01*
X80143002Y-40541000D01*
G37*
G36*
X30375000Y-40541000D02*
G01*
X26773000Y-40541000D01*
X26773000Y-38739000D01*
X30375000Y-38739000D01*
X30375000Y-40541000D01*
G37*
G36*
X49955000Y-40541000D02*
G01*
X46353000Y-40541000D01*
X46353000Y-38739000D01*
X49955000Y-38739000D01*
X49955000Y-40541000D01*
G37*
G36*
X99723002Y-40541000D02*
G01*
X96121002Y-40541000D01*
X96121002Y-38739000D01*
X99723002Y-38739000D01*
X99723002Y-40541000D01*
G37*
G36*
X107041514Y-38489927D02*
G01*
X107190814Y-38519624D01*
X107354786Y-38587544D01*
X107502356Y-38686147D01*
X107627855Y-38811646D01*
X107726458Y-38959216D01*
X107794378Y-39123188D01*
X107829002Y-39297259D01*
X107829002Y-39474741D01*
X107794378Y-39648812D01*
X107726458Y-39812784D01*
X107627855Y-39960354D01*
X107502356Y-40085853D01*
X107354786Y-40184456D01*
X107190814Y-40252376D01*
X107041514Y-40282073D01*
X107016744Y-40287000D01*
X106839260Y-40287000D01*
X106814490Y-40282073D01*
X106665190Y-40252376D01*
X106501218Y-40184456D01*
X106353648Y-40085853D01*
X106228149Y-39960354D01*
X106129546Y-39812784D01*
X106061626Y-39648812D01*
X106027002Y-39474741D01*
X106027002Y-39297259D01*
X106061626Y-39123188D01*
X106129546Y-38959216D01*
X106228149Y-38811646D01*
X106353648Y-38686147D01*
X106501218Y-38587544D01*
X106665190Y-38519624D01*
X106814490Y-38489927D01*
X106839260Y-38485000D01*
X107016744Y-38485000D01*
X107041514Y-38489927D01*
G37*
G36*
X57273512Y-38489927D02*
G01*
X57422812Y-38519624D01*
X57586784Y-38587544D01*
X57734354Y-38686147D01*
X57859853Y-38811646D01*
X57958456Y-38959216D01*
X58026376Y-39123188D01*
X58061000Y-39297259D01*
X58061000Y-39474741D01*
X58026376Y-39648812D01*
X57958456Y-39812784D01*
X57859853Y-39960354D01*
X57734354Y-40085853D01*
X57586784Y-40184456D01*
X57422812Y-40252376D01*
X57273512Y-40282073D01*
X57248742Y-40287000D01*
X57071258Y-40287000D01*
X57046488Y-40282073D01*
X56897188Y-40252376D01*
X56733216Y-40184456D01*
X56585646Y-40085853D01*
X56460147Y-39960354D01*
X56361544Y-39812784D01*
X56293624Y-39648812D01*
X56259000Y-39474741D01*
X56259000Y-39297259D01*
X56293624Y-39123188D01*
X56361544Y-38959216D01*
X56460147Y-38811646D01*
X56585646Y-38686147D01*
X56733216Y-38587544D01*
X56897188Y-38519624D01*
X57046488Y-38489927D01*
X57071258Y-38485000D01*
X57248742Y-38485000D01*
X57273512Y-38489927D01*
G37*
G36*
X80143002Y-38001000D02*
G01*
X76541002Y-38001000D01*
X76541002Y-36199000D01*
X80143002Y-36199000D01*
X80143002Y-38001000D01*
G37*
G36*
X30375000Y-38001000D02*
G01*
X26773000Y-38001000D01*
X26773000Y-36199000D01*
X30375000Y-36199000D01*
X30375000Y-38001000D01*
G37*
G36*
X49955000Y-38001000D02*
G01*
X46353000Y-38001000D01*
X46353000Y-36199000D01*
X49955000Y-36199000D01*
X49955000Y-38001000D01*
G37*
G36*
X99723002Y-38001000D02*
G01*
X96121002Y-38001000D01*
X96121002Y-36199000D01*
X99723002Y-36199000D01*
X99723002Y-38001000D01*
G37*
G36*
X107829002Y-37747000D02*
G01*
X106027002Y-37747000D01*
X106027002Y-35945000D01*
X107829002Y-35945000D01*
X107829002Y-37747000D01*
G37*
G36*
X58061000Y-37747000D02*
G01*
X56259000Y-37747000D01*
X56259000Y-35945000D01*
X58061000Y-35945000D01*
X58061000Y-37747000D01*
G37*
G36*
X72865676Y-36099465D02*
G01*
X72903369Y-36110899D01*
X72938105Y-36129466D01*
X72968550Y-36154452D01*
X72993536Y-36184897D01*
X73012103Y-36219633D01*
X73023537Y-36257326D01*
X73028002Y-36302661D01*
X73028002Y-37389339D01*
X73023537Y-37434674D01*
X73012103Y-37472367D01*
X72993536Y-37507103D01*
X72968550Y-37537548D01*
X72938105Y-37562534D01*
X72903369Y-37581101D01*
X72865676Y-37592535D01*
X72820341Y-37597000D01*
X71983663Y-37597000D01*
X71938328Y-37592535D01*
X71900635Y-37581101D01*
X71865899Y-37562534D01*
X71835454Y-37537548D01*
X71810468Y-37507103D01*
X71791901Y-37472367D01*
X71780467Y-37434674D01*
X71776002Y-37389339D01*
X71776002Y-36302661D01*
X71780467Y-36257326D01*
X71791901Y-36219633D01*
X71810468Y-36184897D01*
X71835454Y-36154452D01*
X71865899Y-36129466D01*
X71900635Y-36110899D01*
X71938328Y-36099465D01*
X71983663Y-36095000D01*
X72820341Y-36095000D01*
X72865676Y-36099465D01*
G37*
G36*
X70815676Y-36099465D02*
G01*
X70853369Y-36110899D01*
X70888105Y-36129466D01*
X70918550Y-36154452D01*
X70943536Y-36184897D01*
X70962103Y-36219633D01*
X70973537Y-36257326D01*
X70978002Y-36302661D01*
X70978002Y-37389339D01*
X70973537Y-37434674D01*
X70962103Y-37472367D01*
X70943536Y-37507103D01*
X70918550Y-37537548D01*
X70888105Y-37562534D01*
X70853369Y-37581101D01*
X70815676Y-37592535D01*
X70770341Y-37597000D01*
X69933663Y-37597000D01*
X69888328Y-37592535D01*
X69850635Y-37581101D01*
X69815899Y-37562534D01*
X69785454Y-37537548D01*
X69760468Y-37507103D01*
X69741901Y-37472367D01*
X69730467Y-37434674D01*
X69726002Y-37389339D01*
X69726002Y-36302661D01*
X69730467Y-36257326D01*
X69741901Y-36219633D01*
X69760468Y-36184897D01*
X69785454Y-36154452D01*
X69815899Y-36129466D01*
X69850635Y-36110899D01*
X69888328Y-36099465D01*
X69933663Y-36095000D01*
X70770341Y-36095000D01*
X70815676Y-36099465D01*
G37*
G36*
X21047674Y-36099465D02*
G01*
X21085367Y-36110899D01*
X21120103Y-36129466D01*
X21150548Y-36154452D01*
X21175534Y-36184897D01*
X21194101Y-36219633D01*
X21205535Y-36257326D01*
X21210000Y-36302661D01*
X21210000Y-37389339D01*
X21205535Y-37434674D01*
X21194101Y-37472367D01*
X21175534Y-37507103D01*
X21150548Y-37537548D01*
X21120103Y-37562534D01*
X21085367Y-37581101D01*
X21047674Y-37592535D01*
X21002339Y-37597000D01*
X20165661Y-37597000D01*
X20120326Y-37592535D01*
X20082633Y-37581101D01*
X20047897Y-37562534D01*
X20017452Y-37537548D01*
X19992466Y-37507103D01*
X19973899Y-37472367D01*
X19962465Y-37434674D01*
X19958000Y-37389339D01*
X19958000Y-36302661D01*
X19962465Y-36257326D01*
X19973899Y-36219633D01*
X19992466Y-36184897D01*
X20017452Y-36154452D01*
X20047897Y-36129466D01*
X20082633Y-36110899D01*
X20120326Y-36099465D01*
X20165661Y-36095000D01*
X21002339Y-36095000D01*
X21047674Y-36099465D01*
G37*
G36*
X23097674Y-36099465D02*
G01*
X23135367Y-36110899D01*
X23170103Y-36129466D01*
X23200548Y-36154452D01*
X23225534Y-36184897D01*
X23244101Y-36219633D01*
X23255535Y-36257326D01*
X23260000Y-36302661D01*
X23260000Y-37389339D01*
X23255535Y-37434674D01*
X23244101Y-37472367D01*
X23225534Y-37507103D01*
X23200548Y-37537548D01*
X23170103Y-37562534D01*
X23135367Y-37581101D01*
X23097674Y-37592535D01*
X23052339Y-37597000D01*
X22215661Y-37597000D01*
X22170326Y-37592535D01*
X22132633Y-37581101D01*
X22097897Y-37562534D01*
X22067452Y-37537548D01*
X22042466Y-37507103D01*
X22023899Y-37472367D01*
X22012465Y-37434674D01*
X22008000Y-37389339D01*
X22008000Y-36302661D01*
X22012465Y-36257326D01*
X22023899Y-36219633D01*
X22042466Y-36184897D01*
X22067452Y-36154452D01*
X22097897Y-36129466D01*
X22132633Y-36110899D01*
X22170326Y-36099465D01*
X22215661Y-36095000D01*
X23052339Y-36095000D01*
X23097674Y-36099465D01*
G37*
G36*
X65047797Y-36177233D02*
G01*
X65102575Y-36199923D01*
X65102577Y-36199924D01*
X65151876Y-36232864D01*
X65193802Y-36274790D01*
X65220051Y-36314075D01*
X65226743Y-36324091D01*
X65249433Y-36378869D01*
X65261000Y-36437019D01*
X65261000Y-36496313D01*
X65249433Y-36554463D01*
X65226743Y-36609241D01*
X65226742Y-36609243D01*
X65193802Y-36658542D01*
X65151876Y-36700468D01*
X65102577Y-36733408D01*
X65102576Y-36733409D01*
X65102575Y-36733409D01*
X65047797Y-36756099D01*
X64989647Y-36767666D01*
X64930353Y-36767666D01*
X64872203Y-36756099D01*
X64817425Y-36733409D01*
X64817424Y-36733409D01*
X64817423Y-36733408D01*
X64768124Y-36700468D01*
X64726198Y-36658542D01*
X64693258Y-36609243D01*
X64693257Y-36609241D01*
X64670567Y-36554463D01*
X64659000Y-36496313D01*
X64659000Y-36437019D01*
X64670567Y-36378869D01*
X64693257Y-36324091D01*
X64699949Y-36314075D01*
X64726198Y-36274790D01*
X64768124Y-36232864D01*
X64817423Y-36199924D01*
X64817425Y-36199923D01*
X64872203Y-36177233D01*
X64930353Y-36165666D01*
X64989647Y-36165666D01*
X65047797Y-36177233D01*
G37*
G36*
X63647797Y-36177233D02*
G01*
X63702575Y-36199923D01*
X63702577Y-36199924D01*
X63751876Y-36232864D01*
X63793802Y-36274790D01*
X63820051Y-36314075D01*
X63826743Y-36324091D01*
X63849433Y-36378869D01*
X63861000Y-36437019D01*
X63861000Y-36496313D01*
X63849433Y-36554463D01*
X63826743Y-36609241D01*
X63826742Y-36609243D01*
X63793802Y-36658542D01*
X63751876Y-36700468D01*
X63702577Y-36733408D01*
X63702576Y-36733409D01*
X63702575Y-36733409D01*
X63647797Y-36756099D01*
X63589647Y-36767666D01*
X63530353Y-36767666D01*
X63472203Y-36756099D01*
X63417425Y-36733409D01*
X63417424Y-36733409D01*
X63417423Y-36733408D01*
X63368124Y-36700468D01*
X63326198Y-36658542D01*
X63293258Y-36609243D01*
X63293257Y-36609241D01*
X63270567Y-36554463D01*
X63259000Y-36496313D01*
X63259000Y-36437019D01*
X63270567Y-36378869D01*
X63293257Y-36324091D01*
X63299949Y-36314075D01*
X63326198Y-36274790D01*
X63368124Y-36232864D01*
X63417423Y-36199924D01*
X63417425Y-36199923D01*
X63472203Y-36177233D01*
X63530353Y-36165666D01*
X63589647Y-36165666D01*
X63647797Y-36177233D01*
G37*
G36*
X65047797Y-35177233D02*
G01*
X65102575Y-35199923D01*
X65102577Y-35199924D01*
X65151876Y-35232864D01*
X65193802Y-35274790D01*
X65226742Y-35324089D01*
X65226743Y-35324091D01*
X65249433Y-35378869D01*
X65261000Y-35437019D01*
X65261000Y-35496313D01*
X65249433Y-35554463D01*
X65226743Y-35609241D01*
X65226742Y-35609243D01*
X65193802Y-35658542D01*
X65151876Y-35700468D01*
X65102577Y-35733408D01*
X65102576Y-35733409D01*
X65102575Y-35733409D01*
X65047797Y-35756099D01*
X64989647Y-35767666D01*
X64930353Y-35767666D01*
X64872203Y-35756099D01*
X64817425Y-35733409D01*
X64817424Y-35733409D01*
X64817423Y-35733408D01*
X64768124Y-35700468D01*
X64726198Y-35658542D01*
X64693258Y-35609243D01*
X64693257Y-35609241D01*
X64670567Y-35554463D01*
X64659000Y-35496313D01*
X64659000Y-35437019D01*
X64670567Y-35378869D01*
X64693257Y-35324091D01*
X64693258Y-35324089D01*
X64726198Y-35274790D01*
X64768124Y-35232864D01*
X64817423Y-35199924D01*
X64817425Y-35199923D01*
X64872203Y-35177233D01*
X64930353Y-35165666D01*
X64989647Y-35165666D01*
X65047797Y-35177233D01*
G37*
G36*
X63647797Y-35177233D02*
G01*
X63702575Y-35199923D01*
X63702577Y-35199924D01*
X63751876Y-35232864D01*
X63793802Y-35274790D01*
X63826742Y-35324089D01*
X63826743Y-35324091D01*
X63849433Y-35378869D01*
X63861000Y-35437019D01*
X63861000Y-35496313D01*
X63849433Y-35554463D01*
X63826743Y-35609241D01*
X63826742Y-35609243D01*
X63793802Y-35658542D01*
X63751876Y-35700468D01*
X63702577Y-35733408D01*
X63702576Y-35733409D01*
X63702575Y-35733409D01*
X63647797Y-35756099D01*
X63589647Y-35767666D01*
X63530353Y-35767666D01*
X63472203Y-35756099D01*
X63417425Y-35733409D01*
X63417424Y-35733409D01*
X63417423Y-35733408D01*
X63368124Y-35700468D01*
X63326198Y-35658542D01*
X63293258Y-35609243D01*
X63293257Y-35609241D01*
X63270567Y-35554463D01*
X63259000Y-35496313D01*
X63259000Y-35437019D01*
X63270567Y-35378869D01*
X63293257Y-35324091D01*
X63293258Y-35324089D01*
X63326198Y-35274790D01*
X63368124Y-35232864D01*
X63417423Y-35199924D01*
X63417425Y-35199923D01*
X63472203Y-35177233D01*
X63530353Y-35165666D01*
X63589647Y-35165666D01*
X63647797Y-35177233D01*
G37*
G36*
X30375000Y-35461000D02*
G01*
X26773000Y-35461000D01*
X26773000Y-33659000D01*
X30375000Y-33659000D01*
X30375000Y-35461000D01*
G37*
G36*
X80143002Y-35461000D02*
G01*
X76541002Y-35461000D01*
X76541002Y-33659000D01*
X80143002Y-33659000D01*
X80143002Y-35461000D01*
G37*
G36*
X49955000Y-35461000D02*
G01*
X46353000Y-35461000D01*
X46353000Y-33659000D01*
X49955000Y-33659000D01*
X49955000Y-35461000D01*
G37*
G36*
X99723002Y-35461000D02*
G01*
X96121002Y-35461000D01*
X96121002Y-33659000D01*
X99723002Y-33659000D01*
X99723002Y-35461000D01*
G37*
G36*
X63647797Y-34177233D02*
G01*
X63702575Y-34199923D01*
X63702577Y-34199924D01*
X63751876Y-34232864D01*
X63793802Y-34274790D01*
X63826742Y-34324089D01*
X63826743Y-34324091D01*
X63849433Y-34378869D01*
X63861000Y-34437019D01*
X63861000Y-34496313D01*
X63849433Y-34554463D01*
X63826743Y-34609241D01*
X63826742Y-34609243D01*
X63793802Y-34658542D01*
X63751876Y-34700468D01*
X63702577Y-34733408D01*
X63702576Y-34733409D01*
X63702575Y-34733409D01*
X63647797Y-34756099D01*
X63589647Y-34767666D01*
X63530353Y-34767666D01*
X63472203Y-34756099D01*
X63417425Y-34733409D01*
X63417424Y-34733409D01*
X63417423Y-34733408D01*
X63368124Y-34700468D01*
X63326198Y-34658542D01*
X63293258Y-34609243D01*
X63293257Y-34609241D01*
X63270567Y-34554463D01*
X63259000Y-34496313D01*
X63259000Y-34437019D01*
X63270567Y-34378869D01*
X63293257Y-34324091D01*
X63293258Y-34324089D01*
X63326198Y-34274790D01*
X63368124Y-34232864D01*
X63417423Y-34199924D01*
X63417425Y-34199923D01*
X63472203Y-34177233D01*
X63530353Y-34165666D01*
X63589647Y-34165666D01*
X63647797Y-34177233D01*
G37*
G36*
X65047797Y-34177233D02*
G01*
X65102575Y-34199923D01*
X65102577Y-34199924D01*
X65151876Y-34232864D01*
X65193802Y-34274790D01*
X65226742Y-34324089D01*
X65226743Y-34324091D01*
X65249433Y-34378869D01*
X65261000Y-34437019D01*
X65261000Y-34496313D01*
X65249433Y-34554463D01*
X65226743Y-34609241D01*
X65226742Y-34609243D01*
X65193802Y-34658542D01*
X65151876Y-34700468D01*
X65102577Y-34733408D01*
X65102576Y-34733409D01*
X65102575Y-34733409D01*
X65047797Y-34756099D01*
X64989647Y-34767666D01*
X64930353Y-34767666D01*
X64872203Y-34756099D01*
X64817425Y-34733409D01*
X64817424Y-34733409D01*
X64817423Y-34733408D01*
X64768124Y-34700468D01*
X64726198Y-34658542D01*
X64693258Y-34609243D01*
X64693257Y-34609241D01*
X64670567Y-34554463D01*
X64659000Y-34496313D01*
X64659000Y-34437019D01*
X64670567Y-34378869D01*
X64693257Y-34324091D01*
X64693258Y-34324089D01*
X64726198Y-34274790D01*
X64768124Y-34232864D01*
X64817423Y-34199924D01*
X64817425Y-34199923D01*
X64872203Y-34177233D01*
X64930353Y-34165666D01*
X64989647Y-34165666D01*
X65047797Y-34177233D01*
G37*
G36*
X63647797Y-33177233D02*
G01*
X63702575Y-33199923D01*
X63702577Y-33199924D01*
X63751876Y-33232864D01*
X63793802Y-33274790D01*
X63826742Y-33324089D01*
X63826743Y-33324091D01*
X63849433Y-33378869D01*
X63861000Y-33437019D01*
X63861000Y-33496313D01*
X63849433Y-33554463D01*
X63826743Y-33609241D01*
X63826742Y-33609243D01*
X63793802Y-33658542D01*
X63751876Y-33700468D01*
X63702577Y-33733408D01*
X63702576Y-33733409D01*
X63702575Y-33733409D01*
X63647797Y-33756099D01*
X63589647Y-33767666D01*
X63530353Y-33767666D01*
X63472203Y-33756099D01*
X63417425Y-33733409D01*
X63417424Y-33733409D01*
X63417423Y-33733408D01*
X63368124Y-33700468D01*
X63326198Y-33658542D01*
X63293258Y-33609243D01*
X63293257Y-33609241D01*
X63270567Y-33554463D01*
X63259000Y-33496313D01*
X63259000Y-33437019D01*
X63270567Y-33378869D01*
X63293257Y-33324091D01*
X63293258Y-33324089D01*
X63326198Y-33274790D01*
X63368124Y-33232864D01*
X63417423Y-33199924D01*
X63417425Y-33199923D01*
X63472203Y-33177233D01*
X63530353Y-33165666D01*
X63589647Y-33165666D01*
X63647797Y-33177233D01*
G37*
G36*
X65047797Y-33177233D02*
G01*
X65102575Y-33199923D01*
X65102577Y-33199924D01*
X65151876Y-33232864D01*
X65193802Y-33274790D01*
X65226742Y-33324089D01*
X65226743Y-33324091D01*
X65249433Y-33378869D01*
X65261000Y-33437019D01*
X65261000Y-33496313D01*
X65249433Y-33554463D01*
X65226743Y-33609241D01*
X65226742Y-33609243D01*
X65193802Y-33658542D01*
X65151876Y-33700468D01*
X65102577Y-33733408D01*
X65102576Y-33733409D01*
X65102575Y-33733409D01*
X65047797Y-33756099D01*
X64989647Y-33767666D01*
X64930353Y-33767666D01*
X64872203Y-33756099D01*
X64817425Y-33733409D01*
X64817424Y-33733409D01*
X64817423Y-33733408D01*
X64768124Y-33700468D01*
X64726198Y-33658542D01*
X64693258Y-33609243D01*
X64693257Y-33609241D01*
X64670567Y-33554463D01*
X64659000Y-33496313D01*
X64659000Y-33437019D01*
X64670567Y-33378869D01*
X64693257Y-33324091D01*
X64693258Y-33324089D01*
X64726198Y-33274790D01*
X64768124Y-33232864D01*
X64817423Y-33199924D01*
X64817425Y-33199923D01*
X64872203Y-33177233D01*
X64930353Y-33165666D01*
X64989647Y-33165666D01*
X65047797Y-33177233D01*
G37*
G36*
X111226566Y-31263389D02*
G01*
X111417835Y-31342615D01*
X111417837Y-31342616D01*
X111589975Y-31457635D01*
X111736367Y-31604027D01*
X111837978Y-31756098D01*
X111851387Y-31776167D01*
X111930613Y-31967436D01*
X111971002Y-32170484D01*
X111971002Y-32377516D01*
X111930613Y-32580564D01*
X111857904Y-32756099D01*
X111851386Y-32771835D01*
X111736367Y-32943973D01*
X111589975Y-33090365D01*
X111417837Y-33205384D01*
X111417836Y-33205385D01*
X111417835Y-33205385D01*
X111226566Y-33284611D01*
X111023518Y-33325000D01*
X110816486Y-33325000D01*
X110613438Y-33284611D01*
X110422169Y-33205385D01*
X110422168Y-33205385D01*
X110422167Y-33205384D01*
X110250029Y-33090365D01*
X110103637Y-32943973D01*
X109988618Y-32771835D01*
X109982100Y-32756099D01*
X109909391Y-32580564D01*
X109869002Y-32377516D01*
X109869002Y-32170484D01*
X109909391Y-31967436D01*
X109988617Y-31776167D01*
X110002027Y-31756098D01*
X110103637Y-31604027D01*
X110250029Y-31457635D01*
X110422167Y-31342616D01*
X110422169Y-31342615D01*
X110613438Y-31263389D01*
X110816486Y-31223000D01*
X111023518Y-31223000D01*
X111226566Y-31263389D01*
G37*
G36*
X56958564Y-31263389D02*
G01*
X57149833Y-31342615D01*
X57149835Y-31342616D01*
X57321973Y-31457635D01*
X57468365Y-31604027D01*
X57569976Y-31756098D01*
X57583385Y-31776167D01*
X57662611Y-31967436D01*
X57703000Y-32170484D01*
X57703000Y-32377516D01*
X57662611Y-32580564D01*
X57589902Y-32756099D01*
X57583384Y-32771835D01*
X57468365Y-32943973D01*
X57321973Y-33090365D01*
X57149835Y-33205384D01*
X57149834Y-33205385D01*
X57149833Y-33205385D01*
X56958564Y-33284611D01*
X56755516Y-33325000D01*
X56548484Y-33325000D01*
X56345436Y-33284611D01*
X56154167Y-33205385D01*
X56154166Y-33205385D01*
X56154165Y-33205384D01*
X55982027Y-33090365D01*
X55835635Y-32943973D01*
X55720616Y-32771835D01*
X55714098Y-32756099D01*
X55641389Y-32580564D01*
X55601000Y-32377516D01*
X55601000Y-32170484D01*
X55641389Y-31967436D01*
X55720615Y-31776167D01*
X55734025Y-31756098D01*
X55835635Y-31604027D01*
X55982027Y-31457635D01*
X56154165Y-31342616D01*
X56154167Y-31342615D01*
X56345436Y-31263389D01*
X56548484Y-31223000D01*
X56755516Y-31223000D01*
X56958564Y-31263389D01*
G37*
G36*
X106726566Y-31263389D02*
G01*
X106917835Y-31342615D01*
X106917837Y-31342616D01*
X107089975Y-31457635D01*
X107236367Y-31604027D01*
X107337978Y-31756098D01*
X107351387Y-31776167D01*
X107430613Y-31967436D01*
X107471002Y-32170484D01*
X107471002Y-32377516D01*
X107430613Y-32580564D01*
X107357904Y-32756099D01*
X107351386Y-32771835D01*
X107236367Y-32943973D01*
X107089975Y-33090365D01*
X106917837Y-33205384D01*
X106917836Y-33205385D01*
X106917835Y-33205385D01*
X106726566Y-33284611D01*
X106523518Y-33325000D01*
X106316486Y-33325000D01*
X106113438Y-33284611D01*
X105922169Y-33205385D01*
X105922168Y-33205385D01*
X105922167Y-33205384D01*
X105750029Y-33090365D01*
X105603637Y-32943973D01*
X105488618Y-32771835D01*
X105482100Y-32756099D01*
X105409391Y-32580564D01*
X105369002Y-32377516D01*
X105369002Y-32170484D01*
X105409391Y-31967436D01*
X105488617Y-31776167D01*
X105502027Y-31756098D01*
X105603637Y-31604027D01*
X105750029Y-31457635D01*
X105922167Y-31342616D01*
X105922169Y-31342615D01*
X106113438Y-31263389D01*
X106316486Y-31223000D01*
X106523518Y-31223000D01*
X106726566Y-31263389D01*
G37*
G36*
X61458564Y-31263389D02*
G01*
X61649833Y-31342615D01*
X61649835Y-31342616D01*
X61821973Y-31457635D01*
X61968365Y-31604027D01*
X62069976Y-31756098D01*
X62083385Y-31776167D01*
X62162611Y-31967436D01*
X62203000Y-32170484D01*
X62203000Y-32377516D01*
X62162611Y-32580564D01*
X62089902Y-32756099D01*
X62083384Y-32771835D01*
X61968365Y-32943973D01*
X61821973Y-33090365D01*
X61649835Y-33205384D01*
X61649834Y-33205385D01*
X61649833Y-33205385D01*
X61458564Y-33284611D01*
X61255516Y-33325000D01*
X61048484Y-33325000D01*
X60845436Y-33284611D01*
X60654167Y-33205385D01*
X60654166Y-33205385D01*
X60654165Y-33205384D01*
X60482027Y-33090365D01*
X60335635Y-32943973D01*
X60220616Y-32771835D01*
X60214098Y-32756099D01*
X60141389Y-32580564D01*
X60101000Y-32377516D01*
X60101000Y-32170484D01*
X60141389Y-31967436D01*
X60220615Y-31776167D01*
X60234025Y-31756098D01*
X60335635Y-31604027D01*
X60482027Y-31457635D01*
X60654165Y-31342616D01*
X60654167Y-31342615D01*
X60845436Y-31263389D01*
X61048484Y-31223000D01*
X61255516Y-31223000D01*
X61458564Y-31263389D01*
G37*
G36*
X99723002Y-32921000D02*
G01*
X96121002Y-32921000D01*
X96121002Y-31119000D01*
X99723002Y-31119000D01*
X99723002Y-32921000D01*
G37*
G36*
X49955000Y-32921000D02*
G01*
X46353000Y-32921000D01*
X46353000Y-31119000D01*
X49955000Y-31119000D01*
X49955000Y-32921000D01*
G37*
G36*
X80143002Y-32921000D02*
G01*
X76541002Y-32921000D01*
X76541002Y-31119000D01*
X80143002Y-31119000D01*
X80143002Y-32921000D01*
G37*
G36*
X30375000Y-32921000D02*
G01*
X26773000Y-32921000D01*
X26773000Y-31119000D01*
X30375000Y-31119000D01*
X30375000Y-32921000D01*
G37*
G36*
X65047797Y-32177233D02*
G01*
X65102575Y-32199923D01*
X65102577Y-32199924D01*
X65151876Y-32232864D01*
X65193802Y-32274790D01*
X65226742Y-32324089D01*
X65226743Y-32324091D01*
X65249433Y-32378869D01*
X65261000Y-32437019D01*
X65261000Y-32496313D01*
X65249433Y-32554463D01*
X65238621Y-32580565D01*
X65226742Y-32609243D01*
X65193802Y-32658542D01*
X65151876Y-32700468D01*
X65102577Y-32733408D01*
X65102576Y-32733409D01*
X65102575Y-32733409D01*
X65047797Y-32756099D01*
X64989647Y-32767666D01*
X64930353Y-32767666D01*
X64872203Y-32756099D01*
X64817425Y-32733409D01*
X64817424Y-32733409D01*
X64817423Y-32733408D01*
X64768124Y-32700468D01*
X64726198Y-32658542D01*
X64693258Y-32609243D01*
X64681379Y-32580565D01*
X64670567Y-32554463D01*
X64659000Y-32496313D01*
X64659000Y-32437019D01*
X64670567Y-32378869D01*
X64693257Y-32324091D01*
X64693258Y-32324089D01*
X64726198Y-32274790D01*
X64768124Y-32232864D01*
X64817423Y-32199924D01*
X64817425Y-32199923D01*
X64872203Y-32177233D01*
X64930353Y-32165666D01*
X64989647Y-32165666D01*
X65047797Y-32177233D01*
G37*
G36*
X63647797Y-32177233D02*
G01*
X63702575Y-32199923D01*
X63702577Y-32199924D01*
X63751876Y-32232864D01*
X63793802Y-32274790D01*
X63826742Y-32324089D01*
X63826743Y-32324091D01*
X63849433Y-32378869D01*
X63861000Y-32437019D01*
X63861000Y-32496313D01*
X63849433Y-32554463D01*
X63838621Y-32580565D01*
X63826742Y-32609243D01*
X63793802Y-32658542D01*
X63751876Y-32700468D01*
X63702577Y-32733408D01*
X63702576Y-32733409D01*
X63702575Y-32733409D01*
X63647797Y-32756099D01*
X63589647Y-32767666D01*
X63530353Y-32767666D01*
X63472203Y-32756099D01*
X63417425Y-32733409D01*
X63417424Y-32733409D01*
X63417423Y-32733408D01*
X63368124Y-32700468D01*
X63326198Y-32658542D01*
X63293258Y-32609243D01*
X63281379Y-32580565D01*
X63270567Y-32554463D01*
X63259000Y-32496313D01*
X63259000Y-32437019D01*
X63270567Y-32378869D01*
X63293257Y-32324091D01*
X63293258Y-32324089D01*
X63326198Y-32274790D01*
X63368124Y-32232864D01*
X63417423Y-32199924D01*
X63417425Y-32199923D01*
X63472203Y-32177233D01*
X63530353Y-32165666D01*
X63589647Y-32165666D01*
X63647797Y-32177233D01*
G37*
G36*
X65047797Y-31177233D02*
G01*
X65102575Y-31199923D01*
X65102577Y-31199924D01*
X65151876Y-31232864D01*
X65193802Y-31274790D01*
X65224108Y-31320147D01*
X65226743Y-31324091D01*
X65249433Y-31378869D01*
X65261000Y-31437019D01*
X65261000Y-31496313D01*
X65249433Y-31554463D01*
X65233381Y-31593216D01*
X65226742Y-31609243D01*
X65193802Y-31658542D01*
X65151876Y-31700468D01*
X65102577Y-31733408D01*
X65102576Y-31733409D01*
X65102575Y-31733409D01*
X65047797Y-31756099D01*
X64989647Y-31767666D01*
X64930353Y-31767666D01*
X64872203Y-31756099D01*
X64817425Y-31733409D01*
X64817424Y-31733409D01*
X64817423Y-31733408D01*
X64768124Y-31700468D01*
X64726198Y-31658542D01*
X64693258Y-31609243D01*
X64686619Y-31593216D01*
X64670567Y-31554463D01*
X64659000Y-31496313D01*
X64659000Y-31437019D01*
X64670567Y-31378869D01*
X64693257Y-31324091D01*
X64695892Y-31320147D01*
X64726198Y-31274790D01*
X64768124Y-31232864D01*
X64817423Y-31199924D01*
X64817425Y-31199923D01*
X64872203Y-31177233D01*
X64930353Y-31165666D01*
X64989647Y-31165666D01*
X65047797Y-31177233D01*
G37*
G36*
X63647797Y-31177233D02*
G01*
X63702575Y-31199923D01*
X63702577Y-31199924D01*
X63751876Y-31232864D01*
X63793802Y-31274790D01*
X63824108Y-31320147D01*
X63826743Y-31324091D01*
X63849433Y-31378869D01*
X63861000Y-31437019D01*
X63861000Y-31496313D01*
X63849433Y-31554463D01*
X63833381Y-31593216D01*
X63826742Y-31609243D01*
X63793802Y-31658542D01*
X63751876Y-31700468D01*
X63702577Y-31733408D01*
X63702576Y-31733409D01*
X63702575Y-31733409D01*
X63647797Y-31756099D01*
X63589647Y-31767666D01*
X63530353Y-31767666D01*
X63472203Y-31756099D01*
X63417425Y-31733409D01*
X63417424Y-31733409D01*
X63417423Y-31733408D01*
X63368124Y-31700468D01*
X63326198Y-31658542D01*
X63293258Y-31609243D01*
X63286619Y-31593216D01*
X63270567Y-31554463D01*
X63259000Y-31496313D01*
X63259000Y-31437019D01*
X63270567Y-31378869D01*
X63293257Y-31324091D01*
X63295892Y-31320147D01*
X63326198Y-31274790D01*
X63368124Y-31232864D01*
X63417423Y-31199924D01*
X63417425Y-31199923D01*
X63472203Y-31177233D01*
X63530353Y-31165666D01*
X63589647Y-31165666D01*
X63647797Y-31177233D01*
G37*
G36*
X80143002Y-30381000D02*
G01*
X76541002Y-30381000D01*
X76541002Y-28579000D01*
X80143002Y-28579000D01*
X80143002Y-30381000D01*
G37*
G36*
X30375000Y-30381000D02*
G01*
X26773000Y-30381000D01*
X26773000Y-28579000D01*
X30375000Y-28579000D01*
X30375000Y-30381000D01*
G37*
G36*
X49955000Y-30381000D02*
G01*
X46353000Y-30381000D01*
X46353000Y-28579000D01*
X49955000Y-28579000D01*
X49955000Y-30381000D01*
G37*
G36*
X99723002Y-30381000D02*
G01*
X96121002Y-30381000D01*
X96121002Y-28579000D01*
X99723002Y-28579000D01*
X99723002Y-30381000D01*
G37*
G36*
X21369395Y-28311546D02*
G01*
X21542466Y-28383234D01*
X21542467Y-28383235D01*
X21698227Y-28487310D01*
X21830690Y-28619773D01*
X21830691Y-28619775D01*
X21934766Y-28775534D01*
X22006454Y-28948605D01*
X22043000Y-29132333D01*
X22043000Y-29319667D01*
X22006454Y-29503395D01*
X21934766Y-29676466D01*
X21934765Y-29676467D01*
X21830690Y-29832227D01*
X21698227Y-29964690D01*
X21619818Y-30017081D01*
X21542466Y-30068766D01*
X21369395Y-30140454D01*
X21185667Y-30177000D01*
X20998333Y-30177000D01*
X20814605Y-30140454D01*
X20641534Y-30068766D01*
X20564182Y-30017081D01*
X20485773Y-29964690D01*
X20353310Y-29832227D01*
X20249235Y-29676467D01*
X20249234Y-29676466D01*
X20177546Y-29503395D01*
X20141000Y-29319667D01*
X20141000Y-29132333D01*
X20177546Y-28948605D01*
X20249234Y-28775534D01*
X20353309Y-28619775D01*
X20353310Y-28619773D01*
X20485773Y-28487310D01*
X20641533Y-28383235D01*
X20641534Y-28383234D01*
X20814605Y-28311546D01*
X20998333Y-28275000D01*
X21185667Y-28275000D01*
X21369395Y-28311546D01*
G37*
G36*
X71137397Y-28311546D02*
G01*
X71310468Y-28383234D01*
X71310469Y-28383235D01*
X71466229Y-28487310D01*
X71598692Y-28619773D01*
X71598693Y-28619775D01*
X71702768Y-28775534D01*
X71774456Y-28948605D01*
X71811002Y-29132333D01*
X71811002Y-29319667D01*
X71774456Y-29503395D01*
X71702768Y-29676466D01*
X71702767Y-29676467D01*
X71598692Y-29832227D01*
X71466229Y-29964690D01*
X71387820Y-30017081D01*
X71310468Y-30068766D01*
X71137397Y-30140454D01*
X70953669Y-30177000D01*
X70766335Y-30177000D01*
X70582607Y-30140454D01*
X70409536Y-30068766D01*
X70332184Y-30017081D01*
X70253775Y-29964690D01*
X70121312Y-29832227D01*
X70017237Y-29676467D01*
X70017236Y-29676466D01*
X69945548Y-29503395D01*
X69909002Y-29319667D01*
X69909002Y-29132333D01*
X69945548Y-28948605D01*
X70017236Y-28775534D01*
X70121311Y-28619775D01*
X70121312Y-28619773D01*
X70253775Y-28487310D01*
X70409535Y-28383235D01*
X70409536Y-28383234D01*
X70582607Y-28311546D01*
X70766335Y-28275000D01*
X70953669Y-28275000D01*
X71137397Y-28311546D01*
G37*
G36*
X69271002Y-30177000D02*
G01*
X67369002Y-30177000D01*
X67369002Y-28275000D01*
X69271002Y-28275000D01*
X69271002Y-30177000D01*
G37*
G36*
X19503000Y-30177000D02*
G01*
X17601000Y-30177000D01*
X17601000Y-28275000D01*
X19503000Y-28275000D01*
X19503000Y-30177000D01*
G37*
G36*
X49955000Y-27841000D02*
G01*
X46353000Y-27841000D01*
X46353000Y-26039000D01*
X49955000Y-26039000D01*
X49955000Y-27841000D01*
G37*
G36*
X99723002Y-27841000D02*
G01*
X96121002Y-27841000D01*
X96121002Y-26039000D01*
X99723002Y-26039000D01*
X99723002Y-27841000D01*
G37*
G36*
X30375000Y-27841000D02*
G01*
X26773000Y-27841000D01*
X26773000Y-26039000D01*
X30375000Y-26039000D01*
X30375000Y-27841000D01*
G37*
G36*
X80143002Y-27841000D02*
G01*
X76541002Y-27841000D01*
X76541002Y-26039000D01*
X80143002Y-26039000D01*
X80143002Y-27841000D01*
G37*
G36*
X111226566Y-24763389D02*
G01*
X111417835Y-24842615D01*
X111417837Y-24842616D01*
X111589975Y-24957635D01*
X111736367Y-25104027D01*
X111851387Y-25276167D01*
X111930613Y-25467436D01*
X111971002Y-25670484D01*
X111971002Y-25877516D01*
X111930613Y-26080564D01*
X111851387Y-26271833D01*
X111851386Y-26271835D01*
X111736367Y-26443973D01*
X111589975Y-26590365D01*
X111417837Y-26705384D01*
X111417836Y-26705385D01*
X111417835Y-26705385D01*
X111226566Y-26784611D01*
X111023518Y-26825000D01*
X110816486Y-26825000D01*
X110613438Y-26784611D01*
X110422169Y-26705385D01*
X110422168Y-26705385D01*
X110422167Y-26705384D01*
X110250029Y-26590365D01*
X110103637Y-26443973D01*
X109988618Y-26271835D01*
X109988617Y-26271833D01*
X109909391Y-26080564D01*
X109869002Y-25877516D01*
X109869002Y-25670484D01*
X109909391Y-25467436D01*
X109988617Y-25276167D01*
X110103637Y-25104027D01*
X110250029Y-24957635D01*
X110422167Y-24842616D01*
X110422169Y-24842615D01*
X110613438Y-24763389D01*
X110816486Y-24723000D01*
X111023518Y-24723000D01*
X111226566Y-24763389D01*
G37*
G36*
X56958564Y-24763389D02*
G01*
X57149833Y-24842615D01*
X57149835Y-24842616D01*
X57321973Y-24957635D01*
X57468365Y-25104027D01*
X57583385Y-25276167D01*
X57662611Y-25467436D01*
X57703000Y-25670484D01*
X57703000Y-25877516D01*
X57662611Y-26080564D01*
X57583385Y-26271833D01*
X57583384Y-26271835D01*
X57468365Y-26443973D01*
X57321973Y-26590365D01*
X57149835Y-26705384D01*
X57149834Y-26705385D01*
X57149833Y-26705385D01*
X56958564Y-26784611D01*
X56755516Y-26825000D01*
X56548484Y-26825000D01*
X56345436Y-26784611D01*
X56154167Y-26705385D01*
X56154166Y-26705385D01*
X56154165Y-26705384D01*
X55982027Y-26590365D01*
X55835635Y-26443973D01*
X55720616Y-26271835D01*
X55720615Y-26271833D01*
X55641389Y-26080564D01*
X55601000Y-25877516D01*
X55601000Y-25670484D01*
X55641389Y-25467436D01*
X55720615Y-25276167D01*
X55835635Y-25104027D01*
X55982027Y-24957635D01*
X56154165Y-24842616D01*
X56154167Y-24842615D01*
X56345436Y-24763389D01*
X56548484Y-24723000D01*
X56755516Y-24723000D01*
X56958564Y-24763389D01*
G37*
G36*
X61458564Y-24763389D02*
G01*
X61649833Y-24842615D01*
X61649835Y-24842616D01*
X61821973Y-24957635D01*
X61968365Y-25104027D01*
X62083385Y-25276167D01*
X62162611Y-25467436D01*
X62203000Y-25670484D01*
X62203000Y-25877516D01*
X62162611Y-26080564D01*
X62083385Y-26271833D01*
X62083384Y-26271835D01*
X61968365Y-26443973D01*
X61821973Y-26590365D01*
X61649835Y-26705384D01*
X61649834Y-26705385D01*
X61649833Y-26705385D01*
X61458564Y-26784611D01*
X61255516Y-26825000D01*
X61048484Y-26825000D01*
X60845436Y-26784611D01*
X60654167Y-26705385D01*
X60654166Y-26705385D01*
X60654165Y-26705384D01*
X60482027Y-26590365D01*
X60335635Y-26443973D01*
X60220616Y-26271835D01*
X60220615Y-26271833D01*
X60141389Y-26080564D01*
X60101000Y-25877516D01*
X60101000Y-25670484D01*
X60141389Y-25467436D01*
X60220615Y-25276167D01*
X60335635Y-25104027D01*
X60482027Y-24957635D01*
X60654165Y-24842616D01*
X60654167Y-24842615D01*
X60845436Y-24763389D01*
X61048484Y-24723000D01*
X61255516Y-24723000D01*
X61458564Y-24763389D01*
G37*
G36*
X106726566Y-24763389D02*
G01*
X106917835Y-24842615D01*
X106917837Y-24842616D01*
X107089975Y-24957635D01*
X107236367Y-25104027D01*
X107351387Y-25276167D01*
X107430613Y-25467436D01*
X107471002Y-25670484D01*
X107471002Y-25877516D01*
X107430613Y-26080564D01*
X107351387Y-26271833D01*
X107351386Y-26271835D01*
X107236367Y-26443973D01*
X107089975Y-26590365D01*
X106917837Y-26705384D01*
X106917836Y-26705385D01*
X106917835Y-26705385D01*
X106726566Y-26784611D01*
X106523518Y-26825000D01*
X106316486Y-26825000D01*
X106113438Y-26784611D01*
X105922169Y-26705385D01*
X105922168Y-26705385D01*
X105922167Y-26705384D01*
X105750029Y-26590365D01*
X105603637Y-26443973D01*
X105488618Y-26271835D01*
X105488617Y-26271833D01*
X105409391Y-26080564D01*
X105369002Y-25877516D01*
X105369002Y-25670484D01*
X105409391Y-25467436D01*
X105488617Y-25276167D01*
X105603637Y-25104027D01*
X105750029Y-24957635D01*
X105922167Y-24842616D01*
X105922169Y-24842615D01*
X106113438Y-24763389D01*
X106316486Y-24723000D01*
X106523518Y-24723000D01*
X106726566Y-24763389D01*
G37*
G36*
X30375000Y-25301000D02*
G01*
X26773000Y-25301000D01*
X26773000Y-23499000D01*
X30375000Y-23499000D01*
X30375000Y-25301000D01*
G37*
G36*
X49955000Y-25301000D02*
G01*
X46353000Y-25301000D01*
X46353000Y-23499000D01*
X49955000Y-23499000D01*
X49955000Y-25301000D01*
G37*
G36*
X80143002Y-25301000D02*
G01*
X76541002Y-25301000D01*
X76541002Y-23499000D01*
X80143002Y-23499000D01*
X80143002Y-25301000D01*
G37*
G36*
X99723002Y-25301000D02*
G01*
X96121002Y-25301000D01*
X96121002Y-23499000D01*
X99723002Y-23499000D01*
X99723002Y-25301000D01*
G37*
G36*
X36172642Y-21709781D02*
G01*
X36318414Y-21770162D01*
X36318416Y-21770163D01*
X36449608Y-21857822D01*
X36561178Y-21969392D01*
X36619359Y-22056467D01*
X36648838Y-22100586D01*
X36709219Y-22246358D01*
X36740000Y-22401107D01*
X36740000Y-22558893D01*
X36709219Y-22713642D01*
X36648838Y-22859414D01*
X36648837Y-22859416D01*
X36561178Y-22990608D01*
X36449608Y-23102178D01*
X36318416Y-23189837D01*
X36318415Y-23189838D01*
X36318414Y-23189838D01*
X36172642Y-23250219D01*
X36017893Y-23281000D01*
X35860107Y-23281000D01*
X35705358Y-23250219D01*
X35559586Y-23189838D01*
X35559585Y-23189838D01*
X35559584Y-23189837D01*
X35428392Y-23102178D01*
X35316822Y-22990608D01*
X35229163Y-22859416D01*
X35229162Y-22859414D01*
X35168781Y-22713642D01*
X35138000Y-22558893D01*
X35138000Y-22401107D01*
X35168781Y-22246358D01*
X35229162Y-22100586D01*
X35258641Y-22056467D01*
X35316822Y-21969392D01*
X35428392Y-21857822D01*
X35559584Y-21770163D01*
X35559586Y-21770162D01*
X35705358Y-21709781D01*
X35860107Y-21679000D01*
X36017893Y-21679000D01*
X36172642Y-21709781D01*
G37*
G36*
X85940644Y-21709781D02*
G01*
X86086416Y-21770162D01*
X86086418Y-21770163D01*
X86217610Y-21857822D01*
X86329180Y-21969392D01*
X86387361Y-22056467D01*
X86416840Y-22100586D01*
X86477221Y-22246358D01*
X86508002Y-22401107D01*
X86508002Y-22558893D01*
X86477221Y-22713642D01*
X86416840Y-22859414D01*
X86416839Y-22859416D01*
X86329180Y-22990608D01*
X86217610Y-23102178D01*
X86086418Y-23189837D01*
X86086417Y-23189838D01*
X86086416Y-23189838D01*
X85940644Y-23250219D01*
X85785895Y-23281000D01*
X85628109Y-23281000D01*
X85473360Y-23250219D01*
X85327588Y-23189838D01*
X85327587Y-23189838D01*
X85327586Y-23189837D01*
X85196394Y-23102178D01*
X85084824Y-22990608D01*
X84997165Y-22859416D01*
X84997164Y-22859414D01*
X84936783Y-22713642D01*
X84906002Y-22558893D01*
X84906002Y-22401107D01*
X84936783Y-22246358D01*
X84997164Y-22100586D01*
X85026643Y-22056467D01*
X85084824Y-21969392D01*
X85196394Y-21857822D01*
X85327586Y-21770163D01*
X85327588Y-21770162D01*
X85473360Y-21709781D01*
X85628109Y-21679000D01*
X85785895Y-21679000D01*
X85940644Y-21709781D01*
G37*
G36*
X90790644Y-21709781D02*
G01*
X90936416Y-21770162D01*
X90936418Y-21770163D01*
X91067610Y-21857822D01*
X91179180Y-21969392D01*
X91237361Y-22056467D01*
X91266840Y-22100586D01*
X91327221Y-22246358D01*
X91358002Y-22401107D01*
X91358002Y-22558893D01*
X91327221Y-22713642D01*
X91266840Y-22859414D01*
X91266839Y-22859416D01*
X91179180Y-22990608D01*
X91067610Y-23102178D01*
X90936418Y-23189837D01*
X90936417Y-23189838D01*
X90936416Y-23189838D01*
X90790644Y-23250219D01*
X90635895Y-23281000D01*
X90478109Y-23281000D01*
X90323360Y-23250219D01*
X90177588Y-23189838D01*
X90177587Y-23189838D01*
X90177586Y-23189837D01*
X90046394Y-23102178D01*
X89934824Y-22990608D01*
X89847165Y-22859416D01*
X89847164Y-22859414D01*
X89786783Y-22713642D01*
X89756002Y-22558893D01*
X89756002Y-22401107D01*
X89786783Y-22246358D01*
X89847164Y-22100586D01*
X89876643Y-22056467D01*
X89934824Y-21969392D01*
X90046394Y-21857822D01*
X90177586Y-21770163D01*
X90177588Y-21770162D01*
X90323360Y-21709781D01*
X90478109Y-21679000D01*
X90635895Y-21679000D01*
X90790644Y-21709781D01*
G37*
G36*
X41022642Y-21709781D02*
G01*
X41168414Y-21770162D01*
X41168416Y-21770163D01*
X41299608Y-21857822D01*
X41411178Y-21969392D01*
X41469359Y-22056467D01*
X41498838Y-22100586D01*
X41559219Y-22246358D01*
X41590000Y-22401107D01*
X41590000Y-22558893D01*
X41559219Y-22713642D01*
X41498838Y-22859414D01*
X41498837Y-22859416D01*
X41411178Y-22990608D01*
X41299608Y-23102178D01*
X41168416Y-23189837D01*
X41168415Y-23189838D01*
X41168414Y-23189838D01*
X41022642Y-23250219D01*
X40867893Y-23281000D01*
X40710107Y-23281000D01*
X40555358Y-23250219D01*
X40409586Y-23189838D01*
X40409585Y-23189838D01*
X40409584Y-23189837D01*
X40278392Y-23102178D01*
X40166822Y-22990608D01*
X40079163Y-22859416D01*
X40079162Y-22859414D01*
X40018781Y-22713642D01*
X39988000Y-22558893D01*
X39988000Y-22401107D01*
X40018781Y-22246358D01*
X40079162Y-22100586D01*
X40108641Y-22056467D01*
X40166822Y-21969392D01*
X40278392Y-21857822D01*
X40409584Y-21770163D01*
X40409586Y-21770162D01*
X40555358Y-21709781D01*
X40710107Y-21679000D01*
X40867893Y-21679000D01*
X41022642Y-21709781D01*
G37*
G36*
X30375000Y-22761000D02*
G01*
X26773000Y-22761000D01*
X26773000Y-20959000D01*
X30375000Y-20959000D01*
X30375000Y-22761000D01*
G37*
G36*
X49955000Y-22761000D02*
G01*
X46353000Y-22761000D01*
X46353000Y-20959000D01*
X49955000Y-20959000D01*
X49955000Y-22761000D01*
G37*
G36*
X80143002Y-22761000D02*
G01*
X76541002Y-22761000D01*
X76541002Y-20959000D01*
X80143002Y-20959000D01*
X80143002Y-22761000D01*
G37*
G36*
X99723002Y-22761000D02*
G01*
X96121002Y-22761000D01*
X96121002Y-20959000D01*
X99723002Y-20959000D01*
X99723002Y-22761000D01*
G37*
G36*
X68089397Y-20691546D02*
G01*
X68262468Y-20763234D01*
X68339820Y-20814919D01*
X68418229Y-20867310D01*
X68550692Y-20999773D01*
X68591966Y-21061544D01*
X68654768Y-21155534D01*
X68726456Y-21328605D01*
X68763002Y-21512333D01*
X68763002Y-21699667D01*
X68726456Y-21883395D01*
X68654768Y-22056466D01*
X68654767Y-22056467D01*
X68550692Y-22212227D01*
X68418229Y-22344690D01*
X68416671Y-22345731D01*
X68262468Y-22448766D01*
X68089397Y-22520454D01*
X67905669Y-22557000D01*
X67718335Y-22557000D01*
X67534607Y-22520454D01*
X67361536Y-22448766D01*
X67207333Y-22345731D01*
X67205775Y-22344690D01*
X67073312Y-22212227D01*
X66969237Y-22056467D01*
X66969236Y-22056466D01*
X66897548Y-21883395D01*
X66861002Y-21699667D01*
X66861002Y-21512333D01*
X66897548Y-21328605D01*
X66969236Y-21155534D01*
X67032038Y-21061544D01*
X67073312Y-20999773D01*
X67205775Y-20867310D01*
X67284184Y-20814919D01*
X67361536Y-20763234D01*
X67534607Y-20691546D01*
X67718335Y-20655000D01*
X67905669Y-20655000D01*
X68089397Y-20691546D01*
G37*
G36*
X73704459Y-20658897D02*
G01*
X73736604Y-20668649D01*
X73766232Y-20684485D01*
X73792203Y-20705799D01*
X73813517Y-20731770D01*
X73829353Y-20761398D01*
X73839105Y-20793543D01*
X73843002Y-20833114D01*
X73843002Y-22378886D01*
X73839105Y-22418457D01*
X73829353Y-22450602D01*
X73813517Y-22480230D01*
X73792203Y-22506201D01*
X73766232Y-22527515D01*
X73736604Y-22543351D01*
X73704459Y-22553103D01*
X73664888Y-22557000D01*
X72119116Y-22557000D01*
X72079545Y-22553103D01*
X72047400Y-22543351D01*
X72017772Y-22527515D01*
X71991801Y-22506201D01*
X71970487Y-22480230D01*
X71954651Y-22450602D01*
X71944899Y-22418457D01*
X71941002Y-22378886D01*
X71941002Y-20833114D01*
X71944899Y-20793543D01*
X71954651Y-20761398D01*
X71970487Y-20731770D01*
X71991801Y-20705799D01*
X72017772Y-20684485D01*
X72047400Y-20668649D01*
X72079545Y-20658897D01*
X72119116Y-20655000D01*
X73664888Y-20655000D01*
X73704459Y-20658897D01*
G37*
G36*
X23936457Y-20658897D02*
G01*
X23968602Y-20668649D01*
X23998230Y-20684485D01*
X24024201Y-20705799D01*
X24045515Y-20731770D01*
X24061351Y-20761398D01*
X24071103Y-20793543D01*
X24075000Y-20833114D01*
X24075000Y-22378886D01*
X24071103Y-22418457D01*
X24061351Y-22450602D01*
X24045515Y-22480230D01*
X24024201Y-22506201D01*
X23998230Y-22527515D01*
X23968602Y-22543351D01*
X23936457Y-22553103D01*
X23896886Y-22557000D01*
X22351114Y-22557000D01*
X22311543Y-22553103D01*
X22279398Y-22543351D01*
X22249770Y-22527515D01*
X22223799Y-22506201D01*
X22202485Y-22480230D01*
X22186649Y-22450602D01*
X22176897Y-22418457D01*
X22173000Y-22378886D01*
X22173000Y-20833114D01*
X22176897Y-20793543D01*
X22186649Y-20761398D01*
X22202485Y-20731770D01*
X22223799Y-20705799D01*
X22249770Y-20684485D01*
X22279398Y-20668649D01*
X22311543Y-20658897D01*
X22351114Y-20655000D01*
X23896886Y-20655000D01*
X23936457Y-20658897D01*
G37*
G36*
X20861395Y-20691546D02*
G01*
X21034466Y-20763234D01*
X21111818Y-20814919D01*
X21190227Y-20867310D01*
X21322690Y-20999773D01*
X21363964Y-21061544D01*
X21426766Y-21155534D01*
X21498454Y-21328605D01*
X21535000Y-21512333D01*
X21535000Y-21699667D01*
X21498454Y-21883395D01*
X21426766Y-22056466D01*
X21426765Y-22056467D01*
X21322690Y-22212227D01*
X21190227Y-22344690D01*
X21188669Y-22345731D01*
X21034466Y-22448766D01*
X20861395Y-22520454D01*
X20677667Y-22557000D01*
X20490333Y-22557000D01*
X20306605Y-22520454D01*
X20133534Y-22448766D01*
X19979331Y-22345731D01*
X19977773Y-22344690D01*
X19845310Y-22212227D01*
X19741235Y-22056467D01*
X19741234Y-22056466D01*
X19669546Y-21883395D01*
X19633000Y-21699667D01*
X19633000Y-21512333D01*
X19669546Y-21328605D01*
X19741234Y-21155534D01*
X19804036Y-21061544D01*
X19845310Y-20999773D01*
X19977773Y-20867310D01*
X20056182Y-20814919D01*
X20133534Y-20763234D01*
X20306605Y-20691546D01*
X20490333Y-20655000D01*
X20677667Y-20655000D01*
X20861395Y-20691546D01*
G37*
G36*
X18321395Y-20691546D02*
G01*
X18494466Y-20763234D01*
X18571818Y-20814919D01*
X18650227Y-20867310D01*
X18782690Y-20999773D01*
X18823964Y-21061544D01*
X18886766Y-21155534D01*
X18958454Y-21328605D01*
X18995000Y-21512333D01*
X18995000Y-21699667D01*
X18958454Y-21883395D01*
X18886766Y-22056466D01*
X18886765Y-22056467D01*
X18782690Y-22212227D01*
X18650227Y-22344690D01*
X18648669Y-22345731D01*
X18494466Y-22448766D01*
X18321395Y-22520454D01*
X18137667Y-22557000D01*
X17950333Y-22557000D01*
X17766605Y-22520454D01*
X17593534Y-22448766D01*
X17439331Y-22345731D01*
X17437773Y-22344690D01*
X17305310Y-22212227D01*
X17201235Y-22056467D01*
X17201234Y-22056466D01*
X17129546Y-21883395D01*
X17093000Y-21699667D01*
X17093000Y-21512333D01*
X17129546Y-21328605D01*
X17201234Y-21155534D01*
X17264036Y-21061544D01*
X17305310Y-20999773D01*
X17437773Y-20867310D01*
X17516182Y-20814919D01*
X17593534Y-20763234D01*
X17766605Y-20691546D01*
X17950333Y-20655000D01*
X18137667Y-20655000D01*
X18321395Y-20691546D01*
G37*
G36*
X70629397Y-20691546D02*
G01*
X70802468Y-20763234D01*
X70879820Y-20814919D01*
X70958229Y-20867310D01*
X71090692Y-20999773D01*
X71131966Y-21061544D01*
X71194768Y-21155534D01*
X71266456Y-21328605D01*
X71303002Y-21512333D01*
X71303002Y-21699667D01*
X71266456Y-21883395D01*
X71194768Y-22056466D01*
X71194767Y-22056467D01*
X71090692Y-22212227D01*
X70958229Y-22344690D01*
X70956671Y-22345731D01*
X70802468Y-22448766D01*
X70629397Y-22520454D01*
X70445669Y-22557000D01*
X70258335Y-22557000D01*
X70074607Y-22520454D01*
X69901536Y-22448766D01*
X69747333Y-22345731D01*
X69745775Y-22344690D01*
X69613312Y-22212227D01*
X69509237Y-22056467D01*
X69509236Y-22056466D01*
X69437548Y-21883395D01*
X69401002Y-21699667D01*
X69401002Y-21512333D01*
X69437548Y-21328605D01*
X69509236Y-21155534D01*
X69572038Y-21061544D01*
X69613312Y-20999773D01*
X69745775Y-20867310D01*
X69824184Y-20814919D01*
X69901536Y-20763234D01*
X70074607Y-20691546D01*
X70258335Y-20655000D01*
X70445669Y-20655000D01*
X70629397Y-20691546D01*
G37*
G36*
X109335258Y-17965298D02*
G01*
X109441581Y-17986447D01*
X109742044Y-18110903D01*
X110012453Y-18291585D01*
X110242417Y-18521549D01*
X110392154Y-18745646D01*
X110423100Y-18791960D01*
X110547555Y-19092422D01*
X110600051Y-19356333D01*
X110611002Y-19411391D01*
X110611002Y-19736609D01*
X110547555Y-20055579D01*
X110423099Y-20356042D01*
X110242417Y-20626451D01*
X110012453Y-20856415D01*
X109742044Y-21037097D01*
X109441581Y-21161553D01*
X109335258Y-21182702D01*
X109122613Y-21225000D01*
X108797391Y-21225000D01*
X108584746Y-21182702D01*
X108478423Y-21161553D01*
X108177960Y-21037097D01*
X107907551Y-20856415D01*
X107677587Y-20626451D01*
X107496905Y-20356042D01*
X107372449Y-20055579D01*
X107309002Y-19736609D01*
X107309002Y-19411391D01*
X107319954Y-19356333D01*
X107372449Y-19092422D01*
X107496904Y-18791960D01*
X107527850Y-18745646D01*
X107677587Y-18521549D01*
X107907551Y-18291585D01*
X108177960Y-18110903D01*
X108478423Y-17986447D01*
X108584746Y-17965298D01*
X108797391Y-17923000D01*
X109122613Y-17923000D01*
X109335258Y-17965298D01*
G37*
G36*
X59567256Y-17965298D02*
G01*
X59673579Y-17986447D01*
X59974042Y-18110903D01*
X60244451Y-18291585D01*
X60474415Y-18521549D01*
X60624152Y-18745646D01*
X60655098Y-18791960D01*
X60779553Y-19092422D01*
X60832049Y-19356333D01*
X60843000Y-19411391D01*
X60843000Y-19736609D01*
X60779553Y-20055579D01*
X60655097Y-20356042D01*
X60474415Y-20626451D01*
X60244451Y-20856415D01*
X59974042Y-21037097D01*
X59673579Y-21161553D01*
X59567256Y-21182702D01*
X59354611Y-21225000D01*
X59029389Y-21225000D01*
X58816744Y-21182702D01*
X58710421Y-21161553D01*
X58409958Y-21037097D01*
X58139549Y-20856415D01*
X57909585Y-20626451D01*
X57728903Y-20356042D01*
X57604447Y-20055579D01*
X57541000Y-19736609D01*
X57541000Y-19411391D01*
X57551952Y-19356333D01*
X57604447Y-19092422D01*
X57728902Y-18791960D01*
X57759848Y-18745646D01*
X57909585Y-18521549D01*
X58139549Y-18291585D01*
X58409958Y-18110903D01*
X58710421Y-17986447D01*
X58816744Y-17965298D01*
X59029389Y-17923000D01*
X59354611Y-17923000D01*
X59567256Y-17965298D01*
G37*
G36*
X35916395Y-18535546D02*
G01*
X36089466Y-18607234D01*
X36166818Y-18658919D01*
X36245227Y-18711310D01*
X36377690Y-18843773D01*
X36430081Y-18922182D01*
X36481766Y-18999534D01*
X36553454Y-19172605D01*
X36590000Y-19356333D01*
X36590000Y-19543667D01*
X36553454Y-19727395D01*
X36481766Y-19900466D01*
X36481765Y-19900467D01*
X36377690Y-20056227D01*
X36245227Y-20188690D01*
X36196871Y-20221000D01*
X36089466Y-20292766D01*
X35916395Y-20364454D01*
X35732667Y-20401000D01*
X35545333Y-20401000D01*
X35361605Y-20364454D01*
X35188534Y-20292766D01*
X35081129Y-20221000D01*
X35032773Y-20188690D01*
X34900310Y-20056227D01*
X34796235Y-19900467D01*
X34796234Y-19900466D01*
X34724546Y-19727395D01*
X34688000Y-19543667D01*
X34688000Y-19356333D01*
X34724546Y-19172605D01*
X34796234Y-18999534D01*
X34847919Y-18922182D01*
X34900310Y-18843773D01*
X35032773Y-18711310D01*
X35111182Y-18658919D01*
X35188534Y-18607234D01*
X35361605Y-18535546D01*
X35545333Y-18499000D01*
X35732667Y-18499000D01*
X35916395Y-18535546D01*
G37*
G36*
X41366395Y-18535546D02*
G01*
X41539466Y-18607234D01*
X41616818Y-18658919D01*
X41695227Y-18711310D01*
X41827690Y-18843773D01*
X41880081Y-18922182D01*
X41931766Y-18999534D01*
X42003454Y-19172605D01*
X42040000Y-19356333D01*
X42040000Y-19543667D01*
X42003454Y-19727395D01*
X41931766Y-19900466D01*
X41931765Y-19900467D01*
X41827690Y-20056227D01*
X41695227Y-20188690D01*
X41646871Y-20221000D01*
X41539466Y-20292766D01*
X41366395Y-20364454D01*
X41182667Y-20401000D01*
X40995333Y-20401000D01*
X40811605Y-20364454D01*
X40638534Y-20292766D01*
X40531129Y-20221000D01*
X40482773Y-20188690D01*
X40350310Y-20056227D01*
X40246235Y-19900467D01*
X40246234Y-19900466D01*
X40174546Y-19727395D01*
X40138000Y-19543667D01*
X40138000Y-19356333D01*
X40174546Y-19172605D01*
X40246234Y-18999534D01*
X40297919Y-18922182D01*
X40350310Y-18843773D01*
X40482773Y-18711310D01*
X40561182Y-18658919D01*
X40638534Y-18607234D01*
X40811605Y-18535546D01*
X40995333Y-18499000D01*
X41182667Y-18499000D01*
X41366395Y-18535546D01*
G37*
G36*
X91134397Y-18535546D02*
G01*
X91307468Y-18607234D01*
X91384820Y-18658919D01*
X91463229Y-18711310D01*
X91595692Y-18843773D01*
X91648083Y-18922182D01*
X91699768Y-18999534D01*
X91771456Y-19172605D01*
X91808002Y-19356333D01*
X91808002Y-19543667D01*
X91771456Y-19727395D01*
X91699768Y-19900466D01*
X91699767Y-19900467D01*
X91595692Y-20056227D01*
X91463229Y-20188690D01*
X91414873Y-20221000D01*
X91307468Y-20292766D01*
X91134397Y-20364454D01*
X90950669Y-20401000D01*
X90763335Y-20401000D01*
X90579607Y-20364454D01*
X90406536Y-20292766D01*
X90299131Y-20221000D01*
X90250775Y-20188690D01*
X90118312Y-20056227D01*
X90014237Y-19900467D01*
X90014236Y-19900466D01*
X89942548Y-19727395D01*
X89906002Y-19543667D01*
X89906002Y-19356333D01*
X89942548Y-19172605D01*
X90014236Y-18999534D01*
X90065921Y-18922182D01*
X90118312Y-18843773D01*
X90250775Y-18711310D01*
X90329184Y-18658919D01*
X90406536Y-18607234D01*
X90579607Y-18535546D01*
X90763335Y-18499000D01*
X90950669Y-18499000D01*
X91134397Y-18535546D01*
G37*
G36*
X85684397Y-18535546D02*
G01*
X85857468Y-18607234D01*
X85934820Y-18658919D01*
X86013229Y-18711310D01*
X86145692Y-18843773D01*
X86198083Y-18922182D01*
X86249768Y-18999534D01*
X86321456Y-19172605D01*
X86358002Y-19356333D01*
X86358002Y-19543667D01*
X86321456Y-19727395D01*
X86249768Y-19900466D01*
X86249767Y-19900467D01*
X86145692Y-20056227D01*
X86013229Y-20188690D01*
X85964873Y-20221000D01*
X85857468Y-20292766D01*
X85684397Y-20364454D01*
X85500669Y-20401000D01*
X85313335Y-20401000D01*
X85129607Y-20364454D01*
X84956536Y-20292766D01*
X84849131Y-20221000D01*
X84800775Y-20188690D01*
X84668312Y-20056227D01*
X84564237Y-19900467D01*
X84564236Y-19900466D01*
X84492548Y-19727395D01*
X84456002Y-19543667D01*
X84456002Y-19356333D01*
X84492548Y-19172605D01*
X84564236Y-18999534D01*
X84615921Y-18922182D01*
X84668312Y-18843773D01*
X84800775Y-18711310D01*
X84879184Y-18658919D01*
X84956536Y-18607234D01*
X85129607Y-18535546D01*
X85313335Y-18499000D01*
X85500669Y-18499000D01*
X85684397Y-18535546D01*
G37*
G36*
X30375000Y-20221000D02*
G01*
X26773000Y-20221000D01*
X26773000Y-18419000D01*
X30375000Y-18419000D01*
X30375000Y-20221000D01*
G37*
G36*
X49955000Y-20221000D02*
G01*
X46353000Y-20221000D01*
X46353000Y-18419000D01*
X49955000Y-18419000D01*
X49955000Y-20221000D01*
G37*
G36*
X80143002Y-20221000D02*
G01*
X76541002Y-20221000D01*
X76541002Y-18419000D01*
X80143002Y-18419000D01*
X80143002Y-20221000D01*
G37*
G36*
X99723002Y-20221000D02*
G01*
X96121002Y-20221000D01*
X96121002Y-18419000D01*
X99723002Y-18419000D01*
X99723002Y-20221000D01*
G37*
M02*
